<svg xmlns="http://www.w3.org/2000/svg" viewBox="0 0 106.61011 17.35669"><g id="图层_2" data-name="图层 2"><g id="Layer_1" data-name="Layer 1"><path d="M27.94261,6.66332h3.4652l1.01468,2.23912h1.01508L30.18378,1.90922l-.01228-.02681H29.209l-3.26545,7.02h.995l1.004-2.23912Zm1.72769-3.862h0l1.38469,3.077H28.29544Z" style="fill:#fff;fill-rule:evenodd"/><path d="M41.94748,8.25983l-.31619-.75763-.04645.03131a4.11389,4.11389,0,0,1-2.324.63463,3.47965,3.47965,0,0,1-2.285-.70257,2.55055,2.55055,0,0,1-.84236-2.07335,2.47755,2.47755,0,0,1,.89168-2.05247,3.59223,3.59223,0,0,1,2.296-.713,3.68591,3.68591,0,0,1,2.23175.63361l.044.033.38352-.7785-.03295-.02252c-.16085-.10683-.2814-.18459-.35855-.23166a4.37543,4.37543,0,0,0-.4572-.21919,3.16671,3.16671,0,0,0-.79017-.21407,7.07821,7.07821,0,0,0-1.0204-.06549,5.26615,5.26615,0,0,0-2.0361.37984,3.407,3.407,0,0,0-1.50093,1.22117,3.47525,3.47525,0,0,0-.58592,2.02935,3.32453,3.32453,0,0,0,1.11167,2.73172,4.55761,4.55761,0,0,0,2.95091.89925A4.37008,4.37008,0,0,0,41.919,8.28111Z" style="fill:#fff;fill-rule:evenodd"/><polygon points="45.283 5.78 49.269 5.78 49.269 4.935 45.283 4.935 45.283 2.727 49.65 2.727 49.65 1.882 44.357 1.882 44.357 8.902 49.761 8.902 49.761 8.058 45.283 8.058 45.283 5.78" style="fill:#fff;fill-rule:evenodd"/><path d="M58.09631,3.30618a3.5246,3.5246,0,0,1,1.0511-.50529,4.38957,4.38957,0,0,1,1.25187-.17416,4.08386,4.08386,0,0,1,2.324.63463l.04462.03029.37063-.78669-.03193-.0221a4.73234,4.73234,0,0,0-2.727-.721,5.55635,5.55635,0,0,0-1.59487.22267,4.35531,4.35531,0,0,0-1.33884.6596,3.0789,3.0789,0,0,0-.94325,1.15158,3.677,3.677,0,0,0-.34587,1.61677,3.96271,3.96271,0,0,0,.32029,1.64071,2.8208,2.8208,0,0,0,.89863,1.13235,4.0483,4.0483,0,0,0,1.30938.62992,6.031,6.031,0,0,0,1.63416.20773,4.69121,4.69121,0,0,0,2.77817-.67188l.01863-.01392V5.14561H60.52412v.83478h1.6667V7.90066a5.64174,5.64174,0,0,1-1.84148.26748,3.75813,3.75813,0,0,1-2.37153-.69787,2.46563,2.46563,0,0,1-.88574-2.05779A2.73775,2.73775,0,0,1,57.36344,4.178,2.32874,2.32874,0,0,1,58.09631,3.30618Z" style="fill:#fff;fill-rule:evenodd"/><polygon points="66.853 1.882 65.927 1.882 65.927 8.902 71.341 8.902 71.341 8.058 66.853 8.058 66.853 1.882" style="fill:#fff;fill-rule:evenodd"/><path d="M77.05973,1.76186a4.13035,4.13035,0,0,0-2.86228.97109A3.41239,3.41239,0,0,0,73.1179,5.39222,3.41282,3.41282,0,0,0,74.19745,8.0521a4.71078,4.71078,0,0,0,5.72928,0A3.40473,3.40473,0,0,0,81.0116,5.39222a3.40566,3.40566,0,0,0-1.08487-2.65989,4.15178,4.15178,0,0,0-2.867-.97047Zm2.183,5.65971h0a3.5656,3.5656,0,0,1-4.3665,0A2.61031,2.61031,0,0,1,74.053,5.39222a2.59515,2.59515,0,0,1,.82332-2.024,3.58595,3.58595,0,0,1,4.36711,0,2.59542,2.59542,0,0,1,.82271,2.024A2.60892,2.60892,0,0,1,79.24278,7.42157Z" style="fill:#fff;fill-rule:evenodd"/><path d="M88.10019,5.33819a2.36219,2.36219,0,0,0,.99073-.51921,1.46753,1.46753,0,0,0,.467-1.1434c0-1.18985-.98152-1.79317-2.91734-1.79317H83.53171v7.02h3.139a4.20114,4.20114,0,0,0,2.28393-.50468,1.59908,1.59908,0,0,0,.7738-1.3986,1.40724,1.40724,0,0,0-.52371-1.15568,2.62742,2.62742,0,0,0-1.10452-.50529ZM84.457,2.72722H86.56a3.62059,3.62059,0,0,1,1.58995.26093.81923.81923,0,0,1,.48278.77748.95514.95514,0,0,1-.51511.85975A3.06008,3.06008,0,0,1,86.56,4.94485H84.457V2.72722Zm2.2033,5.33061H84.457V5.75937h2.11284c1.4688,0,2.21374.40378,2.21374,1.19906C88.78353,7.68782,88.06868,8.05783,86.66025,8.05783Z" style="fill:#fff;fill-rule:evenodd"/><path d="M99.014,8.90244,95.76059,1.90922l-.01269-.02681h-.96248L91.52,8.90244h.99482L93.519,6.66332h3.46561l1.014,2.23912ZM93.87164,5.87827h0l1.37506-3.077,1.38469,3.077Z" style="fill:#fff;fill-rule:evenodd"/><polygon points="102.122 1.882 101.196 1.882 101.196 8.902 106.61 8.902 106.61 8.058 102.122 8.058 102.122 1.882" style="fill:#fff;fill-rule:evenodd"/><path d="M28.9225,13.76113a1.206,1.206,0,0,0,.511-.28386.78085.78085,0,0,0,.23392-.59042c0-.63873-.53026-.9631-1.57686-.9631H26.39031V15.6552h1.705a2.291,2.291,0,0,0,1.24429-.271.85832.85832,0,0,0,.41361-.75067.75175.75175,0,0,0-.2593-.597,1.29875,1.29875,0,0,0-.57139-.27546Zm-1.89878-1.284h1.0026a1.85347,1.85347,0,0,1,.77727.12013.38078.38078,0,0,1,.23024.36428c0,.36449-.3387.54889-1.00751.54889h-1.0026v-1.0333Zm1.05069,2.62509H27.02372V14.02615h1.013c.71179,0,1.072.19033,1.072.56444C29.10873,14.92991,28.76061,15.10222,28.07441,15.10222Z" style="fill:#fff;fill-rule:evenodd"/><path d="M32.85349,14.81694a1.06311,1.06311,0,0,1-.78894.33808.75976.75976,0,0,1-.55809-.17989.85319.85319,0,0,1-.17764-.60843V12.99245h-.62829v1.5128a1.21444,1.21444,0,0,0,.31455.91378,1.19222,1.19222,0,0,0,.8573.30043,1.36061,1.36061,0,0,0,1.00771-.36654v.30228h.60168V12.99245h-.62828Z" style="fill:#fff;fill-rule:evenodd"/><path d="M35.77615,14.04989l-.26175-.04748a1.08691,1.08691,0,0,1-.36552-.12238.19315.19315,0,0,1-.0968-.16536c0-.16884.19033-.25479.56505-.25479a1.62138,1.62138,0,0,1,.81616.23207l.02272.01331.19892-.49649-.01678-.01044a1.95117,1.95117,0,0,0-1.03207-.27035,1.45049,1.45049,0,0,0-.83294.2153.68112.68112,0,0,0-.3168.58756.64809.64809,0,0,0,.22675.52207,1.60772,1.60772,0,0,0,.67822.29061l.2505.05341a1.36014,1.36014,0,0,1,.39335.13589.21167.21167,0,0,1,.10682.1891c0,.17273-.19892.26032-.59165.26032a1.34823,1.34823,0,0,1-.88247-.29408l-.02435-.01965-.20527.52678.01494.01044a1.90333,1.90333,0,0,0,1.10288.31373,1.52268,1.52268,0,0,0,.88411-.22328.71862.71862,0,0,0,.319-.61723.65969.65969,0,0,0-.24886-.55175A1.64683,1.64683,0,0,0,35.77615,14.04989Z" style="fill:#fff;fill-rule:evenodd"/><rect x="37.68823" y="12.00376" width="0.65428" height="0.61724" style="fill:#fff"/><rect x="37.70378" y="12.99245" width="0.62317" height="2.66275" style="fill:#fff"/><path d="M41.04946,12.928a1.38588,1.38588,0,0,0-1.00771.36776v-.30329h-.60169V15.6552h.62768V13.83644a1.06639,1.06639,0,0,1,.78894-.34464.75867.75867,0,0,1,.55072.18337.82184.82184,0,0,1,.185.60046V15.6552h.62829V14.13687A1.07979,1.07979,0,0,0,41.04946,12.928Z" style="fill:#fff;fill-rule:evenodd"/><path d="M44.55334,12.928a1.461,1.461,0,0,0-1.01406.369,1.30224,1.30224,0,0,0-.40849,1.01058,1.36675,1.36675,0,0,0,.39232,1.04763,1.583,1.583,0,0,0,1.116.36428,1.8723,1.8723,0,0,0,1.20562-.37881l.01391-.01147-.21181-.46476-.02313.018a1.4743,1.4743,0,0,1-.93629.27853c-.561,0-.86569-.20547-.92995-.62726h2.12267v-.27445a1.37437,1.37437,0,0,0-.33256-.97967,1.31081,1.31081,0,0,0-.99421-.3516Zm-.78955,1.12723h0a.66838.66838,0,0,1,.25868-.42056.86952.86952,0,0,1,.5366-.16434.77212.77212,0,0,1,.529.1625.59673.59673,0,0,1,.1891.4224Z" style="fill:#fff;fill-rule:evenodd"/><path d="M48.03512,14.04989l-.26155-.04748a1.08684,1.08684,0,0,1-.36551-.12238.19247.19247,0,0,1-.09619-.16536c0-.16884.18971-.25479.56443-.25479a1.62138,1.62138,0,0,1,.81616.23207l.02313.01331.19851-.49649-.01616-.01044a1.95543,1.95543,0,0,0-1.03269-.27035,1.45092,1.45092,0,0,0-.83253.2153.68058.68058,0,0,0-.31721.58756.64855.64855,0,0,0,.22737.52207,1.60116,1.60116,0,0,0,.67761.29061l.25049.05341a1.35533,1.35533,0,0,1,.39335.13589.21166.21166,0,0,1,.10683.1891c0,.17273-.19852.26032-.59125.26032a1.34933,1.34933,0,0,1-.88287-.29408l-.02436-.01965-.20486.52678.01515.01044a1.9,1.9,0,0,0,1.10226.31373,1.52177,1.52177,0,0,0,.88411-.22328A.71964.71964,0,0,0,48.989,14.879a.66013.66013,0,0,0-.24948-.55175A1.64451,1.64451,0,0,0,48.03512,14.04989Z" style="fill:#fff;fill-rule:evenodd"/><path d="M51.144,14.04989l-.26155-.04748A1.08348,1.08348,0,0,1,50.517,13.88a.19271.19271,0,0,1-.09639-.16536c0-.16884.18971-.25479.56464-.25479a1.6214,1.6214,0,0,1,.81616.23207l.02313.01331.19851-.49649-.01637-.01044a1.954,1.954,0,0,0-1.03187-.27035,1.45162,1.45162,0,0,0-.83314.2153.68078.68078,0,0,0-.31742.58756.6487.6487,0,0,0,.22757.52207,1.599,1.599,0,0,0,.67741.29061l.2507.05341a1.35753,1.35753,0,0,1,.39334.13589.21206.21206,0,0,1,.10683.1891c0,.17273-.19912.26032-.59124.26032a1.349,1.349,0,0,1-.88288-.29408l-.02435-.01965-.20486.52678.01514.01044a1.9,1.9,0,0,0,1.10227.31373,1.52174,1.52174,0,0,0,.8841-.22328.71944.71944,0,0,0,.31947-.61723.66052.66052,0,0,0-.24927-.55175A1.6445,1.6445,0,0,0,51.144,14.04989Z" style="fill:#fff;fill-rule:evenodd"/><path d="M57.07877,11.92375h-.67065L54.69905,15.6552h.68109l.47562-1.09469h1.748l.48032,1.08118.00573.01351h.69746L57.0845,11.93705l-.00573-.0133ZM56.0733,14.06033h0l.6596-1.51812.659,1.51812Z" style="fill:#fff;fill-rule:evenodd"/><path d="M61.01078,13.48669a1.20581,1.20581,0,0,1,.72345.20936l.02252.01617.22859-.50223-.01678-.011a1.81518,1.81518,0,0,0-1.01631-.271,2.03845,2.03845,0,0,0-.57856.08125,1.67374,1.67374,0,0,0-.50344.24354,1.15151,1.15151,0,0,0-.3649.44164,1.42528,1.42528,0,0,0-.1363.63463,1.26182,1.26182,0,0,0,.43632,1.04067,1.74484,1.74484,0,0,0,1.12539.34975,1.76439,1.76439,0,0,0,1.01693-.26564l.01514-.01044-.18173-.503-.02435.01576a1.37461,1.37461,0,0,1-.76214.20486,1.151,1.151,0,0,1-.71772-.20895.85177.85177,0,0,1,.01331-1.25371A1.18076,1.18076,0,0,1,61.01078,13.48669Z" style="fill:#fff;fill-rule:evenodd"/><path d="M64.98864,13.29288c-.04523-.04994-.08637-.0923-.12116-.12586a.97377.97377,0,0,0-.29081-.15206,1.41075,1.41075,0,0,0-.51041-.087,1.42583,1.42583,0,0,0-.98786.369,1.31723,1.31723,0,0,0-.40788,1.02163,1.40724,1.40724,0,0,0,.36715,1.028,1.29758,1.29758,0,0,0,.96413.37288,1.27,1.27,0,0,0,.96023-.3387V16.7237h.62829V12.99245h-.60168v.30043Zm-.02661,1.514h0a.985.985,0,0,1-.79937.354.88853.88853,0,0,1-.6156-.21591.798.798,0,0,1-.23781-.62133.77891.77891,0,0,1,.25111-.61846.92374.92374,0,0,1,.62358-.21857.98457.98457,0,0,1,.77809.34914Z" style="fill:#fff;fill-rule:evenodd"/><path d="M68.81853,14.81694a1.06376,1.06376,0,0,1-.78894.33808.75913.75913,0,0,1-.55809-.17989.8542.8542,0,0,1-.17744-.60843V12.99245h-.62828v1.5128a1.21281,1.21281,0,0,0,.31434.91378,1.19254,1.19254,0,0,0,.85689.30043,1.36147,1.36147,0,0,0,1.00833-.36654v.30228h.60148V12.99245h-.62829Z" style="fill:#fff;fill-rule:evenodd"/><rect x="70.54397" y="12.00376" width="0.65489" height="0.61724" style="fill:#fff"/><rect x="70.56013" y="12.99245" width="0.62256" height="2.66275" style="fill:#fff"/><path d="M73.51411,14.04989l-.26114-.04748a1.08368,1.08368,0,0,1-.36531-.12238.19291.19291,0,0,1-.097-.16536c0-.16884.19032-.25479.56443-.25479a1.62428,1.62428,0,0,1,.817.23207l.02251.01331.19892-.49649-.01678-.01044a1.95266,1.95266,0,0,0-1.03207-.27035,1.45142,1.45142,0,0,0-.83294.2153.68217.68217,0,0,0-.31742.58756.64855.64855,0,0,0,.22737.52207,1.60475,1.60475,0,0,0,.67761.29061l.25132.05341a1.36466,1.36466,0,0,1,.39334.13589.21187.21187,0,0,1,.10663.1891c0,.17273-.19893.26032-.591.26032a1.34872,1.34872,0,0,1-.88308-.29408l-.02436-.01965-.20527.52678.01494.01044a1.90379,1.90379,0,0,0,1.10288.31373,1.51875,1.51875,0,0,0,.88349-.22328.71772.71772,0,0,0,.31967-.61723.65969.65969,0,0,0-.24886-.55175A1.6464,1.6464,0,0,0,73.51411,14.04989Z" style="fill:#fff;fill-rule:evenodd"/><rect x="75.44236" y="12.99245" width="0.62256" height="2.66275" style="fill:#fff"/><rect x="75.42619" y="12.00376" width="0.65489" height="0.61724" style="fill:#fff"/><path d="M77.988,12.40468h-.62255v.58777h-.41136v.53189h.41136v1.06625a1.16847,1.16847,0,0,0,.26114.86609,1.04439,1.04439,0,0,0,.74494.24661,1.17479,1.17479,0,0,0,.47909-.08186l.01392-.00634v-.53783l-.03357.01637a.749.749,0,0,1-.32622.05669.51649.51649,0,0,1-.39968-.1316.73319.73319,0,0,1-.11707-.47622V13.52434h.87654v-.53189H77.988Z" style="fill:#fff;fill-rule:evenodd"/><rect x="79.8066" y="12.99245" width="0.62256" height="2.66275" style="fill:#fff"/><rect x="79.79043" y="12.00376" width="0.65489" height="0.61724" style="fill:#fff"/><path d="M82.901,12.928a1.64711,1.64711,0,0,0-1.08528.36306,1.43509,1.43509,0,0,0,0,2.06536,1.79628,1.79628,0,0,0,2.16565,0,1.43509,1.43509,0,0,0,0-2.06536A1.64018,1.64018,0,0,0,82.901,12.928Zm.63934,2.0142h0a.92185.92185,0,0,1-.63934.21878.93132.93132,0,0,1-.64159-.21878.90874.90874,0,0,1,0-1.23692.93217.93217,0,0,1,.64159-.21857.92269.92269,0,0,1,.63934.21857.9161.9161,0,0,1,0,1.23692Z" style="fill:#fff;fill-rule:evenodd"/><path d="M86.93919,12.928a1.38539,1.38539,0,0,0-1.00751.36776v-.30329H85.33V15.6552h.62829V13.83644a1.06474,1.06474,0,0,1,.78832-.34464.7578.7578,0,0,1,.55052.18337.82184.82184,0,0,1,.18521.60046V15.6552h.62829V14.13687A1.07981,1.07981,0,0,0,86.93919,12.928Z" style="fill:#fff;fill-rule:evenodd"/><rect x="91.28604" y="11.92375" width="0.63872" height="3.73145" style="fill:#fff"/><rect x="93.20344" y="11.92375" width="0.63872" height="3.73145" style="fill:#fff"/><polygon points="97.705 11.924 97.071 11.924 97.071 15.655 99.996 15.655 99.996 15.091 97.705 15.091 97.705 11.924" style="fill:#fff;fill-rule:evenodd"/><path d="M101.57685,12.40468h-.62235v.58777h-.41135v.53189h.41135v1.06625a1.16938,1.16938,0,0,0,.26093.86609,1.04543,1.04543,0,0,0,.74494.24661,1.17614,1.17614,0,0,0,.4791-.08186l.0133-.00634v-.53783l-.03295.01637a.748.748,0,0,1-.326.05669.51621.51621,0,0,1-.39969-.1316.73185.73185,0,0,1-.11727-.47622V13.52434h.87592v-.53189h-.87592Z" style="fill:#fff;fill-rule:evenodd"/><path d="M105.48922,13.27016a1.28324,1.28324,0,0,0-.91132-.34218,1.392,1.392,0,0,0-.98275.36961,1.33284,1.33284,0,0,0-.39744,1.021,1.38394,1.38394,0,0,0,.376,1.03658,1.34874,1.34874,0,0,0,.97743.36428,1.28178,1.28178,0,0,0,.96535-.36551v.30125h.60107V11.81712h-.62829v1.453Zm0,1.5478h0a.96075.96075,0,0,1-.79938.343.8812.8812,0,0,1-.6201-.21591.92928.92928,0,0,1,.00512-1.23734.88228.88228,0,0,1,.6201-.221.99867.99867,0,0,1,.79426.35384Z" style="fill:#fff;fill-rule:evenodd"/><path d="M11.75552.01392V11.61861a5.747,5.747,0,0,0,5.60526,5.73808V5.741A5.74029,5.74029,0,0,0,11.75552.01392Z" style="fill:#fff;fill-rule:evenodd"/><path d="M.01392,5.60506H11.48415V0H5.74381A5.74112,5.74112,0,0,0,.01392,5.60506Z" style="fill:#fff;fill-rule:evenodd"/><path d="M0,11.61861a5.74083,5.74083,0,0,0,5.60813,5.727V5.87663H0Z" style="fill:#fff;fill-rule:evenodd"/><path d="M5.8795,17.34564a5.73906,5.73906,0,0,0,5.60219-5.59135H5.8795Z" style="fill:#fff;fill-rule:evenodd"/></g></g></svg>