<svg xmlns="http://www.w3.org/2000/svg" viewBox="0 0 96.48876 28.6653"><g id="图层_2" data-name="图层 2"><g id="Layer_1" data-name="Layer 1"><path d="M21.74975,27.46279l-4.696-3.36291a9.14166,9.14166,0,0,0,1.30607-.19927,10.25068,10.25068,0,0,0,6.46883-.72916,11.15663,11.15663,0,0,0,5.6848-6.37311,12.12853,12.12853,0,0,0-.09287-8.46414,10.99866,10.99866,0,0,0-5.648-6.17052,10.94151,10.94151,0,0,1,5.5404,6.21018,11.75062,11.75062,0,0,1-.16768,8.28507,10.70765,10.70765,0,0,1-5.59479,5.89785,9.46755,9.46755,0,0,1-4.57017.80254,6.53142,6.53142,0,0,0,3.54009-3.38594c.233-.2235.45982-.45293.6712-.69614A12.01782,12.01782,0,0,0,23.89732,3.3643a10.45615,10.45615,0,0,0-2.62164-2.06967,9.62162,9.62162,0,0,1,3.49686.869,9.65458,9.65458,0,0,0-3.60588-.92486A9.85217,9.85217,0,0,0,16.27538.00187a9.79943,9.79943,0,0,1,4.725,1.226,9.84617,9.84617,0,0,0-4.54191.84981c-.06531.02827-.12588.06532-.19119.09477-.07672-.0342-.1494-.07671-.22683-.109a9.83778,9.83778,0,0,0-4.4678-.78829A9.7969,9.7969,0,0,1,16.27538.00187,9.85149,9.85149,0,0,0,11.40452,1.288a9.66437,9.66437,0,0,0-3.67618.98543,9.63554,9.63554,0,0,1,3.56432-.927A10.44607,10.44607,0,0,0,8.69121,3.44624,12.01281,12.01281,0,0,0,8.56865,19.362c.19595.22088.408.42752.622.63154A6.48688,6.48688,0,0,0,12.784,23.39685a9.45171,9.45171,0,0,1-4.53858-.73652A10.70991,10.70991,0,0,1,2.56582,16.8449a11.762,11.762,0,0,1-.28667-8.281A10.95193,10.95193,0,0,1,7.72834,2.27341a11.00724,11.00724,0,0,0-5.55774,6.252A12.1237,12.1237,0,0,0,2.19626,16.991a11.14245,11.14245,0,0,0,5.77862,6.29021,10.24462,10.24462,0,0,0,6.43628.63962,9.21534,9.21534,0,0,0,1.31819.18716l-4.66019,3.41349c-.95954.0247-1.91813.0551-2.877.09952-2.73065.11377-5.462.24772-8.1922.51635,2.73279.23964,5.46558.34415,8.19766.42823,2.73208.09761,5.46416.099,8.19553.09975,2.73136-.02826,5.46344-.06009,8.19433-.18668,2.73137-.11377,5.462-.247,8.1922-.51825-2.73279-.24179-5.46487-.34534-8.19766-.43037-.94387-.033-1.88773-.05249-2.83231-.06721ZM16.50624,2.18268h0a9.76939,9.76939,0,0,1,4.60461-.89683,10.37683,10.37683,0,0,1,2.70168,2.15588,11.62027,11.62027,0,0,1-.12446,15.3859,10.01578,10.01578,0,0,1-5.12024,3.06056A11.56677,11.56677,0,0,0,22.221,16.65441a12.15913,12.15913,0,0,0-.29214-8.558,11.13844,11.13844,0,0,0-5.52614-5.85866c.03491-.01687.06792-.03895.10355-.05511ZM9.06885,18.90577h0A11.62217,11.62217,0,0,1,8.77671,3.52319a10.36631,10.36631,0,0,1,2.68363-2.18747,9.75925,9.75925,0,0,1,4.5343.83271c.04727.0209.091.04917.13871.07149a11.13833,11.13833,0,0,0-5.477,5.95557A12.14764,12.14764,0,0,0,10.4875,16.758a11.55217,11.55217,0,0,0,3.67737,5.13687,10.01061,10.01061,0,0,1-5.096-2.98907Zm7.29132.1817h0a1.67013,1.67013,0,0,0-1.60034,1.73216,1.75707,1.75707,0,0,0,.15771.69092,10.81532,10.81532,0,0,1-3.79447-4.98748,11.739,11.739,0,0,1-.095-8.187,10.78914,10.78914,0,0,1,5.24066-6.02682,10.78171,10.78171,0,0,1,5.29386,5.93134,11.72069,11.72069,0,0,1,.02138,8.18887,10.81158,10.81158,0,0,1-3.75409,5.06419,1.75965,1.75965,0,0,0,.14964-.69139A1.67019,1.67019,0,0,0,16.36017,19.08747Z" style="fill:#fff;fill-rule:evenodd"/><path d="M39.187,14.028l6.71845-.03658,1.46306,3.2546,1.49869-.00807L43.1753,4.83662,41.87066,4.844,36.31292,17.3059l1.42791-.00807L39.187,14.028ZM42.5136,6.46262h0l2.83777,6.262-5.625.03088Z" style="fill:#fff;fill-rule:evenodd"/><polygon points="58.913 6.127 58.906 4.84 49.208 4.892 49.215 6.18 53.359 6.158 53.419 17.213 54.829 17.206 54.77 6.15 58.913 6.127" style="fill:#fff;fill-rule:evenodd"/><polygon points="70.365 17.122 70.359 15.834 63.411 15.872 63.352 4.816 61.959 4.824 62.025 17.167 70.365 17.122" style="fill:#fff;fill-rule:evenodd"/><path d="M79.18659,4.6421l-1.30488.00665L72.324,17.11067l1.42886-.00736,1.44549-3.27,6.71773-.03634,1.46354,3.25389,1.4994-.00808L79.18659,4.6421Zm-3.44913,7.91811h0l2.7879-6.29235,2.83777,6.262Z" style="fill:#fff;fill-rule:evenodd"/><path d="M91.78792,15.92977a5.8768,5.8768,0,0,1-4.24145-1.72266l-.85836,1.02723a7.21853,7.21853,0,0,0,5.05326,1.94782c2.45134-.01354,4.20654-1.39846,4.19514-3.51372v-.03563c-.01-1.88726-1.28517-2.885-4.03886-3.47-2.71854-.56694-3.35744-1.216-3.36362-2.37938V7.7485c-.00593-1.11155,1.012-1.99818,2.61689-2.007a5.4158,5.4158,0,0,1,3.56835,1.32079l.80587-1.07972a6.43372,6.43372,0,0,0-4.34572-1.49346C88.83425,4.502,87.13106,5.93867,87.141,7.87841l.00071.03563c.01069,2.02786,1.321,2.93824,4.16284,3.53938,2.59527.53249,3.21612,1.18161,3.22277,2.32807v.03491C94.53425,15.03317,93.44479,15.92122,91.78792,15.92977Z" style="fill:#fff;fill-rule:evenodd"/><path d="M37.2917,21.89222l.00214.37171.76-.004.00143.21875a.8255.8255,0,0,1-.80113.64555c-.48285.00285-.84838-.42538-.85242-1.0859-.00332-.64887.3508-1.08922.86573-1.09207a.72929.72929,0,0,1,.71181.45982l.42942-.06531a1.12166,1.12166,0,0,0-1.14313-.76146,1.30236,1.30236,0,0,0-1.27923,1.46187,1.29951,1.29951,0,0,0,1.21391,1.45475.98991.98991,0,0,0,.90278-.56147l.00285.49354.37027-.00213-.00807-1.53954Z" style="fill:#fff;fill-rule:evenodd"/><path d="M40.68311,22.07059v-.00332a.7709.7709,0,0,0,.44153-.67049c-.00261-.44106-.29024-.77357-.94315-.77025l-1.07925.00594.01544,2.79.4154-.0019-.00617-1.1581.68213-.00332a.44869.44869,0,0,1,.46647.46457,2.60785,2.60785,0,0,0,.12992.68949l.43773-.00214a2.91642,2.91642,0,0,1-.16365-.73794.63215.63215,0,0,0-.3964-.60257Zm-.52395-.1824h0l-.63415.00332-.00475-.88995.61539-.00332c.38239-.00214.57287.167.5743.43084C40.71137,21.68892,40.504,21.88629,40.15916,21.88819Z" style="fill:#fff;fill-rule:evenodd"/><path d="M42.84018,20.5491a1.29576,1.29576,0,0,0-1.2752,1.465,1.29561,1.29561,0,1,0,2.57058-.014,1.29816,1.29816,0,0,0-1.29538-1.451Zm.014,2.54564h0c-.57549.00261-.87048-.50424-.8738-1.08257-.00333-.58642.28667-1.09279.86169-1.09611.57572-.00285.87522.50352.87855,1.08661C43.72419,22.58837,43.44393,23.09141,42.85419,23.09474Z" style="fill:#fff;fill-rule:evenodd"/><path d="M47.29705,22.818h-.00736l-.69472-2.226-.48214.00214c-.105.39047-.546,1.84735-.65648,2.23378H45.4497l-.65434-2.22642-.45578.00262.88258,2.78528.47194-.00261.66312-2.27084h.00666l.69495,2.26347.47858-.00285.83818-2.79454-.4565.00261Z" style="fill:#fff;fill-rule:evenodd"/><polygon points="50.602 20.57 48.428 20.582 48.43 20.953 49.309 20.948 49.322 23.367 49.738 23.365 49.725 20.946 50.604 20.942 50.602 20.57" style="fill:#fff;fill-rule:evenodd"/><polygon points="52.819 20.559 52.826 21.727 51.356 21.735 51.349 20.566 50.934 20.569 50.949 23.359 51.365 23.356 51.358 22.102 52.827 22.094 52.835 23.348 53.249 23.346 53.234 20.556 52.819 20.559" style="fill:#fff;fill-rule:evenodd"/><path d="M55.94361,20.54174,54.84227,23.337l.4337-.0019.27456-.71372,1.24289-.00665.2786.71016.43773-.00191-1.11012-2.78409-.456.00285ZM55.69327,22.249h0l.47526-1.2265h.00736l.47479,1.222Z" style="fill:#fff;fill-rule:evenodd"/><path d="M58.9721,23.0071c-.505.00285-.841-.4261-.84435-1.0859-.004-.709.324-1.08946.833-1.09207a.73264.73264,0,0,1,.72156.45246l.41944-.06936a1.12416,1.12416,0,0,0-1.14314-.75005c-.89066.00475-1.251.68545-1.24693,1.46092.00475.79043.4128,1.45974,1.26237,1.455a1.13125,1.13125,0,0,0,1.14931-.7997l-.4154-.06128A.73585.73585,0,0,1,58.9721,23.0071Z" style="fill:#fff;fill-rule:evenodd"/><path d="M61.73577,20.44674a1.29628,1.29628,0,0,0-1.27591,1.465,1.30588,1.30588,0,0,0,1.29206,1.45166,1.27514,1.27514,0,0,0,.65173-.167l.32847.32444.2881-.28335-.32111-.2843a1.63593,1.63593,0,0,0,.332-1.05549,1.29827,1.29827,0,0,0-1.29538-1.451Zm.65838,2.23378h0l-.28-.25034-.251.2349.24963.24725a.81484.81484,0,0,1-.36339.08c-.575.00261-.87-.50423-.87333-1.08257-.00332-.58641.28691-1.09278.86169-1.0954.575-.00332.87522.50352.87879,1.0859A1.2954,1.2954,0,0,1,62.39415,22.68052Z" style="fill:#fff;fill-rule:evenodd"/><path d="M65.37062,20.49044l.0095,1.68062c.00262.49735-.22231.80231-.69685.80516-.49284.00261-.71039-.33061-.713-.7978L63.96147,20.498l-.41611.0019.0095,1.68846a1.12154,1.12154,0,1,0,2.24138-.01211l-.0095-1.68846Z" style="fill:#fff;fill-rule:evenodd"/><rect x="66.40177" y="20.48341" width="0.41577" height="2.79031" transform="translate(-0.12002 0.36884) rotate(-0.31698)" style="fill:#fff"/><path d="M68.4649,21.65c-.3831-.13538-.63961-.24178-.6408-.47549-.00071-.21471.22421-.39451.54248-.39641a.6242.6242,0,0,1,.61467.37551l.45246-.06579a1.03148,1.03148,0,0,0-1.04956-.67667c-.542.00261-1.02272.30568-1.01987.80326.0019.38168.3413.603.97617.81442.26459.09833.66574.252.66716.52324.00143.18526-.18312.39783-.55482.4a.71593.71593,0,0,1-.70683-.47882l-.46314.06936A1.147,1.147,0,0,0,68.444,23.327c.64579-.00332,1.02961-.36576,1.02747-.818C69.46957,22.13,69.10713,21.86871,68.4649,21.65Z" style="fill:#fff;fill-rule:evenodd"/><rect x="69.97107" y="20.46417" width="0.41565" height="2.79007" transform="translate(-0.11622 0.37668) rotate(-0.30728)" style="fill:#fff"/><polygon points="72.885 20.449 70.71 20.461 70.712 20.832 71.592 20.828 71.605 23.247 72.021 23.244 72.008 20.826 72.887 20.821 72.885 20.449" style="fill:#fff;fill-rule:evenodd"/><polygon points="73.217 20.448 73.232 23.238 73.648 23.235 73.632 20.445 73.217 20.448" style="fill:#fff;fill-rule:evenodd"/><path d="M75.41018,20.37263a1.2961,1.2961,0,0,0-1.27567,1.465,1.29578,1.29578,0,1,0,2.571-.0133,1.29952,1.29952,0,0,0-1.29538-1.45167Zm.01353,2.54493h0c-.575.00332-.87047-.50353-.87308-1.08186-.00357-.5857.286-1.09279.86168-1.0954.575-.00333.87523.50352.87784,1.0859C76.29348,22.41261,76.01345,22.91494,75.42371,22.91756Z" style="fill:#fff;fill-rule:evenodd"/><polygon points="79.105 20.416 79.117 22.542 79.112 22.542 77.625 20.424 77.19 20.427 77.206 23.217 77.621 23.214 77.61 21.081 77.618 21.084 79.103 23.206 79.536 23.204 79.521 20.414 79.105 20.416" style="fill:#fff;fill-rule:evenodd"/><polygon points="81.831 22.82 81.818 20.402 81.402 20.404 81.417 23.194 83.303 23.184 83.301 22.812 81.831 22.82" style="fill:#fff;fill-rule:evenodd"/><rect x="83.67517" y="20.39019" width="0.41577" height="2.78995" transform="translate(-0.11564 0.45022) rotate(-0.3073)" style="fill:#fff"/><polygon points="87.116 20.373 86.238 22.619 86.23 22.619 85.312 20.382 84.701 20.385 84.715 23.176 85.131 23.173 85.119 21.01 85.123 21.01 86.033 23.169 86.44 23.167 87.312 20.999 87.315 20.999 87.331 23.161 87.743 23.159 87.728 20.369 87.116 20.373" style="fill:#fff;fill-rule:evenodd"/><rect x="88.35459" y="20.36489" width="0.41577" height="2.79007" transform="translate(-0.11905 0.49037) rotate(-0.31703)" style="fill:#fff"/><polygon points="91.268 20.35 89.094 20.362 89.096 20.733 89.975 20.728 89.989 23.147 90.404 23.145 90.392 20.726 91.27 20.722 91.268 20.35" style="fill:#fff;fill-rule:evenodd"/><polygon points="92.029 22.765 92.024 21.882 93.505 21.874 93.503 21.507 92.022 21.515 92.018 20.717 93.654 20.709 93.651 20.337 91.6 20.348 91.615 23.138 93.689 23.127 93.687 22.756 92.029 22.765" style="fill:#fff;fill-rule:evenodd"/><path d="M95.20213,20.32893l-1.02082.00547.015,2.78979.98352-.00523a1.243,1.243,0,0,0,1.30892-1.40582,1.24307,1.24307,0,0,0-1.28659-1.38421Zm-.03919,2.419h0l-.55268.00333-.0114-2.048.54532-.00261a.90338.90338,0,0,1,.92558,1.01511C96.07379,22.3872,95.71159,22.74536,95.16294,22.748Z" style="fill:#fff;fill-rule:evenodd"/></g></g></svg>