<svg xmlns="http://www.w3.org/2000/svg" viewBox="0 0 100.95331 55.12324"><g id="图层_2" data-name="图层 2"><g id="Layer_1" data-name="Layer 1"><path d="M39.19475,32.17477c-.10641-.03776-.25865-.20687-.24654-.29285.14821-1.02747.32729-2.05018.48832-3.07552.03824-.24249.16008-.3071.37954-.30306.65648.01211,1.313.01093,1.96944.00879.16222,0,.32515-.02209.48737-.0342-.00143-.0304-.00262-.06057-.00475-.091-.75267-.0532-1.50606-.10094-2.25872-.16436a1.99266,1.99266,0,0,1-.42752-.14131,1.46253,1.46253,0,0,1-.36909.07481c-1.25358-.04655-2.50574-.10783-3.75931-.15367a.28352.28352,0,0,1-.31779-.2881,1.75925,1.75925,0,0,1,.31779-1.25358c.091-.134.23014-.299.21542-.433-.05178-.45174.20069-.64484.52038-.83009.5724-.33252.66646-.63558.429-1.2771a3.17127,3.17127,0,0,1-.06461-1.93974c.02494-.09619.10973-.2577.15343-.25319.33869.03777.2672-.21993.27409-.399a24.13915,24.13915,0,0,0-.32658-4.57825,5.89082,5.89082,0,0,0-1.44073-3.23964,3.91633,3.91633,0,0,0-1.47779-1.07259c.03159.0418.06389.0836.09548.12516a12.26774,12.26774,0,0,1,1.037,1.37685,8.11554,8.11554,0,0,1,.62275,5.92279,14.47734,14.47734,0,0,0-.45578,4.04147c.06721,1.18423-.70089,2.0547-1.33528,2.94537a.56528.56528,0,0,1-.19975.13823,1.17446,1.17446,0,0,0-.74341.91156c-1.26711,0-2.49837.004-3.72914-.00879-.09572-.00071-.18977-.12065-.2862-.18312a1.06849,1.06849,0,0,0-.22421-.12873c-.0209-.00665-.08408.07149-.10284.12066-.13348.342.01947.53582.476.71561.41136.16222.21542-.24368.33655-.35745a1.07847,1.07847,0,0,1,.13395-.00617c1.60438.1045,3.20948.21756,4.81528.309a.55679.55679,0,0,1,.53108.42158c.07814.204.15343.40875.23014.61325q.0677.00819.13538.01615a2.39165,2.39165,0,0,0,.22754-.6598c.01354-.28549.11852-.338.357-.3318.97806.02755,1.95637.03966,2.93467.06317.21281.00475.42491.03183.64365.04988-.15414.509-.295.98567-.443,1.46021a5.64691,5.64691,0,0,1-.26126.73866.63071.63071,0,0,1-1.05431.26316c-.138-.10094-.262-.2235-.39189-.33584-.0228.01211-.04655.02494-.07007.037.08954.27124.17837.54271.28.85171-2.21763-.66122-4.41437-1.31485-6.61062-1.96943l.01211-.12113a2.26943,2.26943,0,0,1,.884.10165c.53179.30972,1.05977.10023,1.59963.10783a2.63977,2.63977,0,0,0-.49283-.29166,2.17891,2.17891,0,0,1-.53107-.30639,1.07717,1.07717,0,0,0-1.83144.42562c-.16483-.03895-.33323-.07481-.49877-.12042-.21614-.05937-.47-.07956-.40472-.43559.00807-.04323-.08883-.14821-.142-.15153a.35789.35789,0,0,0-.24107.08954c-.047.04228-.05107.138-.07458.2121-.04442-.02019-.06532-.03848-.08479-.03706-.17647.01212-.35294.02756-.52941.04157.01567.099-.00262.23513.05272.289.1589.15533.33727.19856.49949-.02636a.19766.19766,0,0,1,.18169-.05249c.38786.13324.77167.28,1.16546.42609-.23014.313-.43416.59116-.6389.87l.05463.09761a6.412,6.412,0,0,0,.63938-.27.708.708,0,0,1,.8909-.01283.61892.61892,0,0,0,.59377.033.438.438,0,0,1,.46243-.047q2.2744.72891,4.55117,1.44952c.30782.09762.61895.185.92439.29071.32135.11187.24179.371.15961.5952-.09358.25438-.2558.1608-.41659.05392a2.95772,2.95772,0,0,0-.37646-.17433,2.5429,2.5429,0,0,1-.49426,3.26315c.03991-.40068.08218-.822.124-1.24361l-.11306-.018c-.02708.06057-.05795.11971-.08147.1817a3.21206,3.21206,0,0,1-1.53431,1.77135,7.824,7.824,0,0,0-1.25429.82155c-1.088.88449-2.13023,1.83239-3.2337,2.6955-1.41651,1.10822-2.8734,2.16063-4.31556,3.233A7.93186,7.93186,0,0,0,23.2723,47.269c-.17243.52394-.35816,1.0429-.53724,1.56471.03016.01544.06056.03112.09073.04727.82273-2.08178,1.79035-4.04694,3.8194-5.16205-2.27749,1.855-3.043,4.49678-3.53534,7.27945a6.90331,6.90331,0,0,0,.31327-.88876,10.993,10.993,0,0,1,4.65544-6.499c1.56733-1.02462,3.07077-2.15517,4.61791-3.21541,1.14313-.78308,2.306-1.535,3.4667-2.28984a4.699,4.699,0,0,0,2.0642-2.6917c.24226-.84554.41136-1.71482.58973-2.57912.05321-.256.12256-.34748.385-.27077,1.15192.33537,2.30717.65506,3.46266.9776.12778.03562.26245.04845.39379.072a.38654.38654,0,0,0-.22967-.185C41.61711,33.01223,40.4032,32.603,39.19475,32.17477Z" style="fill:#fff;fill-rule:evenodd"/><path d="M4.91182,33.92118a6.034,6.034,0,0,0,2.81212,4.42268c1.32293.79305,2.5644,1.7343,3.84244,2.6081,1.37471.94125,2.75227,1.87775,4.12484,2.82162a9.96685,9.96685,0,0,1,3.77451,4.51554c.3223.80112.59639,1.62386.89185,2.43638C19.8904,47.974,19.057,45.411,16.78543,43.62537c2.03712,1.10015,3.066,3.01638,3.90086,5.10077a.19581.19581,0,0,0,.04513-.14274,9.577,9.577,0,0,0-1.62006-3.54152,18.993,18.993,0,0,0-2.50311-2.29981c-1.50748-1.21842-3.07529-2.35491-4.58894-3.56692A24.33923,24.33923,0,0,0,8.4968,36.53142a3.15182,3.15182,0,0,1-1.46164-1.70081,1.47171,1.47171,0,0,0-.12231-.20663l-.11591.04037c.06128.42158.12184.84293.1912,1.31961a3.775,3.775,0,0,1-.8947-1.59631,1.80239,1.80239,0,0,1,.33726-1.72.84007.84007,0,0,0-.33726.11566c-.30972.18455-.45911.09762-.49165-.272-.02423-.26719.12612-.35151.332-.41611,1.815-.57217,3.6282-1.14979,5.44468-1.71815.09548-.03017.25651-.03824.30829.01947a.41721.41721,0,0,0,.62418.04656c.37906-.3185.69329-.16507,1.04.04109a2.83889,2.83889,0,0,0,.54533.19309c.01567-.03087.03111-.06128.04583-.09144-.20663-.27527-.41279-.55007-.64626-.8605.32776-.1178.63011-.22017.92771-.33584.185-.0722.34748-.16768.52443.05035.04845.05938.25722.01758.36837-.03349a.33553.33553,0,0,0,.09477-.25651.67092.67092,0,0,0-.34534-.17314.41.41,0,0,0-.22088.0855c-.14275-.11851-.24488-.20331-.34724-.28738-.07957.13656-.15961.27384-.23918.41065l.0734.07529c-.29547.08028-.59164.16032-.88521.23965a.99938.99938,0,0,0-1.28587-.737,9.85254,9.85254,0,0,0-1.61579.908c.17291.04655.33513.00546.48334.037a1.58734,1.58734,0,0,0,1.13435-.15937.90943.90943,0,0,1,.89351.0342c-2.20172.655-4.4032,1.31153-6.64791,1.98012a4.36865,4.36865,0,0,0,.1988-.42562,4.03075,4.03075,0,0,0,.0969-.42276,1.12617,1.12617,0,0,0-.371.23893c-.42609.34344-.88069.3071-1.07117-.16293-.29546-.72892-.51089-1.49323-.78307-2.31121H8.2201c.0304.34059.00618.70493.40068.92842.06532-.18383.12446-.346.1817-.50969.16174-.46386.25864-.51492.73129-.53582.87119-.03848,1.74095-.09833,2.61095-.15557.73177-.04774,1.46211-.10356,2.16585-.15344.06579.15676.086.34463.17505.39047.28073.14417.731-.27409.67453-.61325a.94.94,0,0,0-.13467-.25936c-.07078.05059-.14061.10237-.21281.15153-.08883.05985-.17837.16768-.26862.1684q-1.77919.01923-3.55886.004a.28588.28588,0,0,1-.22136-.15485c-.09239-.34534-.35341-.50091-.60541-.699a4.2203,4.2203,0,0,1-.76407-.803c-.18787-.25247-.27456-.5838-.45649-.84245a3.12689,3.12689,0,0,1-.43227-1.98534A12.43791,12.43791,0,0,0,8.39253,21.34c-.13728-.94387-.41683-1.86778-.52988-2.81355a7.31256,7.31256,0,0,1,.86857-4.67444c.2995-.5123.69068-.96619,1.04148-1.44881a1.11147,1.11147,0,0,0-.19048.08,5.35938,5.35938,0,0,0-2.43661,3.18121,20.1637,20.1637,0,0,0-.58024,4.83666c-.00879.40187-.00143.80516-.00143,1.207.0513-.01877.10166-.03753.153-.05653.10023.1178.2558.22017.29214.35626a3.08383,3.08383,0,0,1-.0323,1.80484c-.28549.84245-.22493.9966.4914,1.4576a1.37537,1.37537,0,0,1,.39451.53535c.1045.20188.12184.4565.23965.64627a1.84639,1.84639,0,0,1,.30092,1.29276c-.02826.18906-.10688.25319-.29475.25841-.77024.02091-1.54168.03967-2.30931.10166-.74269.06009-1.48919-.00926-2.22974.11448-.40733.06745-.82606.05391-1.23957.08622-.352.02683-.70351.06674-1.05573.10022l.00617.10926q.2526,0,.505-.00071c.63344-.00214,1.26783.00807,1.90056-.01354a.3761.3761,0,0,1,.45245.36149c.15011.95479.29831,1.90934.4584,2.86271.04655.27741-.03634.39783-.30425.48618-1.23886.40591-2.4694.8396-3.70231,1.26569-.119.0418-.23419.09691-.35128.14536.01.03159.0209.0627.03159.09358,1.4576-.404,2.9152-.8073,4.39037-1.21582C4.75032,33.00677,4.82893,33.464,4.91182,33.92118Z" style="fill:#fff;fill-rule:evenodd"/><path d="M18.15871,35.24127c.39189-.1722.76835-.38168,1.15739-.55934a4.83862,4.83862,0,0,1,3.38309-.50352,16.32962,16.32962,0,0,1,2.47082.9802,1.70306,1.70306,0,0,0,2.619-1.20584c-.14678.13206-.25508.309-.404.43346a1.95308,1.95308,0,0,1-2.4169.06009,7.02426,7.02426,0,0,0-2.56369-1.00918.50922.50922,0,0,1-.27812-.12256,1.57746,1.57746,0,0,1,.1178-1.37613,2.43849,2.43849,0,0,0,.5952-.68,2.19667,2.19667,0,0,1,.86858-.93247,10.74664,10.74664,0,0,0,1.23339-.97094,1.22561,1.22561,0,0,0,.29142-1.37471,2.16723,2.16723,0,0,0-.14132.4565,1.21117,1.21117,0,0,1-.90158.93436.99554.99554,0,0,0-.73035.4679c-.23988.28549-.51373.53867-.76953.80991-.11377.12065-.21946.25057-.357.40875.14156.04584.21352.06864.328.10569a1.02324,1.02324,0,0,1-.89351.647.95232.95232,0,0,1-.84482-.614c.08883-.05178.167-.09691.26791-.15557a2.68511,2.68511,0,0,0-.2-.28264c-.35674-.38453-.71158-.77167-1.084-1.13981a.768.768,0,0,0-.41256-.22231.99927.99927,0,0,1-.85242-.58095c-.13063-.27266-.21471-.56955-.31993-.85575a1.32678,1.32678,0,0,0,.43916,1.56116c.39379.34486.85765.6028,1.26023.93864a5.65665,5.65665,0,0,1,.63344.71894c.20283.23989.40614.47953.60066.72726a1.01985,1.01985,0,0,1,.24915.3964,3.71763,3.71763,0,0,1,.00926.75077.35913.35913,0,0,1-.33584.38382,7.14413,7.14413,0,0,0-2.71783,1.08518,1.93122,1.93122,0,0,1-2.59361-.44082,1.697,1.697,0,0,0-.138-.124A1.69392,1.69392,0,0,0,18.15871,35.24127Z" style="fill:#fff;fill-rule:evenodd"/><path d="M19.21183,6.74575c-.14274.14536-.20616.27528-.07553.44628.03112,0,.04394.00475.05249-.00047a.26337.26337,0,0,0,.085-.05534A.79468.79468,0,0,1,20.40627,6.902a.58063.58063,0,0,0,.42681.02138c.09144-.0323.14131-.19167.20924-.29475a2.86569,2.86569,0,0,0-.26316-.16365c-.12873-.06389-.26316-.11305-.414-.17694a1.25694,1.25694,0,0,1,.10688-.15628.5657.5657,0,0,1,.73652.0019c.27812.167.5306.328.50637.761-.07885,1.43385-.14417,2.87055-.15818,4.30606-.00546.56694-.13277.95-.68664,1.11558a.5443.5443,0,0,0-.41422.51374c-.05914.6731-.06722.67263-.70754.78283a.65671.65671,0,0,0-.5534.91988c.20734-.10237.42015-.29831.63011-.2957.70755.01021.833-.03373,1.03555-.75457.15818-.56171.60921-.86525.91489-1.32578a3.95391,3.95391,0,0,1,1.00324,1.5849.57512.57512,0,0,0,.66313.50424.71769.71769,0,0,1,.909.47335c.15129-.68616-.04845-1.03008-.61468-1.11487-.33679-.04988-.64365-.14963-.62679-.5629a.74376.74376,0,0,0-.58308-.804.76639.76639,0,0,1-.53131-.92629,4.02772,4.02772,0,0,0,.02565-.50162c-.06128-1.51413-.12731-3.029-.1893-4.47707-.00522-.01021.029.04964.06484.11045.78022-.55768.97546-.5838,1.275-.118-.14869.04988-.28335.08622-.41066.14085-.08622.03634-.23228.10355-.229.1482.0076.10285.06745.25651.14417.28739a.563.563,0,0,0,.422.01758.83317.83317,0,0,1,1.25572.33987c.233-.25508.11234-.389-.06056-.55268a6.43995,6.43995,0,0,1-.75956-.81727,1.24475,1.24475,0,0,0-.85955-.60138,2.89338,2.89338,0,0,0-.8054.17433c-.01-.0665-.03159-.20734-.0532-.34795h-.05249c-.02684.14821-.0532.29617-.06793.37907-.27408-.08076-.54865-.25794-.76811-.20213a2.14834,2.14834,0,0,0-.83009.51516C19.77806,6.09,19.51276,6.43818,19.21183,6.74575Z" style="fill:#fff;fill-rule:evenodd"/><path d="M6.76654,9.68518a1.108,1.108,0,0,0,.01615-.142c-.02945-.78759.18716-.99636.93531-.898a.88966.88966,0,0,0,.10285.0114,3.386,3.386,0,0,0,1.58158-.19333c-.1475-.01734-.2026-.02755-.25913-.03017A3.72023,3.72023,0,0,1,5.87184,3.51751,3.97754,3.97754,0,0,1,11.26664.97806a5.21951,5.21951,0,0,1,1.75663,1.3196c-.07221-.13277-.13681-.27218-.21827-.39878A4.145,4.145,0,0,0,7.50662.40566,3.95449,3.95449,0,0,0,5.27806,4.01914,10.41792,10.41792,0,0,0,6.63947,9.57758C6.66037,9.61725,6.71144,9.64005,6.76654,9.68518Z" style="fill:#fff;fill-rule:evenodd"/><path d="M15.80047,50.37209A18.3292,18.3292,0,0,1,20.72263,54.986a.39486.39486,0,0,1,.02969.13728c.03159-.02827.06389-.05653.09619-.08479-.0304-.07054-.05581-.14393-.09168-.2121a12.9412,12.9412,0,0,0-4.211-4.86207c-1.96255-1.34122-3.94195-2.65608-5.91543-3.98043a8.107,8.107,0,0,1-2.16918-1.7571c-.41873-.5629-.785-1.16808-1.16071-1.7343a5.63527,5.63527,0,0,0,2.09935,3.35934Q12.56274,48.1668,15.80047,50.37209Z" style="fill:#fff;fill-rule:evenodd"/><path d="M35.83113,1.17044a4.0269,4.0269,0,0,1,.65434,6.50231,4.30542,4.30542,0,0,1-2.22357.84649.70233.70233,0,0,0,.185.06128,14.72241,14.72241,0,0,0,1.51009.03824c.56147-.03492.82131.17243.82487.76407,0,.09643.00736.1919.014.34415a1.1455,1.1455,0,0,0,.11187-.13206,11.24593,11.24593,0,0,0,1.37471-4.626,5.45589,5.45589,0,0,0-.58238-3.01875,4.10856,4.10856,0,0,0-6.13393-.993,3.45237,3.45237,0,0,0-.985,1.32079.54585.54585,0,0,0,.18764-.15533A4.01772,4.01772,0,0,1,35.83113,1.17044Z" style="fill:#fff;fill-rule:evenodd"/><path d="M22.83932,54.74488a2.35475,2.35475,0,0,0-.0969.24108.20688.20688,0,0,0,.15747-.09216,14.84915,14.84915,0,0,1,3.608-3.62891c2.43377-1.74642,4.89865-3.44651,7.34786-5.1687a6.00913,6.00913,0,0,0,2.149-2.78789c.09358-.23751.161-.48666.2653-.80445-.11092.05985-.12517.062-.12921.07054-.04845.09429-.095.19072-.14346.28549A6.29857,6.29857,0,0,1,33.946,45.29246c-2.14305,1.46638-4.288,2.93206-6.46194,4.34786A13.48466,13.48466,0,0,0,22.83932,54.74488Z" style="fill:#fff;fill-rule:evenodd"/><path d="M30.10785,15.72506a3.07673,3.07673,0,0,0-.82606.4154.62135.62135,0,0,1-.63036.12042,1.76434,1.76434,0,0,0-2.41951,1.19373,21.23356,21.23356,0,0,0-.5306,2.62235c-.00736.04037.03634.091.08147.19666.08811-.18122.14535-.30853.21-.43227a2.19363,2.19363,0,0,1,1.673-1.393A1.47684,1.47684,0,0,0,28.935,17.3387a1.7672,1.7672,0,0,1,1.778-1.27091,6.67865,6.67865,0,0,1,.84625.07742c-.41255-.80135-.327-1.86635-1.137-2.43519.06508.45982.15343.92036.18834,1.3854.02566.34558-.19048.52252-.5028.62964Zm-2.43852,2.06206h0a1.10393,1.10393,0,0,1-.91964-.65291.40631.40631,0,0,1,.04893-.31589,1.8694,1.8694,0,0,1,1.83666-.36743.24586.24586,0,0,1,.09572.167A1.22364,1.22364,0,0,1,27.66933,17.78712Z" style="fill:#fff;fill-rule:evenodd"/><path d="M12.943,15.01134c.0304-.44034.13134-.87594.2007-1.31082-.81181.5743-.75529,1.62861-1.15383,2.48222a2.01491,2.01491,0,0,1,2.68339,1.27662,1.33871,1.33871,0,0,0,1.06927.95526,1.82292,1.82292,0,0,1,1.25168.59734c.224.31565.42538.64888.63273.97736.06127.09714.10711.20473.16032.30781a2.19974,2.19974,0,0,0,.02422-.7769,10.17328,10.17328,0,0,0-.27551-1.40392,5.04132,5.04132,0,0,0-.56219-1.29395,1.69721,1.69721,0,0,0-2.05208-.56623.6363.6363,0,0,1-.66242-.12445,2.77727,2.77727,0,0,0-.79305-.4033c-.39925-.13941-.55268-.276-.52323-.717Zm1.95851,1.42387h0a3.1711,3.1711,0,0,1,.54081-.07861c.01282-.02779.02612-.05463.03966-.08218.36363.15082.73723.27931,1.08661.45911.20664.1064.21614.30639.07743.51706a.97992.97992,0,0,1-1.12034.47929,1.19672,1.19672,0,0,1-.79518-1.061A.31506.31506,0,0,1,14.9015,16.43521Z" style="fill:#fff;fill-rule:evenodd"/><path d="M30.608,45.71522a18.29,18.29,0,0,0,4.15524-2.80285,8.66411,8.66411,0,0,0,2.5093-4.54642c-.04038.07078-.08408.13942-.12113.21281-.02637.05249-.04109.11115-.06461.16483A8.29751,8.29751,0,0,1,34.836,42.09581c-1.0764.85717-2.18723,1.67041-3.31374,2.45395-.85836.59734-1.78679,1.08542-2.64444,1.68252A5.6117,5.6117,0,0,0,27.3589,47.8502a.413.413,0,0,0,.17434-.10046A12.26429,12.26429,0,0,1,30.608,45.71522Z" style="fill:#fff;fill-rule:evenodd"/><path d="M15.76817,47.5203c.148.12992.294.26245.44082.39379a.88437.88437,0,0,0-.18573-.35959,9.82826,9.82826,0,0,0-2.5511-2.1706c-.98756-.5857-1.97727-1.17473-2.92446-1.82788a10.36989,10.36989,0,0,1-3.05391-2.86865c-.45791-.72179-.81727-1.51151-1.22056-2.27083l-.03634.0133c.08265.25794.15533.5192.25034.77238a8.72253,8.72253,0,0,0,1.44145,2.7974,15.22389,15.22389,0,0,0,4.59487,3.498A15.32715,15.32715,0,0,1,15.76817,47.5203Z" style="fill:#fff;fill-rule:evenodd"/><path d="M34.245,16.74493a3.86279,3.86279,0,0,0-1.15738-2.45728,1.53923,1.53923,0,0,0-.37717-.19856c-.0342.14322-.12184.30021-.094.42871a13.313,13.313,0,0,0,.46861,1.82194,6.96617,6.96617,0,0,1,.49877,2.03593,15.75411,15.75411,0,0,1-.1912,3.2888A9.52167,9.52167,0,0,0,34.245,16.74493Z" style="fill:#fff;fill-rule:evenodd"/><path d="M10.94149,14.48621a1.04241,1.04241,0,0,0-.08621-.39712,1.205,1.205,0,0,0-.35746.16222,3.80676,3.80676,0,0,0-1.11344,2.025,8.15793,8.15793,0,0,0,.16293,3.62749c.13253.561.32847,1.1049.49616,1.6564.03705-.01164.07457-.023.11163-.03444-.06128-.51967-.14607-1.03816-.17837-1.56068a7.4339,7.4339,0,0,1,.53131-3.71893A7.94824,7.94824,0,0,0,10.94149,14.48621Z" style="fill:#fff;fill-rule:evenodd"/><path d="M35.88979,11.0397l-.09239.01567c.10712.42063-.13918.44035-.36481.38714a6.80133,6.80133,0,0,1-.8396-.30377c-.08479-.0323-.16412-.07743-.24559-.11709-.023.039-.04513.07814-.06745.11709.29142.21946.57691.44984.87665.65719a8.57,8.57,0,0,1,1.01393.67049,7.33539,7.33539,0,0,1,2.39481,4.17092,3.498,3.498,0,0,0,.78972,1.74308c-.14963-.73794-.29166-1.484-.45316-2.22594a8.04108,8.04108,0,0,0-1.768-3.91084C36.742,11.81944,36.30567,11.43966,35.88979,11.0397Z" style="fill:#fff;fill-rule:evenodd"/><path d="M8.44027,11.77242a6.13507,6.13507,0,0,0,.82559-.66384c-.02019-.02376-.04109-.048-.062-.0715-.30425.13064-.60185.2862-.9156.38643-.3824.12256-.53606.01425-.58642-.35887a7.0806,7.0806,0,0,0-2.77863,4.02484c-.28,1.08-.49544,2.178-.75528,3.33654A4.2524,4.2524,0,0,0,5.027,16.51668,6.81172,6.81172,0,0,1,8.44027,11.77242Z" style="fill:#fff;fill-rule:evenodd"/><path d="M22.461,39.36919a1.85786,1.85786,0,0,0,.20473.13324,1.49685,1.49685,0,0,0,1.22057.24583A4.096,4.096,0,0,0,26.82094,37.323a.88963.88963,0,0,0,.03967-.19309,4.19965,4.19965,0,0,1-2.29578,1.95162,1.7307,1.7307,0,0,1-2.05683-.25438,1.04415,1.04415,0,0,0-1.50795.03634,1.61415,1.61415,0,0,1-1.77207.305,4.21472,4.21472,0,0,1-2.4701-2.01314.64278.64278,0,0,0-.02565.15034.9129.9129,0,0,0,.05842.16674,4.29251,4.29251,0,0,0,2.3599,2.14115,1.77766,1.77766,0,0,0,1.92336-.237A.94038.94038,0,0,1,22.461,39.36919Z" style="fill:#fff;fill-rule:evenodd"/><path d="M30.83083,30.99316c-.00072-.03776-.00072-.07482-.00143-.11187a1.57325,1.57325,0,0,0-.64341-.05652,3.21826,3.21826,0,0,0-.70422.517c-.14749-.16815-.32871-.38167-.51706-.58712a.5718.5718,0,0,0-.18858-.12517c-.17386-.076-.36031-.12517-.52514-.21684-.21613-.11971-.41683-.26982-.62417-.40662-.01473.02232-.03017.04441-.04513.06674q.34736.33132.695.6617c-.13752.17576-.26672.324-.37313.4888a.27762.27762,0,0,0-.004.22349c.01472.03444.1368.05867.17765.03231.19334-.123.37575-.26507.59924-.42752.19809.20877.41612.43773.63439.6674l-.01757.04038a4.653,4.653,0,0,1,.52038.29879c1.25572.94861,2.50526,1.90673,3.75955,2.85677.17908.13514.37693.24368.56622.3641a.35684.35684,0,0,0-.12659-.229q-1.88643-1.59357-3.77356-3.18786c-.09976-.08479-.26126-.24369-.23917-.29879a.97007.97007,0,0,1,.33275-.42277A1.68692,1.68692,0,0,1,30.83083,30.99316Z" style="fill:#fff;fill-rule:evenodd"/><path d="M11.08637,33.67346c-.571.47787-1.11843.98567-1.67658,1.47969.02019.0323.03966.06389.06009.09619.10427-.06579.214-.12374.31161-.19784,1.29324-.97617,2.58269-1.9578,3.87854-2.93064a7.50472,7.50472,0,0,1,.64769-.39118c.03373-.35223.39118-.44106.58119-.63819.23015.15486.41588.28739.61064.404.03349.02019.13989-.01353.14868-.04394a.31334.31334,0,0,0-.00475-.22492c-.1064-.17433-.2349-.33441-.35484-.49948.21946-.21471.427-.418.63439-.62133-.01971-.023-.03919-.04512-.05867-.06745a5.87666,5.87666,0,0,1-.546.361c-.19856.10285-.41731.16412-.62465.251-.03705.01544-.05938.06793-.09026.10094-.19476.21139-.39.42277-.59045.64033-.50637-.66313-.92914-.77428-1.26925-.39379a3.32747,3.32747,0,0,1,.52466.156.374.374,0,0,1,.07743.69021C12.59029,32.45076,11.82954,33.05071,11.08637,33.67346Z" style="fill:#fff;fill-rule:evenodd"/><path d="M14.20607,13.63782c-.243.09358-.42277.3812-.61325.59734-.04727.05439-.05986.22611-.0228.25651a.31855.31855,0,0,0,.27717.05368,5.79515,5.79515,0,0,0,.604-.34131c.542-.32182.92653-.16293,1.16214.43892a5.00021,5.00021,0,0,0,.418.70968c.04181-.02494.08289-.05035.12446-.07529-.25437-.52584-.5002-1.05644-.76811-1.57421-.09762-.18906-.03776-.28145.08-.42871.37171-.46671.70636-.96429,1.07189-1.43551.27076-.34938.56289-.68071.855-1.00989a2.2628,2.2628,0,0,1,.34059-.25723c-.07268-.01615-.0969-.02945-.115-.02422-.08836.02636-.17576.05652-.262.08835a2.82466,2.82466,0,0,0-1.55711,1.389A3.157,3.157,0,0,1,14.20607,13.63782Z" style="fill:#fff;fill-rule:evenodd"/><path d="M27.90494,12.28734c-.14488-.2444-.29095-.4888-.451-.72251A2.48477,2.48477,0,0,0,25.85,10.57394a4.07691,4.07691,0,0,1,1.43,1.71007,4.11411,4.11411,0,0,0,.74412.93508c.2235.21352.20521.35484.07125.604-.2463.45768-.44438.94244-.66241,1.41651.043.02422.08621.04845.1292.07339a7.595,7.595,0,0,0,.41066-.73984c.204-.48286.56765-.66717.985-.45127.17433.09025.3299.22088.50495.30852a4.22238,4.22238,0,0,0,.50162.18027.902.902,0,0,0-.65767-1.00372A2.88632,2.88632,0,0,1,27.90494,12.28734Z" style="fill:#fff;fill-rule:evenodd"/><path d="M29.45137,37.043a3.54708,3.54708,0,0,1,1.4253-.83414,7.55663,7.55663,0,0,0,.88068-.41137c-.01163-.01543-.02232-.03087-.033-.04655-.42966.04513-.86121.07743-1.288.13871a7.45736,7.45736,0,0,0-1.2151.233,2.237,2.237,0,0,1-1.91766-.25248,6.2546,6.2546,0,0,0-.62394-.2862c-.015.10166-.004.13752.01948.15818q.76562.66658,1.53289,1.32911A.85655.85655,0,0,0,29.45137,37.043Z" style="fill:#fff;fill-rule:evenodd"/><path d="M14.06807,37.02212a.92865.92865,0,0,0,1.354-.04038c.3546-.33869.72773-.65719,1.09587-.98092.12873-.11376.26673-.21613.40068-.32325l-.05059-.10094c-.214.10237-.43274.19595-.64151.309a2.24926,2.24926,0,0,1-1.52078.32919c-.95218-.17837-1.90483-.34867-2.85748-.52228-.014.04108-.02756.08146-.04109.12255.30971.13871.6275.25984.92652.42063A9.57622,9.57622,0,0,1,14.06807,37.02212Z" style="fill:#fff;fill-rule:evenodd"/><path d="M40.03292,25.36393c-.05914.28763-.08218.58309-.12184.87475a5.2375,5.2375,0,0,0,.63961-3.60683,18.79045,18.79045,0,0,0-.86857-2.47081l-.10427.033a4.1916,4.1916,0,0,0,.17433,2.11194A5.155,5.155,0,0,1,40.03292,25.36393Z" style="fill:#fff;fill-rule:evenodd"/><path d="M.71668,31.86435a1.28751,1.28751,0,0,0-.02019-.13467,6.37516,6.37516,0,0,1,.2102-3.83223,6.64,6.64,0,0,0,.20663-1.74308c-.0513-.01069-.10308-.0209-.15414-.03088a7.71625,7.71625,0,0,0-.95883,2.96769A6.79139,6.79139,0,0,0,.677,31.93845C.70671,31.88454.71739,31.87385.71668,31.86435Z" style="fill:#fff;fill-rule:evenodd"/><path d="M12.21,17.39808c-.033-.02161-.066-.0437-.09975-.06531a1.77882,1.77882,0,0,0-.3204.36362,3.78509,3.78509,0,0,0-.35009.888,1.29387,1.29387,0,0,0,.51159,1.44264c.18859.13206.33608.32444.51635.47122a2.88946,2.88946,0,0,0,.56765.39332c.19381.09144.43013.15675.57905-.10094a.55088.55088,0,0,0-.23371-.67738,1.1101,1.1101,0,0,0-.32515-.10237,1.06942,1.06942,0,0,1-.9783-1.07046,5.04175,5.04175,0,0,1,.0418-.95859C12.13451,17.78593,12.17892,17.5926,12.21,17.39808Z" style="fill:#fff;fill-rule:evenodd"/><path d="M32.0616,19.39625a1.91353,1.91353,0,0,0-.43369-1.89913c-.04631-.06531-.14132-.095-.28406-.186.023.18526.03776.28549.04726.38643a10.48281,10.48281,0,0,1,.09762,1.07,1.1215,1.1215,0,0,1-.99517,1.246.74655.74655,0,0,0-.441.22777.75511.75511,0,0,0-.08622.55269c.02446.0855.32183.181.43559.12921A3.15766,3.15766,0,0,0,32.0616,19.39625Z" style="fill:#fff;fill-rule:evenodd"/><path d="M24.29075,20.32326c.015.49283.08835.98376.13609,1.47517.03492-.00142.07007-.00332.105-.00594,0-.13538-.00594-.27147.00143-.40614.04109-.78758.06317-1.5773.13466-2.36228a2.68822,2.68822,0,0,1,.742-1.73311,5.42715,5.42715,0,0,0,.53582-.72773,1.70665,1.70665,0,0,1-.65577-.16507,1.80062,1.80062,0,0,1-.34272-.556c-.08408.44177-.15961.91893-.26863,1.38754a11.92018,11.92018,0,0,0-.348,1.298A12.68043,12.68043,0,0,0,24.29075,20.32326Z" style="fill:#fff;fill-rule:evenodd"/><path d="M18.643,15.92908a.29548.29548,0,0,0-.05937-.01615c-.41327.70612-.41327.70612-1.07189.53654.27409.36077.51445.64222.71515.95194a3.54644,3.54644,0,0,1,.51088.95479,10.07623,10.07623,0,0,1,.27,3.44627c-.00879.10165-.00142.204-.00142.30639a1.83937,1.83937,0,0,0,.07006-.31922,10.90706,10.90706,0,0,0,.15747-3.31231C19.17811,17.59,18.55393,16.84991,18.643,15.92908Z" style="fill:#fff;fill-rule:evenodd"/><path d="M11.83025,13.66751a.798.798,0,0,0,.12731.23228.74142.74142,0,0,0,.218-.14345c.32444-.44842.66527-.888.94862-1.364a2.22565,2.22565,0,0,0,.35151-1.39965.497.497,0,0,0-.12184-.01A2.66677,2.66677,0,0,0,11.83025,13.66751Z" style="fill:#fff;fill-rule:evenodd"/><path d="M30.38455,11.07556a.86369.86369,0,0,0-.27955-.0722,1.41167,1.41167,0,0,0-.03017.30567,5.69052,5.69052,0,0,0,1.42388,2.5644c.01543.02233.062.02043.17171.05273a4.16641,4.16641,0,0,0,.07268-.5097A2.68837,2.68837,0,0,0,30.38455,11.07556Z" style="fill:#fff;fill-rule:evenodd"/><path d="M32.88624,25.28864c.12588-.86715.16507-1.74855.24036-2.62306-.04774-.01544-.09548-.03088-.14322-.04584-.40472,1.12437-.80943,2.24946-1.21676,3.38381A.9223.9223,0,0,0,32.88624,25.28864Z" style="fill:#fff;fill-rule:evenodd"/><path d="M10.62917,25.19435a1.07945,1.07945,0,0,0,.84149.85314c.066.01876.24915-.12731.24108-.15771-.12588-.46718-.26316-.931-.42087-1.38753-.13586-.39047-.30235-.76954-.45246-1.15454-.09215-.237-.17908-.476-.26791-.71372l-.06246.0342c0,.4983-.01425.99731.00522,1.49465A6.6096,6.6096,0,0,0,10.62917,25.19435Z" style="fill:#fff;fill-rule:evenodd"/><path d="M26.09107,7.12814a6.01313,6.01313,0,0,0,.9985.87262,1.64745,1.64745,0,0,0,.57762.15224c-.04631-.223-.08811-.44652-.14274-.6674a.318.318,0,0,0-.105-.1399,7.87509,7.87509,0,0,0-3.072-1.58823l-.04465.08479c.06888.03492.13538.072.20473.1057A4.84039,4.84039,0,0,1,26.09107,7.12814Z" style="fill:#fff;fill-rule:evenodd"/><path d="M15.8703,7.85255a.3416.3416,0,0,0,.04252.31779.33156.33156,0,0,0,.31232-.02019,7.1284,7.1284,0,0,0,.89351-.66645,6.59494,6.59494,0,0,1,1.6488-1.39514c.16151-.072.31446-.16412.53131-.27931a.70324.70324,0,0,0-.175-.02019,7.77757,7.77757,0,0,0-2.78267,1.37827A2.22566,2.22566,0,0,0,15.8703,7.85255Z" style="fill:#fff;fill-rule:evenodd"/><path d="M25.49659,15.58232l.21019.01615a3.25777,3.25777,0,0,0,.41873-2.08107,1.48153,1.48153,0,0,0-.94267-1.03554,2.8536,2.8536,0,0,1,.27076,1.84688A7.26864,7.26864,0,0,0,25.49659,15.58232Z" style="fill:#fff;fill-rule:evenodd"/><path d="M18.36962,12.41536c-1.3063.6845-1.14385,2.159-.42348,3.21208a1.38281,1.38281,0,0,0,.12992-.36956,9.94271,9.94271,0,0,0-.0095-1.21059,2.45748,2.45748,0,0,1,.20948-1.35523A2.301,2.301,0,0,0,18.36962,12.41536Z" style="fill:#fff;fill-rule:evenodd"/><path d="M25.20849,4.0816a4.658,4.658,0,0,1,2.09982.15224.87511.87511,0,0,0-.375-.30757,7.35053,7.35053,0,0,0-1.23054-.29166,8.6871,8.6871,0,0,1-2.43923-.39189,1.20326,1.20326,0,0,0-.3185-.04086c-.00214.02755-.00475.05582-.00737.08337a2.55107,2.55107,0,0,1,.42135.23157A2.94018,2.94018,0,0,0,25.20849,4.0816Z" style="fill:#fff;fill-rule:evenodd"/><path d="M20.58939,3.17336a7.84386,7.84386,0,0,1-1.00657.27219c-.74934.10237-1.50486.15533-2.25682.24155a1.92517,1.92517,0,0,0-1.08067.49972A5.87147,5.87147,0,0,1,17.48561,4.05,3.67332,3.67332,0,0,0,20.58939,3.17336Z" style="fill:#fff;fill-rule:evenodd"/><path d="M30.22019,17.8161a.79538.79538,0,0,0,.11305-.40116c-.00047-.0969-.086-.26126-.15343-.27337a.61755.61755,0,0,0-.36885.0969c-.058.03088-.08218.13871-.11329.21614a2.92787,2.92787,0,0,1-1.39086,1.52956c-.24915.134-.4983.26863-.818.44106.13206.05106.16555.07743.19333.072A3.65086,3.65086,0,0,0,30.22019,17.8161Z" style="fill:#fff;fill-rule:evenodd"/><path d="M16.04558,19.51073c-.0741-.12041-.08217-.14749-.09975-.1596a.72168.72168,0,0,0-.11994-.06722A3.32138,3.32138,0,0,1,13.798,17.31733c-.004-.0114-.01-.02637-.01877-.02969-.13657-.05582-.30235-.18312-.404-.142-.09073.037-.16293.26648-.1494.40115a.98476.98476,0,0,0,.21139.44248,3.71867,3.71867,0,0,0,2.22309,1.46687C15.762,19.47914,15.867,19.48579,16.04558,19.51073Z" style="fill:#fff;fill-rule:evenodd"/><path d="M27.01428,5.04375a1.28384,1.28384,0,0,0-1.088-.4154c-.15889.02019-.3166.062-.476.07268a5.66409,5.66409,0,0,1-2.27368-.34677,2.72556,2.72556,0,0,0,1.93167.8814C25.73291,5.20882,26.355,5.11239,27.01428,5.04375Z" style="fill:#fff;fill-rule:evenodd"/><path d="M26.04809,9.68993a3.63686,3.63686,0,0,0,1.00039.3318c.095.023.21946-.08337.33061-.13039-.04655-.10118-.066-.24654-.14274-.295a6.15694,6.15694,0,0,0-1.01726-.5648c-.45792-.1779-.94125-.28288-1.41461-.41826-.20734-.05914-.41469-.11638-.64294-.18027C24.81731,8.87527,25.41512,9.31419,26.04809,9.68993Z" style="fill:#fff;fill-rule:evenodd"/><path d="M17.31793,9.0363a6.60164,6.60164,0,0,0-1.04077.59567.27581.27581,0,0,0-.09168.24108.29958.29958,0,0,0,.23965.14749,3.51455,3.51455,0,0,0,1.0106-.295c.66527-.38643,1.294-.84292,1.9578-1.28374-.21471.05653-.42135.10759-.62679.16626C18.282,8.74535,17.78582,8.85175,17.31793,9.0363Z" style="fill:#fff;fill-rule:evenodd"/><path d="M17.51245,4.625a.859.859,0,0,0-.8947.43346c.55149.052,1.11962.09833,1.68727.161a2.65362,2.65362,0,0,0,2.08557-.87784A5.37394,5.37394,0,0,1,17.51245,4.625Z" style="fill:#fff;fill-rule:evenodd"/><path d="M13.65481,27.07139c.05581-.12041.105-.2444.16958-.35959a5.37172,5.37172,0,0,1,.34463-.5743c.13063-.17765.309-.31826.433-.50019a.57813.57813,0,0,0-.0019-.71348,1.61687,1.61687,0,0,1-.82488.91489c-.1273-.37432-.19262-.74674-.6617-.851.14132.71965.27528,1.39822.40852,2.077C13.566,27.06664,13.61039,27.06949,13.65481,27.07139Z" style="fill:#fff;fill-rule:evenodd"/><path d="M12.663,10.654a.33023.33023,0,0,0,.30781-.0209,2.02793,2.02793,0,0,0,.385-.35009c.39736-.42942.7883-.8643,1.1809-1.29871.07268-.08075.14085-.16625.21067-.24962-.01472-.02375-.03016-.04726-.0456-.07149a.97645.97645,0,0,0-.24725.066,9.994,9.994,0,0,0-1.27234.78164,2.85812,2.85812,0,0,0-.56955.82345A.34278.34278,0,0,0,12.663,10.654Z" style="fill:#fff;fill-rule:evenodd"/><path d="M28.87517,8.67457c-.00618-.00261-.01972.01164-.052.03183.5002.57833.9757,1.15786,1.48729,1.70128a1.73061,1.73061,0,0,0,.58024.26578,1.71621,1.71621,0,0,0-.08075-.65838A3.78643,3.78643,0,0,0,28.87517,8.67457Z" style="fill:#fff;fill-rule:evenodd"/><path d="M29.78056,26.8574c.00071.06175.1159.12374.17837.185.0513-.05653.13348-.10641.14749-.17172q.1304-.59959.23157-1.20632c.03634-.21613.04846-.437.07149-.65576-.037-.02233-.07481-.04442-.11186-.06674a2.6242,2.6242,0,0,0-.41541.62821c-.09762.30686-.21138.27053-.375.10094-.20521-.21281-.39379-.44295-.58712-.66241a.77117.77117,0,0,0,.2957.96951C29.49436,26.21849,29.77723,26.427,29.78056,26.8574Z" style="fill:#fff;fill-rule:evenodd"/><path d="M22.55051,28.66152A1.85448,1.85448,0,0,1,21.138,28.667a5.44878,5.44878,0,0,0-.82677-.24963,1.66866,1.66866,0,0,0-1.42934.29475.63331.63331,0,0,0,.18858-.00261,2.69813,2.69813,0,0,1,1.79273.09833,2.55121,2.55121,0,0,0,1.85685.01734,2.62686,2.62686,0,0,1,1.85686-.109c.03111.01069.07268-.014.10973-.02209a.93378.93378,0,0,0-.39047-.23632A2.46,2.46,0,0,0,22.55051,28.66152Z" style="fill:#fff;fill-rule:evenodd"/><path d="M29.3699,32.93219c.07814-.0855.01948-.39118-.07006-.53463a.92184.92184,0,0,0-.45982-.3413,1.16581,1.16581,0,0,0-1.098.24629c-.28691.20331-.56884.41208-.93175.67524a4.194,4.194,0,0,0,.61253-.11091c.19334-.06746.36434-.20616.55887-.27005a.71239.71239,0,0,1,.9061.18169C29.01316,32.94834,29.20483,33.11128,29.3699,32.93219Z" style="fill:#fff;fill-rule:evenodd"/><path d="M14.24122,32.41632c-.08289.13609-.12944.42158-.0532.51231.15343.18312.33916.023.45507-.13324a.70514.70514,0,0,1,.87261-.21875c.18431.05866.34866.18383.53178.25247.1893.07007.38976.1076.58642.16032-.00333-.02826-.00665-.05724-.0095-.0855-.27457-.20283-.55126-.40139-.82274-.608A1.03138,1.03138,0,0,0,14.24122,32.41632Z" style="fill:#fff;fill-rule:evenodd"/><path d="M31.71888,23.66336a.44493.44493,0,0,0,.161-.66717.36389.36389,0,0,0-.61895-.05106,11.42545,11.42545,0,0,0-.72227,1.28374c-.0323.062-.004.1589-.004.2349.25794-.20925.4774-.40781.717-.5762C31.3923,23.78924,31.5702,23.75029,31.71888,23.66336Z" style="fill:#fff;fill-rule:evenodd"/><path d="M13.05153,24.408a3.35842,3.35842,0,0,0-.73058-1.42719.50264.50264,0,0,0-.45364-.12256.45861.45861,0,0,0-.24511.36767.6781.6781,0,0,0,.25389.44485C12.24162,23.93412,12.63684,24.15216,13.05153,24.408Z" style="fill:#fff;fill-rule:evenodd"/><path d="M23.76371,11.32328a1.71442,1.71442,0,0,1,.6085.27267,1.23331,1.23331,0,0,1,.22374.20592c.20592-.55815-.10237-1.16071-.51255-1.04338a.759.759,0,0,1-.89256-.28074C23.07826,11.11048,23.23312,11.28552,23.76371,11.32328Z" style="fill:#fff;fill-rule:evenodd"/><path d="M19.471,10.76371a.54315.54315,0,0,0-.44106.229.7684.7684,0,0,0-.09.83414,2.09408,2.09408,0,0,1,.31494-.28953,1.34126,1.34126,0,0,1,.52252-.21732c.55958-.0323.69947-.20283.56884-.85979A.67983.67983,0,0,1,19.471,10.76371Z" style="fill:#fff;fill-rule:evenodd"/><path d="M34.21273,29.6802a2.248,2.248,0,0,0,.04038-.676c-.04726-.2368-.2539-.305-.48951-.272-.26458.03634-.53178.05059-.81133.076,0-.0019-.00333.015.00261.02019.36173.29974.72108.60067,1.08946.89162A.20168.20168,0,0,0,34.21273,29.6802Z" style="fill:#fff;fill-rule:evenodd"/><path d="M9.3364,28.937a1.97427,1.97427,0,0,0-.02827.68261.341.341,0,0,0,.25794.04584,3.595,3.595,0,0,0,.5325-.36838c.18454-.14678.35626-.31019.56694-.49687-.332-.02019-.56884-.01663-.79994-.0532C9.64611,28.71283,9.41454,28.69857,9.3364,28.937Z" style="fill:#fff;fill-rule:evenodd"/><path d="M29.35969,3.77189c-.64342-.09548-1.21368-.181-1.78394-.26649-.00617.03634-.01211.072-.019.10831.38857.26054.7769.52062,1.16071.77832C28.90391,4.21223,29.09178,4.03125,29.35969,3.77189Z" style="fill:#fff;fill-rule:evenodd"/><path d="M16.00093,3.61513c-.01-.039-.02019-.07814-.02945-.11709-.5743.09215-1.14789.18431-1.78417.286.27266.2539.45649.42491.64769.6028C15.21121,4.13765,15.60643,3.87639,16.00093,3.61513Z" style="fill:#fff;fill-rule:evenodd"/><path d="M22.47783,3.1964H21.0903c.224.3318.46386.68545.67572.99849C21.989,3.88185,22.22465,3.55124,22.47783,3.1964Z" style="fill:#fff;fill-rule:evenodd"/><path d="M13.59685,23.16791c.19524-.34937.36292-.71561.59853-1.19182-.37907.27266-.71039.49093-1.01536.74269a.43343.43343,0,0,0-.109.35555c.02684.12779.1501.23348.23157.34867C13.40305,23.33963,13.537,23.27622,13.59685,23.16791Z" style="fill:#fff;fill-rule:evenodd"/><path d="M31.61865,10.7953c-.019.05273-.037.10593-.056.15889.39189.28217.77357.58048,1.18042.83628.11163.06935.29736.01021.5135.01021a6.18154,6.18154,0,0,0-.82393-.75077A3.32945,3.32945,0,0,0,31.61865,10.7953Z" style="fill:#fff;fill-rule:evenodd"/><path d="M30.41685,22.77341a1.94893,1.94893,0,0,0-.97427-.66384c.17243.35888.31779.70089.49948,1.02058.07078.12256.22421.19381.33941.28881a2.93168,2.93168,0,0,0,.19737-.41279A.28709.28709,0,0,0,30.41685,22.77341Z" style="fill:#fff;fill-rule:evenodd"/><path d="M10.37788,11.70306l.01425.12992a1.76271,1.76271,0,0,0,.546-.11258,9.13922,9.13922,0,0,0,.87451-.61539,1.4429,1.4429,0,0,0,.18312-.20331C11.493,10.78319,11.46591,10.79744,10.37788,11.70306Z" style="fill:#fff;fill-rule:evenodd"/><path d="M28.50346,5.84155c-.39854-.17433-.72844-.3185-1.07449-.46979-.05249.28-.08883.47383-.13609.7244A1.33214,1.33214,0,0,0,28.50346,5.84155Z" style="fill:#fff;fill-rule:evenodd"/><path d="M16.31682,6.16813a3.75917,3.75917,0,0,1-.13728-.40258,2.61255,2.61255,0,0,1-.023-.3071,1.1416,1.1416,0,0,0-1.04956.56836C15.515,6.07455,15.87719,6.11706,16.31682,6.16813Z" style="fill:#fff;fill-rule:evenodd"/><path d="M14.57848,14.66743a1.41053,1.41053,0,0,0,.04513.53843,1.051,1.051,0,0,0,.27266.30853c.389-.01354.618-.229.49355-.38049A3.61208,3.61208,0,0,0,14.773,14.594C14.74,14.56839,14.5792,14.63845,14.57848,14.66743Z" style="fill:#fff;fill-rule:evenodd"/><path d="M28.48731,22.44018a2.4889,2.4889,0,0,1,.92107,1.73074C29.98933,23.51658,29.39959,22.90452,28.48731,22.44018Z" style="fill:#fff;fill-rule:evenodd"/><path d="M21.38434,8.29432c-.03017-.03444-.06128-.06817-.09216-.10166A2.16983,2.16983,0,0,0,20.25735,9.16a.77347.77347,0,0,0,.00879.29285c.09144-.02826.21685-.02612.27005-.09025C20.829,9.0154,21.1036,8.65177,21.38434,8.29432Z" style="fill:#fff;fill-rule:evenodd"/><path d="M22.20778,8.27817c.32658.42134.53179.956,1.04695,1.22721C23.3799,8.99711,22.88635,8.4221,22.20778,8.27817Z" style="fill:#fff;fill-rule:evenodd"/><path d="M15.0269,22.36275a11.451,11.451,0,0,0-.9023.74721.70106.70106,0,0,0,.04917,1.08471,2.32394,2.32394,0,0,1,.93175-1.76731Z" style="fill:#fff;fill-rule:evenodd"/><path d="M30.81871,22.09746c.11306-.04038.2-.16294.35888-.30568a7.96417,7.96417,0,0,0-.69614-.499c-.04442-.02541-.21685.08883-.24654.17172-.02208.06128.08551.17837.14275.266a1.00449,1.00449,0,0,0,.17647.23348C30.63084,22.02882,30.7515,22.12168,30.81871,22.09746Z" style="fill:#fff;fill-rule:evenodd"/><path d="M13.19831,21.31652a.564.564,0,0,0-.34534.05107.73919.73919,0,0,0-.2634.27005c-.04964.08407-.09476.24036-.05391.2995.06128.08883.25794.19594.29427.16507a6.20652,6.20652,0,0,0,.5401-.579C13.30733,21.44288,13.26149,21.32721,13.19831,21.31652Z" style="fill:#fff;fill-rule:evenodd"/><path d="M15.58909,23.10592c-.82962.68332-1.05906,1.17212-.71372,1.47779C15.10956,24.09824,15.34517,23.61158,15.58909,23.10592Z" style="fill:#fff;fill-rule:evenodd"/><path d="M28.59562,33.78842a.51569.51569,0,0,0,.02019-.69686c-.14061-.19523-.33394-.17291-.52585-.07529-.16293.08289-.32515.16555-.546.27813C27.95482,33.43025,28.53577,32.92744,28.59562,33.78842Z" style="fill:#fff;fill-rule:evenodd"/><path d="M28.65618,24.6343c.32729-.39-.10284-1.25358-.70279-1.4557a7.74492,7.74492,0,0,1,.42206.68807A8.10559,8.10559,0,0,1,28.65618,24.6343Z" style="fill:#fff;fill-rule:evenodd"/><path d="M15.30147,33.28489a1.68854,1.68854,0,0,1,.6161.05249l.01615-.06531a1.72981,1.72981,0,0,0-.44438-.23157.72993.72993,0,0,0-.52371.04251.45137.45137,0,0,0-.09833.59639C15.0174,33.53476,15.13853,33.33192,15.30147,33.28489Z" style="fill:#fff;fill-rule:evenodd"/><path d="M27.92442,29.91391c.099.00547.27931-.17575.295-.29285.014-.11186-.13823-.247-.27408-.462-.15629.20734-.32254.33275-.32326.45934C27.62088,29.72414,27.81136,29.90726,27.92442,29.91391Z" style="fill:#fff;fill-rule:evenodd"/><path d="M15.61925,29.91391a.50151.50151,0,0,0,.31233-.32919c.01829-.09025-.16626-.22492-.319-.41136-.13728.19856-.29831.33061-.28548.44153C15.34065,29.73269,15.53993,29.932,15.61925,29.91391Z" style="fill:#fff;fill-rule:evenodd"/><path d="M26.97722,31.94035c.0848.0095.18431-.12374.34867-.24772-.17837-.08954-.2862-.18906-.38168-.17766-.09572.0114-.17979.13324-.26862.20663C26.77582,31.79974,26.87011,31.92824,26.97722,31.94035Z" style="fill:#fff;fill-rule:evenodd"/><path d="M16.86879,31.6988c-.08-.08146-.16008-.16245-.28-.2843-.11923.13206-.19713.21756-.27527.30378.10284.07861.20117.20877.3109.21946C16.69779,31.9451,16.78662,31.78431,16.86879,31.6988Z" style="fill:#fff;fill-rule:evenodd"/><path d="M55.82948,15.26191c0-3.14154-1.55569-5.059-5.08913-5.059h-4.6495V20.561h4.61934c3.38167,0,5.11929-2.05351,5.11929-5.29909ZM49.97082,18.0396h0V12.71011h.43773c1.05763,0,1.35927.36291,1.35927,2.61237,0,2.2782-.30164,2.71712-1.41865,2.71712Z" style="fill:#fff;fill-rule:evenodd"/><polygon points="58.814 20.561 62.679 20.561 62.679 12.846 65.156 12.846 65.156 10.203 56.293 10.203 56.293 12.846 58.814 12.846 58.814 20.561" style="fill:#fff;fill-rule:evenodd"/><path d="M72.1716,18.84024h2.11408l.3014,1.72076h4.00133L76.02116,10.203H70.60023L68.1097,20.561h3.80468l.25722-1.72076Zm.98163-6.37239h.08954c.16626,1.19372.40852,2.73279.51421,3.53248H72.65493C72.83615,14.899,73.00241,13.61573,73.15323,12.46785Z" style="fill:#fff;fill-rule:evenodd"/><path d="M82.93081,18.64358a.72773.72773,0,0,1-.7997-.69471H78.9613c.08954,1.54025,1.20655,2.80879,3.95478,2.80879,2.82424,0,3.97141-1.26854,3.97141-2.83991,0-1.49322-.966-2.17321-3.00522-2.67151-1.28326-.31708-1.49346-.39308-1.49346-.63415,0-.24226.16578-.39308.542-.39308a.69975.69975,0,0,1,.72583.72559h3.09357c-.0437-1.11748-.90491-2.62757-3.86453-2.62757-2.35491,0-3.72772,1.05763-3.72772,2.71711,0,1.23957.55744,2.05494,3.36623,2.62781.64983.1361.98163.24036.98163.55958C83.50582,18.46189,83.33956,18.64358,82.93081,18.64358Z" style="fill:#fff;fill-rule:evenodd"/><rect x="87.83349" y="9.79633" width="3.74458" height="2.0984" style="fill:#fff"/><rect x="87.83349" y="12.51369" width="3.74458" height="8.04732" style="fill:#fff"/><path d="M96.34681,15.50227c-3.16958,0-3.77285,1.44929-3.77285,2.71926a2.41267,2.41267,0,0,0,2.58126,2.53613,2.989,2.989,0,0,0,2.35491-.93579,2.49629,2.49629,0,0,0,.18122.73913h3.262a19.64222,19.64222,0,0,1-.12255-2.59741V15.20064c0-1.63075-.72369-2.88361-3.93934-2.88361-3.06531,0-3.97212,1.34454-4.04694,2.67341h3.41278c.03041-.49806.13538-.74127.51374-.74127.27123,0,.43773.16626.43773.61943v.63367Zm.86192,1.76661h0c0,.84553-.03111,1.20845-.48357,1.20845-.28668,0-.51374-.2425-.51374-.66456,0-.45245.1665-.81537.66456-.81537h.33275Z" style="fill:#fff;fill-rule:evenodd"/><rect x="45.93813" y="22.77341" width="0.92914" height="6.33463" style="fill:#fff"/><path d="M48.15386,24.59725V29.108h.87642V26.41966a.97179.97179,0,0,1,.24915-.72226.82969.82969,0,0,1,.622-.25248.81616.81616,0,0,1,.61872.25248.98381.98381,0,0,1,.2444.72226V29.108h.87807v-2.9988a1.56,1.56,0,0,0-.46789-1.1733,1.47441,1.47441,0,0,0-.99185-.39474,1.3944,1.3944,0,0,0-1.13577.53392h-.01686v-.47787Z" style="fill:#fff;fill-rule:evenodd"/><polygon points="54.286 27.759 54.268 27.759 53.243 24.597 52.312 24.597 53.914 29.108 54.638 29.108 56.24 24.597 55.306 24.597 54.286 27.759" style="fill:#fff;fill-rule:evenodd"/><path d="M57.88109,29.05555a2.2107,2.2107,0,0,0,.67311.105A2.03,2.03,0,0,0,60.127,28.43l-.63558-.55934a1.29432,1.29432,0,0,1-.956.43892.99133.99133,0,0,1-.74055-.2881,1.072,1.072,0,0,1-.30378-.82558h2.724v-.74578a1.87814,1.87814,0,0,0-.53392-1.40036,1.79136,1.79136,0,0,0-1.2664-.50851,1.8254,1.8254,0,0,0-.63012.11733,1.54028,1.54028,0,0,0-.585.3831,1.92849,1.92849,0,0,0-.42086.71158,3.23387,3.23387,0,0,0-.16412,1.11226,2.83512,2.83512,0,0,0,.18977,1.13031,1.77966,1.77966,0,0,0,.44913.70351,1.58143,1.58143,0,0,0,.30686.20544,1.657,1.657,0,0,0,.32064.15082Zm-.11519-3.40542h0a.94635.94635,0,0,1,1.2987,0,1.18543,1.18543,0,0,1,.27457.79994H57.4911A1.23535,1.23535,0,0,1,57.7659,25.65013Z" style="fill:#fff;fill-rule:evenodd"/><path d="M64.01242,28.78622a1.18694,1.18694,0,0,0,.51895-1.01393,1.47036,1.47036,0,0,0-.28334-.927,1.32921,1.32921,0,0,0-.98638-.42562l-.72584-.05581a.75877.75877,0,0,1-.447-.16151.31591.31591,0,0,1-.13063-.266.49691.49691,0,0,1,.17315-.39189.85127.85127,0,0,1,.57762-.15224,1.74381,1.74381,0,0,1,.6408.10973,2.5284,2.5284,0,0,1,.53535.31256l.54461-.65648a2.22776,2.22776,0,0,0-1.17472-.57762,3.44214,3.44214,0,0,0-.54272-.03919,1.845,1.845,0,0,0-1.15453.34747,1.23685,1.23685,0,0,0-.47621,1.04291,1.17964,1.17964,0,0,0,.36292.90017,1.46123,1.46123,0,0,0,.89826.3831l.77618.06935a.71538.71538,0,0,1,.39189.10831.37763.37763,0,0,1,.14393.3394.48209.48209,0,0,1-.24012.42538,1.14839,1.14839,0,0,1-.62085.15224,1.80032,1.80032,0,0,1-1.38492-.57976l-.61206.62228a2.72873,2.72873,0,0,0,1.9243.80848A2.1954,2.1954,0,0,0,64.01242,28.78622Z" style="fill:#fff;fill-rule:evenodd"/><path d="M65.60468,27.99792a1.06036,1.06036,0,0,0,.30164.81513,1.02357,1.02357,0,0,0,.756.295H67.12v-.851h-.327c-.21353.00547-.31708-.10711-.31257-.33607V25.292H67.12v-.69472h-.63962V23.22373h-.8757v1.37352h-.44105V25.292h.44105Z" style="fill:#fff;fill-rule:evenodd"/><path d="M72.47989,25.44492a.8809.8809,0,0,1,.651.25248.964.964,0,0,1,.25105.72226V29.108H74.26v-2.9988a1.51912,1.51912,0,0,0-.47811-1.1733,1.55031,1.55031,0,0,0-1.02533-.39474,1.775,1.775,0,0,0-1.42055.59187,2.25579,2.25579,0,0,0-.51706-.43084,1.7004,1.7004,0,0,0-.756-.161,1.46229,1.46229,0,0,0-1.17829.53392h-.01687v-.47787H67.99V29.108h.87783V26.41966a.94121.94121,0,0,1,.26388-.72226.88406.88406,0,0,1,.65173-.25248.8974.8974,0,0,1,.65386.25248.9649.9649,0,0,1,.25105.72226V29.108h.87784V26.41966a.94929.94929,0,0,1,.26007-.72226A.89685.89685,0,0,1,72.47989,25.44492Z" style="fill:#fff;fill-rule:evenodd"/><path d="M78.98957,26.45007a1.87811,1.87811,0,0,0-.53393-1.40036,1.79176,1.79176,0,0,0-1.2664-.50851,1.82549,1.82549,0,0,0-.63012.11733,1.54017,1.54017,0,0,0-.585.3831,1.93487,1.93487,0,0,0-.42087.71158,3.23387,3.23387,0,0,0-.16412,1.11226,2.8353,2.8353,0,0,0,.18977,1.13031,1.77977,1.77977,0,0,0,.44913.70351,1.58119,1.58119,0,0,0,.30687.20544,1.66119,1.66119,0,0,0,.3204.15082,2.21327,2.21327,0,0,0,.67334.105A2.03,2.03,0,0,0,78.90145,28.43l-.63558-.55934a1.29431,1.29431,0,0,1-.956.43892.99133.99133,0,0,1-.74055-.2881,1.07207,1.07207,0,0,1-.30378-.82558h2.724v-.74578Zm-2.724,0h0a1.23541,1.23541,0,0,1,.2748-.79994.94636.94636,0,0,1,1.29871,0,1.18543,1.18543,0,0,1,.27456.79994Z" style="fill:#fff;fill-rule:evenodd"/><path d="M80.056,24.59725V29.108h.87665V26.41966a.97183.97183,0,0,1,.24914-.72226.82973.82973,0,0,1,.622-.25248.81723.81723,0,0,1,.61872.25248.98381.98381,0,0,1,.24439.72226V29.108h.87784v-2.9988a1.55911,1.55911,0,0,0-.46789-1.1733,1.47385,1.47385,0,0,0-.99161-.39474,1.39344,1.39344,0,0,0-1.13577.53392h-.01686v-.47787Z" style="fill:#fff;fill-rule:evenodd"/><path d="M84.88932,23.22373v1.37352H84.4485V25.292h.44082v2.706a1.06123,1.06123,0,0,0,.30163.81513,1.02433,1.02433,0,0,0,.756.295h.45792v-.851h-.32729c-.21328.00547-.31708-.10711-.31233-.33607V25.292h.63962v-.69472h-.63962V23.22373Z" style="fill:#fff;fill-rule:evenodd"/><polygon points="89.521 22.773 89.521 29.108 93.442 29.108 93.442 28.205 90.45 28.205 90.45 22.773 89.521 22.773" style="fill:#fff;fill-rule:evenodd"/><path d="M94.44364,23.22373v1.37352h-.44106V25.292h.44106v2.706a1.06035,1.06035,0,0,0,.30163.81513,1.02359,1.02359,0,0,0,.756.295H95.959v-.851h-.327c-.21352.00547-.31708-.10711-.31233-.33607V25.292H95.959v-.69472h-.63938V23.22373Z" style="fill:#fff;fill-rule:evenodd"/><path d="M100.35146,29.108V22.77341h-.87878v2.29981a2.45845,2.45845,0,0,0-.50828-.38975,1.36745,1.36745,0,0,0-.622-.14227,1.34208,1.34208,0,0,0-1.16808.58783,1.12852,1.12852,0,0,0-.24036.56148,6.424,6.424,0,0,0-.07125,1.156,6.409,6.409,0,0,0,.07125,1.14789,1.14029,1.14029,0,0,0,.24036.57833,1.4747,1.4747,0,0,0,.49141.41826,1.4264,1.4264,0,0,0,.67667.16958,1.46554,1.46554,0,0,0,1.13031-.52371V29.108ZM99.466,27.33669h0a1.66119,1.66119,0,0,1-.1152.45768.63351.63351,0,0,1-.247.332.82949.82949,0,0,1-.49354.13063.78379.78379,0,0,1-.47455-.12184.75389.75389,0,0,1-.26672-.32254,1.78077,1.78077,0,0,1-.105-.46243,4.87466,4.87466,0,0,1-.02565-.50162c0-.1798.00878-.35627.02565-.52727a1.73345,1.73345,0,0,1,.105-.44439.69259.69259,0,0,1,.26672-.32372.85668.85668,0,0,1,.47455-.10831.84524.84524,0,0,1,.49354.12707.62383.62383,0,0,1,.247.33062,1.67524,1.67524,0,0,1,.1152.44366c.00546.16151.00665.32729.00665.50234C99.47268,27.0075,99.47149,27.17043,99.466,27.33669Z" style="fill:#fff;fill-rule:evenodd"/><polygon points="48.003 39.631 48.824 39.631 48.824 35.652 48.838 35.652 51.29 39.631 52.067 39.631 52.067 34.033 51.247 34.033 51.247 38.013 51.232 38.013 48.776 34.033 48.003 34.033 48.003 39.631" style="fill:#fff;fill-rule:evenodd"/><path d="M54.78681,34.03281l-1.97062,5.59812H53.686l.41731-1.25216h2.05565l.42063,1.25216h.866l-1.97015-5.59812Zm-.44652,3.59448h0l.7845-2.44849h.01472l.78426,2.44849Z" style="fill:#fff;fill-rule:evenodd"/><path d="M61.676,38.04816a1.61852,1.61852,0,0,0-.36078-1.04552,1.66786,1.66786,0,0,0-1.127-.5648c-.25722-.03372-.46053-.0627-.60873-.08835a1.03491,1.03491,0,0,1-.585-.2767.62862.62862,0,0,1-.18241-.43821.73667.73667,0,0,1,.27195-.6066,1.00356,1.00356,0,0,1,.633-.19523,2.409,2.409,0,0,1,1.34241.43013l.4584-.69686a2.98133,2.98133,0,0,0-1.7571-.57833,1.80512,1.80512,0,0,0-1.2961.45317,1.55711,1.55711,0,0,0-.47335,1.18422,1.51287,1.51287,0,0,0,.37574,1.03626,1.75123,1.75123,0,0,0,1.06452.5344q.38974.0577.71823.10379.71323.12825.70564.75267c-.00879.51041-.36766.77024-1.07046.78093a2.34619,2.34619,0,0,1-1.54168-.55815l-.538.63772a3.02391,3.02391,0,0,0,2.069.76478Q61.63648,39.65326,61.676,38.04816Z" style="fill:#fff;fill-rule:evenodd"/><path d="M65.55813,39.35494a1.91971,1.91971,0,0,0,.66242-.65244,2.69235,2.69235,0,0,0,.15153-.28952,1.43609,1.43609,0,0,0,.08954-.32231,8.29,8.29,0,0,0,.06389-1.25832,11.40538,11.40538,0,0,0-.04156-1.19373,1.71348,1.71348,0,0,0-.24915-.66123,1.811,1.811,0,0,0-1.65022-.94458H62.68735v5.59812h1.84141a1.83617,1.83617,0,0,0,1.02937-.276Zm-2.05-.52181h0V34.83275H64.491a1.07291,1.07291,0,0,1,.96738.47264.98082.98082,0,0,1,.21281.5116c.02161.2102.03372.55957.03372,1.04552,0,.50091-.01211.84221-.03372,1.02343a.94271.94271,0,0,1-.17576.45792,1.1022,1.1022,0,0,1-1.00443.48927Z" style="fill:#fff;fill-rule:evenodd"/><path d="M68.90156,34.03281l-1.96991,5.59812h.86976l.41755-1.25216h2.0547l.42134,1.25216h.866l-1.96991-5.59812Zm-.44581,3.59448h0l.7845-2.44849H69.255l.78425,2.44849Z" style="fill:#fff;fill-rule:evenodd"/><path d="M73.90115,33.98769a1.82187,1.82187,0,0,0-1.06713.31446,1.91414,1.91414,0,0,0-.63083.69139,1.571,1.571,0,0,0-.18312.53274,9.68652,9.68652,0,0,0-.05582,1.30607,9.677,9.677,0,0,0,.05582,1.29728,1.7168,1.7168,0,0,0,.07481.29973c.03231.07743.06793.15676.10831.24226a1.85024,1.85024,0,0,0,.63083.68332,1.87254,1.87254,0,0,0,1.06713.32254,1.79882,1.79882,0,0,0,1.27923-.48618l.68474.56622.48737-.58356-.71514-.58784a1.49834,1.49834,0,0,0,.1596-.53653c.02423-.23039.03706-.637.03706-1.21724a11.06114,11.06114,0,0,0-.04917-1.30607,1.29751,1.29751,0,0,0-.18906-.53274,1.8595,1.8595,0,0,0-1.69463-1.00585Zm1.03412,4.01819h0l-.63415-.51991-.48761.581.69281.57027a.8983.8983,0,0,1-.60778.19594.94145.94145,0,0,1-.49759-.12707.98065.98065,0,0,1-.34272-.28073.94909.94909,0,0,1-.21353-.47265,6.779,6.779,0,0,1-.05985-1.12033,6.90142,6.90142,0,0,1,.05985-1.127.93464.93464,0,0,1,.21353-.46528,1.041,1.041,0,0,1,.34272-.28881,1.08225,1.08225,0,0,1,.49759-.11852,1.1399,1.1399,0,0,1,.51017.11852,1.16737,1.16737,0,0,1,.54817.75409,7.38478,7.38478,0,0,1,.05582,1.127A5.531,5.531,0,0,1,74.93527,38.00588Z" style="fill:#fff;fill-rule:evenodd"/><rect x="76.8971" y="35.50395" width="0.77571" height="0.7978" style="fill:#fff"/><rect x="76.8971" y="37.28884" width="0.77571" height="0.79851" style="fill:#fff"/><path d="M81.6226,35.24008a1.02425,1.02425,0,0,1,.342-.28881,1.086,1.086,0,0,1,.49829-.11852,1.04474,1.04474,0,0,1,.67121.23418,1.23434,1.23434,0,0,1,.36553.57715h.87071a2.12621,2.12621,0,0,0-.62418-1.17686,1.95744,1.95744,0,0,0-2.34755-.16507,1.92517,1.92517,0,0,0-.63154.69139,1.62427,1.62427,0,0,0-.18264.53274,9.72678,9.72678,0,0,0-.05582,1.30607,9.71756,9.71756,0,0,0,.05582,1.29728,1.73774,1.73774,0,0,0,.07481.29973c.0323.07743.06793.15676.10783.24226a1.85058,1.85058,0,0,0,.63154.68332,1.8712,1.8712,0,0,0,1.0669.32254,1.90133,1.90133,0,0,0,1.22412-.414,2.11915,2.11915,0,0,0,.68071-1.19658h-.87071a1.10531,1.10531,0,0,1-1.03531.76621.94623.94623,0,0,1-.49972-.12707.97181.97181,0,0,1-.342-.28073.94877.94877,0,0,1-.21328-.47265,6.77787,6.77787,0,0,1-.05985-1.12033,6.90024,6.90024,0,0,1,.05985-1.127A.93432.93432,0,0,1,81.6226,35.24008Z" style="fill:#fff;fill-rule:evenodd"/><path d="M84.52118,39.63093h.86976l.4173-1.25216h2.05565l.42063,1.25216h.866l-1.97015-5.59812H86.4918l-1.97062,5.59812ZM86.8445,35.1788h0l.785,2.44849H86.04528l.78449-2.44849Z" style="fill:#fff;fill-rule:evenodd"/><path d="M92.75233,39.35494a1.91968,1.91968,0,0,0,.66241-.65244,2.56687,2.56687,0,0,0,.15153-.28952,1.39908,1.39908,0,0,0,.08955-.32231,8.29,8.29,0,0,0,.06389-1.25832,11.57914,11.57914,0,0,0-.04109-1.19373,1.72218,1.72218,0,0,0-.24963-.66123,1.811,1.811,0,0,0-1.65022-.94458H89.88154v5.59812H91.723a1.83457,1.83457,0,0,0,1.02937-.276Zm-2.04995-.52181h0V34.83275h.98281a1.07163,1.07163,0,0,1,.96738.47264.987.987,0,0,1,.21352.5116c.02091.2102.033.55957.033,1.04552,0,.50091-.01211.84221-.033,1.02343a.95008.95008,0,0,1-.17647.45792,1.1014,1.1014,0,0,1-1.00443.48927Z" style="fill:#fff;fill-rule:evenodd"/><polygon points="96.574 39.631 96.574 34.785 98.062 34.785 98.062 34.033 94.269 34.033 94.269 34.785 95.754 34.785 95.754 39.631 96.574 39.631" style="fill:#fff;fill-rule:evenodd"/></g></g></svg>