<svg xmlns="http://www.w3.org/2000/svg" viewBox="0 0 102.72835 34.22721"><g id="图层_2" data-name="图层 2"><g id="Layer_1" data-name="Layer 1"><polygon points="40.912 13.645 42.49 13.645 42.49 6.343 45.268 6.343 45.268 5.022 38.129 5.022 38.129 6.343 40.912 6.343 40.912 13.645" style="fill:#fff;fill-rule:evenodd"/><path d="M46.24008,12.90253a2.70039,2.70039,0,0,0,.9907.66865,3.47438,3.47438,0,0,0,1.31547.23609,3.3922,3.3922,0,0,0,1.29521-.23609,2.72745,2.72745,0,0,0,.99138-.66865,2.95365,2.95365,0,0,0,.62836-1.03594,4.25916,4.25916,0,0,0,.00315-2.68134,2.94684,2.94684,0,0,0-.62206-1.03617,2.73625,2.73625,0,0,0-.988-.66843A3.50461,3.50461,0,0,0,48.533,7.24637a3.39026,3.39026,0,0,0-1.29251.23428,2.7527,2.7527,0,0,0-.99071.66843,2.965,2.965,0,0,0-.629,1.03617,4.25493,4.25493,0,0,0-.00315,2.68134,2.93817,2.93817,0,0,0,.62251,1.03594Zm.85612-3.25412h0a1.94509,1.94509,0,0,1,.32363-.63668,1.33545,1.33545,0,0,1,.49108-.388,1.598,1.598,0,0,1,1.25357,0,1.30169,1.30169,0,0,1,.49761.388,1.895,1.895,0,0,1,.32408.63668,3.38968,3.38968,0,0,1,0,1.75433,1.83291,1.83291,0,0,1-.32408.63354,1.35207,1.35207,0,0,1-.48725.38665,1.44571,1.44571,0,0,1-.62859.13324,1.47152,1.47152,0,0,1-.62881-.13324,1.3392,1.3392,0,0,1-.49378-.38665,1.81783,1.81783,0,0,1-.32746-.63354,3.38968,3.38968,0,0,1,0-1.75433Z" style="fill:#fff;fill-rule:evenodd"/><path d="M53.69018,11.89405a2.35428,2.35428,0,0,0,.14809.925,1.45015,1.45015,0,0,0,.70556.733,2.836,2.836,0,0,0,1.2862.25522,5.43984,5.43984,0,0,0,.6673-.04659,4.04071,4.04071,0,0,0,.61554-.12063v-1.2637c-.15687.04321-.32094.07517-.49378.10577a3.36759,3.36759,0,0,1-.52619.04209.85277.85277,0,0,1-.76632-.29663,1.01447,1.01447,0,0,1-.10915-.53586v-3.034h1.80226V7.40031H55.21743V5.65543H53.69018V7.40031H52.5228v1.2574h1.16738Z" style="fill:#fff;fill-rule:evenodd"/><path d="M58.96037,11.89405a2.29363,2.29363,0,0,0,.15056.925,1.43224,1.43224,0,0,0,.70241.733,2.838,2.838,0,0,0,1.28621.25522,5.35429,5.35429,0,0,0,.6673-.04659,3.94831,3.94831,0,0,0,.61553-.12063v-1.2637c-.15371.04321-.32093.07517-.49378.10577a3.35812,3.35812,0,0,1-.523.04209.85578.85578,0,0,1-.76948-.29663,1.04878,1.04878,0,0,1-.10892-.53586v-3.034H62.293V7.40031H60.48717V5.65543h-1.5268V7.40031H57.793v1.2574h1.16738Z" style="fill:#fff;fill-rule:evenodd"/><path d="M64.4833,13.08708a2.727,2.727,0,0,0,1.03909.54667,4.5026,4.5026,0,0,0,1.26078.17352,6.7147,6.7147,0,0,0,1.27-.11748,4.5478,4.5478,0,0,0,.90789-.24374V12.22758a7.26954,7.26954,0,0,1-.97855.25769,5.1365,5.1365,0,0,1-.93017.09,3.22158,3.22158,0,0,1-.7535-.08665,1.7817,1.7817,0,0,1-.60923-.2757,1.44581,1.44581,0,0,1-.42041-.49692,1.88763,1.88763,0,0,1-.1958-.73932h4.09314q.01417-.22585.01913-.54554a4.59623,4.59623,0,0,0-.20233-1.44308,2.62684,2.62684,0,0,0-.5676-.99453,2.20076,2.20076,0,0,0-.86265-.56782,3.14862,3.14862,0,0,0-1.09085-.17937,2.94089,2.94089,0,0,0-1.09986.21,2.69032,2.69032,0,0,0-.943.627A2.98182,2.98182,0,0,0,63.76176,9.14a4.149,4.149,0,0,0-.24689,1.49011,3.71215,3.71215,0,0,0,.26287,1.46738,2.70482,2.70482,0,0,0,.70556.98958Zm.7922-3.82329h0a1.46042,1.46042,0,0,1,.25972-.43009,1.24921,1.24921,0,0,1,.39183-.29032,1.22194,1.22194,0,0,1,.51606-.10533,1.15586,1.15586,0,0,1,.5039.10533,1.09638,1.09638,0,0,1,.36235.29032,1.30584,1.30584,0,0,1,.2183.43009A1.84341,1.84341,0,0,1,67.601,9.783H65.14745A1.9724,1.9724,0,0,1,65.2755,9.26379Z" style="fill:#fff;fill-rule:evenodd"/><path d="M72.3959,9.34729a2.218,2.218,0,0,1,.72536-.60924,1.86468,1.86468,0,0,1,.853-.20862,1.16247,1.16247,0,0,1,.571.12828.8011.8011,0,0,1,.35267.42468,1.37463,1.37463,0,0,1,.07022.31779,4.14593,4.14593,0,0,1,.01665.42941v3.81563h1.52972V9.59215c0-.2066-.00945-.38778-.02228-.54464a2.29637,2.29637,0,0,0-.08664-.43526,1.99891,1.99891,0,0,0-.32094-.62,1.79886,1.79886,0,0,0-.46519-.42873,2.10442,2.10442,0,0,0-.58358-.24172,2.801,2.801,0,0,0-.661-.07539,2.59709,2.59709,0,0,0-.68013.0862,2.92022,2.92022,0,0,0-.58313.22978,2.34038,2.34038,0,0,0-.47194.32723,2.25652,2.25652,0,0,0-.33939.37945h-.02633L72.133,7.40031h-1.2637v6.24491H72.3959Z" style="fill:#fff;fill-rule:evenodd"/><path d="M80.04563,9.34729a2.27617,2.27617,0,0,1,.69295-.60608,1.71612,1.71612,0,0,1,.821-.21178,1.35722,1.35722,0,0,1,.57412.11342.79838.79838,0,0,1,.38462.40128,1.09955,1.09955,0,0,1,.09.31914,3.205,3.205,0,0,1,.02543.47149v3.81046H84.161V9.63109a4.57866,4.57866,0,0,0-.05468-.7553,2.19953,2.19953,0,0,0-.1832-.555,1.81091,1.81091,0,0,0-.81471-.823,2.10454,2.10454,0,0,0-.548-.18883,2.84053,2.84053,0,0,0-.60023-.06256,2.49242,2.49242,0,0,0-.66032.083,2.33471,2.33471,0,0,0-.53587.217,2.418,2.418,0,0,0-.43323.31058,2.83139,2.83139,0,0,0-.32971.363h-.02949a5.1769,5.1769,0,0,0,.05807-.56467c.00968-.20863.016-.47645.016-.79671V4.31318H78.51906v9.332h1.52657Z" style="fill:#fff;fill-rule:evenodd"/><path d="M86.40623,13.26825a1.81123,1.81123,0,0,0,.66392.39926,2.504,2.504,0,0,0,.83069.13976,2.44035,2.44035,0,0,0,.61238-.07855,2.48823,2.48823,0,0,0,.51291-.2021,3.16075,3.16075,0,0,0,.41411-.268,3.03938,3.03938,0,0,0,.31125-.27952H89.774l.06369.66617h1.38253q-.01452-.34637-.02881-.79423c-.00945-.29482-.00945-.65086-.00945-1.06295V9.43731a2.17439,2.17439,0,0,0-.17352-.87165,1.81872,1.81872,0,0,0-.51628-.69093,2.46252,2.46252,0,0,0-.85612-.46182,3.81573,3.81573,0,0,0-1.19349-.16654,5.48977,5.48977,0,0,0-1.10953.1168,4.93891,4.93891,0,0,0-.99769.31463V8.86949a7.1855,7.1855,0,0,1,1.00421-.30811,4.35787,4.35787,0,0,1,.92679-.104,1.93529,1.93529,0,0,1,.64434.0943,1.13813,1.13813,0,0,1,.43009.25.93378.93378,0,0,1,.23721.35919,1.18824,1.18824,0,0,1,.074.42491v.24891a6.02075,6.02075,0,0,0-.59708-.122,5.63752,5.63752,0,0,0-.747-.04974,3.25337,3.25337,0,0,0-1.01389.14607,2.25474,2.25474,0,0,0-.78523.41973,1.91045,1.91045,0,0,0-.51358.677,2.1476,2.1476,0,0,0-.1832.9027,2.06851,2.06851,0,0,0,.15777.82732,1.84879,1.84879,0,0,0,.43639.63241Zm1.286-2.19724h0a1.52047,1.52047,0,0,1,.88493-.22258,3.96088,3.96088,0,0,1,.571.04141c.1895.02745.35919.06054.50391.09452v.95312a1.96738,1.96738,0,0,1-.23406.22574,1.86356,1.86356,0,0,1-.31464.21,2.14449,2.14449,0,0,1-.37832.15439,1.5135,1.5135,0,0,1-.43954.06054,1.15013,1.15013,0,0,1-.35266-.05109.899.899,0,0,1-.29551-.15439.78708.78708,0,0,1-.19827-.25972.88.88,0,0,1-.074-.3718A.76171.76171,0,0,1,87.69221,11.071Z" style="fill:#fff;fill-rule:evenodd"/><path d="M94.68432,9.34729a2.38958,2.38958,0,0,1,.747-.59708,2.34964,2.34964,0,0,1,.42041-.16475,1.53973,1.53973,0,0,1,.41028-.056.90477.90477,0,0,1,.5838.178.88537.88537,0,0,1,.27614.45867,2.28557,2.28557,0,0,1,.04479.30292c.0063.11681.0126.24059.0126.37518v3.801h1.52725V9.34729a2.32553,2.32553,0,0,1,.34321-.33872,2.35369,2.35369,0,0,1,.40083-.25836,2.25869,2.25869,0,0,1,.42289-.16475,1.52847,1.52847,0,0,1,.41073-.056.9096.9096,0,0,1,.58065.178.84968.84968,0,0,1,.2757.45867,1.51753,1.51753,0,0,1,.04523.30292c.00945.11681.016.24059.016.37518v3.801h1.52657V9.7722c0-.19085-.00315-.356-.01283-.50031-.00945-.14786-.02543-.28065-.04141-.4024a2.6907,2.6907,0,0,0-.07719-.32611,1.34176,1.34176,0,0,0-.10916-.26782,1.84543,1.84543,0,0,0-.699-.75034,2.19646,2.19646,0,0,0-1.12281-.27885,2.63281,2.63281,0,0,0-.66685.083,2.48578,2.48578,0,0,0-.58358.23294,2.57386,2.57386,0,0,0-.49445.354,3.03809,3.03809,0,0,0-.4006.45731H98.491a1.74781,1.74781,0,0,0-.75011-.85477,2.24968,2.24968,0,0,0-1.10954-.27254,2.46792,2.46792,0,0,0-.66077.0862,2.99291,2.99291,0,0,0-.57435.22978,2.481,2.481,0,0,0-.46812.32723A2.45528,2.45528,0,0,0,94.588,8.269h-.02565l-.14089-.86872h-1.2637v6.24491h1.52657Z" style="fill:#fff;fill-rule:evenodd"/><path d="M41.1263,21.32241l.44134,1.1451h.869l-1.78111-4.49374h-.75417l-1.78179,4.49374h.87593l.43954-1.1451Zm-1.27158-1.0877h0c.122-.31576.26355-.70939.41929-1.17841h.0153q.2353.7005.41906,1.17841l.15371.39992H39.70033Z" style="fill:#fff;fill-rule:evenodd"/><path d="M44.05949,20.03058a.801.801,0,0,1,.30945-.18635,1.10868,1.10868,0,0,1,.36617-.05987,1.643,1.643,0,0,1,.35739.03826,2.02617,2.02617,0,0,1,.31261.10263v-.64749a1.88228,1.88228,0,0,0-.36572-.106,2.19177,2.19177,0,0,0-.41973-.03894,1.93227,1.93227,0,0,0-.59326.099,1.57688,1.57688,0,0,0-.53969.30945,1.54832,1.54832,0,0,0-.39115.54532,1.9359,1.9359,0,0,0-.15236.80571,1.877,1.877,0,0,0,.13211.73436,1.41436,1.41436,0,0,0,.35964.51876,1.4711,1.4711,0,0,0,.53474.3054,2.08291,2.08291,0,0,0,.65694.10083,2.25085,2.25085,0,0,0,.46137-.04591,1.85228,1.85228,0,0,0,.36752-.10893V21.748a2.36407,2.36407,0,0,1-.33443.10848,1.638,1.638,0,0,1-.39813.04388.99439.99439,0,0,1-.42221-.08237.86307.86307,0,0,1-.298-.21606.92021.92021,0,0,1-.17532-.32408,1.33075,1.33075,0,0,1-.06009-.40465,1.45714,1.45714,0,0,1,.07855-.50571A.859.859,0,0,1,44.05949,20.03058Z" style="fill:#fff;fill-rule:evenodd"/><path d="M48.39388,22.67479v1.35395h.79739V19.21339h-.69859l-.03375.36617H48.4443a1.12676,1.12676,0,0,0-.38463-.32408,1.10462,1.10462,0,0,0-.52506-.12266,1.30331,1.30331,0,0,0-.9826.44674,1.60294,1.60294,0,0,0-.31756.55747,2.26091,2.26091,0,0,0-.122.76565,2.19482,2.19482,0,0,0,.1168.749,1.45361,1.45361,0,0,0,.30946.51606,1.205,1.205,0,0,0,.44134.29145,1.39465,1.39465,0,0,0,.5048.0925,1.42821,1.42821,0,0,0,.28583-.02791,1.263,1.263,0,0,0,.24734-.07854,1.49857,1.49857,0,0,0,.21065-.10713,1.28587,1.28587,0,0,0,.16835-.11883h.007c-.0018.04411-.00382.10848-.007.19017-.00113.0799-.00316.17037-.00316.26535Zm0-1.08388h0a.88694.88694,0,0,1-.12175.11433.979.979,0,0,1-.162.10465,1.109,1.109,0,0,1-.19918.07652.83426.83426,0,0,1-.22889.03061.6956.6956,0,0,1-.32295-.072.65235.65235,0,0,1-.23339-.20863.99047.99047,0,0,1-.14111-.32859,1.87962,1.87962,0,0,1-.04659-.43886,1.72263,1.72263,0,0,1,.07225-.53609.8887.8887,0,0,1,.18882-.34366.64871.64871,0,0,1,.25071-.17172.7067.7067,0,0,1,.25387-.04974.7406.7406,0,0,1,.3898.11613,1.25268,1.25268,0,0,1,.30045.26287Z" style="fill:#fff;fill-rule:evenodd"/><path d="M51.28566,21.82767a.507.507,0,0,1-.22889-.22011.74384.74384,0,0,1-.07021-.20615,1.50662,1.50662,0,0,1-.02364-.28245V19.21339h-.79558v1.98907a1.792,1.792,0,0,0,.04164.40263,1.14472,1.14472,0,0,0,.61688.78072,1.76678,1.76678,0,0,0,.812.16587,2.09415,2.09415,0,0,0,.46835-.04906,1.54228,1.54228,0,0,0,.3763-.13706,1.214,1.214,0,0,0,.291-.21448,1.15777,1.15777,0,0,0,.19715-.28133,1.44975,1.44975,0,0,0,.13841-.66729V19.21339H52.3135v1.92155a1.006,1.006,0,0,1-.0772.43954.51786.51786,0,0,1-.23023.24554.88669.88669,0,0,1-.72041.00765Z" style="fill:#fff;fill-rule:evenodd"/><rect x="54.08696" y="17.60445" width="0.83587" height="0.86445" style="fill:#fff"/><rect x="54.10676" y="19.21339" width="0.79558" height="3.25412" style="fill:#fff"/><path d="M56.53357,19.19741a1.09642,1.09642,0,0,0-.3871.19445.92779.92779,0,0,0-.26422.32994,1.09108,1.09108,0,0,0-.097.47195.86878.86878,0,0,0,.07337.37517.70443.70443,0,0,0,.194.25341,1.00649,1.00649,0,0,0,.28267.16249,3.37845,3.37845,0,0,0,.33736.10983c.09183.02228.1787.04411.2622.06572a1.62631,1.62631,0,0,1,.22393.07967.4725.4725,0,0,1,.15574.11163.25288.25288,0,0,1,.05986.17239.27734.27734,0,0,1-.05468.17352.41705.41705,0,0,1-.14562.11929.7799.7799,0,0,1-.22078.06819,1.55062,1.55062,0,0,1-.27547.02183,2.80713,2.80713,0,0,1-.41276-.03511,2.5177,2.5177,0,0,1-.483-.13211v.64052a1.81613,1.81613,0,0,0,.40758.12243,2.92271,2.92271,0,0,0,.55522.04906,2.31531,2.31531,0,0,0,.57277-.06572,1.25844,1.25844,0,0,0,.44787-.20142.95411.95411,0,0,0,.28965-.34007,1.07087,1.07087,0,0,0,.10532-.48162.915.915,0,0,0-.08552-.41478.8169.8169,0,0,0-.22078-.26355,1.06864,1.06864,0,0,0-.30248-.16136c-.1123-.03759-.22393-.07022-.33556-.09633-.072-.01778-.14606-.03758-.22258-.05536a1.51648,1.51648,0,0,1-.21764-.07292.4265.4265,0,0,1-.16384-.11276.29833.29833,0,0,1-.02926-.30495.25413.25413,0,0,1,.08485-.10465.51938.51938,0,0,1,.15867-.072.88414.88414,0,0,1,.23923-.02746,2.29445,2.29445,0,0,1,.23542.01576c.08169.01035.16541.0243.24891.03848q.12625.02464.24936.05537c.0817.02183.1589.04591.23429.07021v-.64884a3.195,3.195,0,0,0-.47465-.12626,3.14266,3.14266,0,0,0-.56219-.04861A1.59442,1.59442,0,0,0,56.53357,19.19741Z" style="fill:#fff;fill-rule:evenodd"/><rect x="59.00628" y="19.21339" width="0.79558" height="3.25412" style="fill:#fff"/><rect x="58.98603" y="17.60445" width="0.83564" height="0.86445" style="fill:#fff"/><path d="M62.77353,19.86854v-.65515h-.93917v-.90923H61.037v.90923h-.60856v.65515H61.037v1.68681a1.27136,1.27136,0,0,0,.07652.4823.7562.7562,0,0,0,.3682.38147,1.46874,1.46874,0,0,0,.66977.13256,2.77978,2.77978,0,0,0,.34772-.02408,1.95868,1.95868,0,0,0,.32093-.06257v-.65852a2.56525,2.56525,0,0,1-.25724.05559,1.782,1.782,0,0,1-.27412.02116.44722.44722,0,0,1-.39948-.15439.54915.54915,0,0,1-.05492-.27952V19.86854Z" style="fill:#fff;fill-rule:evenodd"/><rect x="63.59905" y="19.21339" width="0.79738" height="3.25412" style="fill:#fff"/><rect x="63.57924" y="17.60445" width="0.83564" height="0.86445" style="fill:#fff"/><path d="M66.21017,22.42925a1.80831,1.80831,0,0,0,.6871.12243,1.77644,1.77644,0,0,0,.67495-.12243,1.42861,1.42861,0,0,0,.51494-.34839,1.52689,1.52689,0,0,0,.32723-.54037,2.23022,2.23022,0,0,0,.00383-1.39693,1.56758,1.56758,0,0,0-.32611-.53992,1.4146,1.4146,0,0,0-.51471-.34816,1.82214,1.82214,0,0,0-.6871-.12266,1.77512,1.77512,0,0,0-.67563.12266,1.44194,1.44194,0,0,0-.51426.34816,1.49273,1.49273,0,0,0-.3279.53992,2.03,2.03,0,0,0-.11343.699,2.07791,2.07791,0,0,0,.11162.6979,1.49932,1.49932,0,0,0,.32476.54037,1.41241,1.41241,0,0,0,.51471.34839Zm-.06887-2.044h0a1.0136,1.0136,0,0,1,.16722-.33174.68928.68928,0,0,1,.25769-.20232.80494.80494,0,0,1,.32409-.06685.826.826,0,0,1,.32926.06685.66414.66414,0,0,1,.25882.20232.9718.9718,0,0,1,.16721.33174,1.71891,1.71891,0,0,1,0,.91419.93734.93734,0,0,1-.16721.32971.68725.68725,0,0,1-.25567.20165.79731.79731,0,0,1-.65132,0,.69363.69363,0,0,1-.26107-.20165.947.947,0,0,1-.169-.32971,1.77513,1.77513,0,0,1,0-.91419Z" style="fill:#fff;fill-rule:evenodd"/><path d="M70.16625,20.22773a1.21148,1.21148,0,0,1,.37764-.31711.99011.99011,0,0,1,.44787-.10915.60649.60649,0,0,1,.296.06707.40475.40475,0,0,1,.18252.22123.6222.6222,0,0,1,.03826.16587,2.04342,2.04342,0,0,1,.01013.22393v1.98794h.79378V20.35579c0-.10781-.00135-.20211-.00968-.2838a1.12393,1.12393,0,0,0-.21245-.55049.94722.94722,0,0,0-.24441-.22281,1.04992,1.04992,0,0,0-.30226-.12626,1.48252,1.48252,0,0,0-.34591-.03961,1.34719,1.34719,0,0,0-.35267.04546,1.55544,1.55544,0,0,0-.30428.11928,1.23353,1.23353,0,0,0-.24576.17082,1.13177,1.13177,0,0,0-.17735.19783H70.103l-.072-.45282h-.65852v3.25412h.79378Z" style="fill:#fff;fill-rule:evenodd"/><rect x="76.37493" y="18.0791" width="0.82214" height="4.49374" style="fill:#fff"/><polygon points="79.965 18.079 79.965 22.573 82.888 22.573 82.888 21.884 80.787 21.884 80.787 18.079 79.965 18.079" style="fill:#fff;fill-rule:evenodd"/><rect x="83.69855" y="17.7109" width="0.83587" height="0.8613" style="fill:#fff"/><rect x="83.71903" y="19.31917" width="0.79558" height="3.25367" style="fill:#fff"/><path d="M86.33983,20.33418a1.39954,1.39954,0,0,1,.1805-.17734,1.31447,1.31447,0,0,1,.20863-.13526,1.12241,1.12241,0,0,1,.21876-.08418.7905.7905,0,0,1,.2156-.03128A.47264.47264,0,0,1,87.4676,20a.45717.45717,0,0,1,.14246.23924.8099.8099,0,0,1,.02341.15754c.00517.06121.00653.12558.00653.19445v1.98164h.79558V20.33418a1.30531,1.30531,0,0,1,.18049-.17734,1.23415,1.23415,0,0,1,.20931-.13526,1.03179,1.03179,0,0,1,.21875-.08418.773.773,0,0,1,.21358-.03128A.47334.47334,0,0,1,89.56087,20a.45726.45726,0,0,1,.14539.23924,1.07447,1.07447,0,0,1,.02183.15754c.005.06121.0081.12558.0081.19445v1.98164h.79558V20.555c0-.0988-.0018-.18634-.007-.26151a1.74708,1.74708,0,0,0-.0216-.20931,1.171,1.171,0,0,0-.03826-.16834A.9.9,0,0,0,90.408,19.776a.963.963,0,0,0-.36415-.39115,1.12018,1.12018,0,0,0-.587-.14607,1.32864,1.32864,0,0,0-.34771.04344,1.31481,1.31481,0,0,0-.30428.12176,1.25281,1.25281,0,0,0-.25589.18387,1.60164,1.60164,0,0,0-.21043.23721h-.01283a.9383.9383,0,0,0-.3916-.44472,1.18287,1.18287,0,0,0-.57818-.14156,1.30444,1.30444,0,0,0-.34636.04456,1.45913,1.45913,0,0,0-.29731.12064,1.17723,1.17723,0,0,0-.24441.17036,1.254,1.254,0,0,0-.17847.19716h-.01148l-.07539-.45237h-.657v3.25367h.79423Z" style="fill:#fff;fill-rule:evenodd"/><rect x="91.54296" y="17.7109" width="0.83564" height="0.8613" style="fill:#fff"/><rect x="91.56276" y="19.31917" width="0.79423" height="3.25367" style="fill:#fff"/><path d="M93.59391,21.66045a1.20294,1.20294,0,0,0,.07855.483.75129.75129,0,0,0,.36617.38035,1.47333,1.47333,0,0,0,.67.13189,2.71226,2.71226,0,0,0,.34749-.02228,2.07221,2.07221,0,0,0,.32093-.063v-.65852a2.36825,2.36825,0,0,1-.25567.05559,1.72725,1.72725,0,0,1-.27367.0216.44379.44379,0,0,1-.40015-.15506.5307.5307,0,0,1-.05807-.27862V19.97386h.941v-.65469h-.941v-.91036h-.79558v.91036h-.60856v.65469h.60856Z" style="fill:#fff;fill-rule:evenodd"/><path d="M97.67062,22.65566a3.55383,3.55383,0,0,0,.66144-.05919,2.48292,2.48292,0,0,0,.47353-.12761V21.834a3.8409,3.8409,0,0,1-.50976.13458,2.73823,2.73823,0,0,1-.485.04614,1.64878,1.64878,0,0,1-.39295-.04411.90646.90646,0,0,1-.31576-.14539.74484.74484,0,0,1-.22078-.25791,1.00755,1.00755,0,0,1-.10015-.38395h2.13287c.00315-.07855.007-.1742.01013-.28515a2.33645,2.33645,0,0,0-.10713-.75147,1.388,1.388,0,0,0-.29415-.51876,1.16686,1.16686,0,0,0-.451-.29595,1.66213,1.66213,0,0,0-.5703-.09318,1.54112,1.54112,0,0,0-.57165.10848,1.424,1.424,0,0,0-.4913.32724,1.55023,1.55023,0,0,0-.34254.55116,2.14729,2.14729,0,0,0-.129.7751,1.92228,1.92228,0,0,0,.13729.767,1.37547,1.37547,0,0,0,.36752.51291,1.43129,1.43129,0,0,0,.54149.287,2.332,2.332,0,0,0,.65717.088Zm-.78591-2.36672h0a.7073.7073,0,0,1,.13706-.22213.584.584,0,0,1,.20233-.151.59947.59947,0,0,1,.26715-.05627.57045.57045,0,0,1,.26421.05627.50624.50624,0,0,1,.1895.151.658.658,0,0,1,.11343.22213.9081.9081,0,0,1,.04029.27233H96.81832A1.02861,1.02861,0,0,1,96.88471,20.28894Z" style="fill:#fff;fill-rule:evenodd"/><path d="M102.71485,22.1594c-.00495-.15439-.007-.33871-.007-.55431V17.7109h-.79558v1.35193c0,.09565,0,.18567.002.26782,0,.08169.0018.14561.00315.1895h-.00518c-.05154-.03511-.10825-.07022-.16834-.10466a1.81323,1.81323,0,0,0-.194-.08979,1.20338,1.20338,0,0,0-.22259-.06392,1.25077,1.25077,0,0,0-.24869-.023,1.37582,1.37582,0,0,0-.54306.11163,1.286,1.286,0,0,0-.465.33939,1.629,1.629,0,0,0-.32093.56084,2.28151,2.28151,0,0,0-.11681.76115,2.178,2.178,0,0,0,.11545.747,1.39333,1.39333,0,0,0,.30878.51291,1.21593,1.21593,0,0,0,.43459.29145,1.42043,1.42043,0,0,0,.51021.0925,1.33777,1.33777,0,0,0,.3108-.03309,1.18189,1.18189,0,0,0,.2622-.09182,1.24282,1.24282,0,0,0,.21763-.13909,1.11052,1.11052,0,0,0,.17014-.16451h.01351l.03308.34569h.71906c-.00517-.12064-.01013-.259-.0135-.41344Zm-.80256-.47712h0a1.30592,1.30592,0,0,1-.12176.11793,1.05942,1.05942,0,0,1-.16721.11163,1.02364,1.02364,0,0,1-.20031.08035.84365.84365,0,0,1-.22393.03015.64294.64294,0,0,1-.555-.27817,1.3364,1.3364,0,0,1-.18883-.76632,1.66586,1.66586,0,0,1,.0754-.54734.9469.9469,0,0,1,.1868-.33624.64662.64662,0,0,1,.24936-.16969.72119.72119,0,0,1,.25859-.05222.88746.88746,0,0,1,.37112.0772,1.3124,1.3124,0,0,1,.31576.18882Z" style="fill:#fff;fill-rule:evenodd"/><path d="M9.89812,32.59648a16.43883,16.43883,0,0,0,11.3193,1.10481,16.87007,16.87007,0,0,0,9.1637-5.77162c.10915-.12625.282-.26917.192-.45551-.09318-.18748-.31126-.11546-.47465-.11659-1.92718-.00517-3.8521.00451-5.77927-.00832a2.3573,2.3573,0,0,0-1.21914.3063,9.99626,9.99626,0,0,1-2.23866.98418c-.31441.09-.40443-.00247-.43324-.31823-.03826-.469.196-.63872.59978-.77645,1.14195-.38845,1.1388-.40443,1.1388-1.59544V15.85372c0-.93647.00315-.93782.911-.93782q2.83338,0,5.66112,0c.79176-.0018.80458-.0126.80458-.82731,0-1.16625-.0288-2.335.01283-3.49988.01958-.59573-.1922-.7643-.77262-.76182-3.05337.02633-6.10718.0135-9.16055.0135h-9.1637c-.77892,0-.7949.01733-.80188.7661,0,1.18988,0,2.37391.00383,3.56177.00315.717.032.74584.76632.74764,1.98524.00135,3.97048.00968,5.95279-.0081.4778-.0045.65132.15552.65132.63984q-.024,6.50532,0,13.01445c.00315.56264-.22146.70871-.73121.66347a11.5413,11.5413,0,0,1-2.4088-.42176A11.78355,11.78355,0,0,1,5.3857,20.08932,11.59336,11.59336,0,0,1,8.32361,8.74953a11.5,11.5,0,0,1,7.81312-3.706,11.89747,11.89747,0,0,1,7.05333,1.54907,2.01262,2.01262,0,0,0,1.05507.26287c1.90872-.00765,3.81384,0,5.71873-.00765.21808-.00315.523.11343.629-.15439.07652-.20795-.15754-.37832-.2955-.53721A16.84492,16.84492,0,0,0,15.88984.04,16.21745,16.21745,0,0,0,5.2959,4.74507,16.43174,16.43174,0,0,0,.20553,19.53612,16.53285,16.53285,0,0,0,9.89812,32.59648Z" style="fill:#fff;fill-rule:evenodd"/><polygon points="40.132 28.739 40.147 28.739 43.137 33.091 44.261 33.091 44.261 27.05 43.192 27.05 43.192 31.411 43.175 31.411 40.179 27.05 39.053 27.05 39.053 33.091 40.132 33.091 40.132 28.739" style="fill:#fff;fill-rule:evenodd"/><path d="M46.59927,31.68094H49.2392l.539,1.41h1.12551l-2.37008-6.041H47.35276l-2.42545,6.041H46.0526l.54667-1.41Zm1.33144-3.40085H47.946l.92814,2.44841H46.972Z" style="fill:#fff;fill-rule:evenodd"/><path d="M54.6217,32.06894a1.28553,1.28553,0,0,1-.7688.21426,1.50892,1.50892,0,0,1-.88741-.24621,1.70516,1.70516,0,0,1-.54734-.70556l-1.18988.16587a3.012,3.012,0,0,0,.31013.627,2.7202,2.7202,0,0,0,.5856.61823,2.78432,2.78432,0,0,0,.76115.3637,3.8553,3.8553,0,0,0,.92746.12806,4.25054,4.25054,0,0,0,.80909-.09565,2.44054,2.44054,0,0,0,.82484-.37315,1.77181,1.77181,0,0,0,.51493-.5856,1.8039,1.8039,0,0,0,.174-.74584,1.32093,1.32093,0,0,0-.1033-.476,1.6118,1.6118,0,0,0-.41906-.54532,3.53008,3.53008,0,0,0-.72154-.46835,8.66267,8.66267,0,0,0-1.00736-.41208c-.19512-.06436-.38845-.13526-.578-.21425a2.30681,2.30681,0,0,1-.41343-.22146.81412.81412,0,0,1-.23744-.25454.67546.67546,0,0,1-.04771-.24509.6126.6126,0,0,1,.08035-.30158.93008.93008,0,0,1,.24508-.23811,1.43005,1.43005,0,0,1,.72132-.19062,1.45031,1.45031,0,0,1,.77645.2066,1.31061,1.31061,0,0,1,.46069.51493l1.17323-.15754a2.19781,2.19781,0,0,0-.80188-1.063,2.60991,2.60991,0,0,0-.71209-.33308,3.61274,3.61274,0,0,0-.84914-.11861,3.40115,3.40115,0,0,0-.91981.14291,2.60479,2.60479,0,0,0-.7598.39611,1.73542,1.73542,0,0,0-.4913.62588,1.85468,1.85468,0,0,0-.12063.60991,1.33814,1.33814,0,0,0,.088.47667,1.50816,1.50816,0,0,0,.38868.52236,3.28718,3.28718,0,0,0,.70556.43639,7.95609,7.95609,0,0,0,1.02334.40443c.19445.06887.38395.14494.57029.23046a2.91217,2.91217,0,0,1,.42806.25252,1.11235,1.11235,0,0,1,.22956.23856.70491.70491,0,0,1,.08688.2775.675.675,0,0,1-.07922.28514A.8091.8091,0,0,1,54.6217,32.06894Z" style="fill:#fff;fill-rule:evenodd"/><path d="M61.00322,32.6793a2.59408,2.59408,0,0,0,.46047-.36482,2.71459,2.71459,0,0,0,.57818-.999,4.1253,4.1253,0,0,0,.19062-1.2448,4.05166,4.05166,0,0,0-.17532-1.173,2.79581,2.79581,0,0,0-.55454-1.00624,2.34054,2.34054,0,0,0-.444-.38845,3.12224,3.12224,0,0,0-.5703-.27749,3.49073,3.49073,0,0,0-1.094-.17555h-2.2355v6.041H59.331a4.35615,4.35615,0,0,0,1.10189-.15889,3.4852,3.4852,0,0,0,.57029-.25274Zm-1.7352-.52371H58.237v-4.153h1.02334a2.63053,2.63053,0,0,1,.72919.11861,1.61781,1.61781,0,0,1,.68058.44336,1.97433,1.97433,0,0,1,.37314.68891,3.34546,3.34546,0,0,1,.11883.81718,3.92952,3.92952,0,0,1-.08687.73752,2.04473,2.04473,0,0,1-.35717.73684,1.66189,1.66189,0,0,1-.6099.45934A2.17047,2.17047,0,0,1,59.268,32.15559Z" style="fill:#fff;fill-rule:evenodd"/><path d="M63.75411,33.09093l.54667-1.41h2.63993l.53969,1.41H68.605l-2.36987-6.041H65.055l-2.42636,6.041Zm1.87879-4.81084h.0153l.92747,2.44841H64.67392Z" style="fill:#fff;fill-rule:evenodd"/><path d="M73.90919,33.607l.75214-.72221-.67314-.61058a3.00611,3.00611,0,0,0,.476-.93579,4.22187,4.22187,0,0,0,.1895-1.26011,4.61674,4.61674,0,0,0-.1895-1.25154,2.99416,2.99416,0,0,0-.5793-1.0463,2.55886,2.55886,0,0,0-.99835-.69025,3.56564,3.56564,0,0,0-1.047-.1742,3.49614,3.49614,0,0,0-1.04629.1742,2.57621,2.57621,0,0,0-1.006.68192,3.15959,3.15959,0,0,0-.5793,1.05463,4.364,4.364,0,0,0-.18252,1.25154,4.28773,4.28773,0,0,0,.18252,1.2448,2.97315,2.97315,0,0,0,.5793,1.05462,2.60009,2.60009,0,0,0,.99836.68261,3.58716,3.58716,0,0,0,1.05394.174,2.95814,2.95814,0,0,0,1.387-.32521l.6826.6979Zm-1.2448-2.529h0l-.65064.60293.47645.4823a1.63066,1.63066,0,0,1-.65065.12,1.57068,1.57068,0,0,1-1.25222-.5793,2.16268,2.16268,0,0,1-.372-.72919,3.40583,3.40583,0,0,1,0-1.79191,2.25075,2.25075,0,0,1,.372-.73684,1.6491,1.6491,0,0,1,.627-.4607,1.92922,1.92922,0,0,1,.62521-.1186,1.57016,1.57016,0,0,1,1.23647.5793,2.14628,2.14628,0,0,1,.38013.73684,3.61245,3.61245,0,0,1,.12828.8955,3.3933,3.3933,0,0,1-.111.86445,2.30657,2.30657,0,0,1-.26985.62724Z" style="fill:#fff;fill-rule:evenodd"/><rect x="75.68332" y="31.75949" width="1.20496" height="1.33144" style="fill:#fff"/><rect x="75.68332" y="28.8191" width="1.20496" height="1.3391" style="fill:#fff"/><polygon points="82.191 33.091 83.262 33.091 83.262 28.003 85.164 28.003 85.164 27.05 80.289 27.05 80.289 28.003 82.191 28.003 82.191 33.091" style="fill:#fff;fill-rule:evenodd"/><path d="M89.44474,27.09021a3.55636,3.55636,0,0,0-1.0463-.1742,3.49609,3.49609,0,0,0-1.04629.1742,2.58352,2.58352,0,0,0-1.00669.68192,3.17162,3.17162,0,0,0-.5793,1.05463,4.36324,4.36324,0,0,0-.18162,1.25154,4.28707,4.28707,0,0,0,.18162,1.2448,2.98393,2.98393,0,0,0,.5793,1.05462,2.6025,2.6025,0,0,0,.999.68261,3.27952,3.27952,0,0,0,2.1079,0,2.56441,2.56441,0,0,0,.999-.675,2.88232,2.88232,0,0,0,.571-1.047,4.25236,4.25236,0,0,0,.19017-1.26011,4.59245,4.59245,0,0,0-.19017-1.25154,2.989,2.989,0,0,0-.57863-1.0463,2.55631,2.55631,0,0,0-.999-.69025Zm.57029,3.89215h0a2.0434,2.0434,0,0,1-.36369.72919,1.55178,1.55178,0,0,1-.618.45935,1.83741,1.83741,0,0,1-.63489.1123,1.57233,1.57233,0,0,1-1.2529-.5793,2.15285,2.15285,0,0,1-.37134-.72919,3.40583,3.40583,0,0,1,0-1.79191,2.24024,2.24024,0,0,1,.37134-.73684,1.65433,1.65433,0,0,1,.627-.4607,1.93443,1.93443,0,0,1,.62589-.1186,1.57018,1.57018,0,0,1,1.23647.5793,2.14608,2.14608,0,0,1,.38012.73684,3.6109,3.6109,0,0,1,.12761.8955A3.69866,3.69866,0,0,1,90.015,30.98236Z" style="fill:#fff;fill-rule:evenodd"/><polygon points="94.606 33.091 94.606 28.003 96.508 28.003 96.508 27.05 91.633 27.05 91.633 28.003 93.535 28.003 93.535 33.091 94.606 33.091" style="fill:#fff;fill-rule:evenodd"/><path d="M98.25172,31.68094h2.63993l.539,1.41h1.12551l-2.37009-6.041H99.00521l-2.42545,6.041h1.12529l.54667-1.41Zm1.33144-3.40085h.01531l.92836,2.44841H98.62441Z" style="fill:#fff;fill-rule:evenodd"/></g></g></svg>