<svg xmlns="http://www.w3.org/2000/svg" viewBox="0 0 31.16142 27.49755"><g id="图层_2" data-name="图层 2"><g id="Layer_1" data-name="Layer 1"><path d="M20.527,11.2391a3.29772,3.29772,0,0,0,3.21063-3.37657l.01966-1.12609a3.16285,3.16285,0,0,0-3.09275-3.37657,3.29771,3.29771,0,0,0-3.21063,3.37657L17.4342,7.86253A3.16274,3.16274,0,0,0,20.527,11.2391Z" style="fill:none;stroke:#b3955b;stroke-linecap:round;stroke-linejoin:round"/><path d="M20.30146,24.26574l-2.65129-.54162a2.34263,2.34263,0,0,1-1.93359-1.32961L15.07,20.91093c-.57031-1.30394-.98271-1.86328-.96418-2.92446.03877-2.22139,1.21191-4.3836,3.71553-4.3836h4.54158a3.67277,3.67277,0,0,1,3.12191,1.27257c.77805.95866,1.508,1.86273,1.508,1.86273" style="fill:none;stroke:#b3955b;stroke-linecap:round;stroke-linejoin:round"/><path d="M17.84194,17.76664l.681,1.78063a1.84557,1.84557,0,0,0,1.2701,1.23483l1.82226.65185" style="fill:none;stroke:#b3955b;stroke-linecap:round;stroke-linejoin:round"/><path d="M28.62779,23.05794H25.84595a4.10745,4.10745,0,0,1,1.53316-3.15169h2.49953a.77476.77476,0,0,1,.64116,1.14028l-.55474,1.14028A1.50344,1.50344,0,0,1,28.62779,23.05794Z" style="fill:none;stroke:#b3955b;stroke-linecap:round;stroke-linejoin:round"/><path d="M29.50626,19.90625l1.07346-2.12086a.71185.71185,0,0,0-.61758-1.04722h-5.519a.725.725,0,0,0-.64284.4l-3.68055,7.23628a.71179.71179,0,0,0,.6175,1.04722h5.51908a.72474.72474,0,0,0,.64276-.4l.99885-1.96374" style="fill:none;stroke:#b3955b;stroke-linecap:round;stroke-linejoin:round"/><line x1="17.15901" y1="23.62831" x2="17.1002" y2="26.99755" style="fill:none;stroke:#b3955b;stroke-linecap:round;stroke-linejoin:round"/><line x1="25.00693" y1="25.4217" x2="24.97942" y2="26.99755" style="fill:none;stroke:#b3955b;stroke-linecap:round;stroke-linejoin:round"/><path d="M4.1521,23.9339H3.4114A3.14349,3.14349,0,0,1,.50033,20.9711l.10343-5.92559a4.628,4.628,0,0,1,4.52176-4.44419h5.18489c2.31654,0,3.82277,2.006,4.39248,2.9628l.61561,1.06637" style="fill:none;stroke:#b3955b;stroke-linecap:round;stroke-linejoin:round"/><polyline points="12.246 26.998 12.429 16.527 14.254 19.041" style="fill:none;stroke:#b3955b;stroke-linecap:round;stroke-linejoin:round"/><line x1="4.29432" y1="15.78621" x2="4.09863" y2="26.99755" style="fill:none;stroke:#b3955b;stroke-linecap:round;stroke-linejoin:round"/><path d="M8.1271,8.37923a3.29772,3.29772,0,0,0,3.21063-3.37657l.01966-1.1261A3.16284,3.16284,0,0,0,8.26464.5,3.29771,3.29771,0,0,0,5.054,3.87656l-.01966,1.1261A3.16274,3.16274,0,0,0,8.1271,8.37923Z" style="fill:none;stroke:#b3955b;stroke-linecap:round;stroke-linejoin:round"/></g></g></svg>