<svg xmlns="http://www.w3.org/2000/svg" viewBox="0 0 37.6633 32.77018"><g id="图层_2" data-name="图层 2"><g id="Layer_1" data-name="Layer 1"><circle cx="26.59199" cy="14.59999" r="10.57077" style="fill:none;stroke:#b4965b;stroke-miterlimit:10"/><circle cx="10.37094" cy="10.37077" r="2.43941" transform="translate(-4.16838 12.29881) rotate(-52.55339)" style="fill:none;stroke:#fff;stroke-miterlimit:10"/><path d="M18.26226,4.45858,15.85411,5.534a7.26478,7.26478,0,0,0-1.90585-1.54235L14.493,1.41344,11.77037.61033l-.94173,2.46108a7.26984,7.26984,0,0,0-2.43806.26111l-1.439-2.21006L4.45844,2.47972,5.53391,4.88781A7.2686,7.2686,0,0,0,3.99174,6.79369L1.4135,6.24914.61033,8.97182l2.46127.94176a7.26552,7.26552,0,0,0,.261,2.43738L1.12244,13.79l1.35731,2.493L4.8879,15.20763A7.26478,7.26478,0,0,0,6.79375,16.75L6.249,19.32819l2.72262.80311.94173-2.46108a7.26929,7.26929,0,0,0,2.43773-.261l1.439,2.21006" style="fill:none;stroke:#fff;stroke-miterlimit:10"/><path d="M20.91915,25.672a2.66809,2.66809,0,1,1-4.29342-3.16449" style="fill:none;stroke:#fff;stroke-miterlimit:10"/><path d="M13.01282,22.44026l-2.094-.15L10.72494,24.997l2.09406.15008a5.96683,5.96683,0,0,0,.62036,1.86894l-1.58558,1.37374,1.77687,2.05113,1.58565-1.37369a5.96442,5.96442,0,0,0,1.7614.88039l-.14995,2.09416,2.70674.194.15-2.09416a5.96335,5.96335,0,0,0,1.86889-.6203L22.92705,31.107l2.05094-1.7769-1.37364-1.58571" style="fill:none;stroke:#fff;stroke-miterlimit:10"/><path d="M26.85244,15.43008c-2.04417,0-4.5426,1.37-4.5426,2.30731v2.23529a6.99725,6.99725,0,0,0,4.5426,1.29788,6.99726,6.99726,0,0,0,4.5426-1.29788V17.73739C31.395,16.80006,28.89661,15.43008,26.85244,15.43008Z" style="fill:none;stroke:#fff;stroke-miterlimit:10"/><path d="M26.85244,8.94066a2.53634,2.53634,0,0,0-2.59577,2.33664v1.81613a2.61014,2.61014,0,0,0,5.19154,0V11.2773A2.53634,2.53634,0,0,0,26.85244,8.94066Z" style="fill:none;stroke:#fff;stroke-miterlimit:10"/></g></g></svg>