<svg xmlns="http://www.w3.org/2000/svg" viewBox="0 0 29.55346 29.55346"><g id="图层_2" data-name="图层 2"><g id="Layer_1" data-name="Layer 1"><path d="M21.91951,26.4577a12.60831,12.60831,0,0,0,6.485-8.99921" style="fill:none;stroke:#b4965b;stroke-miterlimit:10"/><path d="M7.63837,26.4577a12.60848,12.60848,0,0,1-6.485-8.99921" style="fill:none;stroke:#b4965b;stroke-miterlimit:10"/><path d="M20.87,2.01067a13.04878,13.04878,0,0,0-12.189,0" style="fill:none;stroke:#b4965b;stroke-miterlimit:10"/><path d="M24.51087,9.58519c-2.04417,0-4.5426,1.37-4.5426,2.30732v2.23528a7.43761,7.43761,0,0,0,4.5426,1.29788,7.4376,7.4376,0,0,0,4.54259-1.29788V11.89251C29.05346,10.95518,26.555,9.58519,24.51087,9.58519Z" style="fill:none;stroke:#fff;stroke-miterlimit:10"/><path d="M24.51087,3.09577A2.53634,2.53634,0,0,0,21.9151,5.43242V7.24855a2.61014,2.61014,0,0,0,5.19154,0V5.43242A2.53634,2.53634,0,0,0,24.51087,3.09577Z" style="fill:none;stroke:#fff;stroke-miterlimit:10"/><path d="M14.77673,23.213c-2.04417,0-4.54259,1.37-4.54259,2.30732v2.23528a6.99716,6.99716,0,0,0,4.54259,1.29788,6.99721,6.99721,0,0,0,4.5426-1.29788V25.5203C19.31933,24.583,16.8209,23.213,14.77673,23.213Z" style="fill:none;stroke:#fff;stroke-miterlimit:10"/><path d="M14.77673,16.72356A2.53634,2.53634,0,0,0,12.181,19.06021v1.81613a2.61014,2.61014,0,0,0,5.19154,0V19.06021A2.53634,2.53634,0,0,0,14.77673,16.72356Z" style="fill:none;stroke:#fff;stroke-miterlimit:10"/><path d="M5.0426,9.58519C2.99843,9.58519.5,10.95518.5,11.89251v2.23528a7.43761,7.43761,0,0,0,4.5426,1.29788,7.4376,7.4376,0,0,0,4.54259-1.29788V11.89251C9.58519,10.95518,7.08677,9.58519,5.0426,9.58519Z" style="fill:none;stroke:#fff;stroke-miterlimit:10"/><path d="M5.0426,3.09577A2.53634,2.53634,0,0,0,2.44683,5.43242V7.24855A2.53634,2.53634,0,0,0,5.0426,9.58519,2.53634,2.53634,0,0,0,7.63837,7.24855V5.43242A2.53634,2.53634,0,0,0,5.0426,3.09577Z" style="fill:none;stroke:#fff;stroke-miterlimit:10"/></g></g></svg>