<svg xmlns="http://www.w3.org/2000/svg" viewBox="0 0 117.06634 40.89839"><g id="图层_2" data-name="图层 2"><g id="Layer_1" data-name="Layer 1"><path d="M45.14673,35.33286h1.33335l1.67179,3.46956h.03983V35.33286h.84915v4.60367h-1.181l-1.81759-3.68844h-.03986v3.68844h-.8557Z" style="fill:#fff"/><path d="M54.34323,38.71611H52.41947l-.43775,1.22042h-.8956l1.7247-4.60367h1.16754l1.71142,4.60367h-.922Zm-.25874-.72978-.65667-1.87743h-.0797l-.6699,1.87743Z" style="fill:#fff"/><path d="M57.54946,39.837v-.776a4.42868,4.42868,0,0,0,1.32673.19244c.63686,0,.889-.1528.889-.62362,0-.43117-.15261-.55054-.9088-.743-.96867-.2255-1.2737-.49763-1.2737-1.30673,0-.93542.56378-1.32034,1.63177-1.32034a3.78318,3.78318,0,0,1,1.17416.166v.73637a4.10192,4.10192,0,0,0-1.14754-.17262c-.55731,0-.80924.11274-.80924.57036,0,.35182.10613.458.83569.63681,1.07479.26555,1.36.57074,1.36,1.44629,0,.9024-.52406,1.36-1.72485,1.36A5.05367,5.05367,0,0,1,57.54946,39.837Z" style="fill:#fff"/><path d="M64.49,35.33286c1.34016,0,2.23575.38451,2.23575,2.302,0,1.77754-.89559,2.30165-2.23575,2.30165H62.99746V35.33286Zm-.03964,3.85407c.88879,0,1.3798-.33825,1.3798-1.552,0-1.28066-.51087-1.56565-1.3798-1.56565h-.58379v3.1177Z" style="fill:#fff"/><path d="M71.776,38.71611H69.85226l-.43775,1.22042h-.8956l1.7247-4.60367h1.16754l1.71161,4.60367h-.92218Zm-.25874-.72978-.65667-1.87743h-.07969L70.111,37.98633Z" style="fill:#fff"/><path d="M77.80815,39.91009l.78285.9883H77.56945l-.59717-.89537c-1.32678,0-2.04309-.51087-2.04309-2.36814,0-1.85764.72974-2.36851,2.05647-2.36851s2.04972.51087,2.04972,2.36851C79.03538,39.07418,78.61082,39.69779,77.80815,39.91009Zm-.82249-.63685c.93524,0,1.14092-.44438,1.14092-1.63836,0-1.17453-.20568-1.652-1.14092-1.652-.942,0-1.14768.47743-1.14768,1.652C75.838,38.82886,76.04362,39.27324,76.98566,39.27324Z" style="fill:#fff"/><path d="M81.7043,36.84527c0-.46424.08612-.53073.53068-.53073.43118,0,.52411.06649.52411.53073,0,.451-.09293.53068-.52411.53068C81.79042,37.376,81.7043,37.29626,81.7043,36.84527Zm0,2.60059c0-.46457.08612-.53069.53068-.53069.43118,0,.52411.06612.52411.53069,0,.451-.09293.53068-.52411.53068C81.79042,39.97654,81.7043,39.89685,81.7043,39.44586Z" style="fill:#fff"/><path d="M91.46491,38.71611H89.54119l-.43779,1.22042h-.89556l1.72466-4.60367H91.1l1.71146,4.60367h-.922Zm-.25874-.72978L90.5495,36.1089h-.07969l-.66988,1.87743Z" style="fill:#fff"/><path d="M94.61789,37.63488c0-1.778.86235-2.36851,2.27539-2.36851a3.98853,3.98853,0,0,1,1.22061.166v.76942A3.35976,3.35976,0,0,0,96.953,36.016c-.93542,0-1.39985.34524-1.39985,1.61891,0,1.34641.41136,1.63174,1.36,1.63174a2.23793,2.23793,0,0,0,.57717-.05326V38.07264H96.661v-.72975h1.64516V39.804a5.25767,5.25767,0,0,1-1.45934.19906C95.45376,40.003,94.61789,39.56522,94.61789,37.63488Z" style="fill:#fff"/><path d="M100.78262,35.33286H102.262c1.3003,0,1.65836.40474,1.65836,1.23366a.875.875,0,0,1-.66987.95524v.02681a.95911.95911,0,0,1,.80925,1.06137c0,.83592-.36488,1.32659-1.665,1.32659h-1.61211Zm1.24723,1.937c.723,0,1.03479-.11936,1.03479-.62361,0-.54393-.29842-.61042-1.03479-.61042h-.37811v1.234ZM102.169,39.227c.79605,0,1.01511-.12636,1.01511-.657,0-.47743-.21906-.65667-1.01511-.65667h-.5173V39.227Z" style="fill:#fff"/><path d="M109.22933,38.71611h-1.92372l-.43779,1.22042h-.89556l1.72466-4.60367h1.16754l1.71165,4.60367h-.92222Zm-.2587-.72978L108.314,36.1089h-.07973l-.66988,1.87743Z" style="fill:#fff"/><path d="M46.687,2.19563h2.916l6.99139,17.77506h-2.773l-1.75362-4.52777H44.12805L42.35,19.97069H39.577ZM45.052,13.07482h6.1151L48.15785,5.27587h-.02441Z" style="fill:#fff"/><path d="M61.14549,7.10057A8.64441,8.64441,0,0,1,63.01679,4.068a7.77342,7.77342,0,0,1,2.915-1.8491,11.06415,11.06415,0,0,1,2.79747-.45036,11.88273,11.88273,0,0,1,2.34591.28394,6.76589,6.76589,0,0,1,2.32278,1.06713,8.03883,8.03883,0,0,1,1.56393,1.63606,13.124,13.124,0,0,1,1.066,1.919l-2.7719.42591a5.03136,5.03136,0,0,0-1.94339-2.29833A4.9557,4.9557,0,0,0,68.72925,4.139a5.63284,5.63284,0,0,0-2.39367.56792,5.76772,5.76772,0,0,0-1.8247,1.61278,6.94331,6.94331,0,0,0-1.09142,2.44135,10.2938,10.2938,0,0,0-.25953,2.29823,10.83493,10.83493,0,0,0,.25953,2.37046,7.18254,7.18254,0,0,0,1.09142,2.46468,5.335,5.335,0,0,0,1.777,1.5872,4.9096,4.9096,0,0,0,2.27495.5469,5.23116,5.23116,0,0,0,3.15237-1.0194,5.76229,5.76229,0,0,0,1.991-3.05915V12.52792h-4.835V10.18311h7.48944v9.78758H74.01347V16.866a6.3379,6.3379,0,0,1-2.44023,2.63105,6.63913,6.63913,0,0,1-3.36535.90072,7.20711,7.20711,0,0,1-5.66473-2.77416A9.58587,9.58587,0,0,1,60.90823,14.306a13.08866,13.08866,0,0,1-.40264-3.24665A11.5478,11.5478,0,0,1,61.14549,7.10057Z" style="fill:#fff"/><path d="M88.96793,2.19563a18.61845,18.61845,0,0,1,2.44249.21293,6.37044,6.37044,0,0,1,2.27381.87744,3.60809,3.60809,0,0,1,1.25566,1.493,5.27271,5.27271,0,0,1,.40368,2.0388,4.38778,4.38778,0,0,1-.75862,2.417,4.52349,4.52349,0,0,1-2.22737,1.63489,7.69354,7.69354,0,0,1,1.32665.45036,4.54121,4.54121,0,0,1,1.2801.97284,3.99166,3.99166,0,0,1,.996,2.67648,7.67808,7.67808,0,0,1-.284,1.87243A3.95694,3.95694,0,0,1,94.514,18.62086a5.34639,5.34639,0,0,1-2.06314.99489,12.12911,12.12911,0,0,1-2.91284.35494H82.52231V2.19563Zm-3.768,7.55927h3.53063a5.69725,5.69725,0,0,0,1.6349-.18853A4.2458,4.2458,0,0,0,91.67,8.974a2.26362,2.26362,0,0,0,.11757-3.69814,3.28693,3.28693,0,0,0-1.28007-.54347A8.729,8.729,0,0,0,88.684,4.54169h-3.484Zm0,7.86871h3.768a8.40039,8.40039,0,0,0,1.98988-.18969,4.0243,4.0243,0,0,0,1.37547-.59221,2.42528,2.42528,0,0,0,.9716-2.0144A3.156,3.156,0,0,0,93.0675,13.738a2.16835,2.16835,0,0,0-.87619-.97273,4.55811,4.55811,0,0,0-1.42207-.52133,11.9161,11.9161,0,0,0-1.82571-.14084H85.19992Z" style="fill:#fff"/><path d="M106.64875,2.19563h2.915L116.554,19.97069h-2.77084l-1.75475-4.52777H104.0887l-1.777,4.52777h-2.773Zm-1.635,10.87919h6.114l-3.0104-7.79895h-.02216Z" style="fill:#fff"/><path d="M41.5924,24.82024h.77973l2.081,5.27993h-.74543l-.53907-1.38992H40.77052l-.5469,1.38992h-.74648Zm-.56679,3.25109h1.89447l-.92945-2.41364h-.01444Z" style="fill:#fff"/><path d="M45.65993,27.32485a1.91588,1.91588,0,0,1,.40368-.66547,1.6297,1.6297,0,0,1,.66-.41933,2.439,2.439,0,0,1,.66777-.10643,2.54707,2.54707,0,0,1,.53234.06984,1.75381,1.75381,0,0,1,.53806.24952,1.60109,1.60109,0,0,1,.59007.802l-.69662.091a1.01394,1.01394,0,0,0-.96385-.609,1.09523,1.09523,0,0,0-.8176.34724,1.45043,1.45043,0,0,0-.26167.46919,1.94113,1.94113,0,0,0-.08541.62336,2.13557,2.13557,0,0,0,.07871.63117,1.37678,1.37678,0,0,0,.24852.4692,1.02136,1.02136,0,0,0,.80973.35494,1.14306,1.14306,0,0,0,.64547-.18409,1.22508,1.22508,0,0,0,.37495-.4915l.681.101a1.66335,1.66335,0,0,1-1.17024,1.10041,2.537,2.537,0,0,1-.53122.06984,2.21609,2.21609,0,0,1-.64005-.10538,1.837,1.837,0,0,1-.65332-.41926,1.933,1.933,0,0,1-.41038-.67446,2.68953,2.68953,0,0,1-.13539-.85185A2.50322,2.50322,0,0,1,45.65993,27.32485Z" style="fill:#fff"/><path d="M50.5138,27.31045a1.73626,1.73626,0,0,1,.35494-.66664,1.59736,1.59736,0,0,1,.60335-.41151,2.22028,2.22028,0,0,1,.61015-.09868,1.73158,1.73158,0,0,1,1.2634.55347V26.2323h.69549v5.25993h-.69549V29.70965a2.09776,2.09776,0,0,1-.59575.3772,1.70987,1.70987,0,0,1-.63993.14085,2.17461,2.17461,0,0,1-.62448-.10538,1.5632,1.5632,0,0,1-.61-.39823,1.83179,1.83179,0,0,1-.36833-.67334,3.01516,3.01516,0,0,1-.11429-.874A2.81657,2.81657,0,0,1,50.5138,27.31045Zm2.26392,2.20066a2.04718,2.04718,0,0,0,.56792-.36822V27.296a1.88954,1.88954,0,0,0-.56133-.41808,1.38258,1.38258,0,0,0-.57563-.141,1.04177,1.04177,0,0,0-.8153.38278,1.6659,1.6659,0,0,0-.234.47577,2.037,2.037,0,0,0-.071.58124,2.30027,2.30027,0,0,0,.071.57574,1.642,1.642,0,0,0,.234.48138.993.993,0,0,0,.8153.39037A1.49218,1.49218,0,0,0,52.77772,29.51111Z" style="fill:#fff"/><path d="M56.38263,26.2323v2.478a.997.997,0,0,0,.21411.66773.80115.80115,0,0,0,.29838.21083.929.929,0,0,0,.39593.071,1.21385,1.21385,0,0,0,.56905-.14084,1.74036,1.74036,0,0,0,.46811-.37052V26.2323h.69544v3.86787h-.69544V29.611a2.14148,2.14148,0,0,1-.64675.47589,1.64254,1.64254,0,0,1-.63106.14085,1.85578,1.85578,0,0,1-.6179-.10538,1.23949,1.23949,0,0,1-.44039-.29169,1.31263,1.31263,0,0,1-.2484-.4892,1.76525,1.76525,0,0,1-.05543-.497V26.2323Z" style="fill:#fff"/><path d="M61.3652,24.82024v.8153h-.69548v-.8153Zm0,1.41206v3.86787h-.69548V26.2323Z" style="fill:#fff"/><path d="M63.46489,29.07858a.97747.97747,0,0,0,.39048.47582,1.26442,1.26442,0,0,0,.63223.13426.96808.96808,0,0,0,.54689-.14983.55057.55057,0,0,0,.26281-.43809.48568.48568,0,0,0-.05769-.193.60559.60559,0,0,0-.20512-.20527,2.18333,2.18333,0,0,0-.23523-.12752c-.16085-.071-.32384-.13645-.48909-.1997a4.38372,4.38372,0,0,1-.64005-.234,1.96593,1.96593,0,0,1-.43923-.27736.83687.83687,0,0,1-.29725-.65889.86384.86384,0,0,1,.11974-.44024,1.12824,1.12824,0,0,1,.34051-.35494,1.68527,1.68527,0,0,1,.53362-.21967,3.07881,3.07881,0,0,1,.5168-.05656,1.89919,1.89919,0,0,1,.89515.20522,1.52136,1.52136,0,0,1,.62448.71091l-.66664.11985a.90039.90039,0,0,0-.37048-.38266,1.05385,1.05385,0,0,0-.48251-.11429,1.00986,1.00986,0,0,0-.56679.1487.5.5,0,0,0-.24182.41151.36885.36885,0,0,0,.05657.19853.72473.72473,0,0,0,.1631.15641,1.39309,1.39309,0,0,0,.305.163c.13313.05329.26852.09985.40492.142a5.69855,5.69855,0,0,1,.65333.22741,2.19327,2.19327,0,0,1,.47468.26954.89273.89273,0,0,1,.34062.70331,1.00528,1.00528,0,0,1-.38161.78747,1.72674,1.72674,0,0,1-.51135.25509,2.963,2.963,0,0,1-.67435.09211,2.06086,2.06086,0,0,1-1.02941-.26838,1.44605,1.44605,0,0,1-.62448-.73877Z" style="fill:#fff"/><path d="M68.21233,24.82024v.8153H67.518v-.8153Zm0,1.41206v3.86787H67.518V26.2323Z" style="fill:#fff"/><path d="M70.12244,26.2323V25.22516h.68879V26.2323h.8663v.57461h-.8663V29.2283a.34444.34444,0,0,0,.2695.39594.71656.71656,0,0,0,.22741.02226.93183.93183,0,0,0,.35608-.07213v.56122a2.51,2.51,0,0,1-.67548.09211,1.60461,1.60461,0,0,1-.36834-.05544.66159.66159,0,0,1-.285-.15754.67449.67449,0,0,1-.17638-.2695.90914.90914,0,0,1-.03659-.29725V26.80691h-.66V26.2323Z" style="fill:#fff"/><path d="M73.69181,24.82024v.8153h-.69436v-.8153Zm0,1.41206v3.86787h-.69436V26.2323Z" style="fill:#fff"/><path d="M75.318,27.36043a1.94,1.94,0,0,1,.39037-.68105,1.78893,1.78893,0,0,1,.66664-.43264,2.30324,2.30324,0,0,1,.67442-.11312,2.37814,2.37814,0,0,1,.681.11312,1.643,1.643,0,0,1,.66006.42591,1.96388,1.96388,0,0,1,.39037.67334,2.87779,2.87779,0,0,1,.13539.82417,3.00485,3.00485,0,0,1-.13539.85186,1.88408,1.88408,0,0,1-.39707.67322,1.6691,1.6691,0,0,1-.66107.42708,2.55144,2.55144,0,0,1-.67333.10538,2.30325,2.30325,0,0,1-.67442-.11313,1.64362,1.64362,0,0,1-.65995-.42591,1.88006,1.88006,0,0,1-.39706-.68108,2.75068,2.75068,0,0,1-.12757-.83742A2.62633,2.62633,0,0,1,75.318,27.36043Zm.65219,1.4408a1.3138,1.3138,0,0,0,.25623.47589,1.036,1.036,0,0,0,.823.35494,1.39252,1.39252,0,0,0,.41038-.06326,1.10168,1.10168,0,0,0,.41267-.29168,1.40579,1.40579,0,0,0,.24953-.47589,2.569,2.569,0,0,0,.091-.63107,2.53872,2.53872,0,0,0-.091-.61677,1.3759,1.3759,0,0,0-.264-.46919,1.06551,1.06551,0,0,0-.80861-.34724,1.09967,1.09967,0,0,0-.80974.34724,1.43076,1.43076,0,0,0-.2628.46919,1.86875,1.86875,0,0,0-.09214.61677A2.02923,2.02923,0,0,0,75.97017,28.80123Z" style="fill:#fff"/><path d="M81.108,26.2323v.52463a2.11173,2.11173,0,0,1,.63231-.47476,1.56976,1.56976,0,0,1,.63779-.14855,2.50442,2.50442,0,0,1,.49022.06325,1.07238,1.07238,0,0,1,.77984.6965,1.98974,1.98974,0,0,1,.10086.62448v2.58232h-.70319V27.651a1.94653,1.94653,0,0,0-.04212-.3261.96263.96263,0,0,0-.16311-.33279.78671.78671,0,0,0-.285-.20512,1.18558,1.18558,0,0,0-.38277-.07984,1.3772,1.3772,0,0,0-.59677.14968,1.95893,1.95893,0,0,0-.46807.35382v2.88957H80.4125V26.2323Z" style="fill:#fff"/><path d="M89.30505,24.82024v4.65545h2.79743v.62448H88.58855V24.82024Z" style="fill:#fff"/><path d="M94.11018,24.82024v.8153h-.69661v-.8153Zm0,1.41206v3.86787h-.69661V26.2323Z" style="fill:#fff"/><path d="M96.45068,26.2323v.49692a1.90251,1.90251,0,0,1,.60334-.44705,1.58372,1.58372,0,0,1,.63892-.14855,1.73793,1.73793,0,0,1,.38379.04212,1.34149,1.34149,0,0,1,.33279.12757,1.32226,1.32226,0,0,1,.4481.518h.0067a2.31884,2.31884,0,0,1,.66547-.518,1.59046,1.59046,0,0,1,.65449-.16969,1.94442,1.94442,0,0,1,.56792.09868,1.21888,1.21888,0,0,1,.42591.29838,1.26837,1.26837,0,0,1,.23956.48364,2.37518,2.37518,0,0,1,.06427.48138v2.60447H100.781V27.5878a.95338.95338,0,0,0-.1997-.609.79981.79981,0,0,0-.61674-.27168,1.15191,1.15191,0,0,0-.49695.15743,2.00738,2.00738,0,0,0-.49691.4182v2.81744h-.69432V27.62323a1.0031,1.0031,0,0,0-.213-.64445.75793.75793,0,0,0-.5768-.27168,1.22682,1.22682,0,0,0-.51692.143,1.84743,1.84743,0,0,0-.51906.4182v2.83188h-.68774V26.2323Z" style="fill:#fff"/><path d="M103.82462,24.82024v.8153h-.6965v-.8153Zm0,1.41206v3.86787h-.6965V26.2323Z" style="fill:#fff"/><path d="M105.73247,26.2323V25.22516h.68988V26.2323h.86528v.57461h-.86528V29.2283a.34414.34414,0,0,0,.2707.39594.71247.71247,0,0,0,.22625.02226.92171.92171,0,0,0,.35495-.07213v.56122a2.49593,2.49593,0,0,1-.67435.09211,1.63156,1.63156,0,0,1-.37052-.05544.66916.66916,0,0,1-.28168-.15754.68919.68919,0,0,1-.17751-.2695.94324.94324,0,0,1-.03772-.29725V26.80691h-.65889V26.2323Z" style="fill:#fff"/><path d="M108.58533,27.36814a2.16481,2.16481,0,0,1,.38379-.681,1.63735,1.63735,0,0,1,.64562-.44035,2.22117,2.22117,0,0,1,.661-.11312,2.33009,2.33009,0,0,1,.6522.10643,1.6208,1.6208,0,0,1,.63892.41933,1.78712,1.78712,0,0,1,.37721.6455,2.82626,2.82626,0,0,1,.1264.78646v.31948h-2.9083a1.51834,1.51834,0,0,0,.07759.52681,1.065,1.065,0,0,0,.66776.66675,1.47916,1.47916,0,0,0,.41038.0554,1.30176,1.30176,0,0,0,.63231-.14867,1.214,1.214,0,0,0,.4681-.47581l.63.10759a1.74957,1.74957,0,0,1-.71658.82971,2.00452,2.00452,0,0,1-1.02042.2551,2.49015,2.49015,0,0,1-.67446-.10538,1.81848,1.81848,0,0,1-.66107-.41267,1.89485,1.89485,0,0,1-.3815-.67435,2.5357,2.5357,0,0,1-.12869-.84415A2.88692,2.88692,0,0,1,108.58533,27.36814Zm2.782.49578a1.23239,1.23239,0,0,0-.31723-.82188,1.07005,1.07005,0,0,0-1.55516,0,1.237,1.237,0,0,0-.33272.82188Z" style="fill:#fff"/><path d="M113.548,27.31045a1.81444,1.81444,0,0,1,.36153-.66664,1.42054,1.42054,0,0,1,.60349-.41151,2.23275,2.23275,0,0,1,.61-.09868,1.71143,1.71143,0,0,1,1.249.54576V24.82693h.69432v5.27324H116.372v-.36826a1.844,1.844,0,0,1-1.22011.49579,2.17552,2.17552,0,0,1-.62561-.10538,1.57239,1.57239,0,0,1-.61-.39823,1.81669,1.81669,0,0,1-.36826-.67334,3.33879,3.33879,0,0,1,0-1.7403Zm2.2628,2.20066a1.77244,1.77244,0,0,0,.56122-.36269V27.276a1.82479,1.82479,0,0,0-.56122-.40481,1.3815,1.3815,0,0,0-.5613-.13426,1.04284,1.04284,0,0,0-.81417.38278,1.50137,1.50137,0,0,0-.23513.47577,2.4237,2.4237,0,0,0,0,1.16469,1.41917,1.41917,0,0,0,.23513.48138.99488.99488,0,0,0,.81417.38266A1.43388,1.43388,0,0,0,115.8108,29.51111Z" style="fill:#fff"/><path d="M16.18485,27.4652a13.7326,13.7326,0,1,1,0-27.4652A16.1856,16.1856,0,1,0,28.24929,26.97006l-1.91-3.99077A13.69582,13.69582,0,0,1,16.18485,27.4652Z" style="fill:#fff"/><polygon points="28.813 26.608 28.813 17.597 20.722 0.736 12.139 15.266 14.407 20.6 24.707 20.17 22.683 15.327 16.553 15.327 20.476 8.89 28.813 26.608" style="fill:#fff"/></g></g></svg>