<svg xmlns="http://www.w3.org/2000/svg" viewBox="0 0 135.4856 32.14649"><g id="图层_2" data-name="图层 2"><g id="Layer_1" data-name="Layer 1"><path d="M35.6774,8.91878l-4.961-8.7416A.34906.34906,0,0,0,30.41267,0h-10.235A.35167.35167,0,0,0,19.874.17488L17.849,3.68855,15.92539.29684A.34886.34886,0,0,0,15.62165.122H5.38669a.34786.34786,0,0,0-.30143.17258L.04832,9.03154a.34059.34059,0,0,0,0,.34975L5.2072,18.32078a.348.348,0,0,0,.30146.17488H9.28234L6.86626,22.412a.35755.35755,0,0,0-.00692.359l5.15891,8.93259a.35009.35009,0,0,0,.30143.17717H22.84L27.702,22.75946a.34252.34252,0,0,0-.0046-.336l-2.278-4.04981H30.82l4.86205-9.119a.35473.35473,0,0,0-.0046-.336m-24.70612.11506,4.38805-7.80279a.34923.34923,0,0,1,.60749,0l1.63371,2.88549L14.837,8.91188a.3471.3471,0,0,0,0,.34746l2.56335,4.441a.33505.33505,0,0,0-.10126.12425L15.601,17.474a.40326.40326,0,0,1-.08746-.09894L10.97128,9.37669a.33871.33871,0,0,1,0-.34285M5.79857,17.9227a.34365.34365,0,0,1-.30374-.17718L.93652,9.72644a.34946.34946,0,0,1,.30371-.52h8.85665a.349.349,0,0,1,.30374.17718L14.91753,17.405a.346.346,0,0,1-.30142.51773ZM21.42484,31.30547H12.60963a.35268.35268,0,0,1-.30607-.17488l-4.556-8.01907a.35122.35122,0,0,1,.30375-.52234h8.85664a.35126.35126,0,0,1,.30375.17948l4.51459,8.01678a.34694.34694,0,0,1-.30143.52m5.7802-8.882a.34262.34262,0,0,1,.0046.336l-4.27531,7.98916a.34988.34988,0,0,1-.61209.0069l-4.5399-7.99376A.34413.34413,0,0,1,17.78,22.4189l2.31254-4.11423,2.07551-3.68855a.3484.3484,0,0,1,.60749,0l2.13306,3.75758Zm2.19745-4.62277H25.309a.35268.35268,0,0,1-.306-.17718l-2.22512-3.93705a.34439.34439,0,0,0-.30831-.17718l-3.81743.069-.474.00921a.1348.1348,0,0,1-.02992-.00461.33974.33974,0,0,1-.28071-.17257l-2.14226-3.8059a.34971.34971,0,0,1,.306-.52h8.85433a.34824.34824,0,0,1,.30375.17718l4.51922,8.01908a.349.349,0,0,1-.30606.52m5.78712-8.546L30.9143,17.24389a.34985.34985,0,0,1-.61209.00691L25.76,9.257a.3499.3499,0,0,1,0-.34286L30.15036,1.1114a.34724.34724,0,0,1,.60517-.0023L35.185,8.91878a.34865.34865,0,0,1,.00464.336" style="fill:#fff"/><rect x="45.58608" y="0.30787" width="1.21726" height="9.07755" style="fill:#fff"/><polygon points="53.13 2.919 59.794 9.684 59.833 9.684 59.833 0.307 58.616 0.307 58.641 6.872 51.987 0.031 51.925 0.031 51.925 9.385 53.156 9.385 53.13 2.919" style="fill:#fff"/><path d="M68.98594,8.30417a3.39858,3.39858,0,0,1-1.75108-.44409,3.03093,3.03093,0,0,1-1.16895-1.238,3.80906,3.80906,0,0,1-.405-1.76949A3.52562,3.52562,0,0,1,66.105,3.10155a3.42616,3.42616,0,0,1,1.19426-1.26326,3.01812,3.01812,0,0,1,1.62451-.4648A3.72061,3.72061,0,0,1,71.02,2.0776L71.51013.934A5.0456,5.0456,0,0,0,70.31591.40705,4.92393,4.92393,0,0,0,68.88468.20686a4.42567,4.42567,0,0,0-2.31483.60978,4.26978,4.26978,0,0,0-1.60151,1.682,5.02555,5.02555,0,0,0-.57757,2.41608,4.70108,4.70108,0,0,0,.57066,2.29643,4.25448,4.25448,0,0,0,1.63374,1.659,4.80533,4.80533,0,0,0,2.45288.61437,4.228,4.228,0,0,0,1.46346-.24391,5.64034,5.64034,0,0,0,1.1114-.53383l-.51543-1.093a3.39552,3.39552,0,0,1-2.12154.6903" style="fill:#fff"/><polygon points="82.255 8.204 77.398 8.204 77.398 5.404 81.579 5.404 81.579 4.237 77.398 4.237 77.398 1.476 82.08 1.476 82.08 0.307 76.178 0.307 76.178 9.385 82.255 9.385 82.255 8.204" style="fill:#fff"/><path d="M88.10634,6.04525h1.3438a3.28224,3.28224,0,0,0,1.72577-.41418,2.46014,2.46014,0,0,0,.99174-1.08148,3.3584,3.3584,0,0,0,.306-1.43124,2.63229,2.63229,0,0,0-.833-2.07092A3.38025,3.38025,0,0,0,89.32357.30649H86.88908V9.384h1.21726Zm0-4.56984h1.40591a1.6352,1.6352,0,0,1,1.33.50853,1.74961,1.74961,0,0,1,.428,1.162,1.89631,1.89631,0,0,1-.17489.77084,1.59267,1.59267,0,0,1-.58446.6719,1.8623,1.8623,0,0,1-1.06077.27613h-1.3438Z" style="fill:#fff"/><polygon points="98.578 9.384 99.793 9.384 99.793 1.475 102.23 1.475 102.23 0.306 96.205 0.306 96.205 1.475 98.578 1.475 98.578 9.384" style="fill:#fff"/><rect x="106.68758" y="0.30557" width="1.21726" height="9.07755" style="fill:#fff"/><path d="M121.10534,2.541A4.81506,4.81506,0,0,0,119.40489.84057a4.54624,4.54624,0,0,0-4.62737,0A4.78336,4.78336,0,0,0,113.08858,2.541a4.50061,4.50061,0,0,0-.62589,2.31023A4.62877,4.62877,0,0,0,119.4118,8.862a4.63359,4.63359,0,0,0,1.70046-1.68666,4.52586,4.52586,0,0,0,.62588-2.324,4.46313,4.46313,0,0,0-.6328-2.31023m-1.06765,4.0498a3.35705,3.35705,0,0,1-4.632,1.24947,3.43415,3.43415,0,0,1-1.689-2.97524,3.52322,3.52322,0,0,1,.4464-1.74648,3.39148,3.39148,0,0,1,1.22414-1.27477,3.354,3.354,0,0,1,3.41474-.0046,3.39241,3.39241,0,0,1,1.231,1.26787,3.50058,3.50058,0,0,1,.451,1.74418,3.48532,3.48532,0,0,1-.44636,1.73957" style="fill:#fff"/><polygon points="127.502 2.919 134.166 9.684 134.205 9.684 134.205 0.307 132.988 0.307 133.016 6.872 126.359 0.031 126.297 0.031 126.297 9.385 127.528 9.385 127.502 2.919" style="fill:#fff"/><path d="M51.35961,20.19933h2.37v2.354a3.29392,3.29392,0,0,1-.98714.35666,6.07342,6.07342,0,0,1-1.21954.122,5.13676,5.13676,0,0,1-2.4046-.54995,3.96058,3.96058,0,0,1-1.63143-1.5578,4.51824,4.51824,0,0,1-.57526-2.28951A4.89838,4.89838,0,0,1,47.487,16.214,3.92128,3.92128,0,0,1,49.12761,14.617a5.17554,5.17554,0,0,1,2.446-.56145,5.38338,5.38338,0,0,1,1.44045.2232,5.941,5.941,0,0,1,1.32541.51773l.5269-1.46575a6.98423,6.98423,0,0,0-1.59691-.63279,7.20121,7.20121,0,0,0-1.89374-.2393,6.33186,6.33186,0,0,0-3.06265.757A5.637,5.637,0,0,0,46.088,15.39939a6.61677,6.61677,0,0,0-.82149,3.3664,5.89131,5.89131,0,0,0,.76626,2.99823,5.42292,5.42292,0,0,0,2.18137,2.10085,6.803,6.803,0,0,0,3.27665.76624,7.25148,7.25148,0,0,0,2.14917-.36357A5.43254,5.43254,0,0,0,55.345,23.476V18.66685H51.35961Z" style="fill:#fff"/><path d="M68.59568,18.30444a4.29446,4.29446,0,0,0,.48783-2.02491,3.58846,3.58846,0,0,0-.54534-2.00189,3.43711,3.43711,0,0,0-1.498-1.25867,5.26958,5.26958,0,0,0-2.17449-.428h-3.18V24.4988H63.2826V20.11764h1.76492c.17485,0,.30371-.0069.39577-.01611l2.798,4.39727h1.86151l-2.99822-4.793a3.16714,3.16714,0,0,0,1.49105-1.40132m-3.58268.26461H63.2826V14.12117H65.128a2.35029,2.35029,0,0,1,1.30928.33825,2.02357,2.02357,0,0,1,.75706.84907,2.39476,2.39476,0,0,1,.2416,1.03777,2.34575,2.34575,0,0,1-.56834,1.54859,2.30554,2.30554,0,0,1-1.85463.6742" style="fill:#fff"/><path d="M83.95455,13.29119a5.94582,5.94582,0,0,0-6.07011,0,6.2538,6.2538,0,0,0-2.21588,2.2297,5.88878,5.88878,0,0,0-.82146,3.03045,6.07423,6.07423,0,0,0,9.11665,5.26245,6.0692,6.0692,0,0,0,2.22972-2.21359,5.90066,5.90066,0,0,0,.826-3.04886,5.81474,5.81474,0,0,0-.83529-3.03045,6.27331,6.27331,0,0,0-2.22968-2.2297m.83069,7.54276a4.40506,4.40506,0,0,1-6.077,1.63834,4.51407,4.51407,0,0,1-2.21588-3.90254,4.64929,4.64929,0,0,1,.58446-2.28952,4.42172,4.42172,0,0,1,1.60843-1.67285,4.39375,4.39375,0,0,1,4.47779-.00691,4.41633,4.41633,0,0,1,1.61531,1.66365,4.71807,4.71807,0,0,1,.00692,4.56983" style="fill:#fff"/><polygon points="104.641 12.64 101.711 21.122 98.398 12.64 96.819 12.64 98.085 15.901 96.028 21.303 92.947 12.64 91.085 12.64 95.83 25.059 98.877 17.912 101.661 25.024 106.355 12.64 104.641 12.64" style="fill:#fff"/><polygon points="114.26 24.498 115.857 24.498 115.857 14.123 119.053 14.123 119.053 12.59 111.147 12.59 111.147 14.123 114.26 14.123 114.26 24.498" style="fill:#fff"/><polygon points="132.74 24.498 134.337 24.498 134.337 12.59 132.74 12.59 132.74 17.744 126.498 17.744 126.498 12.59 124.901 12.59 124.901 24.498 126.498 24.498 126.498 19.277 132.74 19.277 132.74 24.498" style="fill:#fff"/><path d="M47.47638,27.40016l-1.93057,4.59976h.58677l.47172-1.162h1.69814l.45791,1.162h.68572L47.5155,27.40016Zm-.65808,2.92461.65348-1.613.63049,1.613Z" style="fill:#fff"/><path d="M53.21357,31.473a1.63809,1.63809,0,0,1-.8514-.21629,1.44427,1.44427,0,0,1-.56834-.60057,1.847,1.847,0,0,1-.19789-.86289,1.70986,1.70986,0,0,1,.21628-.85137,1.65455,1.65455,0,0,1,.57986-.61437,1.45625,1.45625,0,0,1,.78926-.2255,1.79459,1.79459,0,0,1,1.02165.34285l.237-.55685a2.38143,2.38143,0,0,0-.57985-.25772,2.41534,2.41534,0,0,0-.69492-.09664,2.16,2.16,0,0,0-1.12748.29684,2.06659,2.06659,0,0,0-.78006.81686,2.45885,2.45885,0,0,0-.28071,1.17582,2.27154,2.27154,0,0,0,.2784,1.1183,2.07488,2.07488,0,0,0,.79385.80766,2.33313,2.33313,0,0,0,1.19655.29913,2.07262,2.07262,0,0,0,.70871-.11965,2.60338,2.60338,0,0,0,.54306-.26l-.25311-.53154a1.63531,1.63531,0,0,1-1.03086.336" style="fill:#fff"/><path d="M60.77034,30.68442a2.21018,2.21018,0,0,0,.18177-.8905,2.151,2.151,0,0,0-.30834-1.1252,2.31065,2.31065,0,0,0-.82605-.82606,2.1931,2.1931,0,0,0-2.2504,0,2.3225,2.3225,0,0,0-.82377.82606,2.25431,2.25431,0,0,0-.00232,2.26421,2.25907,2.25907,0,0,0,1.95357,1.1137,2.27281,2.27281,0,0,0,.46252-.04832h1.9858v-.57986H60.2572a2.22532,2.22532,0,0,0,.51314-.734m-1.23793.56605a1.59992,1.59992,0,0,1-.82609.2232,1.6246,1.6246,0,0,1-.83526-.2255,1.69462,1.69462,0,0,1-.60289-2.28492,1.61912,1.61912,0,0,1,.59366-.61437,1.62139,1.62139,0,0,1,1.66134-.0023,1.67494,1.67494,0,0,1,.82149,1.44734,1.71651,1.71651,0,0,1-.2186.84448,1.59792,1.59792,0,0,1-.59365.61207" style="fill:#fff"/><path d="M66.03533,30.43476a1.04223,1.04223,0,0,1-.14038.53154,1.00315,1.00315,0,0,1-.38657.37276,1.14253,1.14253,0,0,1-.55454.13346,1.04205,1.04205,0,0,1-.91583-.51083,1.01341,1.01341,0,0,1-.14034-.52693V27.58149H63.304v2.87168a1.59815,1.59815,0,0,0,.2186.83527,1.49044,1.49044,0,0,0,.596.56145,1.87634,1.87634,0,0,0,1.67746,0,1.5028,1.5028,0,0,0,.60057-.56145,1.57832,1.57832,0,0,0,.22089-.83527V27.58149h-.58214Z" style="fill:#fff"/><rect x="69.0543" y="27.58194" width="0.59365" height="4.41567" style="fill:#fff"/><path d="M74.15865,29.74721a3.02836,3.02836,0,0,0-.57757-.26462,3.30745,3.30745,0,0,1-.70643-.34515.55226.55226,0,0,1-.0368-.8928.91623.91623,0,0,1,.57294-.16107,1.81058,1.81058,0,0,1,.50623.07824,2.65515,2.65515,0,0,1,.50623.20709l.22551-.4556a2.58459,2.58459,0,0,0-1.3254-.35666,1.45288,1.45288,0,0,0-.94343.34055,1.06733,1.06733,0,0,0-.36357.83987.95319.95319,0,0,0,.1772.58907,1.35364,1.35364,0,0,0,.42337.37046,4.87988,4.87988,0,0,0,.62129.27382,2.32436,2.32436,0,0,1,.62589.34056.587.587,0,0,1,.2232.48551.61622.61622,0,0,1-.26464.54305,1.073,1.073,0,0,1-.62125.18178,1.73888,1.73888,0,0,1-.59369-.11736,2.19575,2.19575,0,0,1-.543-.28992l-.26.4694a2.645,2.645,0,0,0,.665.33365,2.43385,2.43385,0,0,0,.78694.13116,1.67164,1.67164,0,0,0,.76626-.16567,1.22215,1.22215,0,0,0,.50391-.45331,1.17463,1.17463,0,0,0,.1772-.63968,1.209,1.209,0,0,0-.15417-.64429,1.22218,1.22218,0,0,0-.39117-.39808" style="fill:#fff"/><rect x="76.91689" y="27.58194" width="0.59365" height="4.41567" style="fill:#fff"/><polygon points="79.678 28.151 80.833 28.151 80.833 31.998 81.424 31.998 81.424 28.151 82.609 28.151 82.609 27.582 79.678 27.582 79.678 28.151" style="fill:#fff"/><rect x="84.77952" y="27.58194" width="0.59137" height="4.41567" style="fill:#fff"/><path d="M90.96651,27.84127a2.20734,2.20734,0,0,0-2.25043,0,2.34749,2.34749,0,0,0-.82374.82837A2.24979,2.24979,0,0,0,87.89,30.93155a2.25932,2.25932,0,0,0,4.21088-1.139,2.18453,2.18453,0,0,0-.306-1.1229,2.36073,2.36073,0,0,0-.82837-.82837m.30834,2.79805a1.63424,1.63424,0,0,1-2.25271.60747,1.61443,1.61443,0,0,1-.60289-.60977,1.65781,1.65781,0,0,1-.22088-.83758,1.69147,1.69147,0,0,1,.2186-.84907,1.60439,1.60439,0,0,1,.596-.619,1.55022,1.55022,0,0,1,.82837-.2301,1.59628,1.59628,0,0,1,.83066.2255,1.661,1.661,0,0,1,.60057.61667,1.762,1.762,0,0,1,.00231,1.69586" style="fill:#fff"/><polygon points="97.587 30.777 94.352 27.448 94.32 27.448 94.32 31.999 94.918 31.999 94.906 28.854 98.151 32.146 98.169 32.146 98.169 27.581 97.576 27.581 97.587 30.777" style="fill:#fff"/><polygon points="104.404 27.582 103.813 27.582 103.813 31.998 106.655 31.998 106.655 31.425 104.404 31.425 104.404 27.582" style="fill:#fff"/><rect x="108.83444" y="27.58194" width="0.59365" height="4.41567" style="fill:#fff"/><polygon points="114.101 30.52 111.926 27.441 111.919 27.441 111.919 32 112.495 32 112.495 29.22 114.087 31.443 114.101 31.443 115.725 29.14 115.725 32 116.312 32 116.312 27.441 116.305 27.441 114.101 30.52" style="fill:#fff"/><rect x="118.80477" y="27.58194" width="0.59365" height="4.41567" style="fill:#fff"/><polygon points="121.566 28.151 122.721 28.151 122.721 31.998 123.312 31.998 123.312 28.151 124.497 28.151 124.497 27.582 121.566 27.582 121.566 28.151" style="fill:#fff"/><polygon points="127.258 30.062 129.294 30.062 129.294 29.493 127.258 29.493 127.258 28.15 129.536 28.15 129.536 27.581 126.666 27.581 126.666 31.999 129.623 31.999 129.623 31.424 127.258 31.424 127.258 30.062" style="fill:#fff"/><path d="M135.2394,28.75156a1.98578,1.98578,0,0,0-.787-.84217,2.5967,2.5967,0,0,0-1.3668-.32675h-1.20806v4.41567h1.42206a2.26792,2.26792,0,0,0,1.08837-.26692,2.00408,2.00408,0,0,0,.79845-.757,2.12223,2.12223,0,0,0,.29915-1.1321,2.48032,2.48032,0,0,0-.2462-1.09069m-.57985,1.92135a1.41665,1.41665,0,0,1-.60289.55915,1.91687,1.91687,0,0,1-.8744.19329h-.71332V28.151h.77086a1.75506,1.75506,0,0,1,.80766.191,1.47114,1.47114,0,0,1,.60285.56605,1.67666,1.67666,0,0,1,.22552.8928,1.70216,1.70216,0,0,1-.21628.87208" style="fill:#fff"/></g></g></svg>