<svg xmlns="http://www.w3.org/2000/svg" viewBox="0 0 73.27912 59.90141"><g id="图层_2" data-name="图层 2"><g id="Layer_1" data-name="Layer 1"><path d="M1.9021,44.3072c1.00231,0,1.381.38979,1.381,1.02458a.9535.9535,0,0,1-.671.89929.9036.9036,0,0,1,.81577.916c0,.76843-.50114,1.09975-1.40323,1.09975H.485V44.3072Zm-.88254,1.70114h.84078c.49281,0,.89372-.245.89372-.61809,0-.40927-.30346-.60416-.90761-.60416H1.01956Zm0,1.77352H1.9021c.65709,0,.99118-.2283.99118-.66264,0-.50115-.43431-.64036-.99118-.64036H1.01956Z" style="fill:#fff"/><path d="M4.54074,45.36212v1.8487a.64533.64533,0,0,0,.67654.71,1.04777,1.04777,0,0,0,.774-.38144V45.36212h.52063v2.8872H5.99129v-.36751a1.31573,1.31573,0,0,1-.95222.46217.92582.92582,0,0,1-1.019-1.03293V45.36212Z" style="fill:#fff"/><path d="M7.54235,47.48562a.743.743,0,0,0,.76283.45661c.348,0,.6042-.19767.6042-.4399,0-.27007-.33413-.39813-.73505-.54014C7.495,46.7506,7.147,46.51673,7.147,46.088c0-.44547.43991-.79905,1.12759-.79905a1.12132,1.12132,0,0,1,1.1332.68212l-.49837.0891a.65767.65767,0,0,0-.63483-.3703c-.38142,0-.60416.19768-.60416.42041,0,.2645.42322.40092.69329.4928.696.18933,1.097.41762,1.097.89372,0,.52343-.47611.8464-1.16935.8464a1.24908,1.24908,0,0,1-1.23618-.75173Z" style="fill:#fff"/><path d="M10.55709,44.91721h-.52063v-.60974h.52063Zm0,3.32988h-.52063V45.3599h.52063Z" style="fill:#fff"/><path d="M11.781,45.36212v.39257a1.3029,1.3029,0,0,1,.94661-.46495.914.914,0,0,1,1.02177,1.03014v1.92944H13.226V46.42011a.62548.62548,0,0,0-.65152-.7044,1.08836,1.08836,0,0,0-.79346.37865v2.155h-.52067v-2.8872Z" style="fill:#fff"/><path d="M15.69357,45.28834A1.31768,1.31768,0,0,1,17.03277,46.75v.23667H14.86111a.84249.84249,0,0,0,.8659.9327.89853.89853,0,0,0,.82132-.465l.47055.078a1.30706,1.30706,0,0,1-1.29744.8102,1.35175,1.35175,0,0,1-1.3782-1.52017,1.37369,1.37369,0,0,1,1.35033-1.53408m.81581,1.29186a.82162.82162,0,0,0-.81581-.86309.8503.8503,0,0,0-.83246.86309Z" style="fill:#fff"/><path d="M17.96133,47.48562a.73741.73741,0,0,0,.76007.45661c.35078,0,.60415-.19767.60415-.4399,0-.27007-.33133-.39813-.73224-.54014-.68211-.21159-1.03014-.44546-1.03014-.87423,0-.44547.43992-.79905,1.13036-.79905a1.11986,1.11986,0,0,1,1.13039.68212l-.49837.0891a.65358.65358,0,0,0-.632-.3703c-.38418,0-.60416.19768-.60416.42041,0,.2645.42042.40092.69329.4928.69324.18933,1.09415.41762,1.09415.89372,0,.52343-.4733.8464-1.16935.8464a1.24774,1.24774,0,0,1-1.23337-.75173Z" style="fill:#fff"/><path d="M20.78893,47.48562a.73945.73945,0,0,0,.76007.45661c.35078,0,.60415-.19767.60415-.4399,0-.27007-.33133-.39813-.73224-.54014-.67935-.21159-1.03014-.44546-1.03014-.87423,0-.44547.44268-.79905,1.13036-.79905a1.11986,1.11986,0,0,1,1.13039.68212l-.49837.0891a.651.651,0,0,0-.632-.3703c-.38418,0-.60416.19768-.60416.42041,0,.2645.42322.40092.69329.4928.69324.18933,1.09415.41762,1.09415.89372,0,.52343-.4733.8464-1.16654.8464a1.24908,1.24908,0,0,1-1.23618-.75173Z" style="fill:#fff"/><path d="M26.30746,44.30887h.58189l1.55081,3.93962H27.8861L27.48238,47.21H25.69494l-.40929,1.0385h-.55682Zm-.42317,2.425h1.41435l-.69329-1.79858h-.01113Z" style="fill:#fff"/><path d="M30.104,45.28862a1.21919,1.21919,0,0,1,1.23894.83526l-.51787.0696a.74541.74541,0,0,0-.72107-.45382c-.54013,0-.8687.426-.8687,1.07191,0,.64315.3035,1.08583.84639,1.08583a.786.786,0,0,0,.76568-.50114l.5067.07516a1.25987,1.25987,0,0,1-1.27238.87145,1.39118,1.39118,0,0,1-1.36978-1.5313,1.37353,1.37353,0,0,1,1.39209-1.523" style="fill:#fff"/><path d="M33.07526,45.28917a1.27728,1.27728,0,0,1,.94385.41207v-.33968h.51783v3.92292h-.51783V47.95642a1.38941,1.38941,0,0,1-.92159.387c-.8659,0-1.28351-.64592-1.28351-1.5313,0-.88815.42318-1.523,1.26125-1.523m.94385,2.24405V46.15784a1.16773,1.16773,0,0,0-.8492-.42041c-.57076,0-.83526.50394-.83526,1.07469,0,.55684.2645,1.08027.83526,1.08027a1.283,1.283,0,0,0,.8492-.35917" style="fill:#fff"/><path d="M35.75671,45.36212v1.8487a.64533.64533,0,0,0,.67655.71,1.05225,1.05225,0,0,0,.774-.38144V45.36212h.51783v2.8872h-.51783v-.36751a1.32053,1.32053,0,0,1-.95222.46217.9246.9246,0,0,1-1.019-1.03293V45.36212Z" style="fill:#fff"/><path d="M38.94462,44.91721H38.424v-.60974h.52064Zm0,3.32988H38.424V45.3599h.52064Z" style="fill:#fff"/><path d="M39.98172,47.48562a.73741.73741,0,0,0,.76007.45661c.35078,0,.60415-.19767.60415-.4399,0-.27007-.33133-.39813-.73224-.54014-.68211-.21159-1.03014-.44546-1.03014-.87423,0-.44547.44268-.79905,1.13036-.79905a1.11986,1.11986,0,0,1,1.13039.68212l-.49837.0891a.65358.65358,0,0,0-.632-.3703c-.38418,0-.60416.19768-.60416.42041,0,.2645.42042.40092.69329.4928.69324.18933,1.09415.41762,1.09415.89372,0,.52343-.4733.8464-1.16935.8464a1.24774,1.24774,0,0,1-1.23337-.75173Z" style="fill:#fff"/><path d="M42.99561,44.91721H42.475v-.60974h.52064Zm0,3.32988H42.475V45.3599h.52064Z" style="fill:#fff"/><path d="M43.889,45.36212V44.6104h.51507v.75172H45.05v.42877H44.4041v1.80693c0,.23109.13641.31183.37028.31183a.69882.69882,0,0,0,.2645-.0529v.41763a1.70962,1.70962,0,0,1-.50393.0696c-.37309,0-.64592-.16983-.64592-.58189v-1.9712h-.49281v-.42877Z" style="fill:#fff"/><path d="M46.022,44.91721h-.52064v-.60974H46.022Zm0,3.32988h-.52064V45.3599H46.022Z" style="fill:#fff"/><path d="M47.99988,45.29a1.53367,1.53367,0,0,1,0,3.05425,1.534,1.534,0,0,1,0-3.05425m0,2.60877c.56516,0,.86866-.44547.86866-1.09139s-.32577-1.06913-.86866-1.06913c-.529,0-.8687.42877-.8687,1.06913s.31183,1.09139.8687,1.09139" style="fill:#fff"/><path d="M50.49866,45.36212v.39257a1.30862,1.30862,0,0,1,.94937-.46495.91512.91512,0,0,1,1.02181,1.03014v1.92944h-.52343V46.42011a.62745.62745,0,0,0-.65429-.7044,1.093,1.093,0,0,0-.79346.37865v2.155H49.978v-2.8872Z" style="fill:#fff"/><polygon points="55.556 44.309 55.556 47.783 57.644 47.783 57.644 48.248 55.024 48.248 55.024 44.309 55.556 44.309" style="fill:#fff"/><path d="M58.61207,44.91721h-.52063v-.60974h.52063Zm0,3.32988h-.52063V45.3599h.52063Z" style="fill:#fff"/><path d="M59.83015,45.36212v.3703a1.29071,1.29071,0,0,1,.92711-.44268.861.861,0,0,1,.86866.51228h.0028a1.407,1.407,0,0,1,.98561-.51228A.90008.90008,0,0,1,63.586,46.306v1.94336h-.52624V46.37278a.59247.59247,0,0,0-.60972-.65707,1.14313,1.14313,0,0,0-.73781.43155v2.10206h-.52063v-1.8487a.60363.60363,0,0,0-.58746-.68491,1.08492,1.08492,0,0,0-.774.42042v2.11319H59.315v-2.8872Z" style="fill:#fff"/><path d="M64.80409,44.91721h-.52063v-.60974h.52063Zm0,3.32988h-.52063V45.3599h.52063Z" style="fill:#fff"/><path d="M65.70032,45.36212V44.6104h.51226v.75172h.64592v.42877h-.64592v1.80693c0,.23109.13641.31183.37029.31183a.6989.6989,0,0,0,.2645-.0529v.41763a1.72277,1.72277,0,0,1-.50394.0696c-.37309,0-.64311-.16983-.64311-.58189v-1.9712h-.49561v-.42877Z" style="fill:#fff"/><path d="M68.5577,45.28834A1.31768,1.31768,0,0,1,69.8969,46.75v.23667H67.728a.8404.8404,0,0,0,.86309.9327.89854.89854,0,0,0,.82133-.465l.47055.078a1.30706,1.30706,0,0,1-1.29744.8102,1.3497,1.3497,0,0,1-1.3754-1.52017,1.37162,1.37162,0,0,1,1.34753-1.53408m.81581,1.29186a.82162.82162,0,0,0-.81581-.86309.846.846,0,0,0-.82966.86309Z" style="fill:#fff"/><path d="M71.64649,45.2889a1.24763,1.24763,0,0,1,.93272.40649v-1.381H73.097v3.934h-.51783v-.27563a1.34664,1.34664,0,0,1-.91046.3703c-.86585,0-1.28351-.64593-1.28351-1.5313,0-.88816.41766-1.523,1.26125-1.523m.93272,2.24961V46.14086a1.18373,1.18373,0,0,0-.83807-.40093c-.57352,0-.838.49559-.838,1.07192,0,.5624.25613,1.08026.838,1.08026a1.24976,1.24976,0,0,0,.83807-.3536" style="fill:#fff"/><path d="M4.9578,30.62378H6.62l4.42961,11.24809h-1.587L8.31274,38.9095h-5.109L2.04,41.87187H.4502ZM3.74668,37.548H7.78374L5.80139,32.40566H5.77356Z" style="fill:#fff"/><path d="M15.79689,33.41909a3.47842,3.47842,0,0,1,3.53869,2.38884l-1.48118.19767a2.12126,2.12126,0,0,0-2.05751-1.3002c-1.54244,0-2.48072,1.225-2.48072,3.06817,0,1.8292.86309,3.09879,2.42222,3.09879a2.231,2.231,0,0,0,2.17723-1.43385l1.45059.21159a3.5978,3.5978,0,0,1-3.62782,2.49463c-2.48068,0-3.91734-1.96564-3.91734-4.37116,0-2.4473,1.38933-4.35448,3.97584-4.35448" style="fill:#fff"/><path d="M24.53808,33.41967c2.61713,0,3.82549,1.96561,3.82549,4.17348v.67934H22.166a2.40042,2.40042,0,0,0,2.46123,2.66167,2.55168,2.55168,0,0,0,2.34426-1.33083l1.34477.22829a3.728,3.728,0,0,1-3.703,2.31366c-2.6617,0-3.93127-1.93779-3.93127-4.34054,0-2.29972,1.25287-4.38507,3.85608-4.38507m2.32761,3.689a2.34341,2.34341,0,0,0-2.32761-2.464,2.41713,2.41713,0,0,0-2.3721,2.464Z" style="fill:#fff"/><path d="M36.30326,31.19648A4.17363,4.17363,0,0,1,40.538,34.06142l-1.45335.22272A2.83467,2.83467,0,0,0,36.30326,32.441c-1.98235,0-3.38,1.70392-3.38,4.19019,0,2.55588,1.42548,4.20411,3.28256,4.20411a3.22542,3.22542,0,0,0,3.1294-2.48628v-.92155H36.40068V36.17182H40.7468v5.65467H39.49112V39.91375a3.754,3.754,0,0,1-3.48023,2.1661c-2.34707,0-4.4853-1.9712-4.4853-5.44864,0-3.21294,1.88766-5.43473,4.77767-5.43473" style="fill:#fff"/><rect x="42.77563" y="31.43341" width="1.36983" height="10.39336" style="fill:#fff"/><path d="M49.35412,34.01771c2.50018,0,3.6751,1.85983,3.6751,4.00921,0,2.22178-1.2,4.051-3.6751,4.051-2.44177,0-3.65845-1.871-3.65845-4.051,0-2.09371,1.2-4.00921,3.65845-4.00921m0,6.88805c1.49507,0,2.29138-1.17213,2.29138-2.87884,0-1.70392-.8492-2.82036-2.29138-2.82036-1.3949,0-2.28862,1.13036-2.28862,2.82036,0,1.69278.82414,2.87884,2.28862,2.87884" style="fill:#fff"/><path d="M55.95292,31.44874v3.71688a3.45153,3.45153,0,0,1,2.47231-1.14709c2.34431,0,3.32431,1.75962,3.32431,4.07883,0,2.361-1.04683,3.98138-3.38,3.98138a3.729,3.729,0,0,1-2.41666-.96332v.71275H54.58309V31.44874Zm0,4.90293v3.5916a3.32456,3.32456,0,0,0,2.23568.94941c1.53407,0,2.19392-1.342,2.19392-2.79532,0-1.4088-.55959-2.89276-2.19392-2.89276a3.21964,3.21964,0,0,0-2.23568,1.14707" style="fill:#fff"/><path d="M68.318,36.89654V36.504c-.0139-.70995-.47607-1.367-1.80138-1.367a1.9554,1.9554,0,0,0-1.97118,1.21389l-1.26961-.181a3.26975,3.26975,0,0,1,3.30762-2.15217c2.08257,0,3.10157.97724,3.10157,2.48626v4.10945c0,.48724.28124.51786.82414.43156v.87979a3.31371,3.31371,0,0,1-.97449.15314,1.13635,1.13635,0,0,1-1.07746-.61252,4.26645,4.26645,0,0,1-.08352-.58747,4.14237,4.14237,0,0,1-2.87607,1.2c-1.21668,0-2.44449-.61252-2.44449-1.94058,0-1.96842,1.98231-2.8343,5.26487-3.24079M65.79,40.96145a3.83236,3.83236,0,0,0,2.51411-1.07469c0-.36473.0139-1.49511.0139-1.85984-2.06864.25336-3.88395.71276-3.89784,1.95728,0,.62922.50113.97725,1.36983.97725" style="fill:#fff"/><rect x="71.70048" y="31.43341" width="1.36983" height="10.39336" style="fill:#fff"/><path d="M73.27912,13.75663l-6.20039,2.86773a7.77706,7.77706,0,0,1-7.38363,5.36789h-.39535a7.72335,7.72335,0,0,1-4.97815-1.81249l15.88377-9.55812-.0195-.03341,2.29138-1.35868A13.60415,13.60415,0,0,0,59.6951.245h-.39535A13.60733,13.60733,0,0,0,45.71292,13.83181v.39258a13.52067,13.52067,0,0,0,.59583,3.98136l-3.77536,2.27469-1.225.735a7.69349,7.69349,0,0,1-3.36331.77679h-.39535a7.77577,7.77577,0,0,1-7.76509-7.76786v-.39258a7.774,7.774,0,0,1,7.76509-7.76788H37.945a7.74882,7.74882,0,0,1,2.27192.33968l5.83563-3.47188A13.52171,13.52171,0,0,0,37.945.245h-.39535A13.58044,13.58044,0,0,0,26.0176,6.66254a13.83277,13.83277,0,1,0-7.24442,20.21874l.26446-.09189V20.61965l-.59578.35637A8.31465,8.31465,0,1,1,22.49,13.31952V27.66363H26.8473V22.57694A13.56123,13.56123,0,0,0,37.54968,27.8112H37.945a13.49815,13.49815,0,0,0,7.82078-2.48627l3.41064-2.04916a13.55625,13.55625,0,0,0,10.1233,4.53543h.39535a13.59926,13.59926,0,0,0,13.584-13.58681v-.46776ZM59.29975,6.06393h.39535a7.71109,7.71109,0,0,1,4.45466,1.40881L51.57918,15.03737a7.12435,7.12435,0,0,1-.04452-.813v-.39258a7.774,7.774,0,0,1,7.76509-7.76788" style="fill:#fff"/><polygon points="0 52.246 1.297 52.246 4.499 57.414 4.519 57.414 4.519 52.246 5.688 52.246 5.688 59.262 4.391 59.262 1.2 54.103 1.169 54.103 1.169 59.262 0 59.262 0 52.246" style="fill:#fff"/><path d="M9.018,52.24518h1.30857l2.70062,7.01614H11.71026l-.65709-1.85705H8.25229l-.657,1.85705H6.32563Zm-.43154,4.22638h2.14379l-1.0524-3.018H9.64718Z" style="fill:#fff"/><path d="M14.50281,56.92288a1.561,1.561,0,0,0,.13917.6877,1.227,1.227,0,0,0,.38146.46774,1.65153,1.65153,0,0,0,.5652.2645,2.75,2.75,0,0,0,.69324.08352,2.26622,2.26622,0,0,0,.68768-.09466,1.38567,1.38567,0,0,0,.46217-.23943.87945.87945,0,0,0,.25617-.33968,1.05828,1.05828,0,0,0,.078-.38978.83135.83135,0,0,0-.18378-.593,1.03609,1.03609,0,0,0-.39535-.27006,8.15526,8.15526,0,0,0-.87146-.25894c-.33128-.08074-.73781-.18932-1.22224-.32017a2.74764,2.74764,0,0,1-.75451-.31183,1.77069,1.77069,0,0,1-.4733-.426,1.48685,1.48685,0,0,1-.25057-.50114,1.961,1.961,0,0,1-.07519-.54014,1.85418,1.85418,0,0,1,.21993-.91878,1.9994,1.9994,0,0,1,.5847-.64593,2.60816,2.60816,0,0,1,.82689-.37587,3.69722,3.69722,0,0,1,1.96842.02227,2.528,2.528,0,0,1,.85753.426,2.09982,2.09982,0,0,1,.5847.70162,2.06663,2.06663,0,0,1,.21437.96612H17.571a1.183,1.183,0,0,0-.46218-.955,1.818,1.818,0,0,0-1.05239-.2812,2.25809,2.25809,0,0,0-.44548.04454,1.40088,1.40088,0,0,0-.40929.14479.93626.93626,0,0,0-.309.28119.85761.85761,0,0,0,.10855,1.02736,1.41841,1.41841,0,0,0,.60419.31741c.02226.00835.12529.03619.309.0863.17821.04734.38145.103.60419.16148s.43987.11695.65148.17262c.21161.0529.36753.09745.45661.12251a2.05446,2.05446,0,0,1,.6014.29512,1.88582,1.88582,0,0,1,.426.42876,1.819,1.819,0,0,1,.25613.51508,1.8737,1.8737,0,0,1,.08352.54848,1.97866,1.97866,0,0,1-.24224,1.00788,2.06822,2.06822,0,0,1-.632.68491,2.7508,2.7508,0,0,1-.89372.38422,4.40692,4.40692,0,0,1-2.1522-.02228,2.6286,2.6286,0,0,1-.92435-.451A2.21039,2.21039,0,0,1,13.52,58.0477a2.6468,2.6468,0,0,1-.245-1.12482Z" style="fill:#fff"/><path d="M20.067,52.24686h2.90666a3.26423,3.26423,0,0,1,1.3949.27285,2.61782,2.61782,0,0,1,.96331.75173,3.26582,3.26582,0,0,1,.55406,1.11366,5.17729,5.17729,0,0,1,0,2.73408,3.21619,3.21619,0,0,1-.55406,1.11366,2.65373,2.65373,0,0,1-.96331.75452,3.3066,3.3066,0,0,1-1.3949.27285H20.067Zm1.225,6.011h1.21111a3.05412,3.05412,0,0,0,1.17211-.18932,1.714,1.714,0,0,0,.71835-.53178,1.9207,1.9207,0,0,0,.35359-.79628,5.34885,5.34885,0,0,0,0-1.974,1.92066,1.92066,0,0,0-.35359-.79627,1.68612,1.68612,0,0,0-.71835-.529,3.04576,3.04576,0,0,0-1.17211-.19489H21.29206Z" style="fill:#fff"/><path d="M29.03459,52.24518h1.30857l2.70062,7.01614h-1.3169l-.65709-1.85705H28.26891l-.657,1.85705H26.34225ZM28.603,56.47156h2.14379l-1.05239-3.018h-.03063Z" style="fill:#fff"/><path d="M39.96969,59.23043l-.59858.671-1.02457-.89651a2.901,2.901,0,0,1-.813.323,3.60308,3.60308,0,0,1-.83526.10023,3.31833,3.31833,0,0,1-1.40879-.28956,3.06327,3.06327,0,0,1-1.058-.7907,3.5006,3.5006,0,0,1-.66265-1.16936,4.48683,4.48683,0,0,1,0-2.84265,3.51517,3.51517,0,0,1,.66265-1.16658,3.1127,3.1127,0,0,1,1.058-.79627,3.51676,3.51676,0,0,1,2.82038,0,3.11814,3.11814,0,0,1,1.05244.79627,3.52134,3.52134,0,0,1,.66542,1.16658,4.35875,4.35875,0,0,1,.23106,1.41715,4.66142,4.66142,0,0,1-.05845.73224,4.97979,4.97979,0,0,1-.17542.72388,3.84494,3.84494,0,0,1-.30626.671,2.42476,2.42476,0,0,1-.45381.56518Zm-3.19342-1.58978.59022-.67934.85476.74616a2.38091,2.38091,0,0,0,.47051-.9132,3.94144,3.94144,0,0,0,.01393-2.02411,2.73069,2.73069,0,0,0-.37585-.86031,1.8777,1.8777,0,0,0-.66546-.60417,2.18813,2.18813,0,0,0-1.935,0,1.869,1.869,0,0,0-.66266.60417,2.73474,2.73474,0,0,0-.37861.86031,4.00321,4.00321,0,0,0,0,1.96564,2.66449,2.66449,0,0,0,.37861.85752,1.90253,1.90253,0,0,0,.66266.607,1.97743,1.97743,0,0,0,.96887.22552,2.19021,2.19021,0,0,0,.39815-.039,1.57918,1.57918,0,0,0,.387-.12807Z" style="fill:#fff"/><path d="M41.11071,54.28877h1.367v1.32806h-1.367Zm0,3.64449h1.367v1.32806h-1.367Z" style="fill:#fff"/><path d="M48.51856,52.24518h1.30857l2.70062,7.01614h-1.3169l-.65709-1.85705H47.75288l-.657,1.85705H45.82622ZM48.087,56.47156H50.2308l-1.05239-3.018h-.03063Z" style="fill:#fff"/><path d="M57.935,54.47587a2.62984,2.62984,0,0,0-.21717-.55961,1.52384,1.52384,0,0,0-.35359-.44269,1.616,1.616,0,0,0-.50674-.28955,2.218,2.218,0,0,0-1.64266.1225,1.91713,1.91713,0,0,0-.66265.60416,2.85071,2.85071,0,0,0-.37865.85754,4.01559,4.01559,0,0,0,0,1.96841,2.82029,2.82029,0,0,0,.37865.85753,1.95246,1.95246,0,0,0,.66265.60695,1.97744,1.97744,0,0,0,.96888.22552,1.74841,1.74841,0,0,0,.72948-.14478,1.63725,1.63725,0,0,0,.54013-.38979,1.90928,1.90928,0,0,0,.35359-.58467,2.94361,2.94361,0,0,0,.167-.71832h1.19718a3.39428,3.39428,0,0,1-.26726,1.14986,2.86691,2.86691,0,0,1-.62646.8993,2.80981,2.80981,0,0,1-.92435.58468,3.22327,3.22327,0,0,1-1.16935.20325,3.33552,3.33552,0,0,1-1.40879-.28678,3.15258,3.15258,0,0,1-1.058-.79071,3.59875,3.59875,0,0,1-.66262-1.16936,4.48609,4.48609,0,0,1,0-2.84265,3.628,3.628,0,0,1,.66262-1.16935,3.16,3.16,0,0,1,1.058-.79349,3.25525,3.25525,0,0,1,1.40879-.29512,3.7144,3.7144,0,0,1,1.11369.16148,2.9274,2.9274,0,0,1,.91879.47052A2.49905,2.49905,0,0,1,59.16,54.47587Z" style="fill:#fff"/><path d="M60.29343,52.24686h3.40784a2.4425,2.4425,0,0,1,1.51181.43154,1.53367,1.53367,0,0,1,.57076,1.30578,1.55878,1.55878,0,0,1-.26174.91044,1.69082,1.69082,0,0,1-.74057.58467v.01949a1.53573,1.53573,0,0,1,.98281.61251,2.1969,2.1969,0,0,1,.18654,1.96842,1.54536,1.54536,0,0,1-.46217.61531,2.26037,2.26037,0,0,1-.80463.41485,4.01714,4.01714,0,0,1-1.16936.15034H60.29343Zm1.225,2.93731h2.00737a1.11417,1.11417,0,0,0,.735-.25058.89514.89514,0,0,0,.29513-.72389.90984.90984,0,0,0-.2645-.74615,1.19438,1.19438,0,0,0-.76564-.21718H61.51848Zm0,3.07373h2.17166a1.22045,1.22045,0,0,0,.87141-.28955,1.06416,1.06416,0,0,0,.30907-.81855,1.03652,1.03652,0,0,0-.30907-.80463,1.26908,1.26908,0,0,0-.87141-.27842H61.51848Z" style="fill:#fff"/><path d="M69.08449,52.24518h1.30857l2.70062,7.01614h-1.3169l-.65709-1.85705H68.31882l-.657,1.85705H66.39216ZM68.653,56.47156h2.14379l-1.0524-3.018h-.03063Z" style="fill:#fff"/></g></g></svg>