<svg xmlns="http://www.w3.org/2000/svg" viewBox="0 0 126.39114 45.66605"><g id="图层_2" data-name="图层 2"><g id="Layer_1" data-name="Layer 1"><path d="M59.30086,22.13549a2.4,2.4,0,0,1-.399.67091,2.5362,2.5362,0,0,1-.57508.5015,3.62032,3.62032,0,0,1-.6709.33435,4.1672,4.1672,0,0,1-.76007.18945c-.26971.04236-.54162.07356-.81578.09585-.27416.02006-.54387.0312-.80463.0312h-.682V25.149c0,.14266.00221.27639.00667.399.00224.12259.00445.25409.00445.399.0067.2697.01561.5015.02452.69543a.9301.9301,0,0,0,.14043.48144,1.06534,1.06534,0,0,0,.39228.32988,1.83421,1.83421,0,0,0,.81133.18946V27.768H51.91863v-.12482a3.44992,3.44992,0,0,0,.61073-.1538.97065.97065,0,0,0,.45472-.30313.60293.60293,0,0,0,.10251-.22735,2.59877,2.59877,0,0,0,.05574-.341c.01337-.127.02228-.263.03119-.40566s.01337-.28307.01337-.41681c0-.11814.00224-.27862.0067-.48367.00445-.20061.00891-.42351.01336-.662.00225-.24073.00446-.48813.00446-.74223v-3.203c0-.15157-.00221-.30537-.00446-.46139-.00445-.156-.01336-.30536-.02673-.44355a2.295,2.295,0,0,0-.06465-.38115.55847.55847,0,0,0-.11812-.24519.92969.92969,0,0,0-.48816-.27192c-.19835-.04681-.41234-.08693-.63967-.12037v-.127H52.175c.15825,0,.34772-.00223.56393-.00669.21175-.00446.448-.00669.69987-.00669.2541,0,.506-.00222.75337-.00669q.37446-.00667.70212-.00668h.5706a11.65415,11.65415,0,0,1,1.48226.08469,3.35957,3.35957,0,0,1,1.21476.39676,2.58487,2.58487,0,0,1,.925.86037,2.33854,2.33854,0,0,1,.36555,1.31729,2.251,2.251,0,0,1-.15156.84922m-1.58922-2.21556a2.38424,2.38424,0,0,0-.97852-.86036,2.35534,2.35534,0,0,0-.64637-.19168,4.90085,4.90085,0,0,0-.711-.049,3.79175,3.79175,0,0,0-.41014.01784c-.09584.01337-.17607.02451-.234.03121a.8347.8347,0,0,1-.03343.13373.86744.86744,0,0,0-.029.14488q-.01337.09027-.02676.24741c-.00891.107-.01782.25633-.02673.45025-.00891.29644-.01337.65307-.01561,1.07656-.00446.42127-.00667.83585-.00667,1.23929v1.62043c.34548,0,.66865-.00892.974-.0312a3.283,3.283,0,0,0,.847-.1694,2.38152,2.38152,0,0,0,1.24149-.92055,2.49714,2.49714,0,0,0,.4302-1.43543,2.316,2.316,0,0,0-.37446-1.30393" style="fill:#fff"/><path d="M68.35344,27.7691v-.127a2.61286,2.61286,0,0,0,.7868-.1694.88069.88069,0,0,0,.4168-.29868.47835.47835,0,0,0,.04459-.15157c.01112-.07578.02228-.16493.03119-.26524.0067-.10253.01336-.20728.01782-.3165.00449-.11146.0067-.21621.0067-.31651q.01336-.41793.01337-.8626V23.26221H64.67123v2.72152c0,.24519.00445.48145.01115.711a.89351.89351,0,0,0,.11367.47922.94961.94961,0,0,0,.43241.32988,1.86114,1.86114,0,0,0,.54387.1382v.127H62.03662v-.127a2.62641,2.62641,0,0,0,.60628-.1694,1.17393,1.17393,0,0,0,.44578-.29868.54686.54686,0,0,0,.08026-.20728,2.92358,2.92358,0,0,0,.05125-.33658c.01116-.127.02228-.263.03123-.41235.00891-.1471.01336-.28753.01336-.42349q0-.17721.00667-.48145c.00445-.20283.00894-.4235.0134-.66422s.00667-.48814.00667-.74V20.24871a4.178,4.178,0,0,0-.02007-.42351,2.79964,2.79964,0,0,0-.058-.3544.55552.55552,0,0,0-.11366-.24741,1.00991,1.00991,0,0,0-.43687-.30982,2.72094,2.72094,0,0,0-.58842-.13373V18.655H65.8481v.12482c-.12036.01783-.24518.04234-.38116.07579a1.2928,1.2928,0,0,0-.36775.15825.90111.90111,0,0,0-.27862.29867,1.039,1.039,0,0,0-.12706.47922c-.00891.29645-.01337.61519-.01558.95844-.00446.341-.0067.66868-.0067.98073v1.27718h4.99948V20.97087c0-.21843-.00446-.46807-.01337-.74669-.00891-.16048-.01782-.32765-.03119-.49927a.9264.9264,0,0,0-.63971-.84923,2.51644,2.51644,0,0,0-.584-.09584V18.655h3.81148v.12482a2.06581,2.06581,0,0,0-.59291.17163.90669.90669,0,0,0-.43241.3856.85791.85791,0,0,0-.07578.24741c-.01782.10476-.02673.22289-.03568.3544s-.01336.263-.01336.399V24.477q0,.3544.0067.73554.00667.37782.00666.83585c0,.243.0067.47031.01561.6776a.9556.9556,0,0,0,.09585.42349.87469.87469,0,0,0,.44578.3544,2.65277,2.65277,0,0,0,.60627.1382v.127Z" style="fill:#fff"/><path d="M84.13,25.02284a4.69864,4.69864,0,0,1-1.032,1.49338,4.54582,4.54582,0,0,1-1.5179.974,5.114,5.114,0,0,1-3.66659.00668,4.47969,4.47969,0,0,1-2.52761-2.41839,4.66606,4.66606,0,0,1-.37222-1.879,4.71341,4.71341,0,0,1,.39228-1.957,4.36524,4.36524,0,0,1,1.05876-1.46887,4.634,4.634,0,0,1,1.55578-.92277,5.45307,5.45307,0,0,1,1.88121-.3232,4.73487,4.73487,0,0,1,1.93024.37892,4.37923,4.37923,0,0,1,2.36045,2.49417,4.92326,4.92326,0,0,1,.3165,1.74748A4.61911,4.61911,0,0,1,84.13,25.02284m-1.38638-3.41918a4.96052,4.96052,0,0,0-.59736-1.42429,3.40148,3.40148,0,0,0-.99189-1.03867,2.47994,2.47994,0,0,0-1.40645-.399,2.51111,2.51111,0,0,0-1.42206.399,3.245,3.245,0,0,0-.98964,1.032,4.80137,4.80137,0,0,0-.5706,1.43766,7.40206,7.40206,0,0,0-.18277,1.62712,6.786,6.786,0,0,0,.20284,1.65832A4.63428,4.63428,0,0,0,77.38747,26.3a3.14492,3.14492,0,0,0,1.0008.97627,2.62757,2.62757,0,0,0,1.39978.36554,2.38222,2.38222,0,0,0,1.38417-.40343,3.39056,3.39056,0,0,0,.9807-1.04537,5.06508,5.06508,0,0,0,.5907-1.43543,6.64124,6.64124,0,0,0,.19614-1.59592,6.37811,6.37811,0,0,0-.19614-1.558" style="fill:#fff"/><path d="M94.91556,27.7691H87.16777v-.127a2.68653,2.68653,0,0,0,.58846-.16271,1.226,1.226,0,0,0,.448-.31651.56168.56168,0,0,0,.10251-.22289,3.237,3.237,0,0,0,.06911-.33435,3.71006,3.71006,0,0,0,.04459-.399c.00891-.14043.01336-.27639.01336-.41235q0-.17721.00667-.48145c.00445-.20283.00894-.4235.0134-.66422s.00667-.48814.00667-.74v-3.203c0-.15157-.00222-.30982-.00667-.46807-.00446-.16048-.0134-.31428-.02677-.45694a2.53436,2.53436,0,0,0-.06241-.3856.54389.54389,0,0,0-.12036-.24741.85023.85023,0,0,0-.40565-.25855,5.14224,5.14224,0,0,0-.55723-.10922V18.655h6.98992l.86034,2.08851-.127.06241a6.1828,6.1828,0,0,0-1.92358-1.72074,3.03443,3.03443,0,0,0-.80017-.17831,11.01712,11.01712,0,0,0-1.41536-.07579c-.17611,0-.36109.00669-.55056.02006a3.09483,3.09483,0,0,0-.41235.04458c-.01782.13374-.03343.41236-.04459.83362-.01112.42349-.01782.91163-.01782,1.46887v.81132c0,.21844.00224.399.0067.53718.00445.14042.00667.24741.00667.32319v.1382h.25188c.12482,0,.27192-.00446.43687-.01115.1627-.00891.32987-.02006.49482-.03121a2.66233,2.66233,0,0,0,.40789-.05795,2.25177,2.25177,0,0,0,.63525-.24072,1.33872,1.33872,0,0,0,.4101-.36777,1.726,1.726,0,0,0,.2541-.49928,5.83319,5.83319,0,0,0,.17165-.6397h.15155v3.98755H92.9162a4.52775,4.52775,0,0,0-.30984-.83585,2.25226,2.25226,0,0,0-.43686-.64416,1.70116,1.70116,0,0,0-.48813-.292,2.14921,2.14921,0,0,0-.66423-.13819c-.12706-.00892-.234-.0156-.31875-.02007s-.16716-.00668-.25185-.00668h-.584a4.87416,4.87416,0,0,0-.02228.51934v1.52013c0,.136.00224.263.0067.3856s.00667.22735.00667.30983c.0067.26969.02006.526.04234.76674a1.227,1.227,0,0,0,.14488.53718.80883.80883,0,0,0,.54612.25409,5.54793,5.54793,0,0,0,.93614.07579c.14264,0,.32766-.00446.55053-.01338a6.65738,6.65738,0,0,0,.70212-.06241,2.80535,2.80535,0,0,0,.74671-.19614,2.555,2.555,0,0,0,.65974-.41235,4.12041,4.12041,0,0,0,.613-.65085,8.89649,8.89649,0,0,0,.61516-.93169l.13821.03789Z" style="fill:#fff"/><path d="M107.38152,19.021a1.102,1.102,0,0,0-.43691.54387,2.07781,2.07781,0,0,0-.11366.70434c-.01782.341-.03564.70434-.0535,1.0944-.01337.36109-.029.79127-.04234,1.28387-.01337.49482-.02007,1.02307-.02007,1.58922V25.048c0,.29422.00225.59735.0067.90494s.00667.613.00667.91833v.82247a.11078.11078,0,0,1-.03344.08247.12434.12434,0,0,1-.09359.0312.35021.35021,0,0,1-.22736-.12705q-1.07324-1.2404-1.96144-2.278-.88937-1.0398-1.69176-1.98152-.80244-.94284-1.57585-1.84332-.77233-.89937-1.6316-1.86116v5.34275c0,.43017.00894.82024.029,1.16572a2.11719,2.11719,0,0,0,.1605.77344.90022.90022,0,0,0,.43687.43464,2.59429,2.59429,0,0,0,.81578.20952v.12705H97.84167V27.6425a2.43688,2.43688,0,0,0,.60628-.15825.98078.98078,0,0,0,.48145-.399,1.75362,1.75362,0,0,0,.22958-.78458c.03122-.34549.058-.76007.07577-1.24151q.02341-.545.03568-1.28387.01336-.73888.01337-1.58922V20.64144c0-.1694-.00446-.37446-.01337-.61965a1.443,1.443,0,0,0-.17607-.60181,1.1811,1.1811,0,0,0-.32991-.36776,1.28411,1.28411,0,0,0-.41235-.18947,3.11556,3.11556,0,0,0-.42125-.08247v-.127h2.56771l6.00027,7.01443V21.36361c0-.3388-.00221-.662-.00891-.96958a2.29559,2.29559,0,0,0-.1159-.72664,1.17414,1.17414,0,0,0-.448-.57729,2.23486,2.23486,0,0,0-.93169-.30982v-.127h3.14059v.127a1.89778,1.89778,0,0,0-.75337.24072" style="fill:#fff"/><path d="M110.85554,27.7691v-.127a2.70668,2.70668,0,0,0,.59067-.16271,1.29656,1.29656,0,0,0,.46135-.32989.55787.55787,0,0,0,.09588-.21621c.01782-.09361.03564-.20283.049-.32765.0134-.127.02007-.26078.02677-.399.00221-.14043.00445-.27639.00445-.41235q0-.17721.00667-.48145c.00449-.20283.00894-.4235.0134-.66422s.00445-.48814.00445-.74V20.24871a4.20577,4.20577,0,0,0-.01785-.42351,2.17821,2.17821,0,0,0-.05792-.3544.555.555,0,0,0-.11146-.24741,1.01663,1.01663,0,0,0-.43911-.30982,2.69942,2.69942,0,0,0-.58621-.13373V18.655h3.78472v.12482a3.47643,3.47643,0,0,0-.5706.14042.81377.81377,0,0,0-.46806.40344,1.22082,1.22082,0,0,0-.12036.54608c-.00449.21844-.01116.42573-.02007.61965,0,.21175,0,.419-.00445.62633s-.0067.41681-.0067.62632v4.24165c0,.24519.00445.48145.01115.711a.9147.9147,0,0,0,.11367.47922.94884.94884,0,0,0,.48145.32988,2.55086,2.55086,0,0,0,.59733.1382v.127Z" style="fill:#fff"/><path d="M125.25219,19.33127a8.30661,8.30661,0,0,0-1.052,1.081c-.14268.17162-.30093.35886-.47479.5706s-.3477.42351-.526.633c-.17608.21175-.34549.41681-.50374.61519-.16271.19837-.30538.37223-.43241.526.03343.049.10475.14934.21621.30313.1092.15157.234.33212.37891.54387.14264.21174.30089.43687.46806.67759.1694.24072.33211.47031.48591.68874.15825.22066.29868.419.42574.59512.127.17832.22067.31428.27862.40566.16937.24519.32317.46586.4636.65754a3.80951,3.80951,0,0,0,.41014.50151,2.07006,2.07006,0,0,0,.419.341,1.196,1.196,0,0,0,.48142.17163V27.77h-4.10343v-.12706c.11812-.0156.24294-.03566.37892-.05572a2.21753,2.21753,0,0,0,.38112-.09584.80468.80468,0,0,0,.292-.17609.39821.39821,0,0,0,.11146-.292,1.04425,1.04425,0,0,0-.16492-.47476c-.10924-.19837-.23406-.4079-.37891-.62633-.19393-.30536-.4146-.63525-.66423-.9941s-.535-.76229-.85371-1.21031c-.13594.16048-.28307.3388-.44578.53271-.15825.19392-.31871.39006-.47921.58844s-.31429.39006-.46139.57506c-.14934.18724-.27191.34995-.37221.49482a5.556,5.556,0,0,0-.31875.506.995.995,0,0,0-.13819.48145.472.472,0,0,0,.11146.30982.89347.89347,0,0,0,.292.22066,1.85563,1.85563,0,0,0,.38112.14043,3.55326,3.55326,0,0,0,.379.07578V27.77h-3.35455v-.12706a3.15647,3.15647,0,0,0,1.05206-.55054,7.77093,7.77093,0,0,0,1.11222-1.05651c.12706-.14489.28307-.32766.4703-.55055.185-.22512.37891-.45693.57954-.69765.20284-.24073.39674-.47477.584-.70211.185-.22736.34327-.419.46809-.57061-.049-.06687-.16717-.22958-.34773-.48591-.18053-.25855-.38561-.54609-.61294-.86705-.22957-.3232-.45694-.64193-.6776-.95844-.22512-.31428-.40343-.56615-.53716-.75338-.17832-.243-.33882-.45916-.477-.64416a4.40984,4.40984,0,0,0-.40568-.47476,2.13529,2.13529,0,0,0-.41681-.32988,2.352,2.352,0,0,0-.51264-.22066v-.127h4.12795v.127c-.10921.00891-.23848.02452-.37891.049a2.53766,2.53766,0,0,0-.39449.10253.9193.9193,0,0,0-.30314.17609.3783.3783,0,0,0-.12706.292.96677.96677,0,0,0,.17831.46807c.11591.19615.25189.40121.40344.62187q.31762.45471.64637.92946c.21845.31651.48592.69766.798,1.14567q.41793-.48144.85592-1.04982c.28752-.37892.54607-.7088.76453-.98741.10029-.136.2095-.30537.32987-.506a1.071,1.071,0,0,0,.1761-.506.42581.42581,0,0,0-.12036-.30536,1.06428,1.06428,0,0,0-.292-.214,1.571,1.571,0,0,0-.37221-.14042,3.74631,3.74631,0,0,0-.36776-.07578v-.127h3.30547v.127a2.5774,2.5774,0,0,0-1.13895.55054" style="fill:#fff"/><path d="M55.05632,35.37153l-.3299-.90271H52.91433l-.32766.90271h-.5706l1.50229-4.0299h.60627l1.50229,4.0299ZM53.0971,33.96731h1.44655l-.72215-1.99043Z" style="fill:#fff"/><path d="M58.77594,35.44754a2.08962,2.08962,0,1,1,1.01638-3.91623,1.91363,1.91363,0,0,1,.72218.71327l-.46584.27192a1.28694,1.28694,0,0,0-.51489-.53271,1.49671,1.49671,0,0,0-.75783-.19838,1.56958,1.56958,0,1,0,0,3.13834,1.49681,1.49681,0,0,0,.75783-.19838,1.30327,1.30327,0,0,0,.51489-.52825l.46584.26524a1.88719,1.88719,0,0,1-.72.71771,2.01587,2.01587,0,0,1-1.01859.26747" style="fill:#fff"/><path d="M65.99054,33.35591a2.00866,2.00866,0,0,1-.56839,1.43321l.44357.44578-.37.33434-.45918-.46362a2.08425,2.08425,0,1,1,.954-1.74971M63.902,34.92285a1.53868,1.53868,0,0,0,.76228-.19392l-.80911-.81356.37-.32765.82694.83139a1.60348,1.60348,0,0,0-.049-2.17989,1.56324,1.56324,0,0,0-2.20441,0,1.59871,1.59871,0,0,0,0,2.22893,1.50234,1.50234,0,0,0,1.10334.4547" style="fill:#fff"/><path d="M70.10781,35.05881a1.5366,1.5366,0,0,1-1.08773.38784,1.55911,1.55911,0,0,1-1.09219-.38784,1.34566,1.34566,0,0,1-.42125-1.03868V31.341h.53495v2.65466a.89909.89909,0,0,0,.2541.6776,1.17912,1.17912,0,0,0,1.451,0,.91516.91516,0,0,0,.25185-.6776V31.341h.52826v2.67917a1.34406,1.34406,0,0,1-.419,1.03868" style="fill:#fff"/><rect x="72.26743" y="31.34118" width="0.53496" height="4.03214" style="fill:#fff"/><path d="M75.82614,35.44754a1.71969,1.71969,0,0,1-.96516-.26524,1.42124,1.42124,0,0,1-.56168-.7244l.46139-.26525a1.18933,1.18933,0,0,0,1.70958.5617.54442.54442,0,0,0,.22066-.45248.48228.48228,0,0,0-.22066-.4324,3.13337,3.13337,0,0,0-.72885-.30537c-.16716-.058-.29644-.10253-.38561-.13151a2.81319,2.81319,0,0,1-.33208-.14711,1.00413,1.00413,0,0,1-.29648-.20729,1.069,1.069,0,0,1-.17607-.27862.92686.92686,0,0,1-.07578-.39229,1.01992,1.01992,0,0,1,.36776-.83139,1.34051,1.34051,0,0,1,.89826-.30759,1.44717,1.44717,0,0,1,.83139.24073,1.48844,1.48844,0,0,1,.5305.6397l-.448.25855a.92006.92006,0,0,0-.91387-.62187.82264.82264,0,0,0-.53046.16048.52819.52819,0,0,0-.20063.43687.46363.46363,0,0,0,.18947.40345,2.35519,2.35519,0,0,0,.65753.28752c.107.04013.18723.06687.23182.08471.049.0156.12036.04234.21841.07578.09809.03566.16941.06464.21621.08692s.107.05573.18723.09807a.67957.67957,0,0,1,.17611.1226q.05682.05684.13373.14042a.55138.55138,0,0,1,.11366.1694,1.51956,1.51956,0,0,1,.0602.19837,1.19236,1.19236,0,0,1,.02452.24073,1.0332,1.0332,0,0,1-.38561.84253,1.53876,1.53876,0,0,1-1.00747.31428" style="fill:#fff"/><rect x="78.74471" y="31.34118" width="0.53496" height="4.03214" style="fill:#fff"/><polygon points="83.647 31.341 83.647 31.849 82.454 31.849 82.454 35.373 81.926 35.373 81.926 31.849 80.738 31.849 80.738 31.341 83.647 31.341" style="fill:#fff"/><rect x="85.09713" y="31.34118" width="0.53496" height="4.03214" style="fill:#fff"/><path d="M90.77084,34.83682a2.10677,2.10677,0,1,1,.60852-1.48,2.00822,2.00822,0,0,1-.60852,1.48m-2.59-.36555a1.58226,1.58226,0,0,0,2.21553,0,1.62157,1.62157,0,0,0,0-2.23339,1.58228,1.58228,0,0,0-2.21553,0,1.62149,1.62149,0,0,0,0,2.23339" style="fill:#fff"/><polygon points="95.451 31.341 95.986 31.341 95.986 35.373 95.553 35.373 93.481 32.362 93.481 35.373 92.946 35.373 92.946 31.341 93.36 31.341 95.451 34.368 95.451 31.341" style="fill:#fff"/><polygon points="101.243 34.865 102.982 34.865 102.982 35.373 100.708 35.373 100.708 31.341 101.243 31.341 101.243 34.865" style="fill:#fff"/><rect x="104.43755" y="31.34118" width="0.53496" height="4.03214" style="fill:#fff"/><polygon points="110.531 31.341 110.531 35.373 110.003 35.373 110.003 32.224 108.683 34.417 108.619 34.415 107.295 32.219 107.295 35.373 106.76 35.373 106.76 31.341 107.364 31.341 108.654 33.481 109.932 31.341 110.531 31.341" style="fill:#fff"/><rect x="112.31681" y="31.34118" width="0.53496" height="4.03214" style="fill:#fff"/><polygon points="117.216 31.341 117.216 31.849 116.025 31.849 116.025 35.373 115.495 35.373 115.495 31.849 114.307 31.849 114.307 31.341 117.216 31.341" style="fill:#fff"/><polygon points="119.203 34.865 121.075 34.865 121.075 35.373 118.668 35.373 118.668 31.341 121.046 31.341 121.046 31.847 119.203 31.847 119.203 33.086 120.904 33.086 120.904 33.588 119.203 33.588 119.203 34.865" style="fill:#fff"/><path d="M124.21371,31.34118a1.78873,1.78873,0,0,1,1.36631.58621,2.15151,2.15151,0,0,1,0,2.85971,1.78873,1.78873,0,0,1-1.36631.58621h-1.57365V31.34118Zm0,3.52393a1.29846,1.29846,0,0,0,1.00746-.43017,1.68376,1.68376,0,0,0,0-2.15538,1.30027,1.30027,0,0,0-1.00746-.43241H123.175v3.018Z" style="fill:#fff"/><path d="M17.307,21.96364a2.92919,2.92919,0,0,1,2.12417,1.56916,3.43655,3.43655,0,0,1,.15157,2.65465A4.24411,4.24411,0,0,1,17.931,28.29379a.40669.40669,0,0,1-.2162.0847c-.01114,0-.02451-.00223-.03566-.00223l-.00669-.00445.00891.06017L17.59,28.38517a.54217.54217,0,0,1-.25855-.40566,1.47434,1.47434,0,0,1-.01337-.29645,1.86759,1.86759,0,0,0-.0067-.22511A1.53027,1.53027,0,0,0,16.003,26.29a5.44282,5.44282,0,0,0-1.07658-.07133H14.864a7.40935,7.40935,0,0,1-.80019-.0312,2.02109,2.02109,0,0,1-1.44211-.711l-.01115.00891c-.89156-1.08771-1.91911-2.84634-1.96368-6.85173a17.56467,17.56467,0,0,1,1.66724-7.29528c.22957-.51265.47921-1.032.71994-1.5335A15.51119,15.51119,0,0,0,14.81056,4.7095,7.81663,7.81663,0,0,0,13.77632.04212a3.86213,3.86213,0,0,1,.08694,2.12417A9.03319,9.03319,0,0,1,12.731,4.69167c-.477.80018-.9941,1.60037-1.49115,2.37381a42.03821,42.03821,0,0,0-2.62345,4.45785,13.18267,13.18267,0,0,0-1.45772,5.89329c.07134.12037.14043.24072.20507.36331A12.224,12.224,0,0,1,8.73894,24.7654l-.107-.00224a10.73562,10.73562,0,0,0-2.01049-5.03291c-.214-.33434-.44133-.67091-.65753-.9941a19.6598,19.6598,0,0,1-2.14647-3.74683,6.72267,6.72267,0,0,1-.33433-4.27286,13.4806,13.4806,0,0,0-.48145,8.87559,10.18323,10.18323,0,0,0,1.67615,3.79587l.04681.06019a8.3834,8.3834,0,0,1,1.879,2.70368l-.09362.049a3.886,3.886,0,0,0-1.78981-1.636,7.93909,7.93909,0,0,0-.92278-.3232,6.04043,6.04043,0,0,1-1.2014-.45916,3.11062,3.11062,0,0,1-1.451-1.95477,10.48422,10.48422,0,0,0,2.3805,7.536A23.967,23.967,0,0,0,7.75154,32.8564c.87151.62411,1.6962,1.21031,2.35375,1.76309l.0468.04012-.0468.04012c-.12929.11145-.25411.23627-.37448.35886-.14486.14265-.29421.292-.45246.42127a2.97315,2.97315,0,0,1-1.62042.64639,4.757,4.757,0,0,0,1.616.36776c.02005,0,.04011-.00222.06241-.00222a3.34288,3.34288,0,0,0,1.79651-.64416l.01114-.01114h.16941l-.11145.09361h-.00223l-.01561.01337a6.28923,6.28923,0,0,0-1.03645,1.09887,7.38023,7.38023,0,0,0-1.29278,3.60417,14.768,14.768,0,0,1,2.87309-3.84713,25.04192,25.04192,0,0,1,3.60864-3.00682,20.77585,20.77585,0,0,0-2.60785,1.11l-.26524.14488.2006-.22512a10.07353,10.07353,0,0,1,5.44527-3.1205l.03343-.00891c.08248-.03789.16271-.07579.2385-.11145a9.04342,9.04342,0,0,0,1.01417-.51711,2.30545,2.30545,0,0,0,1.18133-1.6182l.10475.00892a12.33177,12.33177,0,0,1-5.25581,9.11854c-.3076.214-.62856.41235-.93838.60627-.37891.234-.76675.48367-1.13453.74891l-.17607.1538a6.59773,6.59773,0,0,0-2.11749,5.58346,8.15117,8.15117,0,0,1,3.24755-4.9081,28.08452,28.08452,0,0,1,3.08707-1.99265c.77566-.4547,1.57808-.925,2.327-1.44212a9.888,9.888,0,0,0,2.376-2.16652l.0535-.07133.03788.08024a25.72516,25.72516,0,0,1,1.402,3.99424,14.79155,14.79155,0,0,1,.53048,4.77437,7.34343,7.34343,0,0,0,.7088-3.76466,6.31913,6.31913,0,0,0-.341-1.48224v-.00445l-.00668-.0223v-.30982l.10253.28977.00222.00668a3.35376,3.35376,0,0,0,1.22369,1.45772,4.61053,4.61053,0,0,0,1.63158.53494,2.9837,2.9837,0,0,1-1.06989-1.3797,5.7166,5.7166,0,0,1-.17609-.59736c-.04457-.16271-.08691-.33211-.14264-.49258l-.0223-.058.06241-.01115c.84922-.14487,1.85447-.234,2.91767-.32988a24.05951,24.05951,0,0,0,5.41629-.87374,10.4694,10.4694,0,0,0,5.94233-5.443,5.56887,5.56887,0,0,1-3.68-.12259l-.37-.11368.1382-.05572a10.18274,10.18274,0,0,0,3.36569-2.42953A13.19745,13.19745,0,0,0,43.956,20.29417a5.6028,5.6028,0,0,1-2.269,2.77947,14.17408,14.17408,0,0,1-3.7,1.587l-.72662.22289.07355-.12037a13.14143,13.14143,0,0,0,1.72965-5.82864,41.76346,41.76346,0,0,0-.00446-5.17557c-.03789-.91832-.078-1.86561-.0847-2.79953a9.00252,9.00252,0,0,1,.30091-2.7505A3.76457,3.76457,0,0,1,40.65274,6.2274c-2.49639.72218-5.10648,4.2372-6.26106,7.37776a27.75683,27.75683,0,0,0-1.19246,5.39845l-.06466.43465a22.09265,22.09265,0,0,1-1.48,5.79744,9.062,9.062,0,0,1-2.50309,3.33447,3.03193,3.03193,0,0,0-.29868.20953,1.84681,1.84681,0,0,1-1.90573.0468,7.98931,7.98931,0,0,1-.73555-.39675,5.90432,5.90432,0,0,0-.99187-.49928,1.52956,1.52956,0,0,0-1.71851.34772c-.04457.06018-.08024.12705-.12037.19169a1.65278,1.65278,0,0,1-.15825.24741.40962.40962,0,0,1-.05573.05126l-.06909.0691-.02675-.08916c-.11812-.64193-.26746-1.28609-.41012-1.90573a4.73458,4.73458,0,0,0-.54832-1.52459l-.05348-.08024.09584-.00223a.87365.87365,0,0,1,.15157.00446,1.36291,1.36291,0,0,1,.80687.42795,3.15831,3.15831,0,0,1,.39228.51711c-.03789-.27861-.05571-.56391-.07355-.83807a10.48522,10.48522,0,0,0-.09807-1.05206,2.65608,2.65608,0,0,0-.98741-1.80766l-.18278-.12258.22066.02674a1.777,1.777,0,0,0,1.48224-.53941h-.04011a4.737,4.737,0,0,1-2.26013-.57506c-.04237-.02228-.08471-.04458-.12705-.06463l-.06464-.02453.04012-.05571c.0535-.06687.10475-.13374.15157-.20506a1.76824,1.76824,0,0,0,.35884-1.03423,2.60566,2.60566,0,0,1-1.55133.67983,7.5514,7.5514,0,0,1-1.694-.07356,5.12657,5.12657,0,0,0-2.22893.05349c-.1382.04458-.27416.10253-.40791.15826a3.13417,3.13417,0,0,1-.71548.23626,3.30022,3.30022,0,0,1-.711.00669c-.09584-.00669-.19169-.01337-.28753-.01783a1.58519,1.58519,0,0,0-.68428.1003,1.68411,1.68411,0,0,1,.9629.37892c.09361.06687.185.14042.27639.21175a2.85753,2.85753,0,0,0,.76452.48813,6.0461,6.0461,0,0,1,1.65832-.15156m4.92147,12.9991a5.64945,5.64945,0,0,0,.43019-.711l.058-.12035.05127.08692a9.07048,9.07048,0,0,1,1.01638,2.76165l.05795.29644-.156-.25856a18.11168,18.11168,0,0,0-1.45549-1.99266l-.02228-.0312ZM17.44069,21.188c.41012-.39451.88265-.23626,1.344-.08915a1.67507,1.67507,0,0,0,.92724.13151l.03566.1003a1.62248,1.62248,0,0,1-1.2794.13373.52134.52134,0,0,1-.38116.19838h-.00669a.92119.92119,0,0,1-.64416-.40344l-.03566-.03566Z" style="fill:#fff"/><path d="M41.23184,21.55908A6.4383,6.4383,0,0,0,42.95256,17.313a12.42223,12.42223,0,0,0-.03343-2.249c-.02452-.29645-.04682-.604-.06241-.90718a6.24348,6.24348,0,0,1,.4168-2.85748,8.75159,8.75159,0,0,0-2.31807,3.86718,20.43366,20.43366,0,0,0-.7467,4.78775l-.00223.04011a5.77942,5.77942,0,0,1-.63524,2.78171,5.99735,5.99735,0,0,0,1.66056-1.217" style="fill:#fff"/><path d="M39.98475,29.60418a6.51837,6.51837,0,0,1-1.12339,1.18356,3.74819,3.74819,0,0,0,3.16954-.96736,7.79082,7.79082,0,0,0,.925-1.14567,5.54972,5.54972,0,0,1,1.33514-1.48A6.63734,6.63734,0,0,0,41.03233,28.483a6.88789,6.88789,0,0,0-1.04758,1.12115" style="fill:#fff"/><path d="M27.32287,38.4762a1.43186,1.43186,0,0,0,.67758.91833,4.60867,4.60867,0,0,0,.91833.4168c.08916.03344.17609.06464.263.10031a2.98283,2.98283,0,0,1,.954.5394,2.627,2.627,0,0,0-1.09663-1.25934,7.43218,7.43218,0,0,0-1.71627-.7155" style="fill:#fff"/><path d="M31.18427,38.23035a8.44319,8.44319,0,0,1-2.59448.03344,10.19008,10.19008,0,0,0,2.50084,1.31506,4.971,4.971,0,0,0,3.0425.10922c.185-.058.36778-.12928.54608-.2006a6.66292,6.66292,0,0,1,.662-.23627,2.04623,2.04623,0,0,1,.95176-.06241,6.255,6.255,0,0,0-3.36123-1.081,13.43292,13.43292,0,0,0-1.74747.12258" style="fill:#fff"/><path d="M6.03706,12.2863A12.01487,12.01487,0,0,1,7.14482,9.40652c.06464-.1315.13152-.26078.19616-.39006A17.79925,17.79925,0,0,0,8.41086,6.607a8.89028,8.89028,0,0,0,.39452-3.56852A6.5629,6.5629,0,0,1,7.76224,5.48361c-.16494.2541-.3388.506-.50819.75115A12.14879,12.14879,0,0,0,6.08386,8.1561,6.45307,6.45307,0,0,0,5.41965,12.692a7.10054,7.10054,0,0,0,.57951,1.52681,5.29387,5.29387,0,0,1,.0379-1.93248" style="fill:#fff"/><path d="M1.16351,18.75219c-.06243-.22512-.12929-.448-.19839-.6709A5.57551,5.57551,0,0,0,0,16.19116a6.26838,6.26838,0,0,1,.33434,1.76308A7.59329,7.59329,0,0,0,.55055,19.412,3.7049,3.7049,0,0,0,2.6658,21.78131a6.20029,6.20029,0,0,1-.7556-1.032,9.22044,9.22044,0,0,1-.74669-1.99713" style="fill:#fff"/><path d="M7.01444,34.07072a2.65755,2.65755,0,0,0-1.58478.52827,2.15716,2.15716,0,0,1,.4458-.04235,4.05724,4.05724,0,0,1,.65085.06018l.27416.0468a4.95332,4.95332,0,0,0,1.00523.107,1.43184,1.43184,0,0,0,1.04983-.448,7.33238,7.33238,0,0,0-1.84109-.25188" style="fill:#fff"/><path d="M5.64966,32.15519a12.7329,12.7329,0,0,0-1.44435-.98964,6.197,6.197,0,0,0-3.44592-.77121,2.134,2.134,0,0,1,.78681.53494c.1627.1694.30982.36109.45248.54163.11811.15157.23848.30759.36553.45024a5.03319,5.03319,0,0,0,2.6814,1.44435,10.31544,10.31544,0,0,0,2.82628.13151,8.42164,8.42164,0,0,1-2.22223-1.34182" style="fill:#fff"/><path d="M14.918,4.72131a15.68927,15.68927,0,0,1-1.78761,5.131c-.24073.49928-.49036,1.01639-.71771,1.52905a17.46364,17.46364,0,0,0-1.66056,7.2507c.03566,3.43923.80465,5.20454,1.58031,6.31232a.24537.24537,0,0,0-.01561-.03566c-.00891-.0156-.01559-.0312-.0245-.04681a8.6435,8.6435,0,0,1-.53049-3.04694,10.938,10.938,0,0,1,.05794-1.10555,22.04164,22.04164,0,0,1,1.65833-5.75064l.16716-.41681a27.85882,27.85882,0,0,0,1.69845-5.24912c.07357-.40121.12927-.818.16941-1.24151.02-.23627.02675-.48145.04011-.72218.00891-.18723.02452-.37.029-.55946.00446-.32542-.00668-.65307-.02007-.98073-.00445-.10475-.00222-.21174-.00891-.3165-.02006-.341-.05572-.6776-.09807-1.01194-.01338-.09361-.01784-.18722-.029-.27861-.04682-.31874-.10923-.62633-.17609-.9317-.02-.10475-.03789-.21174-.06241-.31428-.06687-.27638-.14935-.53717-.2318-.798-.04014-.12036-.0758-.24295-.11591-.35886-.08471-.22957-.185-.4391-.28307-.64861-.06019-.12483-.11814-.25633-.18055-.37224a5.18056,5.18056,0,0,0-.33212-.50374C14.00636.19659,13.964.1431,13.92388.08737A7.98863,7.98863,0,0,1,14.918,4.72131" style="fill:#fff"/><path d="M12.34068,24.958a.50836.50836,0,0,0-.02452-.049.17272.17272,0,0,1,.01559.03567l.00893.01337" style="fill:#fff"/><path d="M15.58177,6.76947c-.00447.18947-.02007.37224-.029.55947.00891-.18723.02451-.37.029-.55947" style="fill:#fff"/><path d="M13.64462,14.54152l-.16718.41681A21.95,21.95,0,0,0,11.82135,20.709a10.36066,10.36066,0,0,0-.06018,1.10555,10.20586,10.20586,0,0,1,.06018-1.09886A21.85292,21.85292,0,0,1,13.47744,14.965l.16718-.419a27.81513,27.81513,0,0,0,1.70065-5.24913c.07134-.4012.12707-.818.16718-1.246-.04011.4235-.09584.8403-.16718,1.24151a27.76287,27.76287,0,0,1-1.70065,5.24912" style="fill:#fff"/><path d="M15.55347,5.47224c.00668.10477.00446.21175.00891.31874-.00445-.107-.00223-.214-.00891-.31874" style="fill:#fff"/><path d="M14.37592.75873c.06241.11591.12034.24518.18053.37224-.06019-.12706-.11812-.2541-.18053-.37224" style="fill:#fff"/><path d="M13.87977,0c.01782.029.029.06018.04457.08916.04012.0535.08248.107.12036.16494C13.989.17164,13.93993.07578,13.87977,0" style="fill:#fff"/><path d="M14.83953,1.77958c.04235.11591.07578.2385.1159.35886-.04012-.12036-.07355-.243-.1159-.35886" style="fill:#fff"/><path d="M15.42508,4.18147c.01337.09139.01782.185.03121.27861-.01339-.09361-.01784-.18722-.03121-.27861" style="fill:#fff"/><path d="M15.18792,2.93639c.02451.10253.04235.20952.06241.31428-.02006-.10476-.0379-.21175-.06241-.31428" style="fill:#fff"/><path d="M8.51406,6.64109A18.44612,18.44612,0,0,1,7.43749,9.06394c-.06687.12928-.13375.26079-.19616.39006a11.75486,11.75486,0,0,0-1.09885,2.853,5.07149,5.07149,0,0,0-.01561,2.1264,1.36382,1.36382,0,0,0,.10922.14934,5.81042,5.81042,0,0,1,.86037-2.726l.0156-.0312A20.33323,20.33323,0,0,0,8.893,7.31646,11.11511,11.11511,0,0,0,9.0958,6.15073c.01561-.11368.01338-.22066.02229-.33211.0223-.26524.04235-.52826.04235-.78458,0-.14711-.01337-.28976-.02228-.43464-.01116-.21175-.02007-.42573-.04682-.633-.02-.15379-.05572-.30091-.08247-.45247-.02228-.11145-.049-.21844-.07578-.32766a8.95784,8.95784,0,0,1-.419,3.45484" style="fill:#fff"/><path d="M9.16068,5.03359c0,.25633-.02007.51934-.04237.78459.0223-.26525.04237-.52826.04237-.78459" style="fill:#fff"/><path d="M9.0909,3.96705c.02673.20729.03789.419.0468.633-.00891-.214-.02007-.42572-.0468-.633" style="fill:#fff"/><path d="M8.932,3.10289c.00222.029,0,.05572.00222.0847.02674.107.05126.21621.07355.32542-.02675-.136-.04011-.27639-.07577-.41012" style="fill:#fff"/><path d="M7.11229,11.826l-.01561.03121a5.83844,5.83844,0,0,0-.8626,2.72375,1.23664,1.23664,0,0,1-.107-.14934v.00669a1.26645,1.26645,0,0,0,.107.14711,5.82205,5.82205,0,0,1,.8626-2.72152l.01561-.03344A20.399,20.399,0,0,0,8.8932,7.32136,11.2,11.2,0,0,0,9.096,6.15117,11.12,11.12,0,0,1,8.8932,7.3169,20.44233,20.44233,0,0,1,7.11229,11.826" style="fill:#fff"/><path d="M1.26581,18.72277a9.15315,9.15315,0,0,0,.73554,1.97483,6.27483,6.27483,0,0,0,.73777,1.02085,4.37026,4.37026,0,0,1-.13818-.51488c-.01339-.05572-.03343-.10921-.04682-.16494-.049-.25409-.09138-.51488-.12705-.77121a6.84892,6.84892,0,0,0-.341-1.49783c-.04682-.12259-.11591-.243-.17609-.36555-.05571-.11814-.107-.2385-.17162-.3544-.08025-.14042-.17609-.27416-.2697-.41012-.06464-.09362-.1226-.19169-.19169-.28308-.10252-.136-.21843-.26079-.33211-.39006C.87129,16.88168.8,16.79475.71972,16.71229c-.12482-.12482-.25632-.243-.39007-.3611-.049-.04458-.1003-.08915-.14934-.1315a5.90775,5.90775,0,0,1,.88489,1.83c.06909.22289.136.448.20061.67313" style="fill:#fff"/><path d="M.16227,16.19472l.01782.02675c.049.04235.10029.0847.14934.12928-.058-.05127-.10923-.107-.16716-.156" style="fill:#fff"/><path d="M.7195,16.71273c.08023.08247.15155.1694.22734.2541-.078-.0847-.14711-.17163-.22734-.2541" style="fill:#fff"/><path d="M2.55436,21.03885c.01337.05573.03343.10923.0468.165-.01337-.05572-.03343-.10922-.0468-.165" style="fill:#fff"/><path d="M1.27673,17.356c.06909.09139.12927.18947.19168.28308-.06241-.09584-.12259-.19169-.19168-.28308" style="fill:#fff"/><path d="M1.73812,18.04919c.06464.11591.11589.23627.17162.35663-.05573-.12036-.107-.24072-.17162-.35663" style="fill:#fff"/><path d="M17.87178,28.20441a4.1463,4.1463,0,0,0,1.61374-2.05061,3.34653,3.34653,0,0,0-.15157-2.5744A2.80382,2.80382,0,0,0,17.29,22.06818a5.703,5.703,0,0,0-1.5714.14042,1.50194,1.50194,0,0,0,.12482.22735c.01114.01561.02006.03566.0312.05349a4.10665,4.10665,0,0,0,.85369.79127,7.054,7.054,0,0,1,.59512.4926,3.29094,3.29094,0,0,1,.96735,2.40055,3.1509,3.1509,0,0,1-.40121,1.529l-.02675.04681c-.03789.0691-.07577.13819-.10921.20952a.15149.15149,0,0,0-.02229.04681.6823.6823,0,0,0-.03121.1159.513.513,0,0,0-.02229.14042.07906.07906,0,0,0,.02007.00892.29479.29479,0,0,0,.17386-.06688" style="fill:#fff"/><path d="M17.32324,23.77286a7.04717,7.04717,0,0,0-.59514-.49259,4.03853,4.03853,0,0,1-.85144-.79127,4.00974,4.00974,0,0,0,.85144.798,7.02482,7.02482,0,0,1,.59514.49037,3.31694,3.31694,0,0,1,.96958,2.3961,3.30555,3.30555,0,0,0-.96958-2.40056" style="fill:#fff"/><path d="M17.66493,28.2579l.01336.00447a.5119.5119,0,0,1,.0223-.14042.51076.51076,0,0,0-.03566.136" style="fill:#fff"/><path d="M17.73024,28.00537a.47235.47235,0,0,1,.02451-.04681.47235.47235,0,0,0-.02451.04681" style="fill:#fff"/><path d="M15.71038,22.21105a1.534,1.534,0,0,0,.13373.22512,1.50234,1.50234,0,0,1-.12482-.22735l-.00891.00223" style="fill:#fff"/><path d="M13.07422,40.001c.04235-.03566.08246-.06909.127-.1003.39451-.292.82024-.555,1.22813-.81133.30982-.19391.633-.39228.93616-.60181a12.22539,12.22539,0,0,0,5.14882-8.44095,2.87153,2.87153,0,0,1-1.06544,1.10778,9.05824,9.05824,0,0,1-1.0253.5238c-.09362.04235-.18946.08693-.28307.13151a19.52458,19.52458,0,0,0-7.00775,10.14385l.03789-.049c.02007-.03121.04012-.05795.06018-.08916a4.37117,4.37117,0,0,1,1.70959-1.72073c.02675-.01337.05127-.03344.078-.04681a.497.497,0,0,1,.05572-.04681" style="fill:#fff"/><path d="M11.23069,41.81536a4.40635,4.40635,0,0,1,1.71181-1.72073,4.38954,4.38954,0,0,0-1.71181,1.72073" style="fill:#fff"/><path d="M3.9169,14.95076A19.62778,19.62778,0,0,0,6.05,18.6753c.22068.32542.44579.662.662.99633a11.75143,11.75143,0,0,1,1.96591,4.52026,12.11545,12.11545,0,0,0-1.40645-6.36135c-.06464-.12259-.13373-.2385-.20284-.35886H7.06636c-.13818-.1538-.28084-.30536-.4168-.45916a14.099,14.099,0,0,1-2.38941-3.24086,6.97346,6.97346,0,0,1-.35663-.8938c-.02453-.07355-.03344-.14488-.0535-.21844a5.8254,5.8254,0,0,1-.156-.64861c-.01782-.12259-.02-.2385-.03343-.35663-.01559-.16717-.03566-.32989-.03566-.49259,0-.13374.01561-.263.02675-.39453.01114-.107.00668-.21843.02229-.321a6.45748,6.45748,0,0,0,.243,4.50467" style="fill:#fff"/><path d="M3.62536,11.162c0-.13373.01559-.26524.02673-.39452-.01114.13151-.02673.25856-.02673.39452" style="fill:#fff"/><path d="M3.66013,11.65306c.01337.11814.0156.23627.03566.35664-.02006-.12037-.02452-.2385-.03566-.35664" style="fill:#fff"/><path d="M3.84959,12.65964c.02.07356.03121.14489.05348.21844-.02227-.07355-.03343-.14488-.05348-.21844" style="fill:#fff"/><path d="M1.74681,22.25562c-.08025-.06464-.14043-.13819-.21621-.20729a4.1444,4.1444,0,0,1-.31652-.30759,3.01077,3.01077,0,0,0,1.431,1.94808,5.94569,5.94569,0,0,0,1.18355.45248,8.17474,8.17474,0,0,1,.93615.32542,3.99444,3.99444,0,0,1,1.402,1.05652,7.02738,7.02738,0,0,0-1.56693-2.05062l-.02006-.00446c-.06241-.01337-.12482-.029-.18723-.04235a8.05525,8.05525,0,0,1-1.93025-.69988c-.11368-.06241-.20952-.136-.31429-.20283a4.47726,4.47726,0,0,1-.40119-.26748" style="fill:#fff"/><path d="M1.74681,22.25562c-.08025-.06464-.14043-.13819-.21621-.20729.07578.0691.136.14265.21621.20729" style="fill:#fff"/><path d="M2.463,22.72571c-.11591-.06241-.21175-.136-.31652-.20283.10477.06687.20061.14042.31652.20283" style="fill:#fff"/><path d="M15.66669,16.18157l-.54386.82025.54386.68206.5862,2.12639c.12036-.05126.24072-.1003.36554-.14042a9.0789,9.0789,0,0,1,3.21635.03121l.55277-2.01718.5461-.68206-.5461-.82025-.8403.60405.22735.798-.03344.22513-.70657.71771-.57951-1.0253v-.35218l.44355-.91163-.86928-.80687-.87151.80687.44355.91163v.35218l-.58175,1.0253-.70435-.71771-.03343-.22513.22736-.798Z" style="fill:#fff"/></g></g></svg>