<svg xmlns="http://www.w3.org/2000/svg" viewBox="0 0 138.90824 44.72281"><g id="图层_2" data-name="图层 2"><g id="Layer_1" data-name="Layer 1"><path d="M17.27423,42.89266c-1.49739.03169-2.99215.06866-4.48956.132-4.26243.15317-8.52223.338-12.78467.73681,4.26244.39614,8.52224.581,12.78467.73418,4.26245.17694,8.52488.20335,12.78733.22711,4.25979-.02112,8.52488-.04753,12.78467-.22183,4.26244-.15582,8.52488-.34068,12.78731-.73946-4.26243-.40142-8.52487-.58628-12.78731-.74209-1.47364-.06075-2.94462-.09772-4.41825-.12941l-7.29949-5.28447a14.557,14.557,0,0,0,2.04142-.30106,15.98,15.98,0,0,0,10.09887-1.08278,17.41184,17.41184,0,0,0,8.92365-9.89552,18.91773,18.91773,0,0,0-.07395-13.20458A17.1604,17.1604,0,0,0,38.869,3.4453a17.05679,17.05679,0,0,1,8.5909,9.73442A18.32683,18.32683,0,0,1,47.12715,26.107a16.69656,16.69656,0,0,1-8.77841,9.15342A14.76886,14.76886,0,0,1,31.213,36.47524a10.1845,10.1845,0,0,0,5.54857-5.25279c.36708-.3486.7236-.70512,1.05636-1.08277a18.754,18.754,0,0,0-.32483-24.8299,16.432,16.432,0,0,0-4.07229-3.251A15.04474,15.04474,0,0,1,38.869,3.4453a15.05179,15.05179,0,0,0-5.61988-1.47364A15.38021,15.38021,0,0,0,25.6301.00155,15.27544,15.27544,0,0,1,32.993,1.95318a15.38446,15.38446,0,0,0-7.09614,1.28613c-.103.04489-.19542.103-.29842.14789-.11883-.05546-.2324-.12148-.35388-.17166a15.35715,15.35715,0,0,0-6.9641-1.26764A15.257,15.257,0,0,1,25.6301.00155,15.38059,15.38059,0,0,0,18.019,1.96639a15.07946,15.07946,0,0,0-5.744,1.508A15.02247,15.02247,0,0,1,17.842,2.05618a16.347,16.347,0,0,0-4.07493,3.2536,18.75354,18.75354,0,0,0-.32748,24.83254c.30635.346.63647.67079.96922.99034a10.11923,10.11923,0,0,0,5.57762,5.33994,14.7494,14.7494,0,0,1-7.07766-1.18841,16.69429,16.69429,0,0,1-8.81009-9.12173,18.34147,18.34147,0,0,1-.37766-12.922A17.07807,17.07807,0,0,1,12.275,3.47435,17.171,17.171,0,0,0,3.5494,13.17972a18.94055,18.94055,0,0,0-.02906,13.20722A17.37675,17.37675,0,0,0,12.481,36.25076a15.98755,15.98755,0,0,0,10.03812,1.05109,14.36276,14.36276,0,0,0,2.05464.3037ZM25.601,29.77788a2.60354,2.60354,0,0,0-2.51151,2.68845,2.762,2.762,0,0,0,.24032,1.08013A16.89026,16.89026,0,0,1,17.45118,25.732a18.31334,18.31334,0,0,1-.07659-12.77411A16.82627,16.82627,0,0,1,25.5984,3.60111,16.83188,16.83188,0,0,1,33.809,12.89978a18.28457,18.28457,0,0,1-.03433,12.77411,16.851,16.851,0,0,1-5.90245,7.86993,2.69306,2.69306,0,0,0,.24032-1.07749A2.60525,2.60525,0,0,0,25.601,29.77788m.36973-26.37219A15.23128,15.23128,0,0,1,33.162,2.04561,16.11782,16.11782,0,0,1,37.3584,5.43127a18.13176,18.13176,0,0,1-.32219,24.00329A15.65422,15.65422,0,0,1,29.021,34.16708a18.03286,18.03286,0,0,0,5.744-8.134,18.98291,18.98291,0,0,0-.38293-13.35511,17.36486,17.36486,0,0,0-8.57241-9.18775c.05281-.0264.10563-.06073.16109-.0845M9.52315,17.57948a18.05433,18.05433,0,0,1,4.376-12.14821,16.18659,16.18659,0,0,1,4.207-3.39094,15.25477,15.25477,0,0,1,7.06709,1.339c.07394.03169.14.07658.21655.11355a17.35782,17.35782,0,0,0-8.59618,9.24586A18.95306,18.95306,0,0,0,16.4582,26.0938a18.0183,18.0183,0,0,0,5.69117,8.04686,15.63742,15.63742,0,0,1-7.92539-4.7061A17.98861,17.98861,0,0,1,9.52315,17.57948" style="fill:#fff"/><path d="M74.64047,29.13376,67.04519,12.3481H65.2837L57.68843,29.13376H59.619l1.97538-4.405h9.06892l1.95428,4.405Zm-12.3093-6.119,3.80818-8.4747,3.78709,8.4747Z" style="fill:#fff"/><polygon points="82.69 29.133 82.69 14.207 88.286 14.207 88.286 12.467 75.19 12.467 75.19 14.207 80.786 14.207 80.786 29.133 82.69 29.133" style="fill:#fff"/><polygon points="92.408 12.468 92.408 29.135 103.671 29.135 103.671 27.397 94.288 27.397 94.288 12.468 92.408 12.468" style="fill:#fff"/><path d="M113.90852,12.3481l-7.59528,16.78566h1.93052l1.97539-4.405h9.06892l1.95427,4.405h2.02294L115.67,12.3481ZM110.956,23.01475l3.80819-8.4747,3.78709,8.4747Z" style="fill:#fff"/><path d="M138.22134,24.65767v-.04753c0-2.54849-1.714-3.90592-5.42974-4.714-3.66294-.787-4.52389-1.66642-4.52389-3.23776V16.6108c0-1.5,1.38121-2.69109,3.5494-2.69109a7.32566,7.32566,0,0,1,4.8091,1.809l1.096-1.45251a8.69209,8.69209,0,0,0-5.85756-2.04671c-3.16381,0-5.47461,1.92787-5.47461,4.54766v.04753c0,2.73864,1.76149,3.97722,5.59345,4.80912,3.49922.73681,4.33376,1.61888,4.33376,3.16645v.04754c0,1.64264-1.47629,2.8337-3.71315,2.8337a7.92613,7.92613,0,0,1-5.71492-2.35833l-1.16465,1.38119a9.73272,9.73272,0,0,0,6.80827,2.66733c3.30908,0,5.68855-1.85657,5.68855-4.714" style="fill:#fff"/><path d="M58.97826,35.83508h1.02732v.29579a1.11912,1.11912,0,0,1-1.08807.86622c-.65231,0-1.14351-.581-1.14351-1.471,0-.87943.48328-1.46835,1.17785-1.46835a.987.987,0,0,1,.95865.6259l.57836-.08452a1.51332,1.51332,0,0,0-1.537-1.03787,1.75783,1.75783,0,0,0-1.73774,1.96484,1.7552,1.7552,0,0,0,1.62682,1.97276,1.338,1.338,0,0,0,1.22273-.75266v.66816h.50179V35.33595H58.97826Z" style="fill:#fff"/><path d="M63.55735,35.59977v-.00528a1.04818,1.04818,0,0,0,.59948-.90319c0-.59421-.38556-1.0458-1.26763-1.0458H61.43141v3.76858h.56251V35.85066h.919a.60827.60827,0,0,1,.62853.63118,3.3841,3.3841,0,0,0,.169.93224h.59156a3.87279,3.87279,0,0,1-.21656-.99826.85288.85288,0,0,0-.52817-.816m-.70776-.25089h-.85567V34.14727h.82926c.51761,0,.77114.22977.77114.58629,0,.35124-.27994.61532-.74473.61532" style="fill:#fff"/><path d="M66.47821,33.561a1.74973,1.74973,0,0,0-1.73246,1.96748,1.76226,1.76226,0,0,0,1.73246,1.97013,1.74418,1.74418,0,0,0,1.73772-1.97013A1.75178,1.75178,0,0,0,66.47821,33.561m0,3.43583c-.77645,0-1.16993-.68664-1.16993-1.46835,0-.78964.39348-1.471,1.16993-1.471s1.17785.684,1.17785,1.471c0,.79228-.38031,1.46835-1.17785,1.46835" style="fill:#fff"/><path d="M72.47943,36.65641h-.01058l-.92168-3.01065h-.65231c-.14261.52819-.75,2.49039-.8979,3.01065H69.9864l-.86623-3.01065h-.618l1.17256,3.7686h.63646l.91112-3.06347h.00792l.92433,3.06347H72.799l1.1541-3.7686h-.618Z" style="fill:#fff"/><polygon points="74.022 34.147 75.21 34.147 75.21 37.414 75.773 37.414 75.773 34.147 76.958 34.147 76.958 33.645 74.022 33.645 74.022 34.147" style="fill:#fff"/><polygon points="79.953 35.224 77.968 35.224 77.968 33.645 77.408 33.645 77.408 37.413 77.968 37.413 77.968 35.72 79.953 35.72 79.953 37.413 80.513 37.413 80.513 33.645 79.953 33.645 79.953 35.224" style="fill:#fff"/><path d="M84.17339,33.6455l-1.508,3.76858h.58364l.37765-.96392h1.67962l.36709.96392H86.265l-1.4789-3.76858ZM83.82216,35.951l.64965-1.65321h.01058l.63117,1.65321Z" style="fill:#fff"/><path d="M88.24252,36.99682c-.68137,0-1.133-.581-1.133-1.471,0-.95865.44631-1.46835,1.133-1.46835a.98891.98891,0,0,1,.97184.61534l.56515-.08979a1.51518,1.51518,0,0,0-1.537-1.022c-1.20162,0-1.69549.9164-1.69549,1.96484,0,1.06693.54667,1.97277,1.69549,1.97277a1.531,1.531,0,0,0,1.55813-1.07222l-.55987-.0845a.99662.99662,0,0,1-.99826.65494" style="fill:#fff"/><path d="M91.99261,33.56046a1.75062,1.75062,0,0,0-1.73243,1.97012,1.76132,1.76132,0,0,0,1.73243,1.96748,1.71819,1.71819,0,0,0,.88207-.21918l.441.441.39084-.3803-.43309-.38821a2.19926,2.19926,0,0,0,.45687-1.42082,1.75415,1.75415,0,0,0-1.73772-1.97012m.87151,3.0212-.375-.34067-.34067.31691.3354.33539a1.11092,1.11092,0,0,1-.49121.103c-.77642,0-1.16993-.68663-1.16993-1.46571,0-.79227.39351-1.47362,1.16993-1.47362s1.17785.68663,1.17785,1.47362a1.74269,1.74269,0,0,1-.30634,1.05108" style="fill:#fff"/><path d="M96.90025,35.9151c0,.6708-.30372,1.08278-.94546,1.08278-.66551,0-.95865-.4516-.95865-1.08278V33.64656h-.55989v2.27911a1.51442,1.51442,0,1,0,3.0265,0V33.64656h-.5625Z" style="fill:#fff"/><rect x="98.28276" y="33.64471" width="0.56251" height="3.76858" style="fill:#fff"/><path d="M101.07052,35.23427c-.51764-.18487-.861-.33012-.861-.647,0-.28786.3037-.53083.73418-.53083a.84236.84236,0,0,1,.82661.51234l.61-.08715a1.38817,1.38817,0,0,0-1.41024-.92168c-.73153,0-1.38385.4067-1.38385,1.0775,0,.51761.45687.816,1.31518,1.10654.35389.13733.89263.346.89263.71305,0,.25089-.24825.5361-.75.5361a.96759.96759,0,0,1-.95074-.6523l-.62589.08979a1.54647,1.54647,0,0,0,1.56077,1.06693c.87151,0,1.3944-.48593,1.3944-1.096,0-.5097-.48856-.86622-1.35213-1.16729" style="fill:#fff"/><rect x="103.10242" y="33.64471" width="0.55987" height="3.76858" style="fill:#fff"/><polygon points="104.111 34.147 105.297 34.147 105.297 37.414 105.86 37.414 105.86 34.147 107.045 34.147 107.045 33.645 104.111 33.645 104.111 34.147" style="fill:#fff"/><rect x="107.49427" y="33.64471" width="0.55987" height="3.76858" style="fill:#fff"/><path d="M110.45553,33.561a1.74972,1.74972,0,0,0-1.73245,1.96748,1.76225,1.76225,0,0,0,1.73245,1.97013,1.74418,1.74418,0,0,0,1.73772-1.97013,1.75178,1.75178,0,0,0-1.73772-1.96748m0,3.43583c-.77644,0-1.16993-.68664-1.16993-1.46835,0-.78964.39349-1.471,1.16993-1.471s1.17785.684,1.17785,1.471c0,.79228-.38031,1.46835-1.17785,1.46835" style="fill:#fff"/><polygon points="115.446 36.517 115.441 36.517 113.447 33.647 112.861 33.647 112.861 37.413 113.42 37.413 113.42 34.534 113.431 34.537 115.42 37.413 116.009 37.413 116.009 33.647 115.446 33.647 115.446 36.517" style="fill:#fff"/><polygon points="119.108 33.645 118.548 33.645 118.548 37.414 121.094 37.414 121.094 36.912 119.108 36.912 119.108 33.645" style="fill:#fff"/><rect x="121.60733" y="33.64471" width="0.55987" height="3.76858" style="fill:#fff"/><polygon points="125.061 36.672 125.05 36.672 123.827 33.645 123.001 33.645 123.001 37.414 123.563 37.414 123.563 34.493 123.568 34.493 124.781 37.414 125.33 37.414 126.524 34.493 126.529 34.493 126.534 37.414 127.089 37.414 127.089 33.645 126.262 33.645 125.061 36.672" style="fill:#fff"/><rect x="127.92704" y="33.64471" width="0.55987" height="3.76858" style="fill:#fff"/><polygon points="128.934 34.147 130.12 34.147 130.12 37.414 130.683 37.414 130.683 34.147 131.868 34.147 131.868 33.645 128.934 33.645 128.934 34.147" style="fill:#fff"/><polygon points="132.878 35.72 134.88 35.72 134.88 35.224 132.878 35.224 132.878 34.146 135.088 34.146 135.088 33.644 132.318 33.644 132.318 37.413 135.117 37.413 135.117 36.911 132.878 36.911 132.878 35.72" style="fill:#fff"/><path d="M137.17843,33.645h-1.37591v3.76859h1.32838a1.67991,1.67991,0,0,0,1.77734-1.88826,1.68033,1.68033,0,0,0-1.72981-1.88033m-.06865,3.26681H136.365v-2.765h.73417a1.22139,1.22139,0,0,1,1.24388,1.37855c0,.90583-.49121,1.38648-1.2333,1.38648" style="fill:#fff"/></g></g></svg>