<svg xmlns="http://www.w3.org/2000/svg" viewBox="0 0 31.16142 25.67034"><g id="图层_2" data-name="图层 2"><g id="Layer_1" data-name="Layer 1"><polyline points="14.569 8.316 14.569 0.5 30.661 0.5 30.661 22.385 14.569 22.385 14.569 16.914" style="fill:none;stroke:#b3955b;stroke-linecap:round;stroke-linejoin:round"/><path d="M7.53445,8.31605a3.20338,3.20338,0,0,0,3.12642-3.34949V3.84949A3.20342,3.20342,0,0,0,7.53445.5,3.20337,3.20337,0,0,0,4.408,3.84949V4.96656A3.20332,3.20332,0,0,0,7.53445,8.31605Z" style="fill:none;stroke:#b3955b;stroke-linecap:round;stroke-linejoin:round"/><path d="M11.44247,25.17034v-11.383H16.1321a2.78657,2.78657,0,0,0,3.12642-3.12642H4.408C1.6073,10.66087.5,11.8425.5,15.3505v5.47123c0,1.67654.66827,3.12642,2.34482,3.12642h.7816" style="fill:none;stroke:#b3955b;stroke-linecap:round;stroke-linejoin:round"/><line x1="3.62642" y1="15.3505" x2="3.62642" y2="25.17034" style="fill:none;stroke:#b3955b;stroke-linecap:round;stroke-linejoin:round"/><polyline points="16.718 17.695 18.979 17.695 20.542 14.569 23.041 14.569 26.167 6.753 28.512 6.753" style="fill:none;stroke:#b3955b;stroke-linecap:round;stroke-linejoin:round"/></g></g></svg>