<svg xmlns="http://www.w3.org/2000/svg" viewBox="0 0 31.16142 24.03819"><g id="图层_2" data-name="图层 2"><g id="Layer_1" data-name="Layer 1"><path d="M16.89208,13.61366s.96831-1.40729,1.31136-1.967c.5191-.84694,1.88345-2.62273,3.9341-2.62273h4.58978a4.01022,4.01022,0,0,1,3.9341,3.9341v5.24546a2.84428,2.84428,0,0,1-2.62273,2.62273H27.383" style="fill:none;stroke:#b3955b;stroke-linecap:round;stroke-linejoin:round"/><polyline points="20.17 23.538 20.17 14.269 18.203 16.892" style="fill:none;stroke:#b3955b;stroke-linecap:round;stroke-linejoin:round"/><line x1="27.38301" y1="13.61366" x2="27.38301" y2="23.53819" style="fill:none;stroke:#b3955b;stroke-linecap:round;stroke-linejoin:round"/><path d="M10.33525,23.53819V14.26934l4.04136,4.25781a1.70466,1.70466,0,0,0,2.39108.00131l.73515-.72053s-2.38026-3.69136-3.2335-4.84995c-.85828-1.16554-2.4716-3.9341-5.24546-3.9341H4.4341A3.98433,3.98433,0,0,0,.5,12.958v5.24546a2.828,2.828,0,0,0,2.62273,2.62273" style="fill:none;stroke:#b3955b;stroke-linecap:round;stroke-linejoin:round"/><line x1="3.12273" y1="13.61366" x2="3.12273" y2="23.53819" style="fill:none;stroke:#b3955b;stroke-linecap:round;stroke-linejoin:round"/><path d="M7.05683,7.05683A2.51392,2.51392,0,0,0,9.67956,4.4341V3.12273A2.514,2.514,0,0,0,7.05683.5,2.514,2.514,0,0,0,4.4341,3.12273V4.4341A2.51392,2.51392,0,0,0,7.05683,7.05683Z" style="fill:none;stroke:#b3955b;stroke-linecap:round;stroke-linejoin:round"/><path d="M24.10459,7.05683A2.51392,2.51392,0,0,0,26.72732,4.4341V3.12273a2.62273,2.62273,0,1,0-5.24546,0V4.4341A2.51392,2.51392,0,0,0,24.10459,7.05683Z" style="fill:none;stroke:#b3955b;stroke-linecap:round;stroke-linejoin:round"/></g></g></svg>