<svg xmlns="http://www.w3.org/2000/svg" viewBox="0 0 27.39124 28.27095"><g id="图层_2" data-name="图层 2"><g id="Layer_1" data-name="Layer 1"><polyline points="21.613 23.372 26.891 18.094 26.891 15.455 13.695 15.455 0.5 15.455 0.5 18.094 5.778 23.372" style="fill:none;stroke:#b3955b;stroke-linecap:round;stroke-linejoin:round"/><line x1="5.77825" y1="27.77095" x2="5.77825" y2="18.97387" style="fill:none;stroke:#b3955b;stroke-linecap:round;stroke-linejoin:round"/><line x1="21.61299" y1="27.77095" x2="21.61299" y2="18.97387" style="fill:none;stroke:#b3955b;stroke-linecap:round;stroke-linejoin:round"/><path d="M20.73329,15.455V11.93621c0-2.154-5.35435-3.51884-7.03767-3.51884S6.658,9.78224,6.658,11.93621V15.455" style="fill:none;stroke:#b3955b;stroke-linecap:round;stroke-linejoin:round"/><path d="M13.69562,8.41737a3.41331,3.41331,0,0,0,3.51883-3.39286V3.893A3.41333,3.41333,0,0,0,13.69562.5a3.41327,3.41327,0,0,0-3.51883,3.393V5.02451A3.41325,3.41325,0,0,0,13.69562,8.41737Z" style="fill:none;stroke:#b3955b;stroke-linecap:round;stroke-linejoin:round"/><polyline points="9.297 27.771 9.297 19.854 18.094 19.854 18.094 27.771" style="fill:none;stroke:#b3955b;stroke-linecap:round;stroke-linejoin:round"/></g></g></svg>