<svg xmlns="http://www.w3.org/2000/svg" viewBox="0 0 32.76004 35.27582"><g id="图层_2" data-name="图层 2"><g id="Layer_1" data-name="Layer 1"><path d="M19.19685,24.53142s.464-4.918.5439-5.83013c-.1152-.68391-.31961-1.90163-.45544-2.75656.59926-1.31436,2.501-1.53884,2.87719-.87091.52657.93483,1.441,2.489,1.441,2.489a4.25462,4.25462,0,0,1,2.88478,1.24057,3.62471,3.62471,0,0,1,2.442,1.10922c.90982.163,1.71326.58089,1.8852,1.3915a40.71061,40.71061,0,0,1,.15688,7.23682c-.24563,1.32644-1.08314,2.11274.2702,4.618.30542.56223,1.08968,1.858,1.08968,1.858" style="fill:none;stroke:#fff;stroke-miterlimit:10"/><path d="M15.89851,22.86433c0,1.55093,1.91423,6.91728,2.27983,7.42,1.17906,1.62121,2.93448,1.58776,3.76966,3.23352l.79625,1.4991" style="fill:none;stroke:#fff;stroke-miterlimit:10"/><line x1="17.52383" y1="14.56291" x2="19.35803" y2="16.3971" style="fill:none;stroke:#fff;stroke-miterlimit:10"/><line x1="14.25821" y1="17.70546" x2="19.35922" y2="22.80647" style="fill:none;stroke:#fff;stroke-miterlimit:10"/><circle cx="9.70452" cy="9.70452" r="9.20452" style="fill:none;stroke:#b4965b;stroke-miterlimit:10"/><path d="M9.6261,9.865c-2.04417,0-4.5426,1.37-4.5426,2.30731v2.23528a6.99718,6.99718,0,0,0,4.5426,1.29789,6.99717,6.99717,0,0,0,4.54259-1.29789V12.17226C14.16869,11.23493,11.67026,9.865,9.6261,9.865Z" style="fill:none;stroke:#fff;stroke-miterlimit:10"/><path d="M9.6261,3.37552A2.53634,2.53634,0,0,0,7.03033,5.71217V7.5283A2.53634,2.53634,0,0,0,9.6261,9.865,2.53633,2.53633,0,0,0,12.22186,7.5283V5.71217A2.53633,2.53633,0,0,0,9.6261,3.37552Z" style="fill:none;stroke:#fff;stroke-miterlimit:10"/></g></g></svg>