<svg xmlns="http://www.w3.org/2000/svg" viewBox="0 0 34.80051 33.04011"><g id="图层_2" data-name="图层 2"><g id="Layer_1" data-name="Layer 1"><polyline points="13.668 26.072 8.244 26.072 8.244 0.5 24.517 0.5 27.617 3.6 27.617 11.349" style="fill:none;stroke:#fff;stroke-miterlimit:10"/><polyline points="22.967 2.825 22.967 5.15 25.292 5.15" style="fill:none;stroke:#fff;stroke-miterlimit:10"/><polyline points="10.118 29.443 3.483 30.208 0.554 4.804 6.117 4.162" style="fill:none;stroke:#fff;stroke-miterlimit:10"/><polyline points="32.462 26.847 34.257 7.258 29.938 6.862" style="fill:none;stroke:#fff;stroke-miterlimit:10"/><polyline points="12.695 28.394 12.451 30.939 29.946 32.542" style="fill:none;stroke:#fff;stroke-miterlimit:10"/><path d="M19.86749,22.97277a1.62332,1.62332,0,0,0,1.56689,1.54985h1.5328A1.60766,1.60766,0,0,0,24.517,22.97277v-.23453A1.40765,1.40765,0,0,0,23.46584,21.415l-2.53438-.75907a1.42018,1.42018,0,0,1-1.064-1.32324v-.23453a1.60765,1.60765,0,0,1,1.54984-1.54985h1.54985A1.60766,1.60766,0,0,1,24.517,19.09816v.77492" style="fill:none;stroke:#fff;stroke-miterlimit:10"/><line x1="22.19226" y1="17.54831" x2="22.19226" y2="15.22354" style="fill:none;stroke:#fff;stroke-miterlimit:10"/><line x1="22.19226" y1="24.52262" x2="22.19226" y2="26.84739" style="fill:none;stroke:#fff;stroke-miterlimit:10"/><ellipse cx="22.19226" cy="21.03547" rx="7.74923" ry="7.36177" style="fill:none;stroke:#b4965b;stroke-miterlimit:10"/><line x1="27.72967" y1="26.18541" x2="33.04118" y2="31.49693" style="fill:none;stroke:#fff;stroke-miterlimit:10"/></g></g></svg>