<svg xmlns="http://www.w3.org/2000/svg" viewBox="0 0 121.09261 66.82498"><g id="图层_2" data-name="图层 2"><g id="Layer_1" data-name="Layer 1"><path d="M39.60664,15.079a4.71733,4.71733,0,0,1,1.79164,1.30122,7.1383,7.1383,0,0,1,1.74662,3.92616,29.03607,29.03607,0,0,1,.39538,5.55019c-.00752.21769.08007.53049-.3328.48293-.05-.005-.15513.19269-.18518.30779a3.85465,3.85465,0,0,0,.07759,2.3522c.29026.77822.17514,1.14607-.52051,1.54645-.38534.2252-.69313.46043-.62806,1.00592.01748.16516-.15266.36535-.26278.52551a2.12928,2.12928,0,0,0-.38285,1.5214.34266.34266,0,0,0,.38285.35033c1.51894.05255,3.04037.12762,4.55679.18518a1.85909,1.85909,0,0,0,.44788-.09009,2.56668,2.56668,0,0,0,.5205.17016c.91085.07757,1.8267.13513,2.73754.20019l.00753.1101c-.19768.01251-.39539.04-.59306.04254-.79576,0-1.59148.0025-2.38721-.01251-.26525-.005-.41539.07257-.46044.36783-.19519,1.24367-.41039,2.48233-.59306,3.72849-.01252.10259.17267.30778.30027.35532,1.46388.518,2.93525,1.01345,4.40413,1.51892a.47348.47348,0,0,1,.28026.22271c-.16017-.02753-.32283-.04254-.478-.08508-1.39878-.39037-2.8026-.77822-4.1989-1.18611-.31779-.09258-.40286.01752-.46544.32781-.2152,1.04848-.42039,2.102-.71318,3.12791a5.71027,5.71027,0,0,1-2.50233,3.263c-1.40878.91336-2.81761,1.8267-4.2039,2.77509-1.87675,1.2862-3.69844,2.655-5.59772,3.89863A13.33568,13.33568,0,0,0,27.105,60.74906a8.56692,8.56692,0,0,1-.37785,1.076c.59553-3.37314,1.5239-6.57613,4.284-8.82572-2.4598,1.35125-3.63338,3.73347-4.62929,6.25833-.03754-.02-.07259-.03754-.11012-.05756.21771-.63308.44292-1.26117.65063-1.89676a9.62543,9.62543,0,0,1,3.53826-4.787c1.74915-1.30122,3.5133-2.5749,5.23239-3.91866,1.33876-1.046,2.59993-2.197,3.91868-3.268a9.44822,9.44822,0,0,1,1.5189-.99593,3.892,3.892,0,0,0,1.86423-2.147c.02505-.07507.06506-.14764.09759-.2202.04506.0075.0926.015.13513.02-.05006.513-.10007,1.02345-.14765,1.5089a3.089,3.089,0,0,0,.59809-3.95619,4.07093,4.07093,0,0,1,.45793.2102c.19515.13012.39034.24523.50294-.06507.10011-.27024.19771-.58553-.19267-.72066-.37034-.12762-.74819-.23523-1.121-.35283-1.83922-.58554-3.67844-1.16609-5.51765-1.75664a.53185.53185,0,0,0-.56052.05756.74421.74421,0,0,1-.71818-.04255.858.858,0,0,0-1.081.01753,7.5881,7.5881,0,0,1-.77571.32779c-.02005-.04-.04258-.08007-.06507-.1201.24773-.33532.49294-.67564.7732-1.05348-.47793-.17768-.94086-.35534-1.41382-.518a.24547.24547,0,0,0-.2202.06506c-.19519.27274-.41287.2202-.60558.03251-.065-.065-.045-.2302-.06254-.35032.21519-.01751.42791-.03754.64059-.05254.025,0,.05.02253.10259.045.03005-.09008.03506-.2052.0926-.25524a.43.43,0,0,1,.29026-.1101c.06506.005.18267.13263.17266.18517-.07755.43039.23024.45542.49046.528.20271.05506.40538.09759.60557.14513a1.30533,1.30533,0,0,1,2.21956-.51546,2.62926,2.62926,0,0,0,.64311.37033,3.33093,3.33093,0,0,1,.59805.35533c-.65311-.01-1.2937.24272-1.93929-.13261a2.73507,2.73507,0,0,0-1.071-.12262l-.015.14763c2.66251.79324,5.325,1.58648,8.015,2.38723-.1226-.37535-.2302-.70315-.34032-1.03347.03005-.015.05506-.03.08507-.04253.16018.13512.30779.28276.473.40538a.76728.76728,0,0,0,1.28118-.31779,6.9136,6.9136,0,0,0,.31531-.89584c.18014-.57555.35032-1.15357.538-1.77166-.26525-.02-.523-.05505-.78072-.06006-1.1861-.02753-2.37221-.04253-3.55583-.07506-.29278-.01-.41787.05506-.43291.40036a2.90416,2.90416,0,0,1-.27774.80075c-.05506-.00751-.11012-.01251-.16518-.02-.09255-.24773-.18267-.49546-.27774-.74319a.67548.67548,0,0,0-.64311-.51048c-1.94681-.1126-3.89363-.24773-5.83792-.37535a1.16147,1.16147,0,0,0-.16266.0075c-.14765.13763.09007.63058-.40787.43291-.553-.21771-.7407-.45292-.578-.86581.025-.06006.10008-.15515.12509-.14763a1.34259,1.34259,0,0,1,.27278.15514c.11512.07757.2302.2227.3478.2227,1.48889.015,2.98279.01,4.51922.01a1.42346,1.42346,0,0,1,.90336-1.10353.72635.72635,0,0,0,.2402-.16766c.76824-1.081,1.69909-2.13449,1.619-3.57084a17.53167,17.53167,0,0,1,.553-4.89957,9.83444,9.83444,0,0,0-.75571-7.17918,14.92721,14.92721,0,0,0-1.25617-1.66906c-.04005-.05-.07759-.10009-.1176-.15265" style="fill:#fff"/><path d="M23.39027,61.49426c-.36037-.98592-.69065-1.98185-1.08355-2.95526a12.07718,12.07718,0,0,0-4.57423-5.4726q-2.49612-1.71534-5.00219-3.42069c-1.54895-1.061-3.05033-2.19955-4.65682-3.16294a7.3045,7.3045,0,0,1-3.40818-5.36c-.10011-.55552-.19771-1.10853-.30531-1.7241-1.78916.49545-2.55579.98592-4.32246,1.47387L0,40.75992c.14265-.06005.28026-.12511.42539-.17516,1.49642-.518,1.98531-1.04347,3.4892-1.53643.32532-.1051.4254-.25274.36534-.58805-.19267-1.15607-.37034-2.31215-.553-3.47074a.45555.45555,0,0,0-.548-.4379c-.76819.025-.53643.01251-1.30462.015-.20519.0025-.40791.0025-.6131.0025l-.00748-.13263c.42787-.04253-.14674-.09007.28118-.1226.50045-.03753,1.00844-.02253,1.50141-.1051.90084-.14763,1.80417-.06506,2.70253-.13763.93085-.07506,1.8667-.09759,2.80008-.12262.22772-.0075.32279-.08507.35784-.31279a2.24243,2.24243,0,0,0-.36285-1.569c-.14513-.2302-.16514-.538-.29274-.78322a1.69394,1.69394,0,0,0-.478-.64811c-.86831-.558-.94086-.74569-.59553-1.76665a3.75255,3.75255,0,0,0,.03753-2.18955c-.04254-.16515-.23272-.28776-.35285-.43039l-.18518.06756c0-.48795-.01-.9759,0-1.46386a24.57047,24.57047,0,0,1,.70569-5.863,6.49016,6.49016,0,0,1,2.95273-3.8561,1.65555,1.65555,0,0,1,.23021-.09759c-.4254.58555-.89832,1.13606-1.26117,1.75664a8.87361,8.87361,0,0,0-1.05346,5.66779c.13761,1.14607.47793,2.26461.64307,3.41068a15.01954,15.01954,0,0,1,.13765,2.50983,3.79406,3.79406,0,0,0,.523,2.40724c.2202.31279.3278.71568.553,1.021a5.19357,5.19357,0,0,0,.92837.9734c.30531.24023.62059.4279.73319.84829a.35216.35216,0,0,0,.26777.18768c1.43631.01,2.87515.01,4.314-.00752.11008,0,.2202-.13011.32528-.20267.08759-.05756.17266-.12263.25773-.18269a1.13247,1.13247,0,0,1,.16266.3128c.07006.41288-.47545.91836-.81825.7432-.1076-.05506-.13013-.28276-.21272-.473-.85078.06256-1.73658.12763-2.62242.18767-1.056.06756-2.10947.14015-3.16545.18769-.57556.025-.69316.08757-.88835.65061-.06755.19767-.14013.39286-.2202.61556-.47793-.27024-.44792-.71066-.48546-1.12354H3.89707c.33032.99093.59057,1.91678.9509,2.80262.2302.568.78072.61306,1.29618.19517a1.319,1.319,0,0,1,.45044-.28777,4.88807,4.88807,0,0,1-.1176.51049,4.93089,4.93089,0,0,1-.24025.518c2.72-.81076,5.39-1.6065,8.05752-2.40225a1.10114,1.10114,0,0,0-1.081-.04,1.93034,1.93034,0,0,1-1.37629.19269c-.17766-.03754-.37785.0125-.58805-.045a11.90058,11.90058,0,0,1,1.96182-1.101c.71066-.24773,1.27618.16516,1.559.89334.35285-.0951.71317-.19269,1.071-.29029l-.08755-.09257c.09508-.16516.19267-.33032.28774-.498.12513.1051.25025.2077.42292.35033a.48478.48478,0,0,1,.26773-.1051.84165.84165,0,0,1,.41791.2102c.03253.02753-.04254.27776-.11512.31029-.13513.06256-.38534.11512-.4454.04253-.2152-.26523-.41291-.15013-.63811-.06-.35784.13763-.72566.26273-1.12356.40537.28278.37785.533.71067.78576,1.04347-.02.03755-.03753.07258-.05758.11012a3.50642,3.50642,0,0,1-.6606-.23273c-.42039-.25023-.80076-.43541-1.25868-.05005a.50827.50827,0,0,1-.7582-.05754c-.06506-.06757-.26025-.06007-.37537-.02253-2.19954.68814-4.39909,1.38879-6.59864,2.08194-.25024.07757-.43291.18017-.40286.50547.03753.44791.21768.553.59553.33031a1.07353,1.07353,0,0,1,.40791-.14263,2.18891,2.18891,0,0,0-.40791,2.08694,4.60849,4.60849,0,0,0,1.08351,1.9343c-.08255-.578-.15762-1.08851-.2302-1.599.04505-.01751.09259-.03253.14013-.05a1.98346,1.98346,0,0,1,.14765.25023,3.82,3.82,0,0,0,1.77415,2.06192,29.71842,29.71842,0,0,1,4.269,3.2055c1.83421,1.46886,3.736,2.84764,5.56519,4.324a23.38362,23.38362,0,0,1,3.03284,2.79011,11.60935,11.60935,0,0,1,1.96434,4.2915.23878.23878,0,0,1-.05758.17266c-1.01092-2.52735-2.25709-4.84952-4.72689-6.18327,2.75255,2.16452,3.76351,5.27242,4.33155,8.608" style="fill:#fff"/><path d="M26.18088,37.77964c-.14017-.045-.22524-.07257-.39538-.12761.16514-.19269.29278-.35032.43291-.498.30775-.32779.64059-.63308.93086-.98091a1.20163,1.20163,0,0,1,.88583-.56552,1.4727,1.4727,0,0,0,1.09351-1.13356,2.67029,2.67029,0,0,1,.17014-.553,1.48337,1.48337,0,0,1-.35532,1.66656,12.80881,12.80881,0,0,1-1.4939,1.1761,2.6594,2.6594,0,0,0-1.051,1.13106,2.95655,2.95655,0,0,1-.72318.82325,1.91494,1.91494,0,0,0-.14261,1.66907.61551.61551,0,0,0,.3378.15013,8.53562,8.53562,0,0,1,3.10791,1.22114,2.36409,2.36409,0,0,0,2.93021-.07257c.18018-.15013.31031-.36534.488-.52548-.26273,1.56395-1.68156,2.16452-3.173,1.46136a20.0546,20.0546,0,0,0-2.99527-1.18861,5.85643,5.85643,0,0,0-4.10135.61307c-.47293.2152-.92837.46794-1.40382.67813A2.05343,2.05343,0,0,1,17.778,41.1653c.08255.07507.12761.10761.16514.15014a2.34157,2.34157,0,0,0,3.14544.5355,8.68349,8.68349,0,0,1,3.29306-1.31623.43567.43567,0,0,0,.40786-.46543,4.424,4.424,0,0,0-.01248-.91085,1.22606,1.22606,0,0,0-.30031-.48045c-.2352-.30028-.48293-.59055-.72814-.88082a6.75681,6.75681,0,0,0-.76823-.87081c-.488-.40788-1.051-.72067-1.529-1.13856A1.60962,1.60962,0,0,1,20.921,33.896c.12761.34532.22772.70565.38786,1.036a1.21414,1.21414,0,0,0,1.03345.70565.92152.92152,0,0,1,.50046.26776c.45044.4479.88083.91585,1.31375,1.38377a3.21938,3.21938,0,0,1,.24272.34032c-.1226.07257-.21771.12763-.32531.19019a1.14922,1.14922,0,0,0,1.02344.74319,1.23777,1.23777,0,0,0,1.08355-.78324" style="fill:#fff"/><path d="M25.01055,6.65937c.01748-.10008.05-.28026.08255-.46043h.06506c.02253.17016.05006.34282.06258.42289a3.57249,3.57249,0,0,1,.97839-.21269,1.51738,1.51738,0,0,1,1.041.73068,7.82736,7.82736,0,0,0,.92085.99093c.20772.19769.35285.36033.07259.66812a1.00991,1.00991,0,0,0-1.52143-.41039.67214.67214,0,0,1-.51046-.0225c-.09759-.03754-.16766-.22272-.17766-.34783-.005-.05506.17514-.13513.27774-.18018.15513-.06505.31779-.1101.498-.17014-.36284-.56555-.59805-.533-1.544.14263-.045-.07257-.08759-.14515-.08006-.13263.07506,1.75413.15513,3.59084.22772,5.42756a4.94958,4.94958,0,0,1-.02753.60806.92822.92822,0,0,0,.64059,1.12356.89867.89867,0,0,1,.70817.9734c-.02005.50046.3528.62058.76071.68313.68561.10259.92833.518.74318,1.35126a.87081.87081,0,0,0-1.101-.57553.70025.70025,0,0,1-.80576-.61057,4.75256,4.75256,0,0,0-1.21364-1.91929c-.37033.558-.91833.92587-1.10851,1.6065-.24773.87331-.39787.92587-1.25617.91334-.25525-.0025-.513.23523-.76323.35785a.795.795,0,0,1,.67063-1.11354c.77572-.13513.78572-.13263.85579-.9484a.66011.66011,0,0,1,.5055-.62306c.66812-.20019.82577-.66564.83078-1.35376.015-1.73912.09755-3.48077.19266-5.21989.02753-.52548-.27777-.71815-.61305-.92085a.687.687,0,0,0-.89584-.0025,2.19086,2.19086,0,0,0-.13013.18767c.18515.07757.3478.13763.50546.2152a3.51567,3.51567,0,0,1,.31779.19769c-.08507.12512-.14261.31779-.25525.35783a.7122.7122,0,0,1-.51794-.025.96078.96078,0,0,0-1.37129.28276.319.319,0,0,1-.1026.06756.24313.24313,0,0,1-.06258,0c-.16014-.20769-.08255-.36285.09011-.54051.36281-.37285.68565-.79324,1.0735-1.13857a2.581,2.581,0,0,1,1.00592-.62558c.26526-.06757.59806.14765.9309.24523" style="fill:#fff"/><path d="M14.49774,2.786a6.3028,6.3028,0,0,0-2.12952-1.599A4.82268,4.82268,0,0,0,5.82712,4.2649,4.51076,4.51076,0,0,0,9.79334,10.223c.06754.005.13512.01752.31527.03755a4.11862,4.11862,0,0,1-1.91929.2352c-.04-.0025-.08255-.01-.1226-.015-.90836-.12012-1.1711.13263-1.13356,1.08851a1.33506,1.33506,0,0,1-.02.17266c-.06758-.055-.13013-.08257-.15514-.13013A12.63645,12.63645,0,0,1,5.109,4.873,4.79189,4.79189,0,0,1,7.809.49137a5.0293,5.0293,0,0,1,6.426,1.81171c.0976.15263.17519.32279.26278.48293" style="fill:#fff"/><path d="M7.56,51.5132c.4554.68564.89832,1.41882,1.4063,2.102a9.80291,9.80291,0,0,0,2.62994,2.12949c2.39221,1.60649,4.792,3.20048,7.17168,4.827a15.73542,15.73542,0,0,1,5.10726,5.893c.04006.08258.07259.17267.1076.25775l-.11508.10259a.4322.4322,0,0,0-.03505-.16516,22.27142,22.27142,0,0,0-5.968-5.59521q-3.92241-2.67626-7.75973-5.48011A6.81848,6.81848,0,0,1,7.56,51.5132" style="fill:#fff"/><path d="M40.24425,10.32854a5.20595,5.20595,0,0,0,2.695-1.02595A4.84708,4.84708,0,1,0,36.0103,2.57381a.7002.7002,0,0,1-.22772.18769A4.16811,4.16811,0,0,1,36.97616,1.16,4.98218,4.98218,0,0,1,44.4131,2.36362a6.623,6.623,0,0,1,.70569,3.66092,13.64737,13.64737,0,0,1-1.66656,5.60773,1.7743,1.7743,0,0,1-.13512.16015c-.00753-.18518-.01753-.30028-.01753-.41789-.00252-.71567-.31779-.9684-1.00092-.92587a17.898,17.898,0,0,1-1.82921-.04753.87425.87425,0,0,1-.2252-.07259" style="fill:#fff"/><path d="M42.67827,51.52645c-.12512.38537-.20771.68815-.32031.97592A7.29953,7.29953,0,0,1,39.753,55.883c-2.97026,2.087-5.958,4.14637-8.9083,6.26585a18.07108,18.07108,0,0,0-4.37408,4.3966.24884.24884,0,0,1-.19267.1126c.04-.09759.07254-.20018.1176-.29027a16.34691,16.34691,0,0,1,5.63273-6.18828c2.635-1.7191,5.23491-3.49325,7.83484-5.27241A7.61723,7.61723,0,0,0,42.348,51.95936c.06006-.1151.11508-.23271.17514-.34782.00252-.01.02253-.01251.15517-.08509" style="fill:#fff"/><path d="M35.58914,16.62116c.98343.68815.88084,1.97935,1.3813,2.95276a7.861,7.861,0,0,0-1.026-.09508,2.141,2.141,0,0,0-2.157,1.54143A1.78832,1.78832,0,0,1,32.24851,22.364a2.65885,2.65885,0,0,0-2.02688,1.68907c-.08007.15013-.15014.30529-.25521.52548-.05758-.1301-.1076-.19016-.0976-.24022a25.25352,25.25352,0,0,1,.64307-3.178,2.13574,2.13574,0,0,1,2.93277-1.44635.76111.76111,0,0,0,.76319-.14513,3.65754,3.65754,0,0,1,1.001-.50547c.37781-.13012.64059-.34282.61054-.76321-.045-.563-.15014-1.12106-.23021-1.67908m-3.33559,4.94211A1.485,1.485,0,0,0,33.53973,20.147a.2938.2938,0,0,0-.11512-.20269,2.26443,2.26443,0,0,0-2.22707.44542.48993.48993,0,0,0-.06007.38286,1.33594,1.33594,0,0,0,1.11608.79072" style="fill:#fff"/><path d="M14.64386,16.61017c-.08507.52548-.20767,1.05347-.24273,1.589-.03753.533.15014.69817.63311.86831a3.32288,3.32288,0,0,1,.9609.49048.77952.77952,0,0,0,.80573.15013,2.057,2.057,0,0,1,2.48733.68565,6.14466,6.14466,0,0,1,.68064,1.569,12.10129,12.10129,0,0,1,.3328,1.70159,2.63309,2.63309,0,0,1-.03.94337c-.06258-.12762-.12012-.25525-.19271-.37535-.25273-.39786-.49546-.80075-.76819-1.1836a2.19987,2.19987,0,0,0-1.51642-.72318,1.62906,1.62906,0,0,1-1.29623-1.15858,2.44124,2.44124,0,0,0-3.253-1.54645c.48293-1.03595.41539-2.31464,1.39878-3.01029M17.479,19.73056c-.01752.03253-.03505.06506-.05006.0976a3.7729,3.7729,0,0,0-.65311.09759.371.371,0,0,0-.20771.28276,1.44879,1.44879,0,0,0,.96342,1.2862,1.18792,1.18792,0,0,0,1.35625-.58053c.17018-.25525.15765-.50047-.0926-.6281-.42539-.2177-.87579-.37283-1.31619-.55552" style="fill:#fff"/><path d="M43.89515,46.511a10.51128,10.51128,0,0,1-3.04284,5.51265,22.19321,22.19321,0,0,1-5.0372,3.39816,14.84358,14.84358,0,0,0-3.72849,2.4648.503.503,0,0,1-.2102.12262,6.83534,6.83534,0,0,1,1.84174-1.96184c1.041-.72567,2.16449-1.31622,3.20546-2.03939,1.36629-.95089,2.71253-1.93681,4.01624-2.97528a10.03826,10.03826,0,0,0,2.73-4.06379c.02753-.06506.04754-.13763.07759-.20019.04506-.08758.0976-.17266.14765-.25774" style="fill:#fff"/><path d="M6.31387,46.57208c.48794.92086.92585,1.87675,1.48137,2.75258a12.57162,12.57162,0,0,0,3.701,3.47824c1.14857.79074,2.34968,1.50641,3.54579,2.21707a11.91647,11.91647,0,0,1,3.0929,2.63,1.05992,1.05992,0,0,1,.2252.4354c-.17766-.15764-.35532-.31779-.533-.47544a18.55914,18.55914,0,0,0-3.93616-2.45228,18.46193,18.46193,0,0,1-5.56771-4.24147A10.51748,10.51748,0,0,1,6.57409,47.523c-.11509-.30528-.2052-.62308-.30527-.93587l.045-.015" style="fill:#fff"/><path d="M39.191,26.26366a19.18055,19.18055,0,0,0,.23269-3.98621,8.48471,8.48471,0,0,0-.60554-2.4698,15.94313,15.94313,0,0,1-.568-2.20707c-.03506-.15513.07258-.34782.11512-.52048a1.89862,1.89862,0,0,1,.45792.24022,4.7136,4.7136,0,0,1,1.4013,2.98029A11.53668,11.53668,0,0,1,39.191,26.26366" style="fill:#fff"/><path d="M10.88585,26.13653c-.20271-.66812-.44291-1.32623-.60309-2.00686a9.89439,9.89439,0,0,1-.19515-4.39911,4.611,4.611,0,0,1,1.34872-2.45478,1.4106,1.4106,0,0,1,.43544-.19518,1.33953,1.33953,0,0,1,.10259.48045,9.79338,9.79338,0,0,1-.5255,2.13448,8.989,8.989,0,0,0-.64311,4.50921c.03753.63058.14013,1.26117.21519,1.89175-.045.01253-.09007.02753-.13509.04" style="fill:#fff"/><path d="M46.41952,22.28293a4.25487,4.25487,0,0,1-.95842-2.11445,8.881,8.881,0,0,0-2.90272-5.05473,10.54617,10.54617,0,0,0-1.22864-.81325c-.36533-.25273-.70813-.53049-1.0635-.79574.02753-.04754.05258-.0951.08011-.14263.10008.04753.19767.10259.29775.14263a9.22983,9.22983,0,0,0,1.021.36783c.27278.06506.57052.04.4404-.47043.03753-.005.07759-.0125.11264-.01752.50294.483,1.03093.94339,1.5089,1.45886a9.74023,9.74023,0,0,1,2.142,4.73943c.19515.90084.37033,1.80668.55052,2.7" style="fill:#fff"/><path d="M3.76247,22.338c.31528-1.4063.57553-2.735.91585-4.04376a8.56916,8.56916,0,0,1,3.36813-4.87954c.06006.45042.24772.583.71065.43289a11.84286,11.84286,0,0,0,1.10855-.46793c.02753.03.05254.05754.07755.08757a7.60671,7.60671,0,0,1-1.00343.80575,8.266,8.266,0,0,0-4.13636,5.75038A5.1443,5.1443,0,0,1,3.76247,22.338" style="fill:#fff"/><path d="M19.026,45.04342a5.10213,5.10213,0,0,0,2.99279,2.43978,1.95743,1.95743,0,0,0,2.14949-.36784,1.26279,1.26279,0,0,1,1.82669-.04505,2.10024,2.10024,0,0,0,2.49485.30779,5.10071,5.10071,0,0,0,2.78508-2.36721,1.15605,1.15605,0,0,1-.05.23522,4.96122,4.96122,0,0,1-3.55835,2.94024,1.81876,1.81876,0,0,1-1.48137-.29778,1.98428,1.98428,0,0,1-.24525-.16265,1.14092,1.14092,0,0,0-1.68156.01,2.15369,2.15369,0,0,1-2.33215.28777A5.209,5.209,0,0,1,19.066,45.42628a.9563.9563,0,0,1-.07255-.20019c-.00752-.025.00748-.05505.03253-.18267" style="fill:#fff"/><path d="M34.24263,38.45277c-.26277-.27775-.528-.55551-.77075-.80824-.27022.19517-.49045.36783-.72566.518-.04754.03-.19767.00251-.2152-.04a.33758.33758,0,0,1,.005-.27024c.13012-.20019.28778-.38035.45292-.59305l-.8433-.80074c.02-.03.03753-.05506.05758-.08259.25021.16516.49293.34782.75319.493a6.4492,6.4492,0,0,0,.6381.26276.6752.6752,0,0,1,.22769.15263c.23024.24775.45044.508.6281.71067a3.99574,3.99574,0,0,1,.8533-.62808,1.94219,1.94219,0,0,1,.78072.07007V37.572a2.03743,2.03743,0,0,0-.60305.18017,1.17554,1.17554,0,0,0-.40287.51047c-.02753.06755.16762.26024.28775.36283q2.28591,1.93682,4.57679,3.86611a.42344.42344,0,0,1,.15262.27776c-.23021-.14513-.47045-.27776-.68565-.44292-1.52142-1.15107-3.03532-2.31215-4.55923-3.46072a4.74445,4.74445,0,0,0-.63058-.36284c.00748-.01752.015-.035.02252-.05" style="fill:#fff"/><path d="M10.11865,42.6169c.6756-.60055,1.33872-1.21612,2.03189-1.79417.90084-.7557,1.82169-1.48388,2.73754-2.21956a.45326.45326,0,0,0-.0926-.83579,3.90646,3.90646,0,0,0-.63807-.18767c.41287-.46292.92586-.32779,1.53892.47545.24524-.26275.48045-.518.71817-.77573.035-.04.06254-.1026.11012-.12261.24773-.10509.51546-.17766.75571-.30278a7.595,7.595,0,0,0,.66312-.4379c.02249.02751.04753.05254.07006.08007-.25025.24773-.503.493-.76823.75321.14265.20267.30027.39536.43039.60555a.38479.38479,0,0,1,.00252.27526c-.00752.035-.13765.07507-.18018.05254-.23521-.14263-.45793-.30277-.74067-.49046-.22772.23773-.66063.34533-.70317.77323a8.33279,8.33279,0,0,0-.78324.47544c-1.57144,1.1786-3.1354,2.36971-4.70188,3.55081-.12012.09008-.25273.16266-.38033.24022-.02253-.03753-.04758-.07756-.07007-.11511" style="fill:#fff"/><path d="M18.14364,18.61252a6.09637,6.09637,0,0,1-.5055-.86079c-.28526-.73068-.75319-.92087-1.41131-.533a7.51727,7.51727,0,0,1-.7307.41539.38959.38959,0,0,1-.33528-.06506c-.045-.03754-.03-.24523.02749-.3128.23025-.26023.44792-.61055.74323-.72315a3.84618,3.84618,0,0,0,1.93429-1.95434,3.415,3.415,0,0,1,1.88675-1.68406c.10512-.03754.21272-.07507.3178-.1076.02252-.00751.05254.01.14013.03a2.56593,2.56593,0,0,0-.41287.31029c-.35533.40036-.70817.80075-1.036,1.22364-.44544.573-.85079,1.1761-1.2987,1.74162-.14514.17766-.2152.29026-.10012.52048.32532.62809.62558,1.26868.93337,1.90678-.05254.03254-.10007.06257-.15261.09258" style="fill:#fff"/><path d="M35.03439,17.71318a6.17823,6.17823,0,0,1-.6081-.21769c-.21019-.1076-.39786-.26524-.61057-.37536-.50547-.26273-.94838-.03753-1.19611.54552a9.49619,9.49619,0,0,1-.49546.89834c-.05506-.03-.10508-.06006-.15766-.09009.26526-.573.5055-1.16108.80325-1.7166.16266-.30028.18519-.473-.08507-.73068a5.05938,5.05938,0,0,1-.90332-1.13356,4.93822,4.93822,0,0,0-1.73414-2.07442,3.0227,3.0227,0,0,1,1.94433,1.20111c.19267.28276.37286.58054.548.87581a3.49915,3.49915,0,0,0,1.69909,1.60151,1.08929,1.08929,0,0,1,.79576,1.21611" style="fill:#fff"/><path d="M37.20942,43.39763a9.5852,9.5852,0,0,1-1.0685.498,4.29949,4.29949,0,0,0-1.72662,1.01094,1.04017,1.04017,0,0,1-1.47888.035q-.93088-.80323-1.85675-1.61149c-.03-.025-.045-.06757-.025-.19268a7.95424,7.95424,0,0,1,.75571.34782,2.707,2.707,0,0,0,2.32467.30528,9.42924,9.42924,0,0,1,1.47137-.28276c.518-.07256,1.041-.11261,1.56144-.16516.015.01752.02753.03754.04257.05505" style="fill:#fff"/><path d="M19.2189,43.251c-.16018.13013-.32784.25524-.483.39287-.44792.39287-.90085.77823-1.33124,1.18862a1.12719,1.12719,0,0,1-1.64155.05,11.46978,11.46978,0,0,0-1.61649-.95338c-.36285-.19519-.74819-.34282-1.12356-.51048.01752-.05.03253-.10009.05005-.15013,1.1561.21269,2.30967.41789,3.46572.63558a2.72156,2.72156,0,0,0,1.84174-.40037c.25525-.13763.518-.25023.78072-.37535.01752.04254.03753.08258.05758.12261" style="fill:#fff"/><path d="M46.81539,24.44195a22.779,22.779,0,0,1,1.05346,2.99531,6.3393,6.3393,0,0,1-.77572,4.37156c.04754-.35283.07759-.71066.14766-1.05848a6.25531,6.25531,0,0,0-.34032-3.70846,5.07717,5.07717,0,0,1-.21272-2.55988c.04506-.015.08507-.02753.12764-.04005" style="fill:#fff"/><path d="M3.64037,24.56282a8.34579,8.34579,0,0,1-.26026,2.20956,8.06261,8.06261,0,0,0-.26777,4.862,1.265,1.265,0,0,1,.025.17016c.00248.01251-.01253.025-.05006.09509a8.58611,8.58611,0,0,1-.85579-3.61337C2.209,26.87,2.96221,25.74894,3.44518,24.52278c.06506.01252.13261.02753.19519.04" style="fill:#fff"/><path d="M13.51282,21.09158c-.04006.23522-.0926.47045-.11264.70817a5.85625,5.85625,0,0,0-.04754,1.16358,1.29409,1.29409,0,0,0,1.18362,1.29622,1.358,1.358,0,0,1,.39286.1226.67.67,0,0,1,.28526.82328c-.18266.31279-.46792.23272-.70317.1201a3.48773,3.48773,0,0,1-.68812-.47543c-.21772-.17766-.39538-.41289-.62559-.57054a1.56888,1.56888,0,0,1-.62058-1.74913,4.57017,4.57017,0,0,1,.4254-1.076,2.15344,2.15344,0,0,1,.38785-.44292c.04254.02753.08007.05506.12265.08007" style="fill:#fff"/><path d="M36.70847,20.98648c.17262.11012.28774.14515.34528.22522a2.33242,2.33242,0,0,1,.52551,2.30214,3.83759,3.83759,0,0,1-2.01436,1.85173c-.13765.06256-.498-.05254-.528-.15764a.92734.92734,0,0,1,.10512-.67062.90372.90372,0,0,1,.53551-.27276,1.35889,1.35889,0,0,0,1.20359-1.51392,11.98449,11.98449,0,0,0-.1176-1.2962c-.01-.12262-.02753-.24273-.055-.46795" style="fill:#fff"/><path d="M28.32162,26.4263c-.05506-.59556-.14765-1.19111-.16265-1.78916a15.37627,15.37627,0,0,1,.045-2.17454,14.21333,14.21333,0,0,1,.42291-1.574c.13261-.568.2252-1.14607.32532-1.68406a2.22366,2.22366,0,0,0,.41539.67562c.18767.15013.49794.13263.79572.20019a6.39139,6.39139,0,0,1-.64811.88082,3.25613,3.25613,0,0,0-.90084,2.102c-.08759.95088-.11508,1.90928-.16266,2.86266-.01.16516-.00248.33032-.00248.493l-.12761.00751" style="fill:#fff"/><path d="M19.93982,19.942c.79573.20519.79573.20519,1.30119-.6506a.44486.44486,0,0,1,.07006.02c-.10759,1.116.64811,2.01188.7157,3.08788a13.269,13.269,0,0,1-.19019,4.01626,2.258,2.258,0,0,1-.08507.38786c0-.12513-.00752-.24773.00248-.37286a12.27161,12.27161,0,0,0-.3278-4.17639,4.39589,4.39589,0,0,0-.62058-1.15857c-.24272-.37536-.533-.71568-.86579-1.15359" style="fill:#fff"/><path d="M15.045,13.32683a2.7016,2.7016,0,0,1-.42543,1.69658c-.34533.578-.75819,1.111-1.14857,1.654a.86887.86887,0,0,1-.26522.17267.944.944,0,0,1-.15517-.28027,3.23583,3.23583,0,0,1,1.84673-3.25554.69808.69808,0,0,1,.14766.01251" style="fill:#fff"/><path d="M37.1043,16.88241c-.13512-.04-.19018-.03754-.21023-.06254-.6806-.97341-1.57644-1.81671-1.72409-3.11041a1.71645,1.71645,0,0,1,.035-.37034,1.04741,1.04741,0,0,1,.34032.08757,3.25913,3.25913,0,0,1,1.64651,2.83766,5.22864,5.22864,0,0,1-.08756.61806" style="fill:#fff"/><path d="M38.86845,27.477c-.09011,1.061-.14016,2.1295-.2903,3.18048a1.11767,1.11767,0,0,1-1.35876.86581c.49545-1.37379.98343-2.73756,1.4764-4.10133.05754.01751.11508.03754.17266.055" style="fill:#fff"/><path d="M11.52373,27.43924c.1076.28778.21268.578.32528.86581.18267.46545.38286.92587.548,1.39882.19266.553.3578,1.116.51046,1.68156.01.03753-.21272.2152-.29027.19269a1.3106,1.3106,0,0,1-1.02344-1.03347,8.0716,8.0716,0,0,1-.13765-1.25117c-.025-.60307-.00752-1.20863-.00752-1.81168.02505-.015.05006-.03.0751-.04256" style="fill:#fff"/><path d="M28.22628,6.97941a9.55424,9.55424,0,0,1,3.72345,1.92681.37286.37286,0,0,1,.12761.16766c.06506.26774.11764.54049.17266.81075a2.00927,2.00927,0,0,1-.70065-.18517A7.16124,7.16124,0,0,1,30.34072,8.641,5.92528,5.92528,0,0,0,28.419,7.20963c-.08259-.04-.16266-.08507-.24525-.12762a.99237.99237,0,0,1,.05258-.1026" style="fill:#fff"/><path d="M22.10485,7.043c-.26025.14015-.44792.25275-.64311.33782a8.02909,8.02909,0,0,0-1.99939,1.69158,8.76517,8.76517,0,0,1-1.08351.80825.40187.40187,0,0,1-.37785.025.40859.40859,0,0,1-.05254-.38536,2.75314,2.75314,0,0,1,.57052-.83077A9.454,9.454,0,0,1,21.89214,7.018a.8355.8355,0,0,1,.21271.025" style="fill:#fff"/><path d="M29.61934,18.891a8.8626,8.8626,0,0,1-.05258-1.5189,3.4535,3.4535,0,0,0-.3278-2.2396,1.79953,1.79953,0,0,1,1.14357,1.25617,3.95708,3.95708,0,0,1-.508,2.52236c-.08759-.0075-.17014-.015-.25521-.02" style="fill:#fff"/><path d="M20.46506,18.94482c-.87335-1.27618-1.071-3.06535.513-3.89363a2.58911,2.58911,0,0,1-.1126.33532,2.97944,2.97944,0,0,0-.25273,1.644,12.46086,12.46086,0,0,1,.01,1.46638,1.66539,1.66539,0,0,1-.15762.4479" style="fill:#fff"/><path d="M26.52544,3.882a1.39123,1.39123,0,0,1,.38534.05006,10.43885,10.43885,0,0,0,2.95777.473,8.99623,8.99623,0,0,1,1.4939.35533,1.06413,1.06413,0,0,1,.45292.37283A5.63711,5.63711,0,0,0,29.27046,4.948,3.57613,3.57613,0,0,1,27.0259,4.2649a2.7734,2.7734,0,0,0-.508-.28028l.00752-.1026" style="fill:#fff"/><path d="M23.66881,3.84775a4.45393,4.45393,0,0,1-3.761,1.0635,7.00073,7.00073,0,0,0-1.5039.16516,2.31224,2.31224,0,0,1,1.30871-.60557c.91084-.1051,1.82669-.17014,2.73754-.29527a9.23717,9.23717,0,0,0,1.21867-.32782" style="fill:#fff"/><path d="M32.03358,23.55012c.38786-.2102.68813-.37284.99092-.53549a3.54737,3.54737,0,0,0,1.68656-1.85423c.03753-.09509.06754-.22272.13765-.26275a.76894.76894,0,0,1,.44788-.1176c.08259.015.18518.21519.18518.3303a.95076.95076,0,0,1-.13761.48795,4.431,4.431,0,0,1-3.07537,2.03941c-.03506.005-.07507-.02753-.23521-.08759" style="fill:#fff"/><path d="M18.1609,23.65271c-.21524-.03-.34285-.03753-.468-.065a4.53,4.53,0,0,1-2.695-1.77917,1.17485,1.17485,0,0,1-.25273-.5355c-.01753-.16515.06754-.44291.18014-.488.12265-.05.32284.1051.488.17266a.06879.06879,0,0,1,.02252.03753,4.02293,4.02293,0,0,0,2.4598,2.38224.83363.83363,0,0,1,.14513.08256,1.219,1.219,0,0,1,.12013.19267" style="fill:#fff"/><path d="M26.80646,5.27859A6.88409,6.88409,0,0,0,29.564,5.699c.19267-.01253.38286-.06256.57552-.08759a1.55925,1.55925,0,0,1,1.31875.503c-.79824.08507-1.55395.20017-2.30966.2327a3.30149,3.30149,0,0,1-2.34216-1.0685" style="fill:#fff"/><path d="M28.00158,10.22344c.27522.07759.528.14766.78072.21772.57052.16516,1.15605.29277,1.71157.508a7.189,7.189,0,0,1,1.23368.68565c.09255.05756.1176.23522.17514.35782-.13513.05506-.28778.18519-.40286.15766a4.46707,4.46707,0,0,1-1.21364-.40288c-.76571-.45543-1.49141-.98842-2.28461-1.52393" style="fill:#fff"/><path d="M22.2197,10.23446c-.80328.53551-1.56647,1.08853-2.37224,1.55645a4.26809,4.26809,0,0,1-1.22364.35785.36394.36394,0,0,1-.29274-.18018.3287.3287,0,0,1,.11008-.29027,7.658,7.658,0,0,1,1.26369-.72317,17.83421,17.83421,0,0,1,1.75414-.518c.25021-.07257.50046-.13513.76071-.20269" style="fill:#fff"/><path d="M23.42933,5.26381a3.21884,3.21884,0,0,1-2.52986,1.0635c-.68565-.07507-1.3763-.13012-2.04441-.19519a1.03962,1.03962,0,0,1,1.0835-.52549,6.51854,6.51854,0,0,0,3.49077-.34282" style="fill:#fff"/><path d="M14.60759,30.29215c.568.12762.64807.57805.80072,1.03347a1.96093,1.96093,0,0,0,1.00092-1.111.70482.70482,0,0,1,.00252.86581c-.15013.22022-.36785.39036-.5255.60808a6.06355,6.06355,0,0,0-.41787.69314c-.08007.14013-.13765.29027-.2052.4379-.05506-.0025-.1076-.0075-.16266-.01-.16013-.82078-.32279-1.644-.49293-2.51736" style="fill:#fff"/><path d="M16.58693,10.58877c-.08258.1026-.16517.2052-.25525.30279-.47545.528-.94838,1.0535-1.43135,1.574a2.48539,2.48539,0,0,1-.4654.42542.40483.40483,0,0,1-.37538.025.4195.4195,0,0,1-.06006-.38785,3.46386,3.46386,0,0,1,.69065-.99842,11.93712,11.93712,0,0,1,1.54143-.9459,1.19948,1.19948,0,0,1,.30279-.08007c.015.02753.03505.05756.05257.08507" style="fill:#fff"/><path d="M33.65134,10.55451c.04-.025.055-.04254.06254-.03754a4.59611,4.59611,0,0,1,2.3472,1.624,2.0792,2.0792,0,0,1,.09759.79825,2.02071,2.02071,0,0,1-.70317-.3228c-.62058-.65811-1.19862-1.36127-1.80416-2.06193" style="fill:#fff"/><path d="M33.76871,30.31767c.23521.26526.46541.54552.71066.80327.20019.20519.3378.25023.4554-.12262a3.27193,3.27193,0,0,1,.5055-.76071c.045.02752.09007.05255.13509.08006-.02749.26526-.04254.533-.08755.79575-.08259.49047-.17518.97591-.28026,1.46136-.01753.08009-.11761.14013-.18019.20769-.07254-.07256-.21519-.14763-.21519-.2227-.00252-.523-.34781-.77571-.68313-1.066a.93957.93957,0,0,1-.36033-1.1761" style="fill:#fff"/><path d="M21.59912,34.80686A2.02874,2.02874,0,0,1,23.3307,34.449a6.75059,6.75059,0,0,1,1.006.30529,2.25779,2.25779,0,0,0,1.70909-.0075,2.97819,2.97819,0,0,1,2.117-.24773,1.14189,1.14189,0,0,1,.47545.28776c-.045.01-.0976.03753-.13261.025a3.19247,3.19247,0,0,0-2.25212.13261,3.10136,3.10136,0,0,1-2.24957-.02,3.2645,3.2645,0,0,0-2.17453-.12012.78675.78675,0,0,1-.23021.0025" style="fill:#fff"/><path d="M31.21258,39.97894c.43788-.3178.78072-.573,1.12852-.81827a1.4159,1.4159,0,0,1,1.33124-.30027,1.135,1.135,0,0,1,.558.41538c.1076.17517.17766.54551.08259.64811-.20019.2177-.43292.02-.58305-.18517-.30531-.41539-.70317-.35284-1.09855-.22271-.23521.07757-.44288.24773-.67812.32781a4.82774,4.82774,0,0,1-.74067.13512" style="fill:#fff"/><path d="M18.87434,39.99245a6.93672,6.93672,0,0,1-.71069-.19518c-.22269-.08257-.42039-.23271-.6456-.30528a.851.851,0,0,0-1.056.26525c-.14265.19018-.36533.38536-.553.16265-.09255-.1101-.035-.45543.06506-.62058a1.25177,1.25177,0,0,1,1.89176-.14764c.33032.25024.66315.493.99595.7382.005.035.00749.06755.01253.10258" style="fill:#fff"/><path d="M35.726,29.65681c0-.09257-.035-.20767.005-.28526a13.48467,13.48467,0,0,1,.87831-1.55394.43661.43661,0,0,1,.74567.06.53634.53634,0,0,1-.19267.80827c-.18014.1076-.39538.15264-.56552.27274-.29278.20519-.558.44292-.87079.69815" style="fill:#fff"/><path d="M14.532,29.58949c-.503-.31027-.98343-.573-1.42382-.89332a.80892.80892,0,0,1-.30779-.54051.5613.5613,0,0,1,.29526-.44542.61087.61087,0,0,1,.55052.15016,4.06162,4.06162,0,0,1,.88583,1.72909" style="fill:#fff"/><path d="M26.82372,12.7025a.92358.92358,0,0,0,1.08351.34033c.49546-.14264.86831.588.62058,1.26619a1.44935,1.44935,0,0,0-.27278-.25023,2.02038,2.02038,0,0,0-.73818-.33032c-.64059-.04754-.83078-.25773-.69313-1.026" style="fill:#fff"/><path d="M23.37553,12.68049c.15762.79825-.01252,1.00344-.68817,1.04349a1.5971,1.5971,0,0,0-.6331.26274,2.50794,2.50794,0,0,0-.38534.35032A.93273.93273,0,0,1,21.779,13.3261a.662.662,0,0,1,.533-.27776.82421.82421,0,0,0,1.0635-.36785" style="fill:#fff"/><path d="M38.65853,34.92423c.3378-.03.66311-.04754.98339-.09257.28526-.04.533.04253.593.3303a2.75759,2.75759,0,0,1-.05006.81827c-.005.02753-.16514.08007-.20515.04753-.44292-.35032-.88084-.71565-1.31875-1.0785-.00752-.0075-.005-.02753-.00248-.025" style="fill:#fff"/><path d="M11.63859,34.91447c-.25525.22522-.463.42292-.68565.60308a4.49093,4.49093,0,0,1-.64563.44542.41731.41731,0,0,1-.31279-.05506,2.40705,2.40705,0,0,1,.03253-.82828c.0976-.28776.37786-.27025.64311-.2277.28026.04254.568.03754.96843.06254" style="fill:#fff"/><path d="M33.52423,5.32513q-.702-.46918-1.40634-.94337l.02-.13261c.69313.1051,1.38378.20769,2.1645.3253-.32528.31279-.553.533-.7782.75068" style="fill:#fff"/><path d="M16.69453,5.31761c-.23272-.2152-.45544-.42289-.78576-.73068.77072-.1226,1.46637-.2352,2.162-.3453.01252.04753.025.09257.03505.14013-.478.31779-.95338.63308-1.41131.93585" style="fill:#fff"/><path d="M24.27736,3.87578h1.68156c-.3053.43041-.59057.83078-.8633,1.20863-.25525-.37785-.548-.80575-.81826-1.20863" style="fill:#fff"/><path d="M15.91756,26.64251c-.28279.57554-.488,1.021-.7257,1.44385-.07007.13013-.23521.20769-.35533.31029-.10008-.14013-.24773-.26775-.28026-.42289a.52534.52534,0,0,1,.13261-.43291c.36785-.30527.76823-.568,1.22868-.89834" style="fill:#fff"/><path d="M37.04077,13.08737a4.13481,4.13481,0,0,1,.98839.30779,7.6865,7.6865,0,0,1,.99844.91086c-.26526,0-.48794.07257-.62306-.01252-.493-.31029-.95843-.67062-1.43135-1.01345.02252-.06506.045-.13012.06758-.19268" style="fill:#fff"/><path d="M34.40155,26.80264a2.385,2.385,0,0,1,1.18358.80577.35266.35266,0,0,1,.07259.28276,3.96947,3.96947,0,0,1-.23773.50046c-.14013-.1151-.32783-.20269-.4129-.35032-.2202-.38786-.39534-.80325-.60554-1.23867" style="fill:#fff"/><path d="M11.29151,14.18714c1.31619-1.096,1.35124-1.11354,1.9593-.97089a1.45655,1.45655,0,0,1-.22272.24523,10.641,10.641,0,0,1-1.05846.74819,2.154,2.154,0,0,1-.66064.13512c-.00748-.05253-.01248-.10509-.01748-.15765" style="fill:#fff"/><path d="M31.79662,7.3898c.055-.30277.10008-.538.16262-.87831.42039.18518.82329.35784,1.30374.57054a1.60829,1.60829,0,0,1-1.46636.30777" style="fill:#fff"/><path d="M18.49072,7.47789c-.533-.06255-.97343-.1126-1.4664-.17015a1.38656,1.38656,0,0,1,1.27121-.69064,3.11972,3.11972,0,0,0,.03.37283,3.86674,3.86674,0,0,0,.16518.488" style="fill:#fff"/><path d="M16.76784,18.808a1.29945,1.29945,0,0,1-.33031-.37284,1.71593,1.71593,0,0,1-.05506-.65311c.00248-.035.19767-.1201.2352-.09009a4.35244,4.35244,0,0,1,.74823.65311c.15261.18519-.12765.44792-.59806.46293" style="fill:#fff"/><path d="M34.36,29.30248A3.03648,3.03648,0,0,0,33.24645,27.203c1.10352.563,1.81921,1.30622,1.11356,2.09945" style="fill:#fff"/><path d="M24.63418,10.05479c-.34032.43291-.67564.87583-1.02849,1.29622-.06506.07757-.21519.07507-.32779.1101a.9667.9667,0,0,1-.01-.35783,2.643,2.643,0,0,1,1.25365-1.17109c.03753.04.07507.08257.11264.1226" style="fill:#fff"/><path d="M25.63113,10.03526c.82325.17518,1.42131.87333,1.27117,1.48889-.62558-.3303-.87583-.97591-1.27117-1.48889" style="fill:#fff"/><path d="M17.0221,27.18876a2.8073,2.8073,0,0,0-1.12856,2.142A.85032.85032,0,0,1,15.831,28.017a13.58467,13.58467,0,0,1,1.096-.90584c.03253.025.06258.05256.09511.07756" style="fill:#fff"/><path d="M36.50553,26.41753c-.19271.17267-.29779.32032-.43544.37036-.08007.03-.22772-.08257-.32027-.16266a1.34164,1.34164,0,0,1-.2152-.28026c-.06758-.1076-.20019-.24773-.17266-.3253.03753-.09759.24773-.23772.30026-.20519a9.39528,9.39528,0,0,1,.84331.603" style="fill:#fff"/><path d="M14.91813,26.09273a7.17842,7.17842,0,0,1-.65564.70067c-.04253.03754-.28274-.09009-.35532-.19769-.05006-.07256.005-.26275.06506-.36535a.88158.88158,0,0,1,.31779-.32529.69845.69845,0,0,1,.42039-.06507c.07507.015.13261.15516.20772.25273" style="fill:#fff"/><path d="M17.60839,28.011c-.2953.61308-.58056,1.20363-.86582,1.79168-.42039-.37036-.14013-.96341.86582-1.79168" style="fill:#fff"/><path d="M32.10189,40.36255c.26522-.13762.46541-.23772.6606-.33781a.45217.45217,0,0,1,.6381.09258.62363.62363,0,0,1-.025.84329c-.07507-1.04347-.7782-.4329-1.27366-.59806" style="fill:#fff"/><path d="M33.4484,29.8645a9.33292,9.33292,0,0,0-.34032-.93085,9.07411,9.07411,0,0,0-.5105-.83578c.72569.24773,1.24868,1.2937.85082,1.76663" style="fill:#fff"/><path d="M18.00675,40.4151a2.107,2.107,0,0,0-.74822-.06506c-.19767.06-.34533.30278-.52547.48044a.55147.55147,0,0,1,.12008-.72567.89968.89968,0,0,1,.63311-.05,2.10118,2.10118,0,0,1,.54051.28026c-.00752.02752-.015.05255-.02.08007" style="fill:#fff"/><path d="M32.58837,35.34937c.16262.26026.35033.42542.33028.56054-.01748.14263-.2352.36283-.35781.35533a.52149.52149,0,0,1-.36536-.35783c.00252-.15515.20271-.30529.39289-.558" style="fill:#fff"/><path d="M17.63543,35.36638c.18514.22522.41035.39038.38786.498a.61567.61567,0,0,1-.37786.40037c-.09511.02252-.33784-.2202-.35533-.36283-.015-.13513.18015-.29529.34533-.53552" style="fill:#fff"/><path d="M31.83564,38.421c-.19771.15014-.32031.31279-.42291.30029-.13012-.015-.24524-.17016-.36285-.26525.1076-.08759.20772-.23772.3228-.25024.11512-.015.24773.1076.463.2152" style="fill:#fff"/><path d="M18.82054,38.08392c.14513.14764.24269.24523.34028.34532-.10007.1026-.20767.29778-.29775.28777-.13264-.01251-.25276-.16766-.37785-.26524.09507-.1051.19015-.2077.33532-.36785" style="fill:#fff"/><path d="M54.5836,12.36869h5.63774c4.284,0,6.17076,2.32467,6.17076,6.13323,0,3.93617-2.10695,6.42348-6.2083,6.42348H54.5836Zm4.7044,9.50136h.46041c1.35376,0,1.71909-.533,1.71909-3.29306,0-2.72755-.36533-3.16795-1.649-3.16795H59.288Z" style="fill:#fff"/><polygon points="70.009 15.573 66.951 15.573 66.951 12.37 77.696 12.37 77.696 15.573 74.693 15.573 74.693 24.926 70.009 24.926 70.009 15.573" style="fill:#fff"/><path d="M86.2016,22.839l-.31279,2.087H81.27952l3.0178-12.55672h6.57363l3.11039,12.55672h-4.852l-.36285-2.087Zm1.92181-3.44071c-.12765-.97089-.42043-2.83513-.6231-4.284h-.1076c-.18267,1.3913-.38286,2.94775-.60306,4.284Z" style="fill:#fff"/><path d="M98.27711,21.75871a.88181.88181,0,0,0,.97087.8433c.493,0,.69565-.22022.69565-.513,0-.38535-.40287-.513-1.19111-.67814-3.40566-.69565-4.07878-1.68406-4.07878-3.18546,0-2.01187,1.664-3.29307,4.5167-3.29307,3.58836,0,4.63181,1.82921,4.68439,3.18547h-3.751A.84636.84636,0,0,0,99.248,17.237c-.45792,0-.6606.18519-.6606.47795,0,.29027.25773.38536,1.81169.76822,2.47232.60557,3.64338,1.42883,3.64338,3.238,0,1.90678-1.3913,3.44321-4.81448,3.44321-3.33059,0-4.68435-1.53643-4.79447-3.40567Z" style="fill:#fff"/><path d="M105.1903,11.87574H109.727v2.54487H105.1903Zm0,3.29557H109.727v9.75411H105.1903Z" style="fill:#fff"/><path d="M120.945,21.77772a24.44919,24.44919,0,0,0,.14765,3.14794h-3.95369a3.10716,3.10716,0,0,1-.2202-.89584,3.61979,3.61979,0,0,1-2.85266,1.13357,2.92344,2.92344,0,0,1-3.13043-3.07288c0-1.53893.7307-3.29808,4.57427-3.29808h1.04349v-.76821c0-.548-.20019-.75069-.53051-.75069-.45792,0-.583.29527-.6231.89832H111.266c.09007-1.609,1.18862-3.24051,4.90455-3.24051,3.89615,0,4.77446,1.51892,4.77446,3.49576Zm-4.39157-1.1711h-.4029c-.60306,0-.80325.44042-.80325.98844,0,.51048.27278.80574.6231.80574.54548,0,.58305-.44041.58305-1.46636Z" style="fill:#fff"/><rect x="54.40044" y="27.60789" width="1.12604" height="7.67966" style="fill:#fff"/><path d="M57.0862,29.81922h1.06346v.578h.02005a1.68809,1.68809,0,0,1,1.37625-.6456,1.7944,1.7944,0,0,1,1.20363.47794,1.891,1.891,0,0,1,.56552,1.42132v3.6359H60.25165v-3.258a1.18308,1.18308,0,0,0-.29778-.87581.98815.98815,0,0,0-.74823-.30529A1.01243,1.01243,0,0,0,58.45,31.153a1.184,1.184,0,0,0-.30031.87581v3.258H57.0862Z" style="fill:#fff"/><polygon points="62.128 29.819 63.256 29.819 64.497 33.653 64.52 33.653 65.756 29.819 66.887 29.819 64.948 35.287 64.069 35.287 62.128 29.819" style="fill:#fff"/><path d="M68.40424,32.9684a1.29039,1.29039,0,0,0,.37038,1.00094,1.20056,1.20056,0,0,0,.8958.35033,1.5616,1.5616,0,0,0,1.15861-.533l.7732.67814a2.45891,2.45891,0,0,1-1.90929.88581,2.6583,2.6583,0,0,1-.81573-.12762,1.947,1.947,0,0,1-.38789-.18267,2.01062,2.01062,0,0,1-.37282-.24772,2.1946,2.1946,0,0,1-.54551-.85331,3.48258,3.48258,0,0,1-.22773-1.37127,3.847,3.847,0,0,1,.2002-1.34626,2.3592,2.3592,0,0,1,.508-.86581,1.91932,1.91932,0,0,1,.70813-.46292,2.222,2.222,0,0,1,.76571-.14264,2.185,2.185,0,0,1,1.53643.61809,2.27,2.27,0,0,1,.64563,1.69656v.90334Zm2.24212-.90334a1.44176,1.44176,0,0,0-.33532-.97089,1.15314,1.15314,0,0,0-1.574,0,1.50731,1.50731,0,0,0-.33284.97089Z" style="fill:#fff"/><path d="M73.156,33.61676a2.18162,2.18162,0,0,0,1.679.70317,1.39019,1.39019,0,0,0,.75071-.18518.58338.58338,0,0,0,.29278-.51547.46868.46868,0,0,0-.17518-.41288.89888.89888,0,0,0-.47545-.13013l-.94085-.08509a1.7715,1.7715,0,0,1-1.08851-.46293,1.42787,1.42787,0,0,1-.44044-1.09351,1.49625,1.49625,0,0,1,.57805-1.26119,2.22638,2.22638,0,0,1,1.39882-.42289,4.31835,4.31835,0,0,1,.65811.04756,3.22127,3.22127,0,0,1,.54552.14763,3.05066,3.05066,0,0,1,.87831.553l-.66064.79574a2.92089,2.92089,0,0,0-.65059-.37785,2.0932,2.0932,0,0,0-.77323-.13263,1.02847,1.02847,0,0,0-.70065.18267.60846.60846,0,0,0-.2102.47545.377.377,0,0,0,.15766.32279.91282.91282,0,0,0,.543.19519l.87831.06757a1.62885,1.62885,0,0,1,1.19615.51548,1.792,1.792,0,0,1,.34529,1.126,1.44862,1.44862,0,0,1-.63059,1.22864,2.65691,2.65691,0,0,1-1.56644.45292A3.30837,3.30837,0,0,1,72.41273,34.37Z" style="fill:#fff"/><path d="M78.24118,28.15391h1.06347v1.66655h.77323v.8408h-.77323v3.188q-.01123.41664.37537.40538h.39786v1.03347h-.553a1.24258,1.24258,0,0,1-.91833-.35784,1.29551,1.29551,0,0,1-.36533-.98842V30.66126h-.53551v-.8408h.53551Z" style="fill:#fff"/><path d="M81.13214,29.81922h1.066v.578h.02a1.77357,1.77357,0,0,1,1.42883-.6456,2.02966,2.02966,0,0,1,.91585.19518,2.72657,2.72657,0,0,1,.62558.52048,2.15114,2.15114,0,0,1,1.72413-.71566,1.88823,1.88823,0,0,1,1.24365.47794,1.85313,1.85313,0,0,1,.578,1.42132v3.6359h-1.066v-3.258a1.17482,1.17482,0,0,0-.30278-.87581,1.06739,1.06739,0,0,0-.78825-.30529,1.097,1.097,0,0,0-.79576.30529,1.15913,1.15913,0,0,0-.31279.87581v3.258H84.40519v-3.258a1.17482,1.17482,0,0,0-.30279-.87581,1.097,1.097,0,0,0-.79576-.30529,1.06735,1.06735,0,0,0-.78824.30529,1.14352,1.14352,0,0,0-.32028.87581v3.258h-1.066Z" style="fill:#fff"/><path d="M91.16473,32.9684a1.29813,1.29813,0,0,0,.36785,1.00094,1.20636,1.20636,0,0,0,.89832.35033,1.56547,1.56547,0,0,0,1.15857-.533l.77324.67814a2.46253,2.46253,0,0,1-1.90928.88581,2.65851,2.65851,0,0,1-.81577-.12762,1.884,1.884,0,0,1-.38786-.18267,1.93224,1.93224,0,0,1-.37286-.24772,2.16687,2.16687,0,0,1-.54551-.85331,3.48338,3.48338,0,0,1-.22768-1.37127,3.84714,3.84714,0,0,1,.20015-1.34626,2.3264,2.3264,0,0,1,.508-.86581,1.91922,1.91922,0,0,1,.70817-.46292,2.222,2.222,0,0,1,.76572-.14264,2.17461,2.17461,0,0,1,1.53391.61809,2.27143,2.27143,0,0,1,.64811,1.69656v.90334Zm2.2396-.90334a1.42841,1.42841,0,0,0-.33284-.97089,1.15314,1.15314,0,0,0-1.574,0,1.507,1.507,0,0,0-.3328.97089Z" style="fill:#fff"/><path d="M95.76,29.81922h1.06346v.578h.02a1.69141,1.69141,0,0,1,1.37625-.6456,1.7944,1.7944,0,0,1,1.20363.47794,1.89107,1.89107,0,0,1,.56552,1.42132v3.6359H98.92545v-3.258a1.183,1.183,0,0,0-.29779-.87581.98436.98436,0,0,0-.74822-.30529,1.003,1.003,0,0,0-.75319.30529,1.17482,1.17482,0,0,0-.30279.87581v3.258H95.76Z" style="fill:#fff"/><path d="M101.62,28.15391h1.06346v1.66655h.77323v.8408h-.77323v3.188q-.01123.41664.37537.40538h.39786v1.03347h-.553a1.24255,1.24255,0,0,1-.91833-.35784,1.28624,1.28624,0,0,1-.36533-.98842V30.66126h-.53552v-.8408H101.62Z" style="fill:#fff"/><polygon points="107.233 27.608 108.359 27.608 108.359 34.191 111.988 34.191 111.988 35.287 107.233 35.287 107.233 27.608" style="fill:#fff"/><path d="M113.203,28.15391h1.061v1.66655h.7732v.8408h-.7732v3.188c-.005.27776.12009.41289.37786.40538h.39534v1.03347h-.553a1.24075,1.24075,0,0,1-.91585-.35784,1.28628,1.28628,0,0,1-.36533-.98842V30.66126h-.53551v-.8408h.53551Z" style="fill:#fff"/><path d="M119.30021,34.71554a1.779,1.779,0,0,1-1.37129.63559,1.72408,1.72408,0,0,1-.82077-.20519,1.772,1.772,0,0,1-.59557-.508,1.35439,1.35439,0,0,1-.29027-.70067,7.51938,7.51938,0,0,1-.08755-1.3913,7.57308,7.57308,0,0,1,.08755-1.4013,1.348,1.348,0,0,1,.29027-.68064,1.62391,1.62391,0,0,1,1.41634-.71316,1.67616,1.67616,0,0,1,.75571.17266,2.97508,2.97508,0,0,1,.61558.47295V27.60891h1.06346v7.67716h-1.06346Zm-1.046-3.86862a1.03711,1.03711,0,0,0-.57557.13013.8575.8575,0,0,0-.32279.39288,2.142,2.142,0,0,0-.12761.538c-.02.2077-.03253.42289-.03253.64059a6.01641,6.01641,0,0,0,.03253.60808,2.16913,2.16913,0,0,0,.12761.56052.91942.91942,0,0,0,.32279.39036.93521.93521,0,0,0,.57557.14765.99038.99038,0,0,0,.59553-.15766.75245.75245,0,0,0,.30027-.40288,1.947,1.947,0,0,0,.14013-.553c.00752-.20269.01-.40038.01-.59307,0-.2127-.00252-.41287-.01-.60806a1.93113,1.93113,0,0,0-.14013-.538.73772.73772,0,0,0-.30027-.40036,1.00832,1.00832,0,0,0-.59553-.15516" style="fill:#fff"/><polygon points="56.903 41.258 57.839 41.258 60.817 46.083 60.834 46.083 60.834 41.258 61.83 41.258 61.83 48.044 60.887 48.044 57.916 43.22 57.896 43.22 57.896 48.044 56.903 48.044 56.903 41.258" style="fill:#fff"/><path d="M66.78946,46.52605H64.29714L63.79167,48.045H62.73818l2.38725-6.78633h.83578L68.34842,48.045H67.29993Zm-.28274-.91085-.95342-2.96776h-.01748l-.9509,2.96776Z" style="fill:#fff"/><path d="M69.31685,46.39968a2.83557,2.83557,0,0,0,1.86922.67814c.85331-.01251,1.2887-.32781,1.29871-.94589.00752-.508-.28026-.81076-.85579-.91334-.26525-.03755-.55552-.08008-.87083-.12513a2.13084,2.13084,0,0,1-1.2887-.6481,1.81707,1.81707,0,0,1-.45792-1.25617,1.8849,1.8849,0,0,1,.573-1.43634,2.19525,2.19525,0,0,1,1.57144-.55052,3.62146,3.62146,0,0,1,2.132.70317l-.558.84328a2.91417,2.91417,0,0,0-1.62654-.52049,1.22641,1.22641,0,0,0-.7682.23522.90239.90239,0,0,0-.33032.73569.77691.77691,0,0,0,.22272.533,1.28657,1.28657,0,0,0,.70814.33531c.18018.03.42791.06506.73818.10509a2.01711,2.01711,0,0,1,1.36629.68565,1.9595,1.9595,0,0,1,.43791,1.26868q-.0488,1.94431-2.30466,1.97434a3.68011,3.68011,0,0,1-2.50982-.92586Z" style="fill:#fff"/><path d="M74.70639,41.25864h2.29714a2.19561,2.19561,0,0,1,2.00188,1.14356,2.04408,2.04408,0,0,1,.30027.80326,13.41077,13.41077,0,0,1,.05254,1.44635,10.28847,10.28847,0,0,1-.07755,1.52642,1.84239,1.84239,0,0,1-.10764.39036,3.2261,3.2261,0,0,1-.18767.35033,2.30831,2.30831,0,0,1-.80072.79074A2.23,2.23,0,0,1,76.936,48.045H74.70639Zm.99344,5.81792h1.19359a1.33857,1.33857,0,0,0,1.21615-.593,1.13161,1.13161,0,0,0,.21268-.55552,12.11653,12.11653,0,0,0,.04005-1.24115c0-.588-.01252-1.01094-.04005-1.26618a1.18139,1.18139,0,0,0-.26026-.62059,1.29769,1.29769,0,0,0-1.16857-.573H75.69983Z" style="fill:#fff"/><path d="M83.90019,46.52605H81.41038l-.5055,1.51892h-1.056l2.38973-6.78633h.8333L85.46166,48.045h-1.051Zm-.28275-.91085-.9509-2.96776H82.649l-.95338,2.96776Z" style="fill:#fff"/><path d="M89.84846,47.51172a2.1741,2.1741,0,0,1-1.54892.58805,2.2584,2.2584,0,0,1-1.29374-.39037,2.23461,2.23461,0,0,1-.76571-.82827c-.04754-.10259-.09007-.20019-.13009-.29277a1.947,1.947,0,0,1-.09011-.36534,11.144,11.144,0,0,1-.07006-1.57147,11.12166,11.12166,0,0,1,.07006-1.58148,1.88853,1.88853,0,0,1,.2202-.6481,2.31679,2.31679,0,0,1,.76571-.83828,2.19952,2.19952,0,0,1,1.29374-.38035,2.234,2.234,0,0,1,1.30619.38035,2.2595,2.2595,0,0,1,.74823.83828,1.61736,1.61736,0,0,1,.22768.6481,13.108,13.108,0,0,1,.06006,1.58148q0,1.05474-.045,1.47638a1.77823,1.77823,0,0,1-.1927.65061l.86583.71316-.59057.70565ZM88.192,46.14794l.59053-.70315.77071.62809a6.72283,6.72283,0,0,0,.0926-1.42133,8.954,8.954,0,0,0-.06759-1.36627,1.18149,1.18149,0,0,0-.26521-.563,1.20506,1.20506,0,0,0-.3979-.35033,1.39822,1.39822,0,0,0-.61807-.14513,1.32714,1.32714,0,0,0-.60557.14513,1.23617,1.23617,0,0,0-.41287.35033,1.11112,1.11112,0,0,0-.26025.563,8.44747,8.44747,0,0,0-.07255,1.36627,8.29275,8.29275,0,0,0,.07255,1.35877,1.13586,1.13586,0,0,0,.26025.573,1.18383,1.18383,0,0,0,.41287.34031,1.14,1.14,0,0,0,.60557.15264,1.088,1.088,0,0,0,.73571-.23772Z" style="fill:#fff"/><path d="M91.93044,43.03979h.9409v.96841h-.9409Zm0,2.16453h.9409v.9684h-.9409Z" style="fill:#fff"/><path d="M100.99189,46.14794a2.5818,2.5818,0,0,1-.82577,1.45136,2.30767,2.30767,0,0,1-1.48389.50047,2.25822,2.25822,0,0,1-1.2937-.39037,2.23423,2.23423,0,0,1-.76572-.82827c-.05006-.10259-.09259-.20019-.13012-.29277a1.94308,1.94308,0,0,1-.09012-.36534,11.27248,11.27248,0,0,1-.06754-1.57147,11.2528,11.2528,0,0,1,.06754-1.58148,1.94358,1.94358,0,0,1,.22024-.6481,2.31637,2.31637,0,0,1,.76572-.83828,2.37521,2.37521,0,0,1,2.84513.20018,2.591,2.591,0,0,1,.75823,1.42633h-1.0585a1.46876,1.46876,0,0,0-.44291-.69815,1.25589,1.25589,0,0,0-.81325-.28526,1.32415,1.32415,0,0,0-.60306.14513,1.2458,1.2458,0,0,0-.41539.35033,1.13,1.13,0,0,0-.25777.563,8.44747,8.44747,0,0,0-.07255,1.36627,8.29275,8.29275,0,0,0,.07255,1.35877,1.15525,1.15525,0,0,0,.25777.573,1.21623,1.21623,0,0,0,.41539.34031,1.13975,1.13975,0,0,0,.60554.15264,1.3377,1.3377,0,0,0,1.25368-.92837Z" style="fill:#fff"/><path d="M105.22359,46.52605h-2.48981l-.5055,1.51892h-1.056l2.38974-6.78633h.83329l2.38974,6.78633h-1.051Zm-.28274-.91085-.9509-2.96776h-.01753L103.019,45.6152Z" style="fill:#fff"/><path d="M107.67411,41.25864h2.29714a2.19559,2.19559,0,0,1,2.00187,1.14356,2.04393,2.04393,0,0,1,.30027.80326,13.40808,13.40808,0,0,1,.05254,1.44635,10.28847,10.28847,0,0,1-.07755,1.52642,2.00535,2.00535,0,0,1-.10763.39036,3.2261,3.2261,0,0,1-.18767.35033,2.30825,2.30825,0,0,1-.80073.79074,2.23,2.23,0,0,1-1.24868.33531h-2.22956Zm.99343,5.81792h1.19111a1.34015,1.34015,0,0,0,1.21864-.593A1.18209,1.18209,0,0,0,111.29,45.928a12.11559,12.11559,0,0,0,.04006-1.24115c0-.588-.01253-1.01094-.04006-1.26618a1.18131,1.18131,0,0,0-.26025-.62059,1.29922,1.29922,0,0,0-1.17106-.573h-1.19111Z" style="fill:#fff"/><polygon points="114.792 42.171 112.99 42.171 112.99 41.258 117.589 41.258 117.589 42.171 115.785 42.171 115.785 48.044 114.792 48.044 114.792 42.171" style="fill:#fff"/></g></g></svg>