<svg xmlns="http://www.w3.org/2000/svg" viewBox="0 0 123.69589 41.21354"><g id="图层_2" data-name="图层 2"><g id="Layer_1" data-name="Layer 1"><polygon points="51.165 16.429 49.262 16.429 49.262 7.639 45.912 7.639 45.912 6.048 54.506 6.048 54.506 7.639 51.165 7.639 51.165 16.429" style="fill:#fff"/><path d="M62.23019,12.676a4.79094,4.79094,0,0,1-.26471,1.6119,3.49015,3.49015,0,0,1-.75747,1.24757,3.265,3.265,0,0,1-1.19254.80464,4.06182,4.06182,0,0,1-1.55946.28568,4.1371,4.1371,0,0,1-1.58306-.28568,3.24331,3.24331,0,0,1-1.19254-.80464,3.55511,3.55511,0,0,1-.75222-1.24757,5.17764,5.17764,0,0,1,.00262-3.229,3.62973,3.62973,0,0,1,.75747-1.24757,3.33035,3.33035,0,0,1,1.19515-.80463,4.09777,4.09777,0,0,1,1.55685-.28045,4.24872,4.24872,0,0,1,1.59092.28045,3.30979,3.30979,0,0,1,1.18992.80463,3.53482,3.53482,0,0,1,.7496,1.24757,4.867,4.867,0,0,1,.25947,1.61713m-1.90281,0a3.78414,3.78414,0,0,0-.13892-1.05887,2.30939,2.30939,0,0,0-.3879-.76532,1.57638,1.57638,0,0,0-.6002-.46915,1.90249,1.90249,0,0,0-.76008-.15464,1.87978,1.87978,0,0,0-.74959.15464,1.58421,1.58421,0,0,0-.58972.46915,2.26425,2.26425,0,0,0-.39052.76532,4.01187,4.01187,0,0,0,0,2.11249,2.1391,2.1391,0,0,0,.39314.7627,1.61982,1.61982,0,0,0,.595.46654,1.7846,1.7846,0,0,0,.75746.15989,1.73946,1.73946,0,0,0,.75483-.15989,1.64673,1.64673,0,0,0,.58972-.46654,2.22092,2.22092,0,0,0,.3879-.7627,3.78592,3.78592,0,0,0,.13892-1.05362" style="fill:#fff"/><path d="M68.77132,16.42444a5.03308,5.03308,0,0,1-.74173.14415,6.44985,6.44985,0,0,1-.80464.05767,3.38716,3.38716,0,0,1-1.549-.30926,1.75451,1.75451,0,0,1-.84919-.88066,2.83017,2.83017,0,0,1-.17561-1.1139V10.42508H63.24371V8.91016h1.40745V6.81076h1.8373v2.0994h2.17015v1.51492H66.48846v3.651a1.253,1.253,0,0,0,.131.64738,1.02831,1.02831,0,0,0,.92258.35646,4.21883,4.21883,0,0,0,.63166-.04981c.21229-.0367.40886-.076.59758-.12842Z" style="fill:#fff"/><path d="M75.11641,16.42444a4.89983,4.89983,0,0,1-.74175.14415,6.381,6.381,0,0,1-.80462.05767,3.38723,3.38723,0,0,1-1.549-.30926,1.723,1.723,0,0,1-.84394-.88066,2.77339,2.77339,0,0,1-.18085-1.1139V10.42508H69.59142V8.91016h1.40483V6.81076h1.8373v2.0994H75.009v1.51492h-2.1754v3.651a1.253,1.253,0,0,0,.131.64738,1.03056,1.03056,0,0,0,.9252.35646,4.21152,4.21152,0,0,0,.629-.04981,5.969,5.969,0,0,0,.59759-.12842Z" style="fill:#fff"/><path d="M80.73914,15.14227a6.013,6.013,0,0,0,1.11913-.11008,8.621,8.621,0,0,0,1.17945-.30926v1.46773a5.586,5.586,0,0,1-1.09294.29355,8.129,8.129,0,0,1-1.53064.14153,5.42886,5.42886,0,0,1-1.51755-.20968,3.30587,3.30587,0,0,1-1.25019-.65786,3.24883,3.24883,0,0,1-.85182-1.19252,4.49081,4.49081,0,0,1-.31712-1.76654,4.92987,4.92987,0,0,1,.3014-1.79273,3.52883,3.52883,0,0,1,.78892-1.27378,3.24859,3.24859,0,0,1,1.13749-.75485,3.52512,3.52512,0,0,1,1.32358-.25161,3.80315,3.80315,0,0,1,1.3131.21492,2.64222,2.64222,0,0,1,1.03791.68408,3.14168,3.14168,0,0,1,.68407,1.19516,5.54451,5.54451,0,0,1,.24374,1.7403c-.00262.25687-.01048.47439-.02358.65524H78.35667a2.25,2.25,0,0,0,.2359.89113,1.72777,1.72777,0,0,0,.50323.59757,2.17173,2.17173,0,0,0,.73648.33286,3.8252,3.8252,0,0,0,.90686.10484m-.73387-4.98244a1.39954,1.39954,0,0,0-1.093.477,1.7094,1.7094,0,0,0-.31188.51633,2.612,2.612,0,0,0-.15725.6264h2.95644a2.14143,2.14143,0,0,0-.08913-.6264,1.54845,1.54845,0,0,0-.26209-.51633,1.31,1.31,0,0,0-.4377-.35122,1.402,1.402,0,0,0-.60543-.12581" style="fill:#fff"/><path d="M87.02605,9.95644h.03143a2.6969,2.6969,0,0,1,.40889-.456,2.81374,2.81374,0,0,1,.56873-.39577,3.43758,3.43758,0,0,1,.70243-.27519,3.0444,3.0444,0,0,1,.82035-.10484,3.34063,3.34063,0,0,1,.79416.09172,2.45366,2.45366,0,0,1,.70241.29093,2.26172,2.26172,0,0,1,.5609.51633,2.39364,2.39364,0,0,1,.38526.747,2.45082,2.45082,0,0,1,.10223.52156c.01571.19133.02883.40887.02883.65786v4.88023H90.28913V11.83568a4.951,4.951,0,0,0-.01834-.51633,1.5002,1.5002,0,0,0-.0865-.38266.94005.94005,0,0,0-.42458-.51109,1.37919,1.37919,0,0,0-.6867-.15463,2.25565,2.25565,0,0,0-1.02479.249,2.66236,2.66236,0,0,0-.87278.73387v5.17639H85.3329V8.9107h1.5254Z" style="fill:#fff"/><path d="M96.38365,8.25806c0,.38529-.00788.70767-.01835.95928-.01572.25161-.0367.47439-.06815.67882h.03145A3.53223,3.53223,0,0,1,96.727,9.4611a2.744,2.744,0,0,1,.52156-.37482,2.78378,2.78378,0,0,1,.64477-.26209,3.0132,3.0132,0,0,1,.79677-.0996,3.283,3.283,0,0,1,.72077.076,2.43324,2.43324,0,0,1,.66048.228,2.14658,2.14658,0,0,1,.56087.40363,2.09314,2.09314,0,0,1,.41937.58709,2.47283,2.47283,0,0,1,.22016.66834,5.20348,5.20348,0,0,1,.06814.90685v4.83568H99.5v-4.5893a3.86864,3.86864,0,0,0-.02883-.56876,1.53073,1.53073,0,0,0-.10746-.38265.97947.97947,0,0,0-.4639-.48225,1.66757,1.66757,0,0,0-.69455-.13629,2.06771,2.06771,0,0,0-.98812.25423,2.73018,2.73018,0,0,0-.83345.72863v5.17639h-1.8373V5.19416h1.8373Z" style="fill:#fff"/><path d="M108.09961,15.62953h-.02884a4.13914,4.13914,0,0,1-.37479.33547,4.196,4.196,0,0,1-.498.32238,2.82451,2.82451,0,0,1-1.35765.3381,2.95829,2.95829,0,0,1-.9986-.17037,2.18652,2.18652,0,0,1-.79939-.47963,2.22753,2.22753,0,0,1-.52418-.76008,2.48533,2.48533,0,0,1-.19135-.99858,2.62216,2.62216,0,0,1,.22018-1.08508,2.32266,2.32266,0,0,1,.62117-.81511,2.65045,2.65045,0,0,1,.94354-.50585,3.90735,3.90735,0,0,1,1.22136-.1756,6.87393,6.87393,0,0,1,.90161.06027,7.11562,7.11562,0,0,1,.71553.14677v-.30141a1.48553,1.48553,0,0,0-.0865-.51108,1.19371,1.19371,0,0,0-.28831-.43246,1.37278,1.37278,0,0,0-.51632-.30141,2.38971,2.38971,0,0,0-.7758-.1127,5.22723,5.22723,0,0,0-1.11654.1258,8.60239,8.60239,0,0,0-1.20826.36957V9.24485a5.94874,5.94874,0,0,1,1.2004-.38,6.67026,6.67026,0,0,1,1.33406-.13891,4.64409,4.64409,0,0,1,1.43892.19918,3.032,3.032,0,0,1,1.03265.55566,2.25977,2.25977,0,0,1,.62116.83347,2.61692,2.61692,0,0,1,.20707,1.04837v2.83064c0,.498,0,.92519.01309,1.279.0105.3617.0236.67884.03408.95665h-1.6643Zm-.1494-2.40344c-.173-.04194-.38-.08125-.60545-.1127a4.62908,4.62908,0,0,0-.68669-.04979,1.83061,1.83061,0,0,0-1.06672.26733.91387.91387,0,0,0-.39577.81775,1.10981,1.10981,0,0,0,.0891.44817.99693.99693,0,0,0,.24114.31453,1.09248,1.09248,0,0,0,.35645.18346,1.38556,1.38556,0,0,0,.42458.06291,1.73041,1.73041,0,0,0,.52683-.076,2.47113,2.47113,0,0,0,.456-.18347,2.22341,2.22341,0,0,0,.38-.25159,2.0047,2.0047,0,0,0,.28045-.27521Z" style="fill:#fff"/><path d="M121.85861,11.853c0-.16249-.00788-.31189-.021-.4508a1.98887,1.98887,0,0,0-.05243-.36693,1.02769,1.02769,0,0,0-.33286-.5504,1.08728,1.08728,0,0,0-.69979-.21492,1.82839,1.82839,0,0,0-.49273.06814,2.5471,2.5471,0,0,0-.51109.19919,2.762,2.762,0,0,0-.89375.71553v5.17639h-1.83993V11.853c0-.16249-.00786-.31189-.01571-.4508a2.56887,2.56887,0,0,0-.05241-.36693,1.06063,1.06063,0,0,0-.33288-.5504,1.08751,1.08751,0,0,0-.705-.21492,1.82834,1.82834,0,0,0-.49273.06814,2.63048,2.63048,0,0,0-.50585.19919,2.69077,2.69077,0,0,0-.48227.30928,2.66073,2.66073,0,0,0-.41673.40625v5.17639h-1.8373V8.90966h1.52016l.16775,1.04574h.03407a3.1787,3.1787,0,0,1,.40625-.456,2.98575,2.98575,0,0,1,.56612-.39315,3.63308,3.63308,0,0,1,.69193-.27783,2.98335,2.98335,0,0,1,.79415-.1022,2.7149,2.7149,0,0,1,1.3367.32762,2.10342,2.10342,0,0,1,.90423,1.02741h.03408a3.85805,3.85805,0,0,1,.48225-.5504,3.18659,3.18659,0,0,1,.59495-.4246,3.04947,3.04947,0,0,1,.70243-.28045,3.17772,3.17772,0,0,1,.80463-.09958,2.6234,2.6234,0,0,1,1.35242.33548,2.24761,2.24761,0,0,1,.84132.90161,1.69344,1.69344,0,0,1,.13106.32236,3.35942,3.35942,0,0,1,.09172.39315c.021.14678.03669.30667.04981.48489.0131.173.01572.37218.01572.60281v4.66269h-1.83728Z" style="fill:#fff"/><path d="M49.52221,25.67593H47.4831l-.52681,1.376H45.90266l2.144-5.40965h.90685L51.1,27.05191H50.05426Zm-1.02742-2.73106c-.18609.56613-.35907,1.03791-.50322,1.42058l-.18872.48225h1.40222l-.18609-.48225c-.14678-.38267-.31713-.85707-.50584-1.42058Z" style="fill:#fff"/><path d="M54.735,26.967a2.292,2.292,0,0,1-.443.13105,2.73475,2.73475,0,0,1-.55564.05766,2.50423,2.50423,0,0,1-.79153-.12318,1.78834,1.78834,0,0,1-.64475-.36694,1.69479,1.69479,0,0,1-.43246-.6264,2.23412,2.23412,0,0,1-.15727-.88326,2.32969,2.32969,0,0,1,.18085-.96976,1.91007,1.91007,0,0,1,.47177-.65786,1.94192,1.94192,0,0,1,.65-.37217,2.31049,2.31049,0,0,1,.71551-.11794,2.65023,2.65023,0,0,1,.50585.04717,2.11476,2.11476,0,0,1,.44032.1258v.78105a2.44457,2.44457,0,0,0-.37742-.12319,1.89582,1.89582,0,0,0-.42983-.04718,1.28357,1.28357,0,0,0-.44032.07339.95862.95862,0,0,0-.3748.22278,1.05054,1.05054,0,0,0-.25685.40625,1.73314,1.73314,0,0,0-.09436.60806,1.55624,1.55624,0,0,0,.07339.4875,1.13831,1.13831,0,0,0,.20967.39052,1.02224,1.02224,0,0,0,.35908.25948,1.2049,1.2049,0,0,0,.50846.0996,1.94927,1.94927,0,0,0,.47963-.05241,2.908,2.908,0,0,0,.40364-.13106Z" style="fill:#fff"/><path d="M58.35038,23.575l.03931-.44032H59.231v5.79756h-.95927V27.302c0-.11271.00262-.22279.00524-.31975s.00524-.17561.00786-.228H58.277a1.39766,1.39766,0,0,1-.20443.14151,1.9201,1.9201,0,0,1-.25423.131,1.45063,1.45063,0,0,1-.29618.09436,1.84326,1.84326,0,0,1-.346.03407,1.65368,1.65368,0,0,1-.60544-.1127,1.47255,1.47255,0,0,1-.532-.3512,1.721,1.721,0,0,1-.37218-.62117,2.64674,2.64674,0,0,1-.14152-.90161,2.72534,2.72534,0,0,1,.14677-.92257,1.99745,1.99745,0,0,1,.38-.671,1.56658,1.56658,0,0,1,1.18729-.5373,1.35987,1.35987,0,0,1,.63166.14677,1.43129,1.43129,0,0,1,.4639.39053Zm-.93568,2.8149a.94344.94344,0,0,0,.2752-.03669,1.21913,1.21913,0,0,0,.23851-.09172,1.01516,1.01516,0,0,0,.19657-.1258,1.08075,1.08075,0,0,0,.14677-.13891V24.259a1.5346,1.5346,0,0,0-.36431-.31714.8614.8614,0,0,0-.46654-.13891.815.815,0,0,0-.304.06029.7893.7893,0,0,0-.304.20444,1.13075,1.13075,0,0,0-.228.4141,2.11544,2.11544,0,0,0-.0865.64739,2.16225,2.16225,0,0,0,.05766.5268,1.13562,1.13562,0,0,0,.16775.39577.76394.76394,0,0,0,.28306.25161.83721.83721,0,0,0,.38791.08648" style="fill:#fff"/><path d="M62.178,27.15518a2.12768,2.12768,0,0,1-.97762-.20181,1.3553,1.3553,0,0,1-.74174-.93829,2.14832,2.14832,0,0,1-.05242-.48489V23.13465h.95928V25.428a1.61988,1.61988,0,0,0,.02882.34072.89548.89548,0,0,0,.08388.249.62418.62418,0,0,0,.27519.26471.97445.97445,0,0,0,.42461.08649.99592.99592,0,0,0,.44294-.09434.63567.63567,0,0,0,.27782-.29617,1.21957,1.21957,0,0,0,.09435-.52944v-2.3143h.95665v2.39554a1.75526,1.75526,0,0,1-.16774.80463,1.28637,1.28637,0,0,1-.2385.3355,1.38992,1.38992,0,0,1-.3486.25948,1.88937,1.88937,0,0,1-.45343.16511,2.477,2.477,0,0,1-.56349.06027" style="fill:#fff"/><path d="M65.12557,21.19669H66.132v1.04053H65.12557Zm.02621,1.9369h.95666v3.91833h-.95666Z" style="fill:#fff"/><path d="M69.0861,25.91626a.319.319,0,0,0-.07077-.207.5804.5804,0,0,0-.19133-.13368,1.74612,1.74612,0,0,0-.26734-.097q-.14938-.03929-.31451-.07862a3.9308,3.9308,0,0,1-.40887-.13366,1.18722,1.18722,0,0,1-.33811-.194.8092.8092,0,0,1-.23326-.304,1.02088,1.02088,0,0,1-.08912-.45342,1.32692,1.32692,0,0,1,.11533-.56875,1.12921,1.12921,0,0,1,.31975-.39577,1.316,1.316,0,0,1,.46392-.23588,1.96671,1.96671,0,0,1,.55826-.076,3.91615,3.91615,0,0,1,.67621.05767,3.6501,3.6501,0,0,1,.574.152v.78106c-.09174-.02884-.18609-.05767-.28306-.08389-.0996-.02619-.1992-.04717-.30142-.06815-.09959-.01571-.19919-.03405-.29878-.04455a2.76994,2.76994,0,0,0-.28569-.02095,1.107,1.107,0,0,0-.28569.03407.61794.61794,0,0,0-.19132.08648.307.307,0,0,0-.10222.1258.37419.37419,0,0,0-.03408.14677.345.345,0,0,0,.06815.22018.51623.51623,0,0,0,.19919.13628,1.7134,1.7134,0,0,0,.2621.08912c.09173.021.18084.04456.26734.06553.13628.03144.27.07075.40362.11532a1.23683,1.23683,0,0,1,.36694.19656.94071.94071,0,0,1,.2621.31453,1.09849,1.09849,0,0,1,.10221.50058,1.25788,1.25788,0,0,1-.12581.57924,1.164,1.164,0,0,1-.346.4115,1.52128,1.52128,0,0,1-.53992.24112,2.81606,2.81606,0,0,1-.69193.08125,3.68,3.68,0,0,1-.66835-.06028,2.125,2.125,0,0,1-.4875-.14677v-.77318a3.088,3.088,0,0,0,.57924.15987,3.47721,3.47721,0,0,0,.498.04194,1.88321,1.88321,0,0,0,.33286-.02622.92429.92429,0,0,0,.26472-.08124.50964.50964,0,0,0,.1756-.14416.35016.35016,0,0,0,.06553-.20968" style="fill:#fff"/><path d="M71.02535,21.19669h1.00644v1.04053H71.02535Zm.02359,1.9369h.95928v3.91833h-.95928Z" style="fill:#fff"/><path d="M75.64375,27.05034a2.44121,2.44121,0,0,1-.38529.076,3.49494,3.49494,0,0,1-.422.02882,1.75118,1.75118,0,0,1-.80463-.15988.91246.91246,0,0,1-.44293-.46127,1.46256,1.46256,0,0,1-.09174-.57924V23.92355h-.73649v-.78892h.73649V22.03907h.95927v1.09556H75.5887v.78892H74.45645V25.829a.66519.66519,0,0,0,.06553.3355.54129.54129,0,0,0,.48225.18608,2.30833,2.30833,0,0,0,.33024-.02621c.11008-.021.2123-.03932.30928-.06815Z" style="fill:#fff"/><path d="M76.5582,21.19669h1.00646v1.04053H76.5582Zm.02358,1.9369H77.541v3.91833h-.95926Z" style="fill:#fff"/><path d="M82.51615,25.09721a2.51321,2.51321,0,0,1-.13629.83873,1.86677,1.86677,0,0,1-.39577.65,1.73209,1.73209,0,0,1-.61855.422,2.18672,2.18672,0,0,1-.81249.14678,2.22177,2.22177,0,0,1-.82823-.14678,1.71966,1.71966,0,0,1-.62116-.422,1.77613,1.77613,0,0,1-.38791-.65,2.66514,2.66514,0,0,1,0-1.68267,1.8028,1.8028,0,0,1,.39577-.64737,1.69307,1.69307,0,0,1,.61854-.41936,2.12617,2.12617,0,0,1,.81249-.14939,2.17946,2.17946,0,0,1,.82823.14939,1.68129,1.68129,0,0,1,.62117.41936,1.86825,1.86825,0,0,1,.39053.64737,2.46893,2.46893,0,0,1,.13367.84394m-.9881,0a1.92982,1.92982,0,0,0-.0734-.5504,1.19982,1.19982,0,0,0-.20181-.401.85851.85851,0,0,0-.31452-.24374.97983.97983,0,0,0-.39577-.08126.95153.95153,0,0,0-.38789.08126.87208.87208,0,0,0-.3119.24374,1.25086,1.25086,0,0,0-.2018.401,2.16559,2.16559,0,0,0,0,1.0982,1.16422,1.16422,0,0,0,.20442.39837.85878.85878,0,0,0,.31452.24375.98542.98542,0,0,0,.78366,0,.88641.88641,0,0,0,.30928-.24375,1.16118,1.16118,0,0,0,.20181-.39837,1.93739,1.93739,0,0,0,.0734-.5478" style="fill:#fff"/><path d="M84.41268,23.67927H84.431a1.336,1.336,0,0,1,.2123-.2385,1.4451,1.4451,0,0,1,.29617-.20444,1.84529,1.84529,0,0,1,.36693-.14415,1.59769,1.59769,0,0,1,.4246-.055,1.83043,1.83043,0,0,1,.41673.04717,1.40713,1.40713,0,0,1,.36431.152,1.1888,1.1888,0,0,1,.29355.27,1.16413,1.16413,0,0,1,.19658.39051,1.06652,1.06652,0,0,1,.06027.27259c.00788.097.0105.2123.0105.34072v2.54233h-.95667V24.65951c0-.10482-.00524-.19656-.01048-.27a.69457.69457,0,0,0-.04717-.19918.4846.4846,0,0,0-.22016-.26735.71694.71694,0,0,0-.35645-.08125,1.205,1.205,0,0,0-.53992.13106,1.47914,1.47914,0,0,0-.45342.38265v2.697H83.532V23.13413h.79415Z" style="fill:#fff"/><rect x="91.9642" y="21.76806" width="0.99072" height="5.40966" style="fill:#fff"/><polygon points="97.277 21.769 97.277 26.35 99.806 26.35 99.806 27.178 96.286 27.178 96.286 21.769 97.277 21.769" style="fill:#fff"/><path d="M100.78373,21.32512h1.00645V22.363h-1.00645Zm.02359,1.93689h.95927v3.91833h-.95927Z" style="fill:#fff"/><path d="M108.05243,24.794c0-.08387-.00525-.16249-.01049-.23326a1.20358,1.20358,0,0,0-.02622-.19133.53779.53779,0,0,0-.17559-.2883.5855.5855,0,0,0-.36431-.1127,1.01191,1.01191,0,0,0-.25685.03669,1.25413,1.25413,0,0,0-.26473.10222,1.64127,1.64127,0,0,0-.25162.16249,1.873,1.873,0,0,0-.21754.21492v2.69435h-.95664V24.794c0-.08387-.00262-.16249-.00786-.23326a1.18217,1.18217,0,0,0-.02884-.19133.54637.54637,0,0,0-.17037-.2883.588.588,0,0,0-.36693-.1127,1.03172,1.03172,0,0,0-.25947.03669,1.44265,1.44265,0,0,0-.26471.10222,1.77782,1.77782,0,0,0-.25162.16249,1.873,1.873,0,0,0-.21754.21492v2.69435h-.954V23.26333h.79153l.08911.54516h.01573a1.28118,1.28118,0,0,1,.21491-.2385,1.37825,1.37825,0,0,1,.29092-.20444,1.69052,1.69052,0,0,1,.35908-.14677,1.56694,1.56694,0,0,1,.41674-.055,1.40348,1.40348,0,0,1,.69717.173,1.10208,1.10208,0,0,1,.47178.53469h.01571a1.88769,1.88769,0,0,1,.25424-.28569,1.424,1.424,0,0,1,.30666-.22016,1.60881,1.60881,0,0,1,.36693-.14939,1.65518,1.65518,0,0,1,.41935-.05241,1.35581,1.35581,0,0,1,.70767.17822,1.14553,1.14553,0,0,1,.4377.46914c.02357.05243.04717.10746.06814.16775a1.69552,1.69552,0,0,1,.04718.20444,2.29489,2.29489,0,0,1,.02359.25161c.00524.08911.00786.19657.00786.31451v2.42963h-.95665Z" style="fill:#fff"/><path d="M110.22706,21.32512h1.00645V22.363h-1.00645Zm.02357,1.93689h.95665v3.91833h-.95665Z" style="fill:#fff"/><path d="M114.84543,27.17694a2.57009,2.57009,0,0,1-.38529.076,3.46972,3.46972,0,0,1-.422.0262,1.79529,1.79529,0,0,1-.80463-.15726.91165.91165,0,0,1-.44032-.45866,1.434,1.434,0,0,1-.09435-.58185V24.05014H111.965v-.78891h.73388V22.16567h.95665v1.09556h1.13487v.78891h-1.13487v1.90543a.65905.65905,0,0,0,.07077.3355.53852.53852,0,0,0,.48225.18609,2.30079,2.30079,0,0,0,.32762-.02622,2.55829,2.55829,0,0,0,.30928-.06814Z" style="fill:#fff"/><path d="M117.77487,26.507a3.25873,3.25873,0,0,0,.58448-.05505,4.72873,4.72873,0,0,0,.6133-.16249v.76531a2.84866,2.84866,0,0,1-.56875.152,4.19014,4.19014,0,0,1-.79678.0734,2.88678,2.88678,0,0,1-.79151-.10484,1.76228,1.76228,0,0,1-.65262-.34858,1.62358,1.62358,0,0,1-.44294-.61854,2.30465,2.30465,0,0,1-.16513-.92259,2.60751,2.60751,0,0,1,.15463-.93305,1.82092,1.82092,0,0,1,.41413-.66312,1.737,1.737,0,0,1,.58971-.39313,1.85008,1.85008,0,0,1,.68931-.131,1.98708,1.98708,0,0,1,.6867.11269,1.42874,1.42874,0,0,1,.54516.35646,1.667,1.667,0,0,1,.35119.62379,2.75187,2.75187,0,0,1,.12844.90685c-.00262.13105-.00786.24637-.01048.34072h-2.56855a1.255,1.255,0,0,0,.12056.46391.89514.89514,0,0,0,.26473.30928,1.06857,1.06857,0,0,0,.38265.17559,1.92726,1.92726,0,0,0,.47177.05243m-.38527-2.59476a.74165.74165,0,0,0-.56351.249.81971.81971,0,0,0-.16513.26735,1.15189,1.15189,0,0,0-.08125.33024h1.54114a1.13032,1.13032,0,0,0-.04719-.33024.85755.85755,0,0,0-.13628-.26735.61938.61938,0,0,0-.228-.18084.68443.68443,0,0,0-.31975-.06815" style="fill:#fff"/><path d="M119.96889,25.30033a2.76286,2.76286,0,0,1,.14154-.91733,1.916,1.916,0,0,1,.38527-.67359,1.59326,1.59326,0,0,1,.55825-.41149,1.66514,1.66514,0,0,1,.65524-.13367,1.61139,1.61139,0,0,1,.30143.02883,1.66739,1.66739,0,0,1,.26733.076,1.916,1.916,0,0,1,.23328.11008,1.89091,1.89091,0,0,1,.2018.12581h.00786c-.00262-.05505-.00524-.131-.00524-.23065-.00262-.097-.00262-.207-.00262-.31975V21.327h.95926v4.6889c0,.25948,0,.47964.00788.66572.00262.18609.01048.35121.01572.498H122.831l-.04193-.41673h-.0131a1.3705,1.3705,0,0,1-.20706.1992,1.58135,1.58135,0,0,1-.2621.16511,1.27548,1.27548,0,0,1-.31452.1127,1.55191,1.55191,0,0,1-.37479.03931,1.71836,1.71836,0,0,1-.61331-.11008,1.46613,1.46613,0,0,1-.52418-.35119,1.6654,1.6654,0,0,1-.37219-.61855,2.65534,2.65534,0,0,1-.1389-.899m1.8871,1.21612a1.017,1.017,0,0,0,.26995-.03669,1.11065,1.11065,0,0,0,.23849-.097,1.123,1.123,0,0,0,.20183-.13368,1.5402,1.5402,0,0,0,.14677-.14153V24.24933a1.66488,1.66488,0,0,0-.37741-.228,1.09127,1.09127,0,0,0-.4482-.09436.888.888,0,0,0-.31188.06552.75507.75507,0,0,0-.30141.20183,1.23176,1.23176,0,0,0-.22542.40624,2.01388,2.01388,0,0,0-.0891.65786,1.63279,1.63279,0,0,0,.2254.92257.77544.77544,0,0,0,.671.33548" style="fill:#fff"/><path d="M23.629,11.848c3.6772,0,7.35441.01574,11.03162-.01572.69979-.00262.9514.1992.92782.91733-.04718,1.40223-.01311,2.80967-.01311,4.21451,0,.98024-.01573.99334-.97238.996q-3.40463.00393-6.81449,0c-1.09294,0-1.09556.00262-1.09556,1.12963v12.156c0,1.43366.00262,1.45463-1.37076,1.92116-.4875.16512-.76795.36956-.72339.93568.03407.38.14415.49012.52156.38266a11.96331,11.96331,0,0,0,2.697-1.18467,2.81025,2.81025,0,0,1,1.46511-.36955c2.32218.01572,4.6391.00262,6.95865.01047.19919,0,.46129-.08648.574.14154.10746.22278-.10222.39315-.23326.54778A20.29614,20.29614,0,0,1,25.5475,40.579a19.78233,19.78233,0,0,1-13.629-1.32883A19.91155,19.91155,0,0,1,.24737,23.52438,19.79155,19.79155,0,0,1,6.3778,5.71234,19.53313,19.53313,0,0,1,19.134.04844,20.27841,20.27841,0,0,1,36.48214,7.41335c.16774.19133.44818.39577.35645.64736-.12843.32238-.49536.18085-.75745.18347-2.29334.0105-4.5893,0-6.88527.0105a2.4262,2.4262,0,0,1-1.27116-.31715,14.3361,14.3361,0,0,0-8.49453-1.86611,13.84647,13.84647,0,0,0-9.40663,4.46348A13.96753,13.96753,0,0,0,6.48526,24.19012c1.37338,5.40965,4.9405,8.84835,10.2427,10.49169a13.87419,13.87419,0,0,0,2.90141.50846c.6133.055.88326-.12057.88064-.79939q-.03146-7.83536,0-15.67072c0-.58185-.20967-.7758-.78367-.77056-2.38769.021-4.78063.0131-7.17094.01048-.88326-.00262-.91734-.03669-.92-.899-.00524-1.431-.00524-2.85685-.00524-4.28789.00786-.90424.02883-.92521.96451-.92521Z" style="fill:#fff"/><polygon points="48.38 32.571 51.989 37.821 52.01 37.821 52.01 32.571 53.297 32.571 53.297 39.844 51.942 39.844 48.34 34.605 48.325 34.605 48.325 39.844 47.025 39.844 47.025 32.571 48.38 32.571" style="fill:#fff"/><path d="M57.01841,32.57114h1.42318l2.85423,7.27317H59.93816l-.64737-1.69839H56.11156l-.66048,1.69839H54.09866Zm-.45866,4.42942h2.29071L57.73131,34.052H57.713Z" style="fill:#fff"/><path d="M63.11739,37.726a2.06733,2.06733,0,0,0,.66047.84919,1.803,1.803,0,0,0,1.06673.29617,1.54667,1.54667,0,0,0,.92782-.25685.93358.93358,0,0,0,.27521-.30666.79259.79259,0,0,0,.09435-.34334.825.825,0,0,0-.10484-.33548,1.2898,1.2898,0,0,0-.2752-.28569,3.34215,3.34215,0,0,0-.51633-.304c-.22278-.10222-.4508-.194-.68669-.27782a9.70266,9.70266,0,0,1-1.23185-.4875,3.8827,3.8827,0,0,1-.8492-.52419,1.8677,1.8677,0,0,1-.46914-.629,1.65944,1.65944,0,0,1-.10484-.574,2.1912,2.1912,0,0,1,.14677-.73388,2.08117,2.08117,0,0,1,.58971-.75483,3.14273,3.14273,0,0,1,.91472-.477,4.19821,4.19821,0,0,1,1.10866-.173,4.39036,4.39036,0,0,1,1.02218.14416,3.2501,3.2501,0,0,1,.85968.401,2.65908,2.65908,0,0,1,.96189,1.279l-1.41008.19132a1.56555,1.56555,0,0,0-.55564-.62116,1.77807,1.77807,0,0,0-.93569-.249,1.7427,1.7427,0,0,0-.87016.23065,1.08649,1.08649,0,0,0-.29354.28569.75044.75044,0,0,0-.097.36431.813.813,0,0,0,.05766.29355.98182.98182,0,0,0,.28831.30665,2.66354,2.66354,0,0,0,.49536.26733c.228.09436.46129.18085.69718.25686a10.82411,10.82411,0,0,1,1.2135.498A4.243,4.243,0,0,1,66.965,36.62a1.90328,1.90328,0,0,1,.50323.65786,1.59982,1.59982,0,0,1,.1258.57137,2.1854,2.1854,0,0,1-.20968.899,2.15712,2.15712,0,0,1-.61854.705,2.98792,2.98792,0,0,1-.99335.44819,4.94924,4.94924,0,0,1-.975.11532,4.553,4.553,0,0,1-1.11654-.15463,3.35959,3.35959,0,0,1-.91733-.4377,3.22743,3.22743,0,0,1-.705-.74436,3.4859,3.4859,0,0,1-.37217-.75484Z" style="fill:#fff"/><path d="M71.517,32.57166a4.23051,4.23051,0,0,1,1.31834.20967,3.7877,3.7877,0,0,1,.68669.33549,2.91983,2.91983,0,0,1,.53467.46653,3.42952,3.42952,0,0,1,.66834,1.21089,4.95421,4.95421,0,0,1-.01834,2.91188,3.31836,3.31836,0,0,1-.69717,1.203,3.24076,3.24076,0,0,1-.553.44032,4.141,4.141,0,0,1-.68669.304,5.25068,5.25068,0,0,1-1.32883.19132H68.82531V32.57166Zm-1.39173,6.14615h1.24233a2.66484,2.66484,0,0,0,1.00907-.18084,2.03171,2.03171,0,0,0,.73649-.553,2.54289,2.54289,0,0,0,.42984-.88851,5.04583,5.04583,0,0,0,.10484-.88849,4.20108,4.20108,0,0,0-.14416-.98286,2.33521,2.33521,0,0,0-.4508-.82823,1.96458,1.96458,0,0,0-.81774-.53729,3.3568,3.3568,0,0,0-.878-.14154H70.12531Z" style="fill:#fff"/><path d="M78.3344,32.57114H79.755l2.85423,7.27317h-1.355l-.65-1.69839H77.42492l-.65786,1.69839H75.41465Zm-.45866,4.42942h2.28808L79.04731,34.052H79.029Z" style="fill:#fff"/><path d="M83.33494,34.70879a3.84553,3.84553,0,0,1,.69717-1.26854,3.14294,3.14294,0,0,1,1.21352-.823,4.31825,4.31825,0,0,1,1.258-.20968,4.44064,4.44064,0,0,1,1.26069.20968,3.10486,3.10486,0,0,1,1.203.83346,3.55287,3.55287,0,0,1,.69455,1.25806,5.62265,5.62265,0,0,1,.23064,1.50967,5.01283,5.01283,0,0,1-.23064,1.51755,3.5398,3.5398,0,0,1-.574,1.12439l.81251.73649-.90685.87016-.82037-.84133a3.53177,3.53177,0,0,1-1.66956.39052,4.24571,4.24571,0,0,1-1.26855-.20967,3.11059,3.11059,0,0,1-1.203-.82037,3.61162,3.61162,0,0,1-.69717-1.27116,5.12017,5.12017,0,0,1-.22016-1.49658,5.2345,5.2345,0,0,1,.22016-1.50967m4.1621,2.71269.64736.59235a2.67565,2.67565,0,0,0,.325-.75484,4.05974,4.05974,0,0,0,.13368-1.04053,4.26452,4.26452,0,0,0-.15463-1.07983,2.50879,2.50879,0,0,0-.45868-.88589,1.887,1.887,0,0,0-1.48609-.69979,2.38005,2.38005,0,0,0-.75484.14416,1.94016,1.94016,0,0,0-.7522.55563,2.66722,2.66722,0,0,0-.44818.88589,4.04524,4.04524,0,0,0,0,2.15968,2.59314,2.59314,0,0,0,.44818.8754,1.88984,1.88984,0,0,0,1.507.69717,1.93859,1.93859,0,0,0,.78368-.14154l-.574-.58185Z" style="fill:#fff"/><path d="M92.58275,36.31439h-1.452v-1.6119h1.452Zm0,3.53043h-1.452V38.24341h1.452Z" style="fill:#fff"/><polygon points="102.547 32.571 102.547 33.716 100.256 33.716 100.256 39.844 98.969 39.844 98.969 33.716 96.678 33.716 96.678 32.571 102.547 32.571" style="fill:#fff"/><path d="M103.271,34.71036a3.84687,3.84687,0,0,1,.69979-1.26854,3.10557,3.10557,0,0,1,1.2109-.823,4.16746,4.16746,0,0,1,1.26067-.20967,4.27814,4.27814,0,0,1,1.26069.20967,3.118,3.118,0,0,1,1.203.83085,3.60546,3.60546,0,0,1,.69455,1.26068,5.484,5.484,0,0,1,.228,1.507,5.06025,5.06025,0,0,1-.228,1.51755,3.385,3.385,0,0,1-.68931,1.25806,3.04971,3.04971,0,0,1-1.2004.81511,3.94216,3.94216,0,0,1-2.5371,0,3.11673,3.11673,0,0,1-1.203-.823,3.67169,3.67169,0,0,1-.69979-1.26854,5.12294,5.12294,0,0,1-.21754-1.4992,5.22751,5.22751,0,0,1,.21754-1.507m1.21352,2.58689a2.63981,2.63981,0,0,0,.44818.87541,1.8895,1.8895,0,0,0,1.50966.69979,2.23953,2.23953,0,0,0,.7627-.13629,1.86384,1.86384,0,0,0,.74436-.553,2.40563,2.40563,0,0,0,.4377-.878,4.34232,4.34232,0,0,0,.15464-1.08771,4.281,4.281,0,0,0-.15464-1.07983,2.53095,2.53095,0,0,0-.45867-.88589,1.87654,1.87654,0,0,0-1.48609-.69717,2.36347,2.36347,0,0,0-.75482.14154,2.02332,2.02332,0,0,0-.75484.55563,2.79673,2.79673,0,0,0-.44818.88589,4.11635,4.11635,0,0,0,0,2.15967" style="fill:#fff"/><polygon points="116.205 32.571 116.205 33.716 113.917 33.716 113.917 39.844 112.627 39.844 112.627 33.716 110.336 33.716 110.336 32.571 116.205 32.571" style="fill:#fff"/><path d="M119.21509,32.57114h1.42056l2.85424,7.27317h-1.35505l-.65-1.69839h-3.17923l-.65786,1.69839h-1.355Zm-.46128,4.42942h2.29071L119.928,34.052h-.021Z" style="fill:#fff"/></g></g></svg>