<svg xmlns="http://www.w3.org/2000/svg" viewBox="0 0 115.25148 25.79783"><g id="图层_2" data-name="图层 2"><g id="Layer_1" data-name="Layer 1"><polygon points="38.091 10.321 38.091 4.319 36.839 4.319 36.839 6.64 34.459 6.64 34.459 4.319 33.207 4.319 33.207 10.321 34.459 10.321 34.459 7.801 36.839 7.801 36.839 10.321 38.091 10.321" style="fill:#fff;fill-rule:evenodd"/><polygon points="42.065 7.775 44.738 7.775 44.738 6.699 42.065 6.699 42.065 5.388 44.908 5.388 44.908 4.319 40.813 4.319 40.813 10.321 44.957 10.321 45.084 9.255 42.065 9.255 42.065 7.775" style="fill:#fff;fill-rule:evenodd"/><path d="M51.73484,7.10964a2.0481,2.0481,0,0,0,.21219-.97493,2.19263,2.19263,0,0,0-.10148-.63551,1.46054,1.46054,0,0,0-.362-.5868,1.9108,1.9108,0,0,0-.717-.43061,3.57924,3.57924,0,0,0-1.16695-.16306H47.474v6.00212h1.23518V8.068h1.17746l1.00711,2.25281H52.25L51.03068,7.775a1.66183,1.66183,0,0,0,.70416-.66532ZM50.63654,6.513h0a.60353.60353,0,0,1-.157.27377.76628.76628,0,0,1-.30638.17637,1.60388,1.60388,0,0,1-.489.062h-.97492V5.35266h.86722a1.92889,1.92889,0,0,1,.54132.065.84206.84206,0,0,1,.33556.17572.6278.6278,0,0,1,.17336.2609.965.965,0,0,1,.0487.30659A1.48847,1.48847,0,0,1,50.63654,6.513Z" style="fill:#fff;fill-rule:evenodd"/><path d="M59.12919,5.01689a2.39592,2.39592,0,0,0-.8934-.6295,3.11853,3.11853,0,0,0-1.203-.2182,3.08021,3.08021,0,0,0-1.19334.2182,2.49007,2.49007,0,0,0-.90305.6295,2.81619,2.81619,0,0,0-.5735.9908A4.09526,4.09526,0,0,0,54.167,7.32183a4.08937,4.08937,0,0,0,.19589,1.3107,2.85975,2.85975,0,0,0,.57028.99081,2.401,2.401,0,0,0,.89662.62949,3.44365,3.44365,0,0,0,2.41264,0,2.37644,2.37644,0,0,0,.8964-.62949,2.77063,2.77063,0,0,0,.55462-.99081,4.19836,4.19836,0,0,0,.18924-1.3107,4.20135,4.20135,0,0,0-.19289-1.31414,2.83118,2.83118,0,0,0-.56062-.9908ZM58.19975,8.8576h0a1.55344,1.55344,0,0,1-2.35065,0,2.58746,2.58746,0,0,1-.38791-1.53577,2.59841,2.59841,0,0,1,.38791-1.53556,1.54662,1.54662,0,0,1,2.35065,0,2.61571,2.61571,0,0,1,.38812,1.53556A2.6046,2.6046,0,0,1,58.19975,8.8576Z" style="fill:#fff;fill-rule:evenodd"/><rect x="62.40906" y="4.31873" width="1.25213" height="6.00211" style="fill:#fff"/><path d="M69.83623,9.09833a1.1055,1.1055,0,0,1-.85456.29694,1.263,1.263,0,0,1-1.06912-.53767,2.53214,2.53214,0,0,1-.40078-1.53577,2.66984,2.66984,0,0,1,.3746-1.53556,1.24037,1.24037,0,0,1,1.0953-.54131,1.05846,1.05846,0,0,1,.838.303,1.69037,1.69037,0,0,1,.3553.83139l1.24548-.15941a3.459,3.459,0,0,0-.2609-.85092,2.07818,2.07818,0,0,0-.466-.6458,1.918,1.918,0,0,0-.71381-.41044,3.06611,3.06611,0,0,0-.9981-.14354,2.9276,2.9276,0,0,0-1.16052.2182,2.435,2.435,0,0,0-.87387.6295,2.86661,2.86661,0,0,0-.554.9908,4.2019,4.2019,0,0,0-.19224,1.31414,4.43808,4.43808,0,0,0,.17572,1.28753,2.75122,2.75122,0,0,0,.5248.99746,2.40239,2.40239,0,0,0,.86743.63915,2.95958,2.95958,0,0,0,1.19614.22506,3.10125,3.10125,0,0,0,1.06311-.16606,2.23519,2.23519,0,0,0,.773-.46644,2.15047,2.15047,0,0,0,.49883-.70738,2.87572,2.87572,0,0,0,.22121-.88653H70.175A1.47463,1.47463,0,0,1,69.83623,9.09833Z" style="fill:#fff;fill-rule:evenodd"/><polygon points="78.508 7.775 81.182 7.775 81.182 6.699 78.508 6.699 78.508 5.388 81.351 5.388 81.351 4.319 77.257 4.319 77.257 10.321 81.4 10.321 81.527 9.255 78.508 9.255 78.508 7.775" style="fill:#fff;fill-rule:evenodd"/><polygon points="86.916 8.799 85.42 4.319 83.914 4.319 83.914 10.321 85.042 10.321 85.042 6.328 86.418 10.321 87.396 10.321 88.765 6.321 88.765 10.321 89.916 10.321 89.916 4.319 88.452 4.319 86.916 8.799" style="fill:#fff;fill-rule:evenodd"/><path d="M96.63559,4.88623a1.92172,1.92172,0,0,0-.714-.41066,3.50282,3.50282,0,0,0-1.13777-.15684H92.638v6.00212h1.23583V8.17875h.9421a3.40951,3.40951,0,0,0,1.11546-.1592,1.84487,1.84487,0,0,0,.70416-.43361,1.53522,1.53522,0,0,0,.37161-.63572,2.76394,2.76394,0,0,0,.10406-.75651,2.47684,2.47684,0,0,0-.10406-.711,1.43982,1.43982,0,0,0-.37161-.59645Zm-.80522,1.70826h0a.62774.62774,0,0,1-.17335.29008.84634.84634,0,0,1-.34179.18258,1.77953,1.77953,0,0,1-.54131.06866h-.90005V5.35266h.89039a2.10721,2.10721,0,0,1,.54432.05836.86957.86957,0,0,1,.33878.16971.56456.56456,0,0,1,.17636.26755,1.17311,1.17311,0,0,1,.05235.37161A1.54182,1.54182,0,0,1,95.83037,6.59449Z" style="fill:#fff;fill-rule:evenodd"/><rect x="99.51425" y="4.31873" width="1.25213" height="6.00211" style="fill:#fff"/><path d="M103.49828,4.31873v6.00212h1.23582V8.068h1.17682l1.00733,2.25281h1.35619L107.05492,7.775a1.66119,1.66119,0,0,0,.70438-.66532,2.0481,2.0481,0,0,0,.21219-.97493,2.21316,2.21316,0,0,0-.10084-.63551,1.46928,1.46928,0,0,0-.3626-.5868,1.91076,1.91076,0,0,0-.717-.43061,3.57929,3.57929,0,0,0-1.16695-.16306Zm2.98014,1.27466h0a.62622.62622,0,0,1,.17271.2609.97092.97092,0,0,1,.0487.30659,1.5,1.5,0,0,1-.03883.35208.60353.60353,0,0,1-.157.27377.76634.76634,0,0,1-.30638.17637,1.604,1.604,0,0,1-.489.062h-.9745V5.35266h.86679a1.92879,1.92879,0,0,1,.54132.065A.84643.84643,0,0,1,106.47842,5.59339Z" style="fill:#fff;fill-rule:evenodd"/><polygon points="114.756 9.255 111.737 9.255 111.737 7.775 114.41 7.775 114.41 6.699 111.737 6.699 111.737 5.388 114.58 5.388 114.58 4.319 110.485 4.319 110.485 10.321 114.629 10.321 114.756 9.255" style="fill:#fff;fill-rule:evenodd"/><path d="M34.93149,14.31475l-2.2528,6.00211h1.29418l.47931-1.38536h2.0994l.48,1.38536h1.34589l-2.25281-6.00211Zm-.15941,3.58346h0l.72-2.15175.73356,2.15175Z" style="fill:#fff;fill-rule:evenodd"/><path d="M43.02335,19.09456a1.10391,1.10391,0,0,1-.85392.29672A1.2621,1.2621,0,0,1,41.1001,18.853a2.53019,2.53019,0,0,1-.40121-1.53556,2.6695,2.6695,0,0,1,.37525-1.53512,1.24084,1.24084,0,0,1,1.09529-.54132,1.05853,1.05853,0,0,1,.83805.30295,1.68929,1.68929,0,0,1,.35508.83139l1.24569-.15941a3.46787,3.46787,0,0,0-.26089-.85135,2.073,2.073,0,0,0-.46665-.64537,1.90975,1.90975,0,0,0-.71382-.41044,3.05942,3.05942,0,0,0-.99746-.14354,2.92315,2.92315,0,0,0-1.16051.21821,2.44373,2.44373,0,0,0-.87388.62885,2.87552,2.87552,0,0,0-.554.99145,4.19854,4.19854,0,0,0-.19288,1.3137,4.44416,4.44416,0,0,0,.17636,1.28818,2.74231,2.74231,0,0,0,.52479.99724,2.40293,2.40293,0,0,0,.86723.63937,2.96342,2.96342,0,0,0,1.19634.22485A3.10676,3.10676,0,0,0,43.216,20.3012a2.22651,2.22651,0,0,0,.77239-.46665,2.13941,2.13941,0,0,0,.49884-.70717,2.87871,2.87871,0,0,0,.22184-.88674H43.36256A1.47346,1.47346,0,0,1,43.02335,19.09456Z" style="fill:#fff;fill-rule:evenodd"/><path d="M51.92408,17.31741a4.20552,4.20552,0,0,0-.19224-1.3137,2.85058,2.85058,0,0,0-.56084-.99145,2.40591,2.40591,0,0,0-.8934-.62885,3.117,3.117,0,0,0-1.203-.21821,3.07987,3.07987,0,0,0-1.19313.21821,2.49429,2.49429,0,0,0-.90327.62885,2.76139,2.76139,0,0,0-.57049.99145,4.42744,4.42744,0,0,0,0,2.62419,2.789,2.789,0,0,0,.56749.99145,2.40938,2.40938,0,0,0,.8964.6295,3.12921,3.12921,0,0,0,1.203.2182,3.04473,3.04473,0,0,0,1.29418-.2609l.76639.9421.75651-.6385-.734-.90005a2.61231,2.61231,0,0,0,.57415-.97815,4.17856,4.17856,0,0,0,.19224-1.31414Zm-1.54543,1.327h0l-.6812-.85756-.75652.63915.73034.90026a1.57721,1.57721,0,0,1-.28707.07166,2.41621,2.41621,0,0,1-.3096.01953,1.34668,1.34668,0,0,1-1.18047-.551,2.64042,2.64042,0,0,1-.39091-1.54908,2.59294,2.59294,0,0,1,.39091-1.53512A1.35608,1.35608,0,0,1,49.0746,15.241a1.33645,1.33645,0,0,1,1.17382.54132,2.64462,2.64462,0,0,1,.38147,1.53512A2.90484,2.90484,0,0,1,50.37865,18.64442Z" style="fill:#fff;fill-rule:evenodd"/><path d="M57.251,17.88855a1.96548,1.96548,0,0,1-.2639,1.13413,1.01554,1.01554,0,0,1-.8934.3686,1.03254,1.03254,0,0,1-.8994-.3686,1.93671,1.93671,0,0,1-.27077-1.13413v-3.5738H53.67139v3.54763a3.81578,3.81578,0,0,0,.15985,1.17682,2.04585,2.04585,0,0,0,.46944.81187,1.9364,1.9364,0,0,0,.76273.46579,3.16953,3.16953,0,0,0,1.02063.15019,3.26484,3.26484,0,0,0,1.01441-.14654,1.84721,1.84721,0,0,0,.75951-.46343,2.04362,2.04362,0,0,0,.47931-.80157,3.62056,3.62056,0,0,0,.16907-1.167v-3.5738H57.251Z" style="fill:#fff;fill-rule:evenodd"/><rect x="60.43968" y="14.31475" width="1.25234" height="6.00211" style="fill:#fff"/><path d="M66.40961,16.76022l-.82517-.15984a1.38941,1.38941,0,0,1-.64237-.25725.64122.64122,0,0,1-.189-.50549.62151.62151,0,0,1,.04913-.24437.50518.50518,0,0,1,.17936-.20576.9961.9961,0,0,1,.32913-.14353,2.15567,2.15567,0,0,1,.52844-.05514,1.2505,1.2505,0,0,1,.80157.2182,1.17691,1.17691,0,0,1,.35594.717l1.18648-.15255a2.70617,2.70617,0,0,0-.17271-.68184,1.54494,1.54494,0,0,0-.39778-.5735,1.98414,1.98414,0,0,0-.70781-.40143,3.37439,3.37439,0,0,0-1.09186-.14955,3.59091,3.59091,0,0,0-.94253.11372,2.245,2.245,0,0,0-.73356.32955,1.5514,1.5514,0,0,0-.47931.54733,1.57211,1.57211,0,0,0-.17272.75672,2.02071,2.02071,0,0,0,.12423.74021,1.40278,1.40278,0,0,0,.36839.5248,1.83519,1.83519,0,0,0,.59.34907,4.45784,4.45784,0,0,0,.81508.21842l.78269.14353a1.13245,1.13245,0,0,1,.64817.29609.67978.67978,0,0,1,.17636.44326.87385.87385,0,0,1-.05514.31025.60866.60866,0,0,1-.17958.24759.95286.95286,0,0,1-.32956.16971,1.66216,1.66216,0,0,1-.495.062,1.47614,1.47614,0,0,1-.92944-.25124,1.09753,1.09753,0,0,1-.35873-.80822h-1.268a2.04027,2.04027,0,0,0,.70051,1.58425,2.93364,2.93364,0,0,0,1.88163.5248,3.432,3.432,0,0,0,1.02363-.13667,2.0132,2.0132,0,0,0,.72691-.38813,1.57666,1.57666,0,0,0,.43726-.58015,1.78058,1.78058,0,0,0,.14654-.72733,1.6373,1.6373,0,0,0-.45314-1.24569A2.85884,2.85884,0,0,0,66.40961,16.76022Z" style="fill:#fff;fill-rule:evenodd"/><rect x="70.00208" y="14.31475" width="1.25234" height="6.00211" style="fill:#fff"/><polygon points="72.872 15.4 74.677 15.4 74.677 20.317 75.939 20.317 75.939 15.4 77.746 15.4 77.746 14.315 72.872 14.315 72.872 15.4" style="fill:#fff;fill-rule:evenodd"/><rect x="79.35293" y="14.31475" width="1.2517" height="6.00211" style="fill:#fff"/><path d="M87.43514,15.01226a2.40931,2.40931,0,0,0-.8934-.62885,3.11853,3.11853,0,0,0-1.203-.21821,3.08021,3.08021,0,0,0-1.19334.21821,2.49338,2.49338,0,0,0-.903.62885,2.81651,2.81651,0,0,0-.57415.99145,4.50653,4.50653,0,0,0,0,2.62419,2.84528,2.84528,0,0,0,.57114.99145,2.40765,2.40765,0,0,0,.89641.6295,3.44365,3.44365,0,0,0,2.41264,0,2.38369,2.38369,0,0,0,.8964-.6295,2.767,2.767,0,0,0,.554-.99145,4.60846,4.60846,0,0,0-.003-2.62419,2.85016,2.85016,0,0,0-.56062-.99145ZM86.5057,18.853h0a1.552,1.552,0,0,1-2.35043,0,2.57782,2.57782,0,0,1-.38813-1.53556,2.592,2.592,0,0,1,.38813-1.53512,1.54636,1.54636,0,0,1,2.35043,0,2.62042,2.62042,0,0,1,.38812,1.53512A2.60592,2.60592,0,0,1,86.5057,18.853Z" style="fill:#fff;fill-rule:evenodd"/><polygon points="93.646 18.25 91.174 14.315 90.047 14.315 90.047 20.317 91.266 20.317 91.266 16.418 93.747 20.317 94.862 20.317 94.862 14.315 93.646 14.315 93.646 18.25" style="fill:#fff;fill-rule:evenodd"/><polygon points="101.033 14.315 99.782 14.315 99.782 20.317 103.743 20.317 103.877 19.241 101.033 19.241 101.033 14.315" style="fill:#fff;fill-rule:evenodd"/><polygon points="104.111 15.4 105.917 15.4 105.917 20.317 107.179 20.317 107.179 15.4 108.985 15.4 108.985 14.315 104.111 14.315 104.111 15.4" style="fill:#fff;fill-rule:evenodd"/><path d="M112.337,14.31475h-2.24658v6.00211h2.03439a4.16425,4.16425,0,0,0,1.3107-.19224,2.60316,2.60316,0,0,0,.98459-.58015,2.5165,2.5165,0,0,0,.616-.95175,3.657,3.657,0,0,0,.21541-1.31071,2.95077,2.95077,0,0,0-.76939-2.2174,2.94982,2.94982,0,0,0-2.1451-.74986Zm1.51925,3.7787h0a1.70183,1.70183,0,0,1-.31324.61963,1.3613,1.3613,0,0,1-.56063.39778,2.24024,2.24024,0,0,1-.83139.13989h-.80822V15.38451h.99423a1.83,1.83,0,0,1,.74987.13324,1.27671,1.27671,0,0,1,.50184.37825,1.57027,1.57027,0,0,1,.28042.60032,3.30049,3.30049,0,0,1,.08818.79556A2.91032,2.91032,0,0,1,113.85624,18.09345Z" style="fill:#fff;fill-rule:evenodd"/><path d="M27.71179,10.70468a28.11286,28.11286,0,0,0-4.20394.12273c-.50828.04441-1.51861.19417-1.94965.27012a34.97163,34.97163,0,0,0-4.40755,1.04594V5.31683a10.01656,10.01656,0,0,1,4.30586,5.45458l.00622-.01867c.43-.07616,1.43514-.22442,1.94492-.26948a11.97077,11.97077,0,0,0-6.257-7.38512V.7194A6.80778,6.80778,0,0,0,14.90771,0V12.90492a33.61789,33.61789,0,0,0-4.65515,2.14939c-.43662.245-.86594.5012-1.28925.76445V7.3317a1.99319,1.99319,0,0,0-.23665-.01159A2.31735,2.31735,0,0,0,6.68133,9.53258c-.009,1.75526-.00365,3.51116-.003,5.26577,0,.05535.00665,1.49779.01459,2.59866a20.2657,20.2657,0,0,0-2.36823,2.1524c-.09183.09848-.1813.19953-.2712.30037-.01222.01459-.02488.02811-.03711.042l-.00193-.00128-.01459.01587c-.36.3789-.83011.9494-1.27895,1.51861-.55226.6988-1.06912,1.3903-1.31371,1.72114-.09354.1253-.39778.55462-.39778.55462l1.71149,1.073c.22077-.32119.93416-1.3047,1.39159-1.917.2536.22077.51385.43468.78569.63486.03218.02317.065.0457.098.0693q.23622.16961.48339.32912c.04505.02918.09011.05836.13495.0869.20683.12959.41859.253.63315.37032q.32311.17636.65932.33341l.02188.00966q.33761.15608.68786.29265c.01287.00536.02617.01094.03948.01566a11.93123,11.93123,0,0,0,1.44823.45507c.06007.01459.12165.02789.18237.04183.16349.03776.32955.07124.49626.10213.09912.01845.19824.03776.29865.05364.10707.017.21584.02918.32419.04377.295.03776.59238.068.8934.08453l.04806.003q.29994.01479.604.01523c.02918,0,.05836-.00172.08754-.00172.01566,0,.03153-.00064.04806-.00129q.34371-.0045.6842-.02789c.05708-.00386.11436-.00794.17143-.01287.26755-.02253.53531-.04978.80522-.09054l.04441-.0073c.13388-.02081.2669-.0354.40143-.06093a11.55337,11.55337,0,0,0,6.41985-3.50493,11.95316,11.95316,0,0,0,3.08913-10.60964c1.42055-.24159,2.8042-.47631,4.18786-.711a.29269.29269,0,0,0-.17873-.065ZM6.64421,22.28624h0A7.3104,7.3104,0,0,1,5.293,21.2845c.46107-.416.87752-.79127,1.35125-1.21931v2.221Zm15.28367-7.89919h0c-.00365.07488-.0073.14976-.01266.224A9.94222,9.94222,0,0,1,20.60988,18.844a10.83775,10.83775,0,0,1-1.1676,1.60807,9.98454,9.98454,0,0,1-1.71213,1.55379l-.01995.014q-.2993.21273-.6089.40014l-.02489.01416c-.17937.10813-.36238.20726-.546.30273-.047.02382-.09311.04806-.13988.07188-.1916.09483-.38513.18494-.58037.26626-.02553.01094-.05214.02081-.07831.03111-.18066.07423-.3626.1416-.545.20382-.04076.014-.08153.0279-.12293.0412q-.31733.10395-.63851.18559-.32215.08207-.6471.14224c-.02381.0043-.04741.00859-.07123.01223-.189.03347-.3789.06008-.56792.08261-.02381.00322-.04741.00558-.07187.00858A9.7179,9.7179,0,0,1,9.023,23.38711v-5.163a40.34178,40.34178,0,0,1,5.77168-3.46052c.02725.01459.05407.02983.08132.04441v5.98753a1.79021,1.79021,0,0,0,1.2547-.32848,2.20205,2.20205,0,0,0,1.04187-1.92969q-.001-2.23124,0-4.464v-.40079A36.55484,36.55484,0,0,1,21.77834,12.036a9.96742,9.96742,0,0,1,.15319,1.288c.00193.0294.00236.05793.00364.08711.00859.20125.00794.40014.00558.59775C21.93882,14.13538,21.93517,14.262,21.92788,14.38705Z" style="fill:#fff;fill-rule:evenodd"/><path d="M1.428,19.53611l.0103-.01052a11.7649,11.7649,0,0,0,.714,1.15558c.51815-.4866,1.05753-.97364,1.47355-1.30319A9.95914,9.95914,0,0,1,2.825,17.9261,10.7329,10.7329,0,0,1,1.962,14.04055c-.00128-.059-.00493-.118-.00493-.177,0-.0281.00172-.05535.00172-.08281.00257-.31368.0178-.62457.0487-.93116A9.99395,9.99395,0,0,1,11.95139,3.859a10.0619,10.0619,0,0,1,1.83357.17078V2.04962A12.05213,12.05213,0,0,0,8.97,2.285V2.2734c-.10706.03154-.21047.06759-.31625.10106A11.88381,11.88381,0,0,0,5.19555,4.00484,11.17617,11.17617,0,0,0,2.103,7.09741c-.07531.112-.15084.22335-.2225.33813L1.85,7.4836A11.86291,11.86291,0,0,0,.1969,11.74269a11.25652,11.25652,0,0,0-.0766,3.73794c.014.09183.02382.18366.03948.27548V15.758a11.88749,11.88749,0,0,0,1.08564,3.39187C1.30571,19.27886,1.36342,19.40759,1.428,19.53611Z" style="fill:#fff;fill-rule:evenodd"/></g></g></svg>