<svg xmlns="http://www.w3.org/2000/svg" viewBox="0 0 116.1947 35.42744"><g id="图层_2" data-name="图层 2"><g id="Layer_1" data-name="Layer 1"><path d="M61.06563,18.97419a.93117.93117,0,0,1-.095-.42336q-.01851-.30912-.01874-.67627,0-.45546-.00662-.83483c-.00457-.25246-.00572-.49738-.00572-.73293V12.1715c0-.13388.00389-.26731.01234-.39822A3.51981,3.51981,0,0,1,60.99,11.4196a.72967.72967,0,0,1,.07562-.24674.89347.89347,0,0,1,.43021-.3852,2.02,2.02,0,0,1,.59379-.17113v-.12611H58.28355v.12611a2.56632,2.56632,0,0,1,.58214.09459.95454.95454,0,0,1,.51817.42427.9269.9269,0,0,1,.11972.42358c.013.17227.02331.33928.03176.49921q.01268.41673.013.74618V14.8398H54.55378V13.56265q0-.4671.0064-.97991.00583-.51165.019-.95454a1.01053,1.01053,0,0,1,.12612-.48047.90317.90317,0,0,1,.27782-.29724,1.20915,1.20915,0,0,1,.36738-.1581,3.7731,3.7731,0,0,1,.37949-.07586v-.12611H51.96134v.12611a2.5674,2.5674,0,0,1,.58808.13274,1.0076,1.0076,0,0,1,.43638.30958.58623.58623,0,0,1,.114.24675,2.63252,2.63252,0,0,1,.05712.35435c.01234.13092.01805.27143.01805.42359v3.65391c0,.25315-.00183.49921-.00571.73956s-.00846.46174-.01234.66393q-.00686.304-.00663.48048c0,.13479-.00434.27645-.01279.42358-.00845.14759-.019.28422-.03176.41125a2.86606,2.86606,0,0,1-.05049.3347.51945.51945,0,0,1-.08225.20928,1.1413,1.1413,0,0,1-.44232.29656,2.65522,2.65522,0,0,1-.60681.17043v.1268h3.72954v-.1268a1.89066,1.89066,0,0,1-.5433-.13868.94782.94782,0,0,1-.43-.32831.90891.90891,0,0,1-.114-.48047q-.01267-.342-.01234-.70871V15.09248h4.99458v1.998q0,.44278-.013.86c0,.101-.00183.20654-.0064.316-.00388.10943-.01051.215-.01873.3162q-.01269.15147-.03107.26548a.4543.4543,0,0,1-.04478.15216.87745.87745,0,0,1-.41719.29656,2.55611,2.55611,0,0,1-.78411.17043v.1268H62.115v-.1268a2.63474,2.63474,0,0,1-.607-.13868A.86932.86932,0,0,1,61.06563,18.97419Z" style="fill:#fff;fill-rule:evenodd"/><path d="M73.14071,11.76094a4.39,4.39,0,0,0-1.44735-1.01806,4.71049,4.71049,0,0,0-1.92874-.37949,5.47363,5.47363,0,0,0-1.87734.3226,4.663,4.663,0,0,0-1.55565.92279,4.40233,4.40233,0,0,0-1.05576,1.467,4.69654,4.69654,0,0,0-.3916,1.95388,4.63817,4.63817,0,0,0,.37287,1.87733,4.46531,4.46531,0,0,0,1.01806,1.467,4.55529,4.55529,0,0,0,1.50447.94815,5.11946,5.11946,0,0,0,3.66054-.00594,4.56461,4.56461,0,0,0,1.51727-.974,4.69332,4.69332,0,0,0,1.0304-1.49214,4.57955,4.57955,0,0,0,.37949-1.87094,4.88879,4.88879,0,0,0-.316-1.74482,4.454,4.454,0,0,0-.91068-1.4734Zm-.53736,4.82368h0a5.00849,5.00849,0,0,1-.58808,1.435,3.40862,3.40862,0,0,1-.97991,1.04342,2.37864,2.37864,0,0,1-1.38407.40416,2.62448,2.62448,0,0,1-1.39754-.36669,3.13427,3.13427,0,0,1-.99865-.97328,4.59575,4.59575,0,0,1-.60087-1.40349,6.70255,6.70255,0,0,1-.2022-1.65595,7.27926,7.27926,0,0,1,.18324-1.62556,4.77019,4.77019,0,0,1,.56934-1.43456,3.25279,3.25279,0,0,1,.98562-1.03109,2.5157,2.5157,0,0,1,1.42291-.39822,2.46213,2.46213,0,0,1,1.40349.39822,3.39428,3.39428,0,0,1,.9927,1.037,4.93966,4.93966,0,0,1,.594,1.42268,6.39161,6.39161,0,0,1,.19626,1.555A6.64716,6.64716,0,0,1,72.60335,16.58462Z" style="fill:#fff;fill-rule:evenodd"/><path d="M85.39332,17.1791l-.13914-.03816a8.53984,8.53984,0,0,1-.61344.92919,4.19851,4.19851,0,0,1-.61321.6516,2.6299,2.6299,0,0,1-.65731.41124,2.78807,2.78807,0,0,1-.74618.19557q-.36636.05039-.70209.06352c-.22276.00845-.40668.01233-.5497.01233a5.40186,5.40186,0,0,1-.93581-.07585.79478.79478,0,0,1-.54353-.25314,1.21168,1.21168,0,0,1-.14554-.53759q-.03119-.3595-.04409-.76492c0-.08339-.00206-.18711-.0064-.30957-.00457-.12178-.00594-.25064-.00594-.3852v-1.5175a3.97665,3.97665,0,0,1,.02468-.51863h.58214c.08362,0,.16838.00183.25269.0064.08407.00457.18963.011.316.01942a2.15872,2.15872,0,0,1,.6637.13868,1.69389,1.69389,0,0,1,.4871.29061,2.23476,2.23476,0,0,1,.43661.6452,4.38429,4.38429,0,0,1,.30957.8346h.15148V12.99353H82.7634a6.01086,6.01086,0,0,1-.17112.639,1.79435,1.79435,0,0,1-.25246.49875,1.37885,1.37885,0,0,1-.41124.36715,2.20344,2.20344,0,0,1-.63218.24035,2.88221,2.88221,0,0,1-.41125.05689q-.24572.01851-.49281.03107c-.16381.00914-.30957.013-.4366.013h-.25246v-.13914q0-.11377-.0064-.3226c-.00457-.13868-.00594-.318-.00594-.5369v-.80947q0-.83449.01874-1.467.01849-.63228.04409-.83414A3.606,3.606,0,0,1,80.165,10.686c.18986-.013.37309-.019.54992-.019a11.20918,11.20918,0,0,1,1.41629.07585,3.05092,3.05092,0,0,1,.796.17752,6.1476,6.1476,0,0,1,1.92211,1.71946l.127-.06351-.86019-2.08593H77.136v.12611a5.24059,5.24059,0,0,1,.557.10761.85787.85787,0,0,1,.40417.25909.53968.53968,0,0,1,.1204.24674,2.364,2.364,0,0,1,.06283.3852c.013.14394.02148.29542.026.45535.00388.16061.00571.316.00571.46836v3.19857c0,.25315-.00183.49921-.00571.73956q-.00686.36052-.013.66393c-.00457.20266-.00594.36259-.00594.48048,0,.13479-.00457.27188-.01279.41124a3.7294,3.7294,0,0,1-.04478.39823c-.02079.12634-.0441.23783-.06923.33493a.57647.57647,0,0,1-.101.22139,1.20333,1.20333,0,0,1-.44895.316,2.54291,2.54291,0,0,1-.58808.164v.1268h7.7385Z" style="fill:#fff;fill-rule:evenodd"/><path d="M96.56435,14.479q.01953-.73921.04455-1.28285c.01691-.38795.03313-.75258.05072-1.09392a2.12527,2.12527,0,0,1,.11332-.7014,1.11738,1.11738,0,0,1,.43638-.544,1.91064,1.91064,0,0,1,.75258-.24035v-.12611H94.82615v.12611a2.23076,2.23076,0,0,1,.92919.30958,1.15887,1.15887,0,0,1,.44894.57529,2.303,2.303,0,0,1,.114.72722q.01267.46128.01233.96757v4.29888l-5.99321-7.00465H87.77009v.12611a3.37127,3.37127,0,0,1,.42358.08225,1.2642,1.2642,0,0,1,.41125.18986,1.1638,1.1638,0,0,1,.329.36647,1.46726,1.46726,0,0,1,.17683.60041q.01268.36738.01234.61984V14.018q0,.84717-.01234,1.58672-.01268.73921-.03815,1.28286-.02536.721-.07586,1.23968a1.73636,1.73636,0,0,1-.22732.78434.99545.99545,0,0,1-.48047.39822,2.45208,2.45208,0,0,1-.60751.15741v.1268h3.11062v-.1268a2.59594,2.59594,0,0,1-.81541-.2079.91324.91324,0,0,1-.43592-.43661,2.09348,2.09348,0,0,1-.15856-.77131q-.03119-.51886-.03107-1.16383V11.55235q.8595.96093,1.63128,1.85883.7704.89754,1.5737,1.83918.8033.94243,1.68839,1.97923.88417,1.03668,1.95981,2.27579a.34888.34888,0,0,0,.22733.12634.13185.13185,0,0,0,.095-.03107.11342.11342,0,0,0,.03176-.08225v-.822q0-.45546-.0064-.9164-.00686-.4623-.0064-.90474v-.80878Q96.54561,15.21928,96.56435,14.479Z" style="fill:#fff;fill-rule:evenodd"/><path d="M104.51144,19.46722a2.5571,2.5571,0,0,1-.594-.13868.94526.94526,0,0,1-.48116-.32831.90993.90993,0,0,1-.11332-.48047q-.01267-.342-.01279-.70871V13.575q0-.31563.00639-.62555c.00457-.20608.0064-.41513.0064-.62555q.01269-.29061.01874-.61984a1.22392,1.22392,0,0,1,.11994-.544.8127.8127,0,0,1,.46814-.40416,3.27546,3.27546,0,0,1,.56934-.13937v-.12611h-3.78094v.12611a2.57582,2.57582,0,0,1,.58808.13274,1.01353,1.01353,0,0,1,.4366.30958.59723.59723,0,0,1,.11333.24675,2.63446,2.63446,0,0,1,.05688.35435c.01234.13092.01874.27143.01874.42359v3.65391c0,.25315-.00183.49921-.0064.73956q-.00582.36052-.01234.66393c-.00456.20266-.00639.36259-.00639.48048q0,.20219-.0064.41124c-.00457.13914-.01234.27188-.02536.39823a2.62613,2.62613,0,0,1-.05049.32831.51114.51114,0,0,1-.09459.215,1.24521,1.24521,0,0,1-.46174.329,2.54612,2.54612,0,0,1-.58808.164v.1268h3.83144Z" style="fill:#fff;fill-rule:evenodd"/><path d="M112.89423,10.61653q.16449.02537.36669.07586a1.6985,1.6985,0,0,1,.37309.13913,1.08327,1.08327,0,0,1,.29061.21522.42313.42313,0,0,1,.12064.30364,1.06721,1.06721,0,0,1-.17684.50514,5.419,5.419,0,0,1-.329.50584q-.32933.41775-.76491.9863-.43626.56924-.85357,1.04982-.46813-.67136-.79667-1.14509-.32934-.47294-.645-.9285-.22722-.32934-.40485-.61984a.98785.98785,0,0,1-.17661-.46836.374.374,0,0,1,.12612-.29016.913.913,0,0,1,.30386-.17729,2.40445,2.40445,0,0,1,.39183-.10121c.143-.02514.27-.042.37949-.0505v-.12611h-4.12228v.12611a2.30987,2.30987,0,0,1,.51246.22093,2.18991,2.18991,0,0,1,.41695.329,4.4754,4.4754,0,0,1,.40485.47407c.13845.186.29724.401.47408.645q.20185.279.53736.75189.33516.475.67627.95523.341.48115.61321.8659.27212.38589.34773.4871-.18917.2272-.46745.56866-.27794.342-.58168.70209-.303.36018-.58214.69546-.27794.33516-.46768.54993a7.70693,7.70693,0,0,1-1.11265,1.05621,3.17337,3.17337,0,0,1-1.04913.54924v.1268h3.35028v-.1268a3.60444,3.60444,0,0,1-.3788-.07516,1.85908,1.85908,0,0,1-.37972-.13937.90661.90661,0,0,1-.29061-.22139.46153.46153,0,0,1-.114-.30957,1.00279,1.00279,0,0,1,.13914-.48047,5.42239,5.42239,0,0,1,.3162-.50584c.10167-.14325.22527-.30775.37286-.49281q.22071-.279.46174-.57574.24024-.29746.48-.58808c.16061-.19374.30752-.37058.443-.53051q.48081.6693.85356,1.20655.37218.53907.66371.99362.21487.32831.379.62555a1.07556,1.07556,0,0,1,.165.47407.39409.39409,0,0,1-.11377.29061.79055.79055,0,0,1-.29085.17753,2.08663,2.08663,0,0,1-.37949.09458c-.13548.02148-.26114.04021-.37948.05643v.1268h4.09692v-.1268a1.22552,1.22552,0,0,1-.4807-.17043,2.17555,2.17555,0,0,1-.417-.34134,4.32782,4.32782,0,0,1-.41125-.4992q-.209-.29063-.46105-.658-.08944-.13914-.2785-.40416-.18953-.26526-.42359-.59448-.23406-.32831-.48709-.68906-.25259-.36052-.46768-.67627-.21556-.31666-.37949-.544-.16416-.22722-.215-.303.19055-.22858.43-.52525.24024-.29645.50583-.61345.26628-.31563.52457-.63194.25943-.316.47407-.56935a8.40636,8.40636,0,0,1,1.04982-1.08089,2.60785,2.60785,0,0,1,1.138-.54993v-.12611h-3.30047Z" style="fill:#fff;fill-rule:evenodd"/><path d="M48.66817,23.60413a1.475,1.475,0,0,1,.75578.199,1.29273,1.29273,0,0,1,.51474.53165l.46563-.27a1.9066,1.9066,0,0,0-.72128-.71305,2.00645,2.00645,0,0,0-1.01487-.265,2.08765,2.08765,0,1,0,1.01807,3.908,1.88252,1.88252,0,0,0,.71808-.7158l-.46563-.26479A1.30281,1.30281,0,0,1,49.424,26.54a1.47482,1.47482,0,0,1-.75578.19877,1.51971,1.51971,0,0,1-1.57575-1.5641,1.53627,1.53627,0,0,1,.4398-1.12156A1.52012,1.52012,0,0,1,48.66817,23.60413Z" style="fill:#fff;fill-rule:evenodd"/><path d="M55.26158,23.69688a2.09209,2.09209,0,1,0-.34065,3.22394l.45786.46242.36852-.33425-.44232-.44368a2.087,2.087,0,0,0-.04341-2.90843ZM54.936,26.235h0l-.82774-.83026-.36784.32762.807.8129a1.52331,1.52331,0,0,1-.75967.19351,1.49406,1.49406,0,0,1-1.10236-.45465,1.59652,1.59652,0,0,1-.00069-2.2253,1.56126,1.56126,0,0,1,2.20268,0A1.601,1.601,0,0,1,54.936,26.235Z" style="fill:#fff;fill-rule:evenodd"/><path d="M59.876,25.81274a.90459.90459,0,0,1-.25315.67536,1.17207,1.17207,0,0,1-1.44872,0,.90473.90473,0,0,1-.25338-.67536V23.16112h-.53416v2.67493a1.33936,1.33936,0,0,0,.42221,1.03748,1.719,1.719,0,0,0,2.17663,0,1.34386,1.34386,0,0,0,.4197-1.03748V23.16112H59.876Z" style="fill:#fff;fill-rule:evenodd"/><rect x="62.14218" y="23.16112" width="0.53485" height="4.02587" style="fill:#fff"/><path d="M67.002,25.66812a.56808.56808,0,0,0-.11218-.16952c-.05163-.05575-.0971-.103-.13525-.1412a.72833.72833,0,0,0-.17547-.12109c-.07836-.04226-.14051-.07516-.18666-.09778a2.04861,2.04861,0,0,0-.21567-.08682c-.09779-.03427-.1709-.06032-.21751-.07722-.04729-.01668-.125-.04387-.23441-.08271a2.44,2.44,0,0,1-.65548-.28764.46423.46423,0,0,1-.18963-.40211.52761.52761,0,0,1,.20129-.4366.82015.82015,0,0,1,.52845-.1613.92127.92127,0,0,1,.91456.62121l.44872-.2584a1.50863,1.50863,0,0,0-.53165-.63858,1.43646,1.43646,0,0,0-.83163-.24172,1.35516,1.35516,0,0,0-.897.30775,1.02753,1.02753,0,0,0-.36783.83095.9464.9464,0,0,0,.07768.39114.87368.87368,0,0,0,.47156.48641,2.60555,2.60555,0,0,0,.33219.14622c.08888.03061.21705.07448.38338.13228a3.14392,3.14392,0,0,1,.73064.30432.48345.48345,0,0,1,.21888.43136.54333.54333,0,0,1-.21888.45191,1.18709,1.18709,0,0,1-1.70781-.56067l-.45991.2648a1.40134,1.40134,0,0,0,.56021.72471,1.70816,1.70816,0,0,0,.96368.26411,1.5476,1.5476,0,0,0,1.00641-.31346,1.03,1.03,0,0,0,.38475-.84237,1.0772,1.0772,0,0,0-.02536-.239A1.43129,1.43129,0,0,0,67.002,25.66812Z" style="fill:#fff;fill-rule:evenodd"/><rect x="68.61199" y="23.16112" width="0.53485" height="4.02587" style="fill:#fff"/><polygon points="70.602 23.668 71.786 23.668 71.786 27.187 72.315 27.187 72.315 23.668 73.505 23.668 73.505 23.161 70.602 23.161 70.602 23.668" style="fill:#fff;fill-rule:evenodd"/><rect x="74.95476" y="23.16112" width="0.53508" height="4.02587" style="fill:#fff"/><path d="M79.141,23.08664a2.07241,2.07241,0,1,0,1.48116.60705,2.005,2.005,0,0,0-1.48116-.60705Zm1.10762,3.20064h0a1.58337,1.58337,0,0,1-2.21433,0,1.62013,1.62013,0,0,1,0-2.2317,1.58337,1.58337,0,0,1,2.21433,0,1.62016,1.62016,0,0,1,0,2.2317Z" style="fill:#fff;fill-rule:evenodd"/><polygon points="85.295 26.184 83.207 23.161 82.793 23.161 82.793 27.187 83.328 27.187 83.328 24.18 85.399 27.187 85.829 27.187 85.829 23.161 85.295 23.161 85.295 26.184" style="fill:#fff;fill-rule:evenodd"/><polygon points="91.08 23.161 90.545 23.161 90.545 27.187 92.817 27.187 92.817 26.681 91.08 26.681 91.08 23.161" style="fill:#fff;fill-rule:evenodd"/><rect x="94.27165" y="23.16112" width="0.53508" height="4.02587" style="fill:#fff"/><polygon points="98.481 25.298 97.193 23.161 96.589 23.161 96.589 27.187 97.124 27.187 97.124 24.039 98.445 26.23 98.51 26.232 99.827 24.041 99.827 27.187 100.356 27.187 100.356 23.161 99.758 23.161 98.481 25.298" style="fill:#fff;fill-rule:evenodd"/><rect x="102.13855" y="23.16112" width="0.53485" height="4.02587" style="fill:#fff"/><polygon points="104.129 23.668 105.313 23.668 105.313 27.187 105.842 27.187 105.842 23.668 107.033 23.668 107.033 23.161 104.129 23.161 104.129 23.668" style="fill:#fff;fill-rule:evenodd"/><polygon points="109.016 25.405 110.713 25.405 110.713 24.904 109.016 24.904 109.016 23.668 110.857 23.668 110.857 23.161 108.482 23.161 108.482 27.187 110.886 27.187 110.886 26.681 109.016 26.681 109.016 25.405" style="fill:#fff;fill-rule:evenodd"/><path d="M114.0199,23.16112h-1.56982V27.187h1.56982a1.78824,1.78824,0,0,0,1.36579-.58351,2.15047,2.15047,0,0,0,0-2.85816,1.78884,1.78884,0,0,0-1.36579-.5842Zm1.00641,3.08869h0a1.29811,1.29811,0,0,1-1.00641.43135h-1.035V23.66764h1.035a1.29734,1.29734,0,0,1,1.00641.43135,1.67395,1.67395,0,0,1,0,2.15082Z" style="fill:#fff;fill-rule:evenodd"/><path d="M44.489,15.788h.68313q.39171,0,.80307-.03176.41022-.03119.81541-.09459a4.186,4.186,0,0,0,.75852-.18963,3.52954,3.52954,0,0,0,.66964-.33562,2.486,2.486,0,0,0,.57506-.49852,2.40552,2.40552,0,0,0,.39891-.67033,2.25309,2.25309,0,0,0,.15216-.84717,2.33426,2.33426,0,0,0-.36715-1.3153,2.58481,2.58481,0,0,0-.923-.86,3.368,3.368,0,0,0-1.21431-.39845,11.9011,11.9011,0,0,0-1.47912-.08156h-.56866c-.21956,0-.454.00205-.70186.00594q-.3732.00651-.75258.00708-.379,0-.7014.00571-.32249.00685-.563.00663h-.30364v.12611q.342.05073.63858.12064a.94263.94263,0,0,1,.4871.27119.5387.5387,0,0,1,.11971.24675,2.39773,2.39773,0,0,1,.06352.379q.01953.20973.02513.443c.00457.15605.00663.30935.00663.46174v3.19857c0,.25315-.00206.49921-.00663.74025q-.00582.35949-.01211.66324-.00686.304-.00662.48048c0,.13479-.00457.27462-.01234.41695-.00891.14394-.01942.27851-.03222.40485a2.2623,2.2623,0,0,1-.05711.342.56315.56315,0,0,1-.101.22733.98983.98983,0,0,1-.45534.30364,3.49738,3.49738,0,0,1-.60681.151v.1268h4.04642v-.1268a1.8385,1.8385,0,0,1-.80946-.18917,1.05272,1.05272,0,0,1-.39114-.329.912.912,0,0,1-.13937-.48047q-.01371-.29061-.02582-.695c0-.14371-.002-.27645-.00594-.39891-.00457-.12178-.0064-.25452-.0064-.39822V15.788Zm0-.73385h0V13.99217q0-.60624.0064-1.2383.00584-.63264.01874-1.07518c.00776-.19351.0169-.34385.026-.4494.00777-.10487.01622-.18712.02445-.24606a.82461.82461,0,0,1,.03176-.14508,1.01179,1.01179,0,0,0,.03175-.13343c.05826-.00845.13731-.01873.234-.03175a3.49027,3.49027,0,0,1,.41124-.018,4.9096,4.9096,0,0,1,.7078.0498A2.2979,2.2979,0,0,1,47.606,11.75454a2.32274,2.32274,0,0,1,.37309,1.30228,2.5117,2.5117,0,0,1-.43,1.43525,2.36925,2.36925,0,0,1-1.239.91639,3.17335,3.17335,0,0,1-.84785.17089c-.303.02148-.62807.03108-.97329.03108Z" style="fill:#fff;fill-rule:evenodd"/><path d="M43.41725,23.16112,41.91666,27.187h.56912l.329-.90291h1.80948l.32831.90291h.56935L44.022,23.16112Zm-.42038,2.62306h0l.72265-1.98768.72356,1.98768Z" style="fill:#fff;fill-rule:evenodd"/><path d="M28.62726,24.64686l-.438-.13662.25063-.1003A7.93464,7.93464,0,0,0,31.063,22.51547a10.54738,10.54738,0,0,0,3.20383-6.23928,4.57494,4.57494,0,0,1-1.671,1.88145,11.111,11.111,0,0,1-2.91824,1.25247l-.70963.21819.13388-.21888a10.25325,10.25325,0,0,0,1.3498-4.55157,32.78165,32.78165,0,0,0-.00319-4.05671l-.00275-.04455c-.029-.706-.06008-1.43594-.06328-2.1547A7.09436,7.09436,0,0,1,30.62,6.42777a3.13028,3.13028,0,0,1,.851-1.38407c-1.90613.75715-3.757,3.41448-4.58014,5.65463a21.63323,21.63323,0,0,0-.93124,4.21275l-.05369.3555a17.31569,17.31569,0,0,1-1.1652,4.56528,7.17917,7.17917,0,0,1-1.98106,2.637,2.29064,2.29064,0,0,0-.23372.1645,1.51229,1.51229,0,0,1-1.55383.04409,6.03023,6.03023,0,0,1-.5337-.28558L20.39,22.36262a4.43887,4.43887,0,0,0-.76743-.38657,1.16389,1.16389,0,0,0-1.28879.25269c-.02925.042-.05575.088-.08157.13205l-.00777.013a1.323,1.323,0,0,1-.13159.20128.28815.28815,0,0,1-.0473.04866l-.119.114-.04547-.1549c-.09778-.5264-.2239-1.06673-.32442-1.50059a3.67082,3.67082,0,0,0-.42222-1.17982l-.09595-.14576.17569-.00275a.71965.71965,0,0,1,.125.00343,1.13192,1.13192,0,0,1,.66645.3523,2.06815,2.06815,0,0,1,.18826.22779c-.0128-.14828-.02193-.2945-.03107-.43844a8.17561,8.17561,0,0,0-.07951-.81975,2.03577,2.03577,0,0,0-.74938-1.3827l-.3354-.22413.40143.04913a1.32165,1.32165,0,0,0,1.02126-.31461,3.78889,3.78889,0,0,1-1.69548-.45785c-.03107-.01622-.06351-.03313-.09573-.04729l-.11606-.0473.07654-.09984c.04021-.05186.079-.1035.11469-.15787a1.48047,1.48047,0,0,0,.26868-.65365,2.16248,2.16248,0,0,1-1.15149.45991,5.98251,5.98251,0,0,1-1.32375-.05438l-.01874-.00206a3.94337,3.94337,0,0,0-1.72654.03839c-.10236.0329-.20357.07494-.31483.12223a2.62781,2.62781,0,0,1-.57438.19054,2.636,2.636,0,0,1-.5481.00457l-.0795-.00457c-.08225-.00457-.16587-.00982-.2415-.00982a1.40817,1.40817,0,0,0-.186.011,1.62086,1.62086,0,0,1,.515.26754c.05872.04158.11584.08682.1741.13206l.042.0345a2.26575,2.26575,0,0,0,.57186.369,4.5485,4.5485,0,0,1,1.305-.11652h.00069a2.35654,2.35654,0,0,1,1.70644,1.26092,2.76391,2.76391,0,0,1,.12314,2.12888,3.381,3.381,0,0,1-1.31872,1.67788.37488.37488,0,0,1-.16884.0738l.01165.0875-.16518-.08407a.48614.48614,0,0,1-.23327-.36007,1.30638,1.30638,0,0,1-.011-.22413l.00069-.01622a1.44053,1.44053,0,0,0-.00389-.1709,1.14777,1.14777,0,0,0-.98447-.86932,4.23,4.23,0,0,0-.83415-.05484h-.0498c-.20266,0-.4197-.00205-.63332-.02353A1.676,1.676,0,0,1,9.739,20.072l-.04-.0329c-.70529-.85881-1.51887-2.25134-1.55314-5.41107A13.8312,13.8312,0,0,1,9.45933,8.87719c.17158-.38543.35939-.77588.54125-1.15286l.02536-.05186a12.16459,12.16459,0,0,0,1.3891-3.9804,6.04774,6.04774,0,0,0-.592-3.23285A3.192,3.192,0,0,1,10.7792,1.7117a7.09923,7.09923,0,0,1-.89583,1.99865c-.36395.61253-.75623,1.2214-1.13595,1.81017L8.712,5.57558A32.691,32.691,0,0,0,6.65624,9.06934a10.29416,10.29416,0,0,0-1.13847,4.5879c.05438.09321.10624.18254.15491.27256a9.639,9.639,0,0,1,1.08409,5.51458l-.00526.05072-.06991-.00069-.00137.03427-.005-.03427L6.56759,19.493l-.0032-.05186a8.40514,8.40514,0,0,0-1.56867-3.92466c-.16952-.26091-.34636-.52525-.51748-.77839A15.58245,15.58245,0,0,1,2.7887,11.7863,5.64309,5.64309,0,0,1,2.404,8.975a10.80366,10.80366,0,0,0-.14965,6.39144,7.93755,7.93755,0,0,0,1.305,2.96028l.03633.04593A6.54215,6.54215,0,0,1,5.07683,20.504l.02262.04866-.16839.08659-.026-.04592a2.9846,2.9846,0,0,0-1.37927-1.26161,5.95683,5.95683,0,0,0-.71443-.24926,4.836,4.836,0,0,1-.95774-.36715A2.46917,2.46917,0,0,1,.7784,17.43224a8.211,8.211,0,0,0,1.87482,5.58129A18.82341,18.82341,0,0,0,5.96078,25.746l.03244.02376c.67216.48,1.30822.93467,1.81793,1.36328l.08614.072-.08568.07516c-.09893.08477-.19488.17935-.2913.27714a4.66913,4.66913,0,0,1-.35938.33539,2.37082,2.37082,0,0,1-1.07267.48961,3.23238,3.23238,0,0,0,1.03429.20723h.05a2.5882,2.5882,0,0,0,1.37882-.496l.01553-.01485.02445-.0032h.28513l-.21773.18117a4.8965,4.8965,0,0,0-.807.85105,5.58539,5.58539,0,0,0-.96368,2.49672,11.92288,11.92288,0,0,1,2.12362-2.75763,20.13032,20.13032,0,0,1,2.47981-2.11654,13.3964,13.3964,0,0,0-1.63013.71557l-.48641.26182.36852-.41124a7.96328,7.96328,0,0,1,4.30026-2.46565l.02787-.0064c.04661-.024.103-.04935.15742-.07516l.0201-.00914a7.12246,7.12246,0,0,0,.78868-.40279,1.75439,1.75439,0,0,0,.90223-1.22849l.00525-.05506.19169.018-.00457.05392a9.72871,9.72871,0,0,1-4.15015,7.1984c-.23053.15856-.472.30957-.70506.45511L11.24414,30.8c-.27074.16838-.58808.36921-.88783.58557l-.13274.11789a5.12061,5.12061,0,0,0-1.67492,3.924,6.75122,6.75122,0,0,1,2.49147-3.47777A22.09852,22.09852,0,0,1,13.46875,30.381l.03815-.02262c.59517-.3491,1.21044-.71123,1.7855-1.10694a7.68215,7.68215,0,0,0,1.85174-1.68885l.06466-.08682-.00251-.00319.04135-.06032a4.31619,4.31619,0,0,0,.33151-.55244l.09207-.1846.09071.156a7.123,7.123,0,0,1,.80421,2.18532l.10761.538-.2849-.46813a13.20782,13.20782,0,0,0-1.06079-1.46427,20.0481,20.0481,0,0,1,1.08478,3.10148,11.93569,11.93569,0,0,1,.43523,3.45309,5.57012,5.57012,0,0,0,.43181-2.64225,4.89571,4.89571,0,0,0-.26685-1.14829l-.0064-.0265-.00069-.57529.18918.533a2.56886,2.56886,0,0,0,.93649,1.11585,3.1413,3.1413,0,0,0,1.03931.36989,2.38531,2.38531,0,0,1-.67924-.96551,4.46331,4.46331,0,0,1-.13982-.47613l-.01508-.05506c-.029-.10944-.05895-.22071-.09436-.32832l-.03838-.10555.11218-.01942c.67924-.11606,1.501-.1878,2.2952-.25908a18.78788,18.78788,0,0,0,4.23675-.68336,8.185,8.185,0,0,0,4.5767-4.12342A4.54938,4.54938,0,0,1,28.62726,24.64686Z" style="fill:#fff;fill-rule:evenodd"/><path d="M31.40431,15.69473a4.54568,4.54568,0,0,1-.49875,2.183,4.692,4.692,0,0,0,1.30182-.95523,5.063,5.063,0,0,0,1.35277-3.33338,9.78052,9.78052,0,0,0-.02856-1.764c-.018-.23327-.03609-.47545-.04706-.71306a4.87559,4.87559,0,0,1,.32625-2.24265,6.84169,6.84169,0,0,0-1.81839,3.03544,15.917,15.917,0,0,0-.58625,3.75947Z" style="fill:#fff;fill-rule:evenodd"/><path d="M31.22862,23.23766a5.11982,5.11982,0,0,1-.88075.92873,2.94319,2.94319,0,0,0,2.48758-.75852,6.04128,6.04128,0,0,0,.72539-.90086,4.35379,4.35379,0,0,1,1.04845-1.15971,5.21891,5.21891,0,0,0-2.55818,1.0103A5.34118,5.34118,0,0,0,31.22862,23.23766Z" style="fill:#fff;fill-rule:evenodd"/><path d="M21.366,30.28321a1.13083,1.13083,0,0,0,.48618.59334,3.5711,3.5711,0,0,0,.70529.31986l.2111.07973a3.0027,3.0027,0,0,1,.58557.292,2.14272,2.14272,0,0,0-.74664-.7583A5.46275,5.46275,0,0,0,21.366,30.28321Z" style="fill:#fff;fill-rule:evenodd"/><path d="M24.32815,30.063a7.5286,7.5286,0,0,1-1.80743.0642,7.497,7.497,0,0,0,1.74414.88783,3.86038,3.86038,0,0,0,2.3553.08545c.13662-.04273.26822-.09322.425-.15673l.0201-.00777a5.118,5.118,0,0,1,.50561-.17866,1.82673,1.82673,0,0,1,.50469-.07631l.03107.00045a4.87722,4.87722,0,0,0-2.41515-.71419A12.052,12.052,0,0,0,24.32815,30.063Z" style="fill:#fff;fill-rule:evenodd"/><path d="M4.529,9.63343A9.50478,9.50478,0,0,1,5.4024,7.35764c.05254-.10281.10372-.20379.15558-.305a14.18,14.18,0,0,0,.836-1.88327A6.87989,6.87989,0,0,0,6.72432,2.7823a5.57821,5.57821,0,0,1-.74093,1.55223c-.132.20219-.27142.40416-.4021.59082l-.00846.0128a9.7061,9.7061,0,0,0-.904,1.48711A5.01556,5.01556,0,0,0,4.1513,9.95032a5.5413,5.5413,0,0,0,.305.88646A4.20666,4.20666,0,0,1,4.529,9.63343Z" style="fill:#fff;fill-rule:evenodd"/><path d="M1.7286,16.93806a4.57013,4.57013,0,0,1-.43478-.623,7.32253,7.32253,0,0,1-.58922-1.5801c-.05049-.17547-.10167-.35162-.15673-.52594A4.704,4.704,0,0,0,0,13.01158a6.23736,6.23736,0,0,1,.15924,1.07769,6.00882,6.00882,0,0,0,.16907,1.13321A2.85292,2.85292,0,0,0,1.7286,16.93806Z" style="fill:#fff;fill-rule:evenodd"/><path d="M5.43872,26.79768c-.0297,0-.05894,0-.088.00137a2.11108,2.11108,0,0,0-1.02788.27576c.042-.0032.08613-.00388.13274-.00388a3.5325,3.5325,0,0,1,.51885.04592l.0297.00525c.06215.01166.12429.02262.18666.03245a4.297,4.297,0,0,0,.77909.08293,1.11835,1.11835,0,0,0,.71808-.26434A5.76748,5.76748,0,0,0,5.43872,26.79768Z" style="fill:#fff;fill-rule:evenodd"/><path d="M5.77046,26.25438a7.58066,7.58066,0,0,1-1.52526-.97032l-.01028-.00822A10.00167,10.00167,0,0,0,3.117,24.51161a4.77356,4.77356,0,0,0-2.44874-.60819,1.90463,1.90463,0,0,1,.42816.33471c.12177.1284.23052.26685.33608.40234l.05894.07379c.07974.10373.16267.20859.25.30569a3.89047,3.89047,0,0,0,2.075,1.11722A7.87954,7.87954,0,0,0,5.77046,26.25438Z" style="fill:#fff;fill-rule:evenodd"/><path d="M10.37184,11.7221l.13137-.329a21.71255,21.71255,0,0,0,1.33084-4.10926c.05392-.29838.09778-.62555.13091-.97008.013-.13868.01942-.28376.02513-.42495l.00663-.13708c.00183-.05072.00525-.09984.00845-.149.00571-.096.01165-.19168.01417-.2897.00388-.25634-.00526-.52-.01485-.76537-.00206-.037-.00252-.07265-.0032-.10875,0-.04615-.00069-.09322-.0032-.14-.01691-.27577-.04729-.5433-.07837-.79142-.00388-.03222-.00731-.06466-.0105-.09824-.00389-.03953-.00777-.07905-.013-.11927-.03358-.23646-.07836-.46173-.13457-.72721-.00708-.03176-.013-.06558-.01942-.09779-.00913-.04935-.01873-.09847-.03107-.14713-.05049-.2118-.11469-.41582-.18209-.623l-.0297-.09573c-.01873-.061-.0377-.12383-.05963-.18278-.05575-.1533-.12246-.29724-.1878-.43706a6.21445,6.21445,0,0,1,.3555,2.73227A12.35459,12.35459,0,0,1,10.20529,7.749l-.0265.05369c-.18255.377-.37172.76674-.54216,1.154a13.677,13.677,0,0,0-1.29908,5.66811,8.94,8.94,0,0,0,.96962,4.51273A6.97352,6.97352,0,0,1,9.0209,17.124a8.52876,8.52876,0,0,1,.04524-.87367A17.28756,17.28756,0,0,1,10.37184,11.7221Z" style="fill:#fff;fill-rule:evenodd"/><path d="M10.77075.066l.00183.00388c.03244.042.06488.085.09664.12954-.03176-.04409-.061-.09253-.0907-.13845A.53806.53806,0,0,0,10.739,0C10.75133.02079,10.7591.04478,10.77075.066Z" style="fill:#fff;fill-rule:evenodd"/><path d="M6.929,4.82231c.0064-.05049.00845-.09984.01028-.149.00252-.037.00389-.07448.00708-.11081.01623-.18849.03313-.4053.03313-.61138,0-.07631-.00525-.15285-.01051-.22665-.00182-.03678-.005-.07311-.00639-.11012l-.00137-.01873c-.00709-.14759-.01486-.2993-.03222-.443a7.10844,7.10844,0,0,1-.35116,2.077,14.06533,14.06533,0,0,1-.84831,1.90978c-.05117.101-.103.20471-.15353.30569a9.29742,9.29742,0,0,0-.85881,2.226,4.056,4.056,0,0,0-.03108,1.55039,3.0438,3.0438,0,0,1,.1645-.68769c.02993-.096.03382-.19694.06991-.29153.12635-.32648.28582-.64634.44506-.96049L5.378,9.25714A15.9031,15.9031,0,0,0,6.76956,5.73025,8.48419,8.48419,0,0,0,6.929,4.82231Z" style="fill:#fff;fill-rule:evenodd"/><path d="M6.91418,2.75832c-.01691-.08682-.03061-.17615-.048-.26229-.00388-.0201-.00594-.04089-.011-.05963.00182.02011.00045.0409.00182.06077v.00457C6.87785,2.58673,6.89727,2.6715,6.91418,2.75832Z" style="fill:#fff;fill-rule:evenodd"/><path d="M1.83073,16.65636c-.00434-.01873-.0096-.03815-.01554-.05689-.00708-.0233-.01416-.048-.01942-.07379-.04455-.21842-.07836-.44049-.10281-.60888a5.2524,5.2524,0,0,0-.26183-1.16314c-.0265-.06534-.05826-.12748-.09184-.193l-.04547-.09c-.01416-.03039-.02833-.0594-.04135-.08933-.029-.06352-.05826-.12566-.09253-.18712-.05-.08545-.10944-.173-.1677-.25657l-.04158-.06009c-.01622-.02467-.0329-.05049-.0498-.07516-.03176-.04981-.06352-.09779-.09916-.14508-.06534-.08751-.13914-.16976-.21042-.25132L.54536,13.3536l-.00069.00046-.04935-.05689c-.04135-.04729-.0827-.09459-.1268-.13982-.03244-.03313-.06488-.0642-.09847-.09665a5.36107,5.36107,0,0,1,.46311,1.0914c.05438.1741.10555.35162.156.52914a7.13309,7.13309,0,0,0,.57438,1.53943,4.37087,4.37087,0,0,0,.40347.58991c-.00959-.0409-.01941-.08157-.02855-.12315Z" style="fill:#fff;fill-rule:evenodd"/><path d="M13.79843,22.04985l-.00845.03769a.32329.32329,0,0,0-.00594.03816.53106.53106,0,0,0,.05643-.03176,3.19039,3.19039,0,0,0,1.2447-1.58352,2.56312,2.56312,0,0,0-.114-1.9765,2.14746,2.14746,0,0,0-1.56274-1.156,4.24292,4.24292,0,0,0-1.143.0939,1.09752,1.09752,0,0,0,.05323.09778l.0064.011.01417.02285.01051.016a3.02682,3.02682,0,0,0,.65867.61139,5.41734,5.41734,0,0,1,.47134.39,2.62923,2.62923,0,0,1,.77657,1.92532,2.54238,2.54238,0,0,1-.32192,1.226l-.02125.03769c-.03061.05232-.05894.106-.085.15993v.00069l-.01805.03495A.2384.2384,0,0,0,13.79843,22.04985Z" style="fill:#fff;fill-rule:evenodd"/><path d="M11.134,30.64077c.24994-.15559.50126-.31278.73955-.47476a9.617,9.617,0,0,0,3.97789-6.31445,2.47908,2.47908,0,0,1-.71123.6484,7.36732,7.36732,0,0,1-.81083.41581l-.21637.09961a15.37729,15.37729,0,0,0-5.3784,7.58634,3.94372,3.94372,0,0,1,.33151-.40142c.07379-.08682.14325-.19123.21956-.26571a2.84,2.84,0,0,1,.63332-.47065c.01827-.01051.03312-.02924.05186-.03884l.00639-.00342a.13641.13641,0,0,0,.02331-.01348c.00914-.0064.019-.01166.02856-.0176l.02216-.018.01988-.01691.03518.04272-.02467-.05049c.0297-.02445.06008-.04981.09184-.07311C10.48242,31.04676,10.81347,30.84091,11.134,30.64077Z" style="fill:#fff;fill-rule:evenodd"/><path d="M2.96874,11.71433A15.32121,15.32121,0,0,0,4.63885,14.628l.05849.08887c.15284.2271.31.46174.46174.69341a10.12,10.12,0,0,1,1.45581,3.08342,9.5261,9.5261,0,0,0-1.112-4.47389c-.03564-.064-.07311-.12931-.11012-.19557l-.04341-.0738-.12177-.13205c-.06854-.07654-.138-.15148-.20654-.228A11.07387,11.07387,0,0,1,3.139,10.83358a5.28334,5.28334,0,0,1-.28285-.70917c-.01119-.03427-.019-.0674-.02673-.101-.005-.024-.011-.0473-.01736-.0706a5.0934,5.0934,0,0,1-.12246-.5168c-.00777-.04981-.013-.09778-.01623-.14759l-.00388-.0441c-.00251-.03107-.00457-.061-.00777-.09207L2.6571,9.10384c-.011-.11287-.02193-.2287-.02193-.34271v-.0329A5.29083,5.29083,0,0,0,2.96874,11.71433Z" style="fill:#fff;fill-rule:evenodd"/><path d="M1.49785,17.72491l-.06534-.04135a2.56222,2.56222,0,0,1-.25246-.17158l-.0176-.01622c-.0265-.02262-.05186-.04592-.07516-.06991L1.064,17.40117c-.01873-.018-.03678-.03747-.0562-.05574-.0233-.02262-.04866-.04524-.074-.06786-.0096-.00845-.01988-.01828-.03039-.0265a2.291,2.291,0,0,0,1.04456,1.29451,4.53961,4.53961,0,0,0,.9004.347l.016.00389a6.40947,6.40947,0,0,1,.74024.2584,3.15639,3.15639,0,0,1,.81815.53233,4.9544,4.9544,0,0,0-.99293-1.21043L3.428,18.47567l-.14965-.03428a6.27557,6.27557,0,0,1-1.52709-.55449,1.64678,1.64678,0,0,1-.17364-.10875C1.55177,17.7601,1.52572,17.74182,1.49785,17.72491Z" style="fill:#fff;fill-rule:evenodd"/><path d="M12.63712,15.47517c.07334-.02924.15285-.06146.234-.08864a4.1936,4.1936,0,0,1,1.79783-.04684c.23053.02673.46882.0546.70255.0674l.4334-1.56068.40348-.50515-.37446-.56226-.58351.41833.17158.60247-.03176.20448-.01211.01234-.605.61458-.49806-.87938.00525-.31483.33014-.6781-.61572-.57186-.616.57186.3354.70141v.29152l-.0064.013-.491.86635-.6171-.62692-.03176-.20448.1709-.60247-.58351-.41833-.37424.56226.41376.52457Z" style="fill:#fff;fill-rule:evenodd"/></g></g></svg>