<svg xmlns="http://www.w3.org/2000/svg" viewBox="0 0 106.43986 32.2724"><g id="图层_2" data-name="图层 2"><g id="Layer_1" data-name="Layer 1"><path d="M25.91773,3.20187a.295.295,0,0,0-.25722-.14749l-8.64988.04655a.29556.29556,0,0,0-.25533.1494l-1.69582,2.9779L13.41805,3.37169a.2952.2952,0,0,0-.25651-.14749l-8.65131.047a.29438.29438,0,0,0-.25461.14892L.03839,10.82666a.29594.29594,0,0,0,.00143.294l4.40225,7.53382a.29546.29546,0,0,0,.256.14607L7.88786,18.783l-2.025,3.32134a.29458.29458,0,0,0-.00285.30212l4.39845,7.52788a.297.297,0,0,0,.25651.14607l8.89167-.04774,4.06712-7.73119a.29371.29371,0,0,0-.00475-.28335l-1.945-3.41136,4.56542-.02494,4.06712-7.73048a.29388.29388,0,0,0-.00546-.28406L25.91773,3.20187ZM12.944,4.164h0a.2942.2942,0,0,1,.51255-.004l1.39632,2.43115-2.31478,4.065a.296.296,0,0,0,.00214.295l2.186,3.74126a.28944.28944,0,0,0-.08479.10569l-1.41793,3.09167a.27322.27322,0,0,1-.07553-.08361L9.27207,11.06892a.29351.29351,0,0,1-.0019-.29024L12.944,4.164ZM4.93846,18.31464h0a.29323.29323,0,0,1-.25651-.14749L.79439,11.40951a.29418.29418,0,0,1,.25318-.44082l7.48537-.04037a.29373.29373,0,0,1,.25722.148L12.6459,17.8344a.29452.29452,0,0,1-.25389.44034l-7.45355.0399ZM18.20768,29.55457h0L10.756,29.595a.29323.29323,0,0,1-.25723-.14821l-3.88661-6.756a.295.295,0,0,1,.25366-.44248l7.48394-.04038a.29386.29386,0,0,1,.25722.14892l3.855,6.75669a.29494.29494,0,0,1-.25437.441Zm4.84544-7.535h0a.29532.29532,0,0,1,.00523.28478l-3.57762,6.77141a.29476.29476,0,0,1-.51634.0095l-3.87522-6.73579a.29425.29425,0,0,1-.00214-.291l1.9369-3.48688,1.73643-3.12658a.29531.29531,0,0,1,.51374-.004l1.8198,3.16767,1.95922,3.41088Zm1.83643-3.91511h0l-3.461.01828a.29532.29532,0,0,1-.25793-.1482L19.27125,14.656a.29421.29421,0,0,0-.26316-.14821l-3.22634.077-.39854.00927a.15667.15667,0,0,1-.02613-.00262.29391.29391,0,0,1-.23775-.14606l-1.82716-3.20615a.29472.29472,0,0,1,.25437-.44082l3.70564-.02043.4154-.0019,3.36433-.01829a.29516.29516,0,0,1,.25794.14892l3.855,6.75621a.29553.29553,0,0,1-.25532.44154Zm1.27448-.47859h0a.29528.29528,0,0,1-.51706.00879l-3.87521-6.736a.2953.2953,0,0,1-.00191-.29024l3.67334-6.61347a.29509.29509,0,0,1,.51349-.004l3.779,6.57856a.29525.29525,0,0,1,.00546.28477Z" style="fill:#fff;fill-rule:evenodd"/><rect x="38.49175" y="0.53577" width="0.91906" height="6.85013" transform="translate(-0.02072 0.20938) rotate(-0.30791)" style="fill:#fff"/><polygon points="44.224 7.357 44.178 2.478 49.237 7.558 49.265 7.557 49.226 0.48 48.308 0.485 48.353 5.44 43.304 0.304 43.257 0.304 43.295 7.362 44.224 7.357" style="fill:#fff;fill-rule:evenodd"/><path d="M54.36361,6.91416a3.62631,3.62631,0,0,0,1.85471.45388,3.18363,3.18363,0,0,0,1.102-.19048,4.06241,4.06241,0,0,0,.83627-.40733l-.3926-.822a2.73776,2.73776,0,0,1-2.92114.20046,2.26041,2.26041,0,0,1-.88615-.92843A2.86613,2.86613,0,0,1,53.6411,3.8859a2.67876,2.67876,0,0,1,.32919-1.32364,2.58442,2.58442,0,0,1,.89541-.95669,2.28248,2.28248,0,0,1,1.2246-.35745,2.80964,2.80964,0,0,1,1.58491.52181L58.04026.9061A3.79427,3.79427,0,0,0,57.13867.513,3.73916,3.73916,0,0,0,56.05753.36743,3.35478,3.35478,0,0,0,54.31159.836,3.22791,3.22791,0,0,0,53.1105,2.11265a3.78271,3.78271,0,0,0-.42538,1.82574,3.54452,3.54452,0,0,0,.44035,1.73169A3.21068,3.21068,0,0,0,54.36361,6.91416Z" style="fill:#fff;fill-rule:evenodd"/><polygon points="66.184 7.239 66.18 6.348 62.513 6.368 62.502 4.255 65.657 4.238 65.652 3.357 62.497 3.374 62.486 1.289 66.02 1.27 66.015 0.389 61.562 0.413 61.599 7.263 66.184 7.239" style="fill:#fff;fill-rule:evenodd"/><path d="M70.59909,7.21461l-.01354-2.52,1.01393-.00547A2.47981,2.47981,0,0,0,72.901,4.36924a1.85661,1.85661,0,0,0,.74388-.81918A2.54233,2.54233,0,0,0,73.871,2.46868a1.983,1.983,0,0,0-.63819-1.56A2.5451,2.5451,0,0,0,71.48167.35935L69.64382.36957l.037,6.85026.91822-.00522ZM71.62845,1.24h0a1.24058,1.24058,0,0,1,1.00657.37835,1.32961,1.32961,0,0,1,.32658.87452,1.43159,1.43159,0,0,1-.12921.58308,1.20464,1.20464,0,0,1-.43773.5097,1.40528,1.40528,0,0,1-.79969.21281L70.581,3.80372,70.5675,1.2455Z" style="fill:#fff;fill-rule:evenodd"/><polygon points="78.469 1.203 78.501 7.171 79.42 7.167 79.388 1.198 81.226 1.188 81.221 0.307 76.673 0.331 76.678 1.212 78.469 1.203" style="fill:#fff;fill-rule:evenodd"/><rect x="84.60279" y="0.28639" width="0.91929" height="6.84978" transform="translate(-0.01883 0.46016) rotate(-0.30992)" style="fill:#fff"/><path d="M90.7207,6.71774a3.5176,3.5176,0,0,0,3.5009-.02423,3.50054,3.50054,0,0,0,1.27733-1.28137,3.40122,3.40122,0,0,0,.46386-1.7552,3.35007,3.35007,0,0,0-.48808-1.74023A3.61981,3.61981,0,0,0,94.18408.63961a3.42295,3.42295,0,0,0-3.49164.01877A3.598,3.598,0,0,0,89.42532,1.949a3.37779,3.37779,0,0,0-.46457,1.7457,3.4632,3.4632,0,0,0,1.75995,3.023Zm-.48262-4.33718h0a2.544,2.544,0,0,1,.91822-.9669,2.44732,2.44732,0,0,1,1.28659-.3622,2.47569,2.47569,0,0,1,1.29063.34344,2.55522,2.55522,0,0,1,.93389.95194,2.64462,2.64462,0,0,1,.34795,1.31485,2.63833,2.63833,0,0,1-.32919,1.31438,2.496,2.496,0,0,1-.91417.95266,2.55791,2.55791,0,0,1-2.57651.00926A2.59315,2.59315,0,0,1,89.9089,3.69946,2.66353,2.66353,0,0,1,90.23808,2.38056Z" style="fill:#fff;fill-rule:evenodd"/><polygon points="100.349 7.054 100.304 2.175 105.362 7.254 105.391 7.254 105.353 0.176 104.433 0.181 104.479 5.136 99.43 0 99.382 0 99.42 7.058 100.349 7.054" style="fill:#fff;fill-rule:evenodd"/><path d="M40.55311,18.30514a5.12992,5.12992,0,0,0,2.47675.5648,5.4592,5.4592,0,0,0,1.62053-.28264,4.11686,4.11686,0,0,0,1.28327-.60327l-.01948-3.62963-3.00806.01615.00594,1.156,1.79011-.00926.0095,1.77729a2.48656,2.48656,0,0,1-.74388.27123,4.49171,4.49171,0,0,1-.91964.09833,3.85968,3.85968,0,0,1-1.81719-.40661,2.98041,2.98041,0,0,1-1.23672-1.16808,3.40607,3.40607,0,0,1-.44438-1.72551,3.70245,3.70245,0,0,1,.42538-1.8293,2.96289,2.96289,0,0,1,1.23007-1.21249,3.9,3.9,0,0,1,1.84355-.433,4.12166,4.12166,0,0,1,1.08851.16222,4.55007,4.55007,0,0,1,1.00253.386l.39189-1.10822a5.28938,5.28938,0,0,0-1.208-.47194,5.49636,5.49636,0,0,0-1.43053-.17243,4.77019,4.77019,0,0,0-2.3086.58428A4.24783,4.24783,0,0,0,38.915,11.92467a4.99706,4.99706,0,0,0-.60732,2.54563,4.46229,4.46229,0,0,0,.58974,2.25873A4.10452,4.10452,0,0,0,40.55311,18.30514Z" style="fill:#fff;fill-rule:evenodd"/><path d="M51.91155,15.41559l1.32958-.00688a2.59378,2.59378,0,0,0,.29832-.014l2.13094,3.30686,1.40439-.00737L54.793,15.08973a2.38827,2.38827,0,0,0,1.11963-1.06309,3.2352,3.2352,0,0,0,.35816-1.53028,2.69863,2.69863,0,0,0-.41873-1.50819,2.57334,2.57334,0,0,0-1.13577-.94458,3.96251,3.96251,0,0,0-1.64286-.31446l-2.39861.01282.04845,8.98667,1.20584-.00688-.01758-3.30615Zm-.02494-4.52433h0l1.39229-.00736a1.778,1.778,0,0,1,.989.24891,1.54233,1.54233,0,0,1,.57572.63772,1.832,1.832,0,0,1,.18431.78164,1.75973,1.75973,0,0,1-.42277,1.17069,1.72686,1.72686,0,0,1-1.39489.51706l-1.3056.00736Z" style="fill:#fff;fill-rule:evenodd"/><path d="M62.9382,18.1529a4.61429,4.61429,0,0,0,4.593-.03088,4.59223,4.59223,0,0,0,1.67492-1.68109,4.45893,4.45893,0,0,0,.60945-2.30338,4.40357,4.40357,0,0,0-.64033-2.28294A4.75877,4.75877,0,0,0,67.482,10.179a4.49051,4.49051,0,0,0-4.58014.02494,4.72414,4.72414,0,0,0-1.663,1.69321,4.43643,4.43643,0,0,0-.60921,2.29031,4.54088,4.54088,0,0,0,2.3086,3.96547Zm-.63368-5.68956h0a3.33986,3.33986,0,0,1,1.20513-1.26783,3.19547,3.19547,0,0,1,1.688-.47525,3.23477,3.23477,0,0,1,1.69321.45032,3.34635,3.34635,0,0,1,1.2246,1.24882,3.5663,3.5663,0,0,1,.02494,3.44913,3.27258,3.27258,0,0,1-1.19919,1.24954,3.23264,3.23264,0,0,1-1.68157.46267,3.27086,3.27086,0,0,1-1.69938-.45056A3.402,3.402,0,0,1,61.873,14.1936,3.51007,3.51007,0,0,1,62.30452,12.46334Z" style="fill:#fff;fill-rule:evenodd"/><polygon points="83.091 9.604 80.913 16.017 78.38 9.63 77.187 9.636 78.157 12.092 76.625 16.177 74.266 9.652 72.861 9.659 76.492 19.012 78.762 13.605 80.892 18.963 84.384 9.597 83.091 9.604" style="fill:#fff;fill-rule:evenodd"/><polygon points="90.356 10.683 90.398 18.514 91.604 18.507 91.562 10.676 93.973 10.664 93.967 9.508 88.001 9.54 88.007 10.696 90.356 10.683" style="fill:#fff;fill-rule:evenodd"/><polygon points="99.633 18.464 99.612 14.524 104.323 14.499 104.344 18.438 105.55 18.432 105.501 9.445 104.296 9.452 104.316 13.343 99.606 13.368 99.585 9.477 98.379 9.483 98.427 18.471 99.633 18.464" style="fill:#fff;fill-rule:evenodd"/><path d="M40.01229,20.97523l-1.43812,3.47929.44248-.0019.35009-.87784,1.28184-.00689.35081.874.51634-.00285-1.47565-3.46385Zm-.48594,2.211h0l.48666-1.21937.48143,1.21462Z" style="fill:#fff;fill-rule:evenodd"/><path d="M43.72482,21.65594a1.11187,1.11187,0,0,1,.59638-.17362,1.36833,1.36833,0,0,1,.771.25366l.17766-.42016a1.83551,1.83551,0,0,0-.43892-.1912,1.791,1.791,0,0,0-.52585-.07054,1.62368,1.62368,0,0,0-.84957.22825,1.56406,1.56406,0,0,0-.58451.62062,1.847,1.847,0,0,0-.20735.88876,1.73,1.73,0,0,0,.21471.84221,1.55338,1.55338,0,0,0,.60256.60518,1.76423,1.76423,0,0,0,.9023.22159,1.56922,1.56922,0,0,0,.53654-.09286,2.02357,2.02357,0,0,0,.40733-.19856l-.1912-.4a1.33417,1.33417,0,0,1-1.422.09762,1.09413,1.09413,0,0,1-.43084-.45175,1.3958,1.3958,0,0,1-.15344-.64911,1.29332,1.29332,0,0,1,.16009-.64437A1.26131,1.26131,0,0,1,43.72482,21.65594Z" style="fill:#fff;fill-rule:evenodd"/><path d="M49.673,23.95717a1.682,1.682,0,0,0,.519-1.22935,1.62812,1.62812,0,0,0-.23751-.847,1.76007,1.76007,0,0,0-.6275-.62157,1.66594,1.66594,0,0,0-1.69939.0095,1.74889,1.74889,0,0,0-.61681.62751,1.64233,1.64233,0,0,0-.2254.84957,1.687,1.687,0,0,0,.85622,1.47114,1.68,1.68,0,0,0,.85385.22088,1.71744,1.71744,0,0,0,.35009-.03848l1.49869-.00807-.00285-.43821-.66835.004Zm-.54675-.124h0a1.24363,1.24363,0,0,1-1.25429.004,1.26273,1.26273,0,0,1-.62608-1.08875,1.26789,1.26789,0,0,1,.1608-.63273,1.2474,1.2474,0,0,1,.44652-.466,1.18341,1.18341,0,0,1,.62607-.17552,1.19682,1.19682,0,0,1,.62822.16673,1.26488,1.26488,0,0,1,.62322,1.08946,1.28148,1.28148,0,0,1-.16008.6389A1.21091,1.21091,0,0,1,49.12627,23.83319Z" style="fill:#fff;fill-rule:evenodd"/><path d="M53.63516,23.8757a.86247.86247,0,0,1-.41612.10356.80126.80126,0,0,1-.40471-.10166.77642.77642,0,0,1-.28953-.28.76418.76418,0,0,1-.1083-.39783l-.0114-2.153-.44723.00261.01163,2.16657a1.20733,1.20733,0,0,0,.167.62869,1.1215,1.1215,0,0,0,.45222.42158,1.41871,1.41871,0,0,0,1.26783-.00689,1.12747,1.12747,0,0,0,.44913-.4268,1.1899,1.1899,0,0,0,.16294-.63012l-.01212-2.16656-.43773.00213.0114,2.153a.77644.77644,0,0,1-.10355.40187A.75009.75009,0,0,1,53.63516,23.8757Z" style="fill:#fff;fill-rule:evenodd"/><rect x="56.30525" y="21.02437" width="0.44736" height="3.33338" transform="translate(-0.13145 0.33026) rotate(-0.33435)" style="fill:#fff"/><path d="M59.44181,23.98258a1.2896,1.2896,0,0,1-.44771-.08811,1.61633,1.61633,0,0,1-.41136-.21614l-.19643.35556a2.00033,2.00033,0,0,0,.50424.24843,1.78437,1.78437,0,0,0,.5952.09619,1.27085,1.27085,0,0,0,.57762-.12778.92449.92449,0,0,0,.37836-.34272.99841.99841,0,0,0,.01069-.971.88965.88965,0,0,0-.29618-.2976,2.36665,2.36665,0,0,0-.437-.19855,2.41336,2.41336,0,0,1-.53392-.25723.41487.41487,0,0,1-.03088-.6731.68522.68522,0,0,1,.43013-.12469,1.3628,1.3628,0,0,1,.38311.058,1.96734,1.96734,0,0,1,.3831.15486l.16911-.34677a1.95772,1.95772,0,0,0-1.00182-.262,1.0922,1.0922,0,0,0-.7111.25936.8041.8041,0,0,0-.27124.63557.71944.71944,0,0,0,.13657.44439.98089.98089,0,0,0,.32182.2767,3.78113,3.78113,0,0,0,.46932.2052,1.84168,1.84168,0,0,1,.47336.25319.44576.44576,0,0,1,.1703.36553.46534.46534,0,0,1-.19785.41137A.80843.80843,0,0,1,59.44181,23.98258Z" style="fill:#fff;fill-rule:evenodd"/><rect x="62.23754" y="20.99243" width="0.44712" height="3.33303" transform="translate(-0.1313 0.36526) rotate(-0.3347)" style="fill:#fff"/><polygon points="66.527 21.399 66.525 20.97 64.312 20.983 64.315 21.411 65.186 21.406 65.202 24.311 65.649 24.308 65.633 21.404 66.527 21.399" style="fill:#fff;fill-rule:evenodd"/><rect x="68.17102" y="20.96036" width="0.447" height="3.33303" transform="translate(-0.13108 0.40014) rotate(-0.33488)" style="fill:#fff"/><path d="M72.83287,21.13223a1.66618,1.66618,0,0,0-1.69915.00926,1.74331,1.74331,0,0,0-.6161.62821,1.6393,1.6393,0,0,0-.22611.84886,1.70144,1.70144,0,0,0,2.55965,1.45974,1.70035,1.70035,0,0,0,.62132-.62346,1.65283,1.65283,0,0,0,.22564-.85433,1.6327,1.6327,0,0,0-.237-.847,1.767,1.767,0,0,0-.62821-.62132Zm.2444,2.1098h0a1.21743,1.21743,0,0,1-.44486.46385,1.24231,1.24231,0,0,1-1.25358.004,1.23611,1.23611,0,0,1-.45721-.45839,1.2569,1.2569,0,0,1-.1691-.63012,1.30078,1.30078,0,0,1,.16032-.64246,1.2351,1.2351,0,0,1,.447-.4698,1.19,1.19,0,0,1,.62608-.17647,1.20406,1.20406,0,0,1,.6275.167,1.24743,1.24743,0,0,1,.45459.46315,1.32266,1.32266,0,0,1,.00927,1.27923Z" style="fill:#fff;fill-rule:evenodd"/><polygon points="75.362 20.821 75.381 24.256 75.832 24.253 75.811 21.879 78.272 24.351 78.286 24.35 78.267 20.907 77.82 20.909 77.842 23.32 75.385 20.821 75.362 20.821" style="fill:#fff;fill-rule:evenodd"/><polygon points="84.686 23.772 82.99 23.781 82.974 20.882 82.527 20.884 82.545 24.217 84.689 24.206 84.686 23.772" style="fill:#fff;fill-rule:evenodd"/><rect x="86.32534" y="20.86203" width="0.44748" height="3.33303" transform="translate(-0.11759 0.45667) rotate(-0.30211)" style="fill:#fff"/><polygon points="91.954 20.727 90.303 23.059 88.648 20.744 88.644 20.745 88.663 24.184 89.096 24.181 89.085 22.084 90.297 23.755 90.306 23.755 91.523 22.011 91.535 24.169 91.977 24.166 91.959 20.727 91.954 20.727" style="fill:#fff;fill-rule:evenodd"/><rect x="93.84907" y="20.82142" width="0.44736" height="3.33303" transform="translate(-0.1063 0.4494) rotate(-0.27356)" style="fill:#fff"/><polygon points="95.926 21.24 96.798 21.235 96.814 24.14 97.261 24.137 97.245 21.233 98.139 21.228 98.137 20.799 95.924 20.811 95.926 21.24" style="fill:#fff;fill-rule:evenodd"/><polygon points="100.237 23.688 100.231 22.66 101.766 22.652 101.764 22.223 100.228 22.231 100.223 21.217 101.943 21.208 101.94 20.779 99.773 20.79 99.791 24.123 102.023 24.111 102.021 23.678 100.237 23.688" style="fill:#fff;fill-rule:evenodd"/><path d="M103.70586,20.76931l.01805,3.33322,1.074-.00618a1.72408,1.72408,0,0,0,.81941-.20449,1.5467,1.5467,0,0,0,.60114-.575,1.6155,1.6155,0,0,0,.22136-.85717,1.88326,1.88326,0,0,0-.1912-.82131,1.491,1.491,0,0,0-.59852-.63273,1.96323,1.96323,0,0,0-1.03127-.24178l-.913.00546Zm1.64214.5648h0a1.129,1.129,0,0,1,.4565.42419,1.41,1.41,0,0,1,.014,1.3322,1.07544,1.07544,0,0,1-.45174.42419,1.46,1.46,0,0,1-.65838.14892l-.53939.00261-.01354-2.47082.58119-.00332A1.32823,1.32823,0,0,1,105.348,21.33411Z" style="fill:#fff;fill-rule:evenodd"/><polygon points="45.056 32.021 45.73 32.018 45.713 28.881 48.999 32.272 48.973 27.521 48.297 27.524 48.314 30.637 45.029 27.238 45.056 32.021" style="fill:#fff;fill-rule:evenodd"/><path d="M52.00109,30.89627l1.91932-.01.47478,1.08447.74056-.004L52.97132,27.217,50.781,31.99048l.72726-.004.49283-1.09017Zm.96738-2.16443h0l.67192,1.51959-1.3607.00736Z" style="fill:#fff;fill-rule:evenodd"/><path d="M59.26819,29.81987a1.89718,1.89718,0,0,0-.79993-.53463l-.44771-.18051c-.32586-.13182-.48927-.30568-.4907-.52514a.49489.49489,0,0,1,.18455-.39521.77419.77419,0,0,1,.84078-.07126.94768.94768,0,0,1,.295.34677l.54651-.328a1.34161,1.34161,0,0,0-1.2151-.74864,1.39476,1.39476,0,0,0-.9574.34819,1.07868,1.07868,0,0,0-.381.84625q.00392.74816.92487,1.13245l.433.177a1.917,1.917,0,0,1,.291.15081.91749.91749,0,0,1,.19927.16982.59335.59335,0,0,1,.115.20046.76638.76638,0,0,1,.03777.23918.73979.73979,0,0,1-.20521.53843.71463.71463,0,0,1-.52585.21352.70138.70138,0,0,1-.60945-.28691,1.15719,1.15719,0,0,1-.16554-.54461l-.68261.15486a1.58118,1.58118,0,0,0,.47122.96951,1.37177,1.37177,0,0,0,.96548.34059,1.40888,1.40888,0,0,0,1.026-.41255,1.3671,1.3671,0,0,0,.40733-1.02272A1.21184,1.21184,0,0,0,59.26819,29.81987Z" style="fill:#fff;fill-rule:evenodd"/><path d="M63.51915,27.57516a3.43587,3.43587,0,0,0-1.06856-.128l-.9384.00547.02422,4.47991.92772-.00546a3.4408,3.4408,0,0,0,1.05288-.13063,2.0969,2.0969,0,0,0,.75742-.44842,2.31581,2.31581,0,0,0,.01092-3.3325,2.00082,2.00082,0,0,0-.7662-.44035Zm.29427,3.29213h0a1.53463,1.53463,0,0,1-.54413.324,2.53428,2.53428,0,0,1-.756.09952l-.30567.00214-.01687-3.208.305-.00143a1.87063,1.87063,0,0,1,1.31034.40068,1.55606,1.55606,0,0,1,.49948,1.193A1.53559,1.53559,0,0,1,63.81342,30.86729Z" style="fill:#fff;fill-rule:evenodd"/><path d="M67.03287,31.90283l.49212-1.09064,1.91956-.01.47526,1.08447.73984-.004-2.16443-4.74973-2.19008,4.77324.72773-.00333Zm1.4595-3.25507h0l.67192,1.52006-1.36046.00737Z" style="fill:#fff;fill-rule:evenodd"/><path d="M72.67136,27.9642a2.22967,2.22967,0,0,0-.70208,1.69274,2.16266,2.16266,0,0,0,.76075,1.6925,2.33088,2.33088,0,0,0,1.58348.59591,2.25683,2.25683,0,0,0,1.24621-.36838l.35342.35959.84957-.00475-.74388-.71966a2.17915,2.17915,0,0,0,.63344-1.54856,2.25068,2.25068,0,0,0-.82274-1.79819,2.33531,2.33531,0,0,0-3.15817.0988Zm3.299,1.6583h0A1.5336,1.5336,0,0,1,75.5469,30.73l-.65316-.64365-.8738.00475,1.05835,1.01654a1.577,1.577,0,0,1-.79044.204,1.61751,1.61751,0,0,1-1.14978-.46979,1.56794,1.56794,0,0,1-.4869-1.183,1.69922,1.69922,0,0,1,.45982-1.23007,1.56323,1.56323,0,0,1,1.1809-.494,1.59792,1.59792,0,0,1,1.1923.48072A1.657,1.657,0,0,1,75.97038,29.6225Z" style="fill:#fff;fill-rule:evenodd"/><path d="M79.06608,28.93372a.39335.39335,0,0,0-.2843.11923.3825.3825,0,0,0-.11638.28.39945.39945,0,0,0,.11638.28953.39258.39258,0,0,0,.28834.11662.3862.3862,0,0,0,.28406-.11662.40224.40224,0,0,0-.00332-.57216A.38608.38608,0,0,0,79.06608,28.93372Z" style="fill:#fff;fill-rule:evenodd"/><path d="M78.79342,31.23163a.38546.38546,0,0,0-.11662.28288.3975.3975,0,0,0,.1171.28928A.40442.40442,0,1,0,79.363,31.229a.38672.38672,0,0,0-.28549-.11662A.39241.39241,0,0,0,78.79342,31.23163Z" style="fill:#fff;fill-rule:evenodd"/><rect x="84.73473" y="27.32503" width="0.67525" height="4.47998" transform="translate(-0.14456 0.41928) rotate(-0.28214)" style="fill:#fff"/><path d="M89.97611,29.44555l.004.63606,1.11772-.00594a1.19749,1.19749,0,0,1-.43963.81466,1.357,1.357,0,0,1-.89423.34059,1.60353,1.60353,0,0,1-1.09135-.44367,1.58444,1.58444,0,0,1-.54272-1.23078,1.637,1.637,0,0,1,.47407-1.20916,1.61316,1.61316,0,0,1,1.19041-.49687,1.63188,1.63188,0,0,1,1.34644.728l.4793-.46529a2.82011,2.82011,0,0,0-.85908-.69068,2.352,2.352,0,0,0-2.63707.48072,2.34184,2.34184,0,0,0,.00546,3.29071,2.18366,2.18366,0,0,0,1.61436.67073,2.0317,2.0317,0,0,0,1.58348-.71182,1.91277,1.91277,0,0,0,.38785-.67524,3.03155,3.03155,0,0,0,.11305-.89328l-.00071-.14892Z" style="fill:#fff;fill-rule:evenodd"/><polygon points="96.107 27.265 93.374 27.28 93.377 27.916 94.408 27.911 94.428 31.754 95.105 31.751 95.084 27.907 96.11 27.902 96.107 27.265" style="fill:#fff;fill-rule:evenodd"/><path d="M97.893,31.73515l.49283-1.08993,1.91861-.01.47549,1.08447.74056-.004L99.35586,26.966l-2.19008,4.77324.72726-.004Zm1.4595-3.25436h0l.67262,1.52006-1.3614.00737Z" style="fill:#fff;fill-rule:evenodd"/></g></g></svg>