<svg xmlns="http://www.w3.org/2000/svg" viewBox="0 0 119.80129 23.00452"><g id="图层_2" data-name="图层 2"><g id="Layer_1" data-name="Layer 1"><path d="M64.94762,11.55724c0-.49972-.2995-.80326-1.0859-.80326H62.74685v3.09571h1.21059c.70754,0,1.10276-.26269,1.10276-.866a.70906.70906,0,0,0-.641-.71966.75.75,0,0,0,.52846-.70683Zm-.30829,1.40559h0c0,.34154-.262.52062-.77761.52062H63.167V12.46h.69472c.437,0,.77761.10783.77761.50281Zm-.81062-.87309H63.167V11.1283h.64888c.47478,0,.71586.15414.71586.47478C64.53174,11.89854,64.21514,12.08974,63.82871,12.08974Z" style="fill:#fff;fill-rule:evenodd"/><path d="M67.48185,13.84969V11.58218h-.408v1.71007a.82177.82177,0,0,1-.60732.29879.50687.50687,0,0,1-.53249-.55743V11.58218h-.40733v1.531a.72541.72541,0,0,0,.79851.8111,1.03825,1.03825,0,0,0,.74863-.3622v.28762Z" style="fill:#fff;fill-rule:evenodd"/><path d="M68.8929,13.6079a.58008.58008,0,0,1-.599-.35745l-.38311.08289a.98022.98022,0,0,0,.96928.59093c.54556,0,.91988-.25366.91988-.66574,0-.37432-.3166-.5534-.86121-.7028-.2121-.07077-.54533-.17908-.54533-.38714,0-.17457.175-.32871.47455-.32871a.51445.51445,0,0,1,.499.29095l.39118-.07078a.88393.88393,0,0,0-.89019-.53653c-.54129,0-.88591.27883-.88591.62821,0,.33726.27408.52038.80658.68664.31636.11234.57834.2121.57834.4242C69.367,13.45376,69.1677,13.6079,68.8929,13.6079Z" style="fill:#fff;fill-rule:evenodd"/><rect x="70.25359" y="10.75398" width="0.40804" height="0.47858" style="fill:#fff"/><rect x="70.25359" y="11.58218" width="0.40804" height="2.26751" style="fill:#fff"/><path d="M71.62236,12.15577a.8598.8598,0,0,1,.62418-.295.49086.49086,0,0,1,.5116.5534v1.43551h.41208V12.33485a.71982.71982,0,0,0-.80326-.81133,1.02923,1.02923,0,0,0-.7446.36624v-.30758H71.215v2.26751h.40733Z" style="fill:#fff;fill-rule:evenodd"/><path d="M75.75005,12.67211a1.03581,1.03581,0,0,0-1.05217-1.14859,1.08043,1.08043,0,0,0-1.06119,1.20726,1.06171,1.06171,0,0,0,1.08209,1.19349,1.02561,1.02561,0,0,0,1.01916-.63677l-.37028-.0627a.70249.70249,0,0,1-.64484.36624.66156.66156,0,0,1-.6788-.73177h1.706v-.18716Zm-1.706-.13324h0a.6665.6665,0,0,1,.65386-.67809.64453.64453,0,0,1,.64009.67809Z" style="fill:#fff;fill-rule:evenodd"/><path d="M77.12357,12.55573c-.21209-.07077-.54461-.17908-.54461-.38714,0-.17457.17433-.32871.47384-.32871a.51548.51548,0,0,1,.49972.29095l.39046-.07078a.88289.88289,0,0,0-.89018-.53653c-.54058,0-.88592.27883-.88592.62821,0,.33726.27456.52038.8073.68664.31565.11234.57834.2121.57834.4242,0,.19119-.2.34533-.47479.34533a.5809.5809,0,0,1-.59923-.35745l-.3824.08289a.97973.97973,0,0,0,.96952.59093c.54461,0,.91964-.25366.91964-.66574C77.98526,12.88421,77.6689,12.70513,77.12357,12.55573Z" style="fill:#fff;fill-rule:evenodd"/><path d="M79.30012,13.6079a.58108.58108,0,0,1-.59924-.35745l-.38287.08289a.98022.98022,0,0,0,.96928.59093c.54556,0,.91988-.25366.91988-.66574,0-.37432-.3166-.5534-.86121-.7028-.2121-.07077-.54533-.17908-.54533-.38714,0-.17457.175-.32871.47455-.32871a.51445.51445,0,0,1,.499.29095l.39118-.07078a.88332.88332,0,0,0-.89019-.53653c-.54129,0-.88592.27883-.88592.62821,0,.33726.27409.52038.8073.68664.31565.11234.57763.2121.57763.4242C79.77419,13.45376,79.57492,13.6079,79.30012,13.6079Z" style="fill:#fff;fill-rule:evenodd"/><path d="M83.03686,10.754,81.7973,13.84969h.437l.31968-.81608h1.40654l.31565.81608h.437L83.49454,10.754Zm-.33275,1.90531h0l.55744-1.41461h.00879l.54461,1.41461Z" style="fill:#fff;fill-rule:evenodd"/><path d="M86.00384,13.92427a.98932.98932,0,0,0,.99849-.68664l-.39925-.058a.61365.61365,0,0,1-.59924.39522c-.42894,0-.666-.35009-.666-.8529,0-.50779.25865-.84506.68213-.84506a.58454.58454,0,0,1,.56622.35817l.40805-.05392a.95917.95917,0,0,0-.97427-.65766A1.07971,1.07971,0,0,0,84.926,12.722,1.093,1.093,0,0,0,86.00384,13.92427Z" style="fill:#fff;fill-rule:evenodd"/><path d="M89.09551,14.66482h.4078V11.58218h-.4078V11.848a.99942.99942,0,0,0-.7408-.32443c-.65695,0-.98946.49948-.98946,1.19847,0,.69472.32847,1.20228,1.00633,1.20228a1.09526,1.09526,0,0,0,.72393-.30354v1.04409Zm-.666-1.094h0c-.44913,0-.65719-.41208-.65719-.84886,0-.44913.20806-.84506.65719-.84506a.91074.91074,0,0,1,.666.32919V13.2875A1.0074,1.0074,0,0,1,88.42953,13.57085Z" style="fill:#fff;fill-rule:evenodd"/><path d="M90.05267,11.58218v1.531a.72592.72592,0,0,0,.79923.8111,1.03825,1.03825,0,0,0,.74863-.3622v.28762h.408V11.58218h-.408v1.71007a.82291.82291,0,0,1-.60732.29879.50687.50687,0,0,1-.53249-.55743V11.58218Z" style="fill:#fff;fill-rule:evenodd"/><rect x="92.55793" y="10.75398" width="0.40804" height="0.47858" style="fill:#fff"/><rect x="92.55793" y="11.58218" width="0.40804" height="2.26751" style="fill:#fff"/><path d="M93.46949,12.15173c0,.33726.27409.52038.80659.68664.31636.11234.57834.2121.57834.4242,0,.19119-.2.34533-.47384.34533a.58072.58072,0,0,1-.59923-.35745l-.3824.08289a.9794.9794,0,0,0,.96881.59093c.54532,0,.91964-.25366.91964-.66574,0-.37432-.31589-.5534-.86121-.7028-.21258-.07077-.54533-.17908-.54533-.38714,0-.17457.175-.32871.47478-.32871a.51411.51411,0,0,1,.49878.29095l.39118-.07078a.8832.8832,0,0,0-.89-.53653C93.81483,11.52352,93.46949,11.80235,93.46949,12.15173Z" style="fill:#fff;fill-rule:evenodd"/><rect x="95.74175" y="11.58218" width="0.40733" height="2.26751" style="fill:#fff"/><rect x="95.74175" y="10.75398" width="0.40733" height="0.47858" style="fill:#fff"/><path d="M97.75489,13.54116a.543.543,0,0,1-.20806.04181c-.18312,0-.29095-.06247-.29095-.24559V11.91873h.5078v-.33655h-.5078V10.991h-.40329v.59116h-.38714v.33655h.38714v1.54786c0,.32444.2121.45768.5078.45768a1.325,1.325,0,0,0,.3945-.05439Z" style="fill:#fff;fill-rule:evenodd"/><rect x="98.12184" y="10.75398" width="0.40733" height="0.47858" style="fill:#fff"/><rect x="98.12184" y="11.58218" width="0.40733" height="2.26751" style="fill:#fff"/><path d="M101.17575,12.718a1.07481,1.07481,0,0,0-1.09492-1.19443A1.08676,1.08676,0,0,0,98.99089,12.718a1.09781,1.09781,0,1,0,2.18486,0Zm-1.77682,0h0c0-.50375.266-.841.6819-.841.42894,0,.68284.33323.68284.841,0,.50685-.237.85694-.68284.85694C99.64476,13.57489,99.39893,13.22076,99.39893,12.718Z" style="fill:#fff;fill-rule:evenodd"/><path d="M101.63818,11.58218v2.26751h.40733V12.15577a.8586.8586,0,0,1,.62418-.295.49085.49085,0,0,1,.51159.5534v1.43551h.41208V12.33485a.71982.71982,0,0,0-.80326-.81133,1.028,1.028,0,0,0-.74459.36624v-.30758Z" style="fill:#fff;fill-rule:evenodd"/><polygon points="105.6 10.754 105.6 13.85 107.659 13.85 107.659 13.483 106.019 13.483 106.019 10.754 105.6 10.754" style="fill:#fff;fill-rule:evenodd"/><rect x="108.01248" y="11.58218" width="0.40804" height="2.26751" style="fill:#fff"/><rect x="108.01248" y="10.75398" width="0.40804" height="0.47858" style="fill:#fff"/><path d="M110.78778,11.92752a.6746.6746,0,0,0-.68213-.404,1.01455,1.01455,0,0,0-.72844.34937v-.29071h-.40329v2.26751h.40329V12.18926a.85584.85584,0,0,1,.60731-.32848.47385.47385,0,0,1,.46267.53654v1.45237h.4071V12.198a.898.898,0,0,1,.58237-.33726.46444.46444,0,0,1,.47811.51587v1.473h.41279V12.322a.70775.70775,0,0,0-.76146-.7985,1.09553,1.09553,0,0,0-.77428.404Z" style="fill:#fff;fill-rule:evenodd"/><rect x="112.87763" y="11.58218" width="0.40733" height="2.26751" style="fill:#fff"/><rect x="112.87763" y="10.75398" width="0.40733" height="0.47858" style="fill:#fff"/><path d="M114.49532,13.92427a1.33679,1.33679,0,0,0,.39592-.05439v-.32872a.54761.54761,0,0,1-.20805.04181c-.18312,0-.29143-.06247-.29143-.24559V11.91873h.50756v-.33655h-.50756V10.991h-.40329v.59116h-.38714v.33655h.38714v1.54786C113.98847,13.791,114.20057,13.92427,114.49532,13.92427Z" style="fill:#fff;fill-rule:evenodd"/><path d="M117.28748,12.67211a1.036,1.036,0,0,0-1.0524-1.14859,1.08039,1.08039,0,0,0-1.061,1.20726,1.062,1.062,0,0,0,1.08186,1.19349,1.02559,1.02559,0,0,0,1.01915-.63677l-.37027-.0627a.70171.70171,0,0,1-.64484.36624.661.661,0,0,1-.6781-.73177h1.70556v-.18716Zm-1.70556-.13324h0a.6659.6659,0,0,1,.65316-.67809.64472.64472,0,0,1,.641.67809Z" style="fill:#fff;fill-rule:evenodd"/><path d="M118.67763,13.92427a1.06008,1.06008,0,0,0,.71562-.29143v.21685h.408V10.758h-.408v1.0859a.97566.97566,0,0,0-.73177-.3204c-.6617,0-.99042.49948-.99042,1.19847,0,.69472.32872,1.20228,1.00657,1.20228Zm.05867-2.04734h0a.92665.92665,0,0,1,.65695.31636v1.099a.98166.98166,0,0,1-.65695.2786c-.45792,0-.65791-.408-.65791-.84886C118.07839,12.26882,118.28645,11.87693,118.7363,11.87693Z" style="fill:#fff;fill-rule:evenodd"/><path d="M64.8823,6.51039h4.01606l.90278,2.32879h1.24764L67.56807,0h-1.3075L62.72048,8.83918h1.24693l.91489-2.32879Zm2.01979-5.10861h.02422l1.55593,4.03958H65.31053Z" style="fill:#fff;fill-rule:evenodd"/><path d="M74.73137,9.0527a2.82389,2.82389,0,0,0,2.85131-1.95994l-1.14052-.16625a1.7497,1.7497,0,0,1-1.71079,1.12841c-1.22318,0-1.90055-.99778-1.90055-2.43519,0-1.44953.73651-2.41239,1.94853-2.41239a1.66752,1.66752,0,0,1,1.61578,1.022l1.164-.15485a2.73531,2.73531,0,0,0-2.77982-1.87681c-2.0319,0-3.12468,1.49726-3.12468,3.422C71.65467,7.50817,72.78308,9.0527,74.73137,9.0527Z" style="fill:#fff;fill-rule:evenodd"/><path d="M81.70562,9.0527A2.93044,2.93044,0,0,0,84.617,7.2348l-1.05787-.17766A2.005,2.005,0,0,1,81.718,8.10266a1.88767,1.88767,0,0,1-1.93642-2.091h4.87038V5.477c0-1.735-.95-3.2793-3.00545-3.2793-2.0433,0-3.02968,1.64-3.02968,3.44556,0,1.88916.99778,3.40946,3.08882,3.40946Zm-.05914-5.89239h0a1.84193,1.84193,0,0,1,1.83,1.93618H79.78155A1.902,1.902,0,0,1,81.64648,3.16031Z" style="fill:#fff;fill-rule:evenodd"/><path d="M90.6607,9.00211a2.94763,2.94763,0,0,0,2.7335-1.70129V8.805h.98828V4.3595h-3.414v.98757h2.305v.7244a2.53417,2.53417,0,0,1-2.45871,1.95376c-1.46021,0-2.57983-1.29538-2.57983-3.30424,0-1.95376,1.098-3.29284,2.65655-3.29284A2.22416,2.22416,0,0,1,93.0757,2.877l1.142-.175A3.27673,3.27673,0,0,0,90.89156.451c-2.27226,0-3.75409,1.74523-3.75409,4.27C87.13747,7.45426,88.81667,9.00211,90.6607,9.00211Z" style="fill:#fff;fill-rule:evenodd"/><rect x="95.97618" y="0.63819" width="1.07568" height="8.16679" style="fill:#fff"/><path d="M101.14677,9.00211c1.94307,0,2.88694-1.43813,2.88694-3.18311a2.83433,2.83433,0,0,0-2.88694-3.1501A2.8659,2.8659,0,0,0,98.27124,5.819c0,1.71268.95455,3.18311,2.87553,3.18311Zm0-5.40074h0c1.131,0,1.80033.87855,1.80033,2.21763s-.62632,2.26157-1.80033,2.26157c-1.15264,0-1.80033-.93318-1.80033-2.26157S100.04924,3.60137,101.14677,3.60137Z" style="fill:#fff;fill-rule:evenodd"/><path d="M106.33019,8.24469a2.93279,2.93279,0,0,0,1.89842.75742c1.83334,0,2.65679-1.27306,2.65679-3.12777,0-1.82265-.76882-3.20544-2.61285-3.20544a2.712,2.712,0,0,0-1.94236.90016V.64912h-1.07663V8.805h1.07663V8.24469Zm0-3.74269h0a2.52469,2.52469,0,0,1,1.75568-.90063c1.28469,0,1.72361,1.164,1.72361,2.273,0,1.141-.51564,2.19459-1.72361,2.19459a2.60837,2.60837,0,0,1-1.75568-.74649Z" style="fill:#fff;fill-rule:evenodd"/><path d="M111.90812,7.47658c0,1.04291.96548,1.52553,1.92,1.52553a3.2599,3.2599,0,0,0,2.26157-.94387,3.501,3.501,0,0,0,.06579.46125.892.892,0,0,0,.84577.48262,2.61612,2.61612,0,0,0,.76811-.12042V8.1903c-.42823.06531-.64769.0437-.64769-.34083V4.62266c0-1.18565-.80112-1.95376-2.43709-1.95376a2.56906,2.56906,0,0,0-2.60145,1.6906l.999.1425A1.53688,1.53688,0,0,1,114.63,3.54674c1.04291,0,1.40511.51563,1.41651,1.07592v.30758c-2.57983.31778-4.13837.99849-4.13837,2.54634Zm4.127-.19784h0a3.00982,3.00982,0,0,1-1.97608.84553c-.68047,0-1.07568-.2748-1.07568-.76811.0114-.97759,1.43859-1.33979,3.06316-1.53716C116.04649,6.10449,116.03509,6.99325,116.03509,7.27874Z" style="fill:#fff;fill-rule:evenodd"/><rect x="118.70447" y="0.63819" width="1.07592" height="8.16679" style="fill:#fff"/><path d="M57.29742,11.86007v-.31019c0-.01971-.00119-.03919-.00119-.05867L52.42252,13.7459a6.11108,6.11108,0,0,1-5.80095,4.21675h-.30971a6.07485,6.07485,0,0,1-3.91227-1.42482L54.88123,9.02847l-.015-.02494,1.79962-1.069a10.69367,10.69367,0,0,0-10.04431-7.06h-.30971A10.69323,10.69323,0,0,0,35.636,11.54988v.31019a10.63673,10.63673,0,0,0,.46861,3.12872l-2.96841,1.78607-.96144.57763a6.0473,6.0473,0,0,1-2.64111.61016h-.31043a6.10936,6.10936,0,0,1-6.10234-6.10258v-.31019a6.10936,6.10936,0,0,1,6.10234-6.10259h.31043a6.07578,6.07578,0,0,1,1.78418.26744L35.90274,2.9874A10.62342,10.62342,0,0,0,29.53367.87451h-.31043a10.67549,10.67549,0,0,0-9.06267,5.04282,10.87119,10.87119,0,1,0-5.691,15.88681l.20664-.07268V16.88459l-.46861.27955a6.53234,6.53234,0,1,1,3.18121-6.01637V22.42024h3.42276V18.42176a10.65989,10.65989,0,0,0,8.41165,4.11344h.31043a10.6163,10.6163,0,0,0,6.14344-1.95234l2.6803-1.61245a10.6501,10.6501,0,0,0,7.95445,3.56479h.30971A10.68732,10.68732,0,0,0,57.29742,11.86007Zm-17.08791,0h0v-.31019a6.10937,6.10937,0,0,1,6.10235-6.10259h.30971A6.06377,6.06377,0,0,1,50.122,6.55552l-9.87876,5.943A6.2375,6.2375,0,0,1,40.20951,11.86007Z" style="fill:#fff;fill-rule:evenodd"/><polygon points="63.285 18.45 63.308 18.45 65.816 22.503 66.835 22.503 66.835 16.991 65.916 16.991 65.916 21.052 65.902 21.052 63.385 16.991 62.366 16.991 62.366 22.503 63.285 22.503 63.285 18.45" style="fill:#fff;fill-rule:evenodd"/><path d="M68.8492,21.0434h2.201l.51706,1.4595h1.03412L70.47994,16.991H69.45176L67.337,22.5029h.99588l.51635-1.4595ZM69.946,17.93961h.0228l.82677,2.37131H69.11236Z" style="fill:#fff;fill-rule:evenodd"/><path d="M77.29054,20.90469a1.48582,1.48582,0,0,0-.06674-.43156,1.38887,1.38887,0,0,0-.20046-.4059,1.46824,1.46824,0,0,0-.33536-.33536,1.637,1.637,0,0,0-.47193-.233c-.07078-.01948-.19262-.0532-.35888-.09619-.167-.04252-.338-.08954-.513-.13467q-.26257-.07054-.47407-.128c-.14322-.03824-.22421-.05985-.24369-.06579a1.14586,1.14586,0,0,1-.47454-.25057.6741.6741,0,0,1-.08479-.8073.72045.72045,0,0,1,.243-.22017,1.121,1.121,0,0,1,.32254-.115,1.78409,1.78409,0,0,1,.34866-.03444,1.435,1.435,0,0,1,.82677.22018.929.929,0,0,1,.36292.752h.96334a1.63679,1.63679,0,0,0-.16816-.76074,1.66561,1.66561,0,0,0-.45982-.55126,2.00254,2.00254,0,0,0-.67262-.33537,2.91666,2.91666,0,0,0-1.54715-.01686,2.02128,2.02128,0,0,0-.64911.29689,1.55761,1.55761,0,0,0-.45982.50637,1.43985,1.43985,0,0,0-.17291.72179,1.5909,1.5909,0,0,0,.05772.42538,1.204,1.204,0,0,0,.19666.39332,1.41108,1.41108,0,0,0,.3736.33513,2.07781,2.07781,0,0,0,.59187.24368c.38026.10237.7009.18787.96145.25176a7.056,7.056,0,0,1,.684.20355.83843.83843,0,0,1,.31162.21328.6527.6527,0,0,1,.14345.466.79544.79544,0,0,1-.0627.305.67476.67476,0,0,1-.20046.2672,1.05735,1.05735,0,0,1-.36291.18787,1.73781,1.73781,0,0,1-.54058.07482,2.10448,2.10448,0,0,1-.54484-.066,1.27826,1.27826,0,0,1-.44225-.20735.94966.94966,0,0,1-.30092-.36695,1.22709,1.22709,0,0,1-.109-.54057h-.96619a2.0648,2.0648,0,0,0,.19452.884,1.7214,1.7214,0,0,0,.49355.61325,2.061,2.061,0,0,0,.72654.35484,3.43328,3.43328,0,0,0,1.68988.01876,2.16,2.16,0,0,0,.7028-.30282,1.63646,1.63646,0,0,0,.49829-.53868A1.55845,1.55845,0,0,0,77.29054,20.90469Z" style="fill:#fff;fill-rule:evenodd"/><path d="M81.51395,22.28676a2.07144,2.07144,0,0,0,.7567-.59164,2.54925,2.54925,0,0,0,.4356-.87593,4.10842,4.10842,0,0,0,0-2.14709,2.588,2.588,0,0,0-.4356-.87594,2.04738,2.04738,0,0,0-.7567-.58974A2.57356,2.57356,0,0,0,80.4157,16.991H78.132v5.5119H80.4157a2.59125,2.59125,0,0,0,1.09825-.21614Zm-2.41833-.57216h0V17.77668h.95052a2.40165,2.40165,0,0,1,.923.15225,1.35346,1.35346,0,0,1,.56432.41659,1.53134,1.53134,0,0,1,.27742.6256,4.17518,4.17518,0,0,1,0,1.55118,1.53623,1.53623,0,0,1-.27742.62608,1.36416,1.36416,0,0,1-.56432.41683,2.41077,2.41077,0,0,1-.923.14939Z" style="fill:#fff;fill-rule:evenodd"/><path d="M85.17968,16.991l-2.11455,5.5119h.99564l.51635-1.4595h2.201l.51706,1.4595H88.3293L86.20786,16.991Zm-.33917,3.31992h0l.83271-2.37131h.02352l.82677,2.37131Z" style="fill:#fff;fill-rule:evenodd"/><path d="M93.65737,20.89a4.05494,4.05494,0,0,0,.1387-.56836,3.7694,3.7694,0,0,0,.04442-.575,3.36243,3.36243,0,0,0-.181-1.11273,2.78687,2.78687,0,0,0-.52181-.91917,2.45292,2.45292,0,0,0-.82891-.62322,2.74864,2.74864,0,0,0-2.215,0,2.46921,2.46921,0,0,0-.83128.62322,2.82787,2.82787,0,0,0-.5211.91917,3.51491,3.51491,0,0,0,0,2.23235,2.79764,2.79764,0,0,0,.5211.91846,2.44148,2.44148,0,0,0,.83128.622,2.60175,2.60175,0,0,0,1.107.22635,2.90873,2.90873,0,0,0,.65766-.077,2.34955,2.34955,0,0,0,.63891-.25437l.80325.70279.47194-.52514-.71158-.61729a1.92,1.92,0,0,0,.35674-.44438,2.95356,2.95356,0,0,0,.23965-.52775Zm-.88877-.32538h0a1.88231,1.88231,0,0,1-.37218.71846l-.67049-.58783-.46338.53392.55554.48547a1.191,1.191,0,0,1-.30378.10023,1.57826,1.57826,0,0,1-.31351.03183,1.55389,1.55389,0,0,1-.761-.17719,1.50254,1.50254,0,0,1-.5211-.47668,2.16718,2.16718,0,0,1-.2976-.67453,3.17087,3.17087,0,0,1,0-1.54453,2.18358,2.18358,0,0,1,.2976-.67524,1.4787,1.4787,0,0,1,.5211-.47454,1.72065,1.72065,0,0,1,1.521,0,1.4688,1.4688,0,0,1,.5211.47454,2.1124,2.1124,0,0,1,.29689.67524,3.11219,3.11219,0,0,1-.01022,1.59085Z" style="fill:#fff;fill-rule:evenodd"/><rect x="94.66797" y="21.46023" width="1.0745" height="1.04267" style="fill:#fff"/><rect x="94.66797" y="18.59538" width="1.0745" height="1.04219" style="fill:#fff"/><path d="M99.37,22.5029l.51706-1.4595h2.20029l.51706,1.4595h1.03412l-2.12144-5.5119h-1.02818l-2.11455,5.5119Zm1.61245-4.56329h.02352l.82677,2.37131h-1.683Z" style="fill:#fff;fill-rule:evenodd"/><path d="M104.05247,20.86621a2.79086,2.79086,0,0,0,.52181.91846,2.43056,2.43056,0,0,0,.83081.622,2.60037,2.60037,0,0,0,1.10609.22635,2.5271,2.5271,0,0,0,.91892-.16032,2.20513,2.20513,0,0,0,.72655-.4591,2.24292,2.24292,0,0,0,.4914-.70707,2.66577,2.66577,0,0,0,.21139-.9042h-.94173a2.28044,2.28044,0,0,1-.13063.56432,1.5049,1.5049,0,0,1-.27812.45911,1.26306,1.26306,0,0,1-.42491.30757,1.36726,1.36726,0,0,1-.57287.1133,1.55209,1.55209,0,0,1-.76-.17719,1.51305,1.51305,0,0,1-.52109-.47668,2.1388,2.1388,0,0,1-.29689-.67453,3.14058,3.14058,0,0,1,0-1.54453,2.15479,2.15479,0,0,1,.29689-.67524,1.48888,1.48888,0,0,1,.52109-.47454,1.7424,1.7424,0,0,1,1.28992-.09643,1.259,1.259,0,0,1,.39783.22706,1.22009,1.22009,0,0,1,.27741.348,1.98321,1.98321,0,0,1,.171.44034h.96358a2.00755,2.00755,0,0,0-.23918-.79518,1.92136,1.92136,0,0,0-.50423-.59164,2.26973,2.26973,0,0,0-.72227-.36909,2.88459,2.88459,0,0,0-.874-.12849,2.53287,2.53287,0,0,0-1.10609.233,2.45805,2.45805,0,0,0-.83081.62322,2.821,2.821,0,0,0-.52181.91917,3.5324,3.5324,0,0,0,0,2.23235Z" style="fill:#fff;fill-rule:evenodd"/><path d="M114.1856,21.57328a1.73279,1.73279,0,0,0-.14535-1.54453,1.20884,1.20884,0,0,0-.77357-.48262v-.015a1.33339,1.33339,0,0,0,.58308-.45982,1.232,1.232,0,0,0,.20521-.71491,1.2056,1.2056,0,0,0-.44818-1.026,1.9155,1.9155,0,0,0-1.1885-.3394h-2.67888v5.5119H112.271a3.152,3.152,0,0,0,.91893-.11971,1.79652,1.79652,0,0,0,.63225-.32444,1.23725,1.23725,0,0,0,.36339-.48547Zm-3.48261-3.7966h1.57659a.93407.93407,0,0,1,.60257.171.71676.71676,0,0,1,.20758.5857.70412.70412,0,0,1-.2311.56836.87.87,0,0,1-.57905.19666H110.703V17.77668Zm2.39078,3.7111h0a.96306.96306,0,0,1-.68356.22682H110.703V19.99241h1.70722a.992.992,0,0,1,.68356.22018.80732.80732,0,0,1,.24368.63011A.84132.84132,0,0,1,113.09377,21.48778Z" style="fill:#fff;fill-rule:evenodd"/><path d="M116.04578,21.0434h2.201l.51706,1.4595H119.798l-2.12144-5.5119h-1.02819l-2.11455,5.5119h.99564l.51635-1.4595Zm1.09611-3.10379h.02351l.82678,2.37131h-1.683Z" style="fill:#fff;fill-rule:evenodd"/></g></g></svg>