<svg xmlns="http://www.w3.org/2000/svg" viewBox="0 0 120.74539 31.64651"><g id="图层_2" data-name="图层 2"><g id="Layer_1" data-name="Layer 1"><path d="M38.33786,15.54393q-.05727-.14832-.18715-.48245l-3.30124-8.502H32.90576l.36725.96534-2.59014,7.23081a3.20037,3.20037,0,0,1-.44471.88831,1.91223,1.91223,0,0,1-.7815.55v.13573h2.91788v-.13573q-.78261-.12282-.96336-.40984a.81792.81792,0,0,1-.03333-.72368l.68263-1.93311H35.407l.738,1.93863q.36714.95144-.64422,1.128v.13573H39.0697v-.13573a1.059,1.059,0,0,1-.47538-.29221,1.21556,1.21556,0,0,1-.25646-.35775ZM32.305,12.43514h0l1.36569-3.86623,1.47207,3.86623Z" style="fill:#fff;fill-rule:evenodd"/><path d="M46.425,7.03505A2.69179,2.69179,0,0,1,49.24532,8.6903h.15316V6.83112A11.55334,11.55334,0,0,0,46.425,6.42371a5.35931,5.35931,0,0,0-3.72476,1.28248,4.77008,4.77008,0,0,0-1.42573,3.73867,4.76857,4.76857,0,0,0,1.42573,3.738A5.359,5.359,0,0,0,46.425,16.46469a11.56077,11.56077,0,0,0,2.97349-.40653l.15339-1.85874h-.15339q-.64356,1.65525-2.97349,1.65481-3.2645,0-3.26505-4.40937Q43.15994,7.03427,46.425,7.03505Z" style="fill:#fff;fill-rule:evenodd"/><path d="M59.29314,15.38613a1.001,1.001,0,0,1-.71264.25159h-3.158V11.702h3.18868v-.67822H55.4225V7.25155h3.11187a.90281.90281,0,0,1,.68991.27831,4.561,4.561,0,0,1,.64379,1.16044h.15272V6.55944H52.6174v.13595a2.2286,2.2286,0,0,1,.67424.31891.67725.67725,0,0,1,.25292.30545,1.67633,1.67633,0,0,1,.03862.42021v7.40913a1.67359,1.67359,0,0,1-.03862.42044.67693.67693,0,0,1-.25292.30523,2.21794,2.21794,0,0,1-.67424.31913v.13573h7.44974l.15316-2.1302h-.15316A5.38951,5.38951,0,0,1,59.29314,15.38613Z" style="fill:#fff;fill-rule:evenodd"/><path d="M76.48305,14.19942h-.15339a5.41622,5.41622,0,0,1-.77377,1.18671,1.00083,1.00083,0,0,1-.7133.25159H71.68525V11.702h3.18868v-.67822H71.68525V7.25155H74.7969a.90052.90052,0,0,1,.68947.27831,4.54994,4.54994,0,0,1,.64444,1.16044H76.284V6.55944H68.87992v.13595a2.22213,2.22213,0,0,1,.67446.31891.688.688,0,0,1,.25337.30545,1.71317,1.71317,0,0,1,.03818.42021v7.40913a1.71032,1.71032,0,0,1-.03818.42044.68766.68766,0,0,1-.25337.30523,2.21154,2.21154,0,0,1-.67446.31913v.13573h7.44974Z" style="fill:#fff;fill-rule:evenodd"/><path d="M83.42651,16.19389a2.21771,2.21771,0,0,1-.67424-.31913.6784.6784,0,0,1-.25293-.30523,1.64916,1.64916,0,0,1-.038-.42044V7.74a1.65175,1.65175,0,0,1,.038-.42021.67871.67871,0,0,1,.25293-.30545,2.22836,2.22836,0,0,1,.67424-.31891V6.55944H79.65606v.13595a2.24615,2.24615,0,0,1,.67446.31891.68549.68549,0,0,1,.2527.30545A1.71317,1.71317,0,0,1,80.6214,7.74v7.40913a1.71032,1.71032,0,0,1-.03818.42044.68517.68517,0,0,1-.2527.30523,2.23533,2.23533,0,0,1-.67446.31913v.13573h3.77045Z" style="fill:#fff;fill-rule:evenodd"/><path d="M91.68842,7.03505A2.6929,2.6929,0,0,1,94.5092,8.6903h.15338V6.83112a11.56209,11.56209,0,0,0-2.97416-.40741,5.361,5.361,0,0,0-3.725,1.28248,4.76977,4.76977,0,0,0-1.42506,3.73867,4.76826,4.76826,0,0,0,1.42506,3.738,5.36069,5.36069,0,0,0,3.725,1.28183,12.66412,12.66412,0,0,0,3.23437-.40653V12.97829a2.01189,2.01189,0,0,1,.03068-.41426.673.673,0,0,1,.21452-.29839,1.82366,1.82366,0,0,1,.56676-.31891v-.136H91.94929v.136a2.98642,2.98642,0,0,1,.79695.31891c.17325.11322.27345.21276.29839.29839a1.59352,1.59352,0,0,1,.03884.41426v2.71329a5.43713,5.43713,0,0,1-1.39505.16265q-3.26481,0-3.26437-4.40937Q88.424,7.03427,91.68842,7.03505Z" style="fill:#fff;fill-rule:evenodd"/><path d="M104.88675,6.69539a2.2328,2.2328,0,0,1,.68947.31891.67645.67645,0,0,1,.2527.30545,1.67412,1.67412,0,0,1,.03884.42021v3.2838h-4.39922V7.74a1.67025,1.67025,0,0,1,.03818-.42021.68094.68094,0,0,1,.2527-.30545,2.23825,2.23825,0,0,1,.67446-.31891V6.55944H98.66322v.13595a2.23825,2.23825,0,0,1,.67446.31891.68549.68549,0,0,1,.2527.30545,1.68077,1.68077,0,0,1,.03818.42021v7.40913a1.67806,1.67806,0,0,1-.03818.42044.68517.68517,0,0,1-.2527.30523,2.2275,2.2275,0,0,1-.67446.31913v.13573h3.77066v-.13573a2.2275,2.2275,0,0,1-.67446-.31913.68062.68062,0,0,1-.2527-.30523,1.66757,1.66757,0,0,1-.03818-.42044V11.702h4.39922v3.44711a1.03925,1.03925,0,0,1-.15316.62437,1.8424,1.8424,0,0,1-.82785.42043v.13573h3.78633v-.13573a2.21961,2.21961,0,0,1-.67446-.31913.6741.6741,0,0,1-.25336-.30523,1.67806,1.67806,0,0,1-.03818-.42044V7.74a1.68077,1.68077,0,0,1,.03818-.42021.67441.67441,0,0,1,.25336-.30545,2.23028,2.23028,0,0,1,.67446-.31891V6.55944h-3.78633Z" style="fill:#fff;fill-rule:evenodd"/><path d="M113.2098,7.25155h1.53276v7.89754a1.67359,1.67359,0,0,1-.03862.42044.67843.67843,0,0,1-.25292.30523,2.22583,2.22583,0,0,1-.67424.31913v.13573h3.77111v-.13573a2.21937,2.21937,0,0,1-.67446-.31913.67167.67167,0,0,1-.25271-.30523,1.64057,1.64057,0,0,1-.03884-.42044V7.25155h1.53277a.9104.9104,0,0,1,.68262.27831,4.38137,4.38137,0,0,1,.65107,1.16044h.15338V6.55944h-7.879V8.6903h.15339a4.1387,4.1387,0,0,1,.63628-1.16044A.92588.92588,0,0,1,113.2098,7.25155Z" style="fill:#fff;fill-rule:evenodd"/><path d="M33.67071,24.7948c-.01876-.047-.04811-.12337-.08872-.22908l-1.56653-4.0333h-.92209l.17391.45729-1.22886,3.431a1.5362,1.5362,0,0,1-.21076.42153.90482.90482,0,0,1-.371.26021v.06511h1.38445v-.06511q-.37143-.05727-.45729-.19377a.38975.38975,0,0,1-.01567-.34364l.32421-.917h1.58706l.35047.91966q.17446.45123-.30545.53476v.06511h1.693v-.06511a.4954.4954,0,0,1-.22533-.13816.56749.56749,0,0,1-.12139-.1695ZM30.808,23.31964h0l.64753-1.83446.6994,1.83446Z" style="fill:#fff;fill-rule:evenodd"/><path d="M36.17257,24.40747a1.42551,1.42551,0,0,1-.31582-.98476q0-1.24905.9958-1.24872a1.27268,1.27268,0,0,1,.83645.373l.02891-.01258.23262-.52173a4.15422,4.15422,0,0,0-1.06157-.12889,1.87977,1.87977,0,0,0-1.37077.47362,1.66248,1.66248,0,0,0-.48355,1.24563,1.588,1.588,0,0,0,.45111,1.18494,1.68476,1.68476,0,0,0,1.23548.444,1.29486,1.29486,0,0,0,1.31692-.73449v-.06378a1.65823,1.65823,0,0,1-.98167.32774A1.12206,1.12206,0,0,1,36.17257,24.40747Z" style="fill:#fff;fill-rule:evenodd"/><path d="M42.43053,26.223a.97714.97714,0,0,1-.01435-.19952V21.88377h-.07261l-.58176.264a1.86449,1.86449,0,0,0-.98234-.264,1.54283,1.54283,0,0,0-1.12734.4286,1.76156,1.76156,0,0,0-.43588,1.31007,1.83339,1.83339,0,0,0,.34142,1.20039,1.16521,1.16521,0,0,0,.94548.40918,1.38228,1.38228,0,0,0,.56742-.11631l.55286-.41845H41.638v1.32619a1.10529,1.10529,0,0,1-.0075.15449.31446.31446,0,0,1-.05451.11587.371.371,0,0,1-.16023.12249,1.98047,1.98047,0,0,1-.309.10329v.06378h1.72345v-.06378a.971.971,0,0,1-.29089-.1514.30184.30184,0,0,1-.1088-.14522ZM41.638,24.49134h0a1.49651,1.49651,0,0,1-.77841.27014.70419.70419,0,0,1-.61421-.27963,1.62626,1.62626,0,0,1-.20017-.92385q0-1.358.92385-1.35819a1.41775,1.41775,0,0,1,.66894.16067Z" style="fill:#fff;fill-rule:evenodd"/><path d="M47.17956,24.80672a.9691.9691,0,0,1-.015-.19973V21.94821H45.97961v.06445a.6395.6395,0,0,1,.28338.14522.35332.35332,0,0,1,.10881.16067.91653.91653,0,0,1,.015.19024v1.90553a1.52307,1.52307,0,0,1-.8508.25711q-.55251,0-.55307-.45663V21.94821H43.79821v.06445a.85688.85688,0,0,1,.232.09313.31773.31773,0,0,1,.124.136.501.501,0,0,1,.0437.13507,1.15962,1.15962,0,0,1,.0075.15074v1.82232a.80744.80744,0,0,0,.269.66012,1.13294,1.13294,0,0,0,.74133.222,1.41828,1.41828,0,0,0,.60361-.13573l.55242-.46347h.015l.03642.53476h1.156v-.06511a.94915.94915,0,0,1-.29088-.15074A.30242.30242,0,0,1,47.17956,24.80672Z" style="fill:#fff;fill-rule:evenodd"/><path d="M49.87718,24.80672a1.01285,1.01285,0,0,1-.01435-.19973V21.94821h-1.1856v.06445a.86369.86369,0,0,1,.23284.09313.31842.31842,0,0,1,.12381.136.48818.48818,0,0,1,.043.13507,1.15783,1.15783,0,0,1,.0075.15074V24.607a1.013,1.013,0,0,1-.01434.19973.30849.30849,0,0,1-.10572.145.895.895,0,0,1-.28713.15074v.06511h1.59964v-.06511a.93661.93661,0,0,1-.29022-.15074A.30466.30466,0,0,1,49.87718,24.80672Z" style="fill:#fff;fill-rule:evenodd"/><path d="M48.96812,21.09873a.35335.35335,0,0,0,.14213.29574.56963.56963,0,0,0,.35974.10947.558.558,0,0,0,.35268-.10947.3528.3528,0,0,0,.14147-.29574.34829.34829,0,0,0-.14147-.28977.562.562,0,0,0-.35268-.10947.58482.58482,0,0,0-.35974.10638A.34584.34584,0,0,0,48.96812,21.09873Z" style="fill:#fff;fill-rule:evenodd"/><path d="M53.51256,23.4653a3.37012,3.37012,0,0,0-.418-.209c-.1514-.06246-.29088-.12138-.41779-.17457a1.0393,1.0393,0,0,1-.32089-.20393.38921.38921,0,0,1-.12955-.28956.33606.33606,0,0,1,.14191-.28029.61608.61608,0,0,1,.38181-.10814,1.50922,1.50922,0,0,1,.8508.34076l.02935-.00618.23218-.52173a4.02635,4.02635,0,0,0-1.06863-.12889,1.46258,1.46258,0,0,0-.98962.27411.81292.81292,0,0,0-.30479.61487.77833.77833,0,0,0,.17766.51114,1.15226,1.15226,0,0,0,.43743.32906q.25987.11256.51291.22269a1.89474,1.89474,0,0,1,.431.25469.42728.42728,0,0,1,.179.33789.41588.41588,0,0,1-.18516.35643.85.85,0,0,1-.49879.13154A2.17572,2.17572,0,0,1,51.47,24.54254l-.02936.01325.102.54667a3.97122,3.97122,0,0,0,1.03287.12955,2.0635,2.0635,0,0,0,.65063-.0938,1.12342,1.12342,0,0,0,.43279-.24144,1.06269,1.06269,0,0,0,.226-.30214.72818.72818,0,0,0,.07239-.3092.9514.9514,0,0,0-.12624-.49614A.91155.91155,0,0,0,53.51256,23.4653Z" style="fill:#fff;fill-rule:evenodd"/><path d="M56.33465,24.80672a1.03053,1.03053,0,0,1-.01434-.19973V21.94821H55.13537v.06445a.8496.8496,0,0,1,.23217.09313.32024.32024,0,0,1,.12448.136.52946.52946,0,0,1,.043.13507,1.29165,1.29165,0,0,1,.0075.15074V24.607a.95362.95362,0,0,1-.015.19973.30626.30626,0,0,1-.105.145.9.9,0,0,1-.28713.15074v.06511H56.735v-.06511a.94927.94927,0,0,1-.29088-.15074A.30466.30466,0,0,1,56.33465,24.80672Z" style="fill:#fff;fill-rule:evenodd"/><path d="M56.28014,21.39447a.35164.35164,0,0,0,.14213-.29574.34715.34715,0,0,0-.14213-.28977.5615.5615,0,0,0-.35268-.10947.58617.58617,0,0,0-.35974.10638.347.347,0,0,0-.14147.29286.35453.35453,0,0,0,.14147.29574.57092.57092,0,0,0,.35974.10947A.55753.55753,0,0,0,56.28014,21.39447Z" style="fill:#fff;fill-rule:evenodd"/><path d="M58.97467,24.54254V22.21217h.81461v-.264h-.81461v-.64378h-.07261l-.59611.60494-.50916.23835v.06445h.40035v2.33037a.62791.62791,0,0,0,.20393.53432.91463.91463,0,0,0,.56676.15515,2.4,2.4,0,0,0,.84329-.17457v-.06379a1.58866,1.58866,0,0,1-.67931-.07437C59.0272,24.861,58.97467,24.73588,58.97467,24.54254Z" style="fill:#fff;fill-rule:evenodd"/><path d="M61.64426,20.69949a.5855.5855,0,0,0-.3604.10638.34566.34566,0,0,0-.14191.29286.35317.35317,0,0,0,.14191.29574.57029.57029,0,0,0,.3604.10947.55969.55969,0,0,0,.35268-.10947.354.354,0,0,0,.14147-.29574.34945.34945,0,0,0-.14147-.28977A.56369.56369,0,0,0,61.64426,20.69949Z" style="fill:#fff;fill-rule:evenodd"/><path d="M62.05145,24.80672a.96926.96926,0,0,1-.015-.19973V21.94821H60.85084v.06445a.86626.86626,0,0,1,.23351.09313.31821.31821,0,0,1,.12315.136.49521.49521,0,0,1,.04392.13507,1.22341,1.22341,0,0,1,.00684.15074V24.607a1.03036,1.03036,0,0,1-.01435.19973.31087.31087,0,0,1-.10593.145.88316.88316,0,0,1-.28714.15074v.06511H62.4507v-.06511a.93828.93828,0,0,1-.29044-.15074A.30249.30249,0,0,1,62.05145,24.80672Z" style="fill:#fff;fill-rule:evenodd"/><path d="M65.35291,21.88377A1.52136,1.52136,0,0,0,63.65043,23.558a1.70762,1.70762,0,0,0,.42551,1.23,1.77472,1.77472,0,1,0,1.277-2.90419Zm0,3.071h0a.73708.73708,0,0,1-.64378-.35091,1.96234,1.96234,0,0,1-.23725-1.08474A1.81235,1.81235,0,0,1,64.701,22.47a.76327.76327,0,0,1,.65195-.309.736.736,0,0,1,.64246.354,1.97268,1.97268,0,0,1,.23637,1.08165Q66.23174,24.95559,65.35291,24.95481Z" style="fill:#fff;fill-rule:evenodd"/><path d="M71.6645,24.80672a.9691.9691,0,0,1-.015-.19973V22.76591a.80654.80654,0,0,0-.269-.66012,1.12085,1.12085,0,0,0-.73449-.222,1.44248,1.44248,0,0,0-.61046.13506l-.55241.4637h-.015v-.53432h-1.1856v.06445a.852.852,0,0,1,.23284.09313.31854.31854,0,0,1,.12381.136.49326.49326,0,0,1,.0437.13507,1.17373,1.17373,0,0,1,.00706.15074V24.607a1.00907,1.00907,0,0,1-.01457.19973.30853.30853,0,0,1-.10571.145.88785.88785,0,0,1-.28713.15074v.06511h1.59963v-.06511a.94719.94719,0,0,1-.29022-.15074.29807.29807,0,0,1-.1088-.145.95362.95362,0,0,1-.015-.19973V22.70146a1.52325,1.52325,0,0,1,.8508-.25778q.55286,0,.55241.45729v1.706a1.41181,1.41181,0,0,1-.00993.19973.30624.30624,0,0,1-.08762.145.73254.73254,0,0,1-.23592.15074v.06511h1.52658v-.06511a.94273.94273,0,0,1-.2911-.15074A.30389.30389,0,0,1,71.6645,24.80672Z" style="fill:#fff;fill-rule:evenodd"/><path d="M78.144,24.94245q-1.54932,0-1.54909-2.09268,0-2.0919,1.54909-2.092a1.27827,1.27827,0,0,1,1.33877.785h.072v-.88214A5.51194,5.51194,0,0,0,78.144,20.468a2.54278,2.54278,0,0,0-1.76737.60825,2.26388,2.26388,0,0,0-.67578,1.77355,2.26355,2.26355,0,0,0,.67578,1.77355A2.543,2.543,0,0,0,78.144,25.232a5.48422,5.48422,0,0,0,1.41072-.19333l.073-.88214h-.073A1.33713,1.33713,0,0,1,78.144,24.94245Z" style="fill:#fff;fill-rule:evenodd"/><path d="M82.609,21.88377a1.68839,1.68839,0,0,0-1.27631.44493A1.679,1.679,0,0,0,82.609,25.232a1.68291,1.68291,0,0,0,1.26991-.444,1.99024,1.99024,0,0,0,0-2.45926,1.67983,1.67983,0,0,0-1.26991-.44493Zm0,3.071h0a.73677.73677,0,0,1-.64312-.35091A1.9635,1.9635,0,0,1,81.73,23.51916,1.813,1.813,0,0,1,81.95841,22.47a.76243.76243,0,0,1,.65062-.309.73681.73681,0,0,1,.64356.354,1.96466,1.96466,0,0,1,.23659,1.08165Q83.48918,24.95559,82.609,24.95481Z" style="fill:#fff;fill-rule:evenodd"/><path d="M87.12522,22.0451l-.38468.55991h-.015v-.6568H85.53993v.06445a.85014.85014,0,0,1,.23262.09313.31761.31761,0,0,1,.124.136.50062.50062,0,0,1,.0437.13507,1.17874,1.17874,0,0,1,.00685.15074v2.04082a1.27326,1.27326,0,0,1-.01435.22577.31294.31294,0,0,1-.10572.15383.83409.83409,0,0,1-.28713.15449v.06511h1.74552v-.06511a2.1411,2.1411,0,0,1-.32354-.10263.35487.35487,0,0,1-.16707-.12557.3838.3838,0,0,1-.058-.12823.99045.99045,0,0,1-.01125-.17766v-1.738a1.12057,1.12057,0,0,1,.76384-.296,1.35315,1.35315,0,0,1,.34893.03884l.254-.6376a1.32936,1.32936,0,0,0-.414-.05186A.92689.92689,0,0,0,87.12522,22.0451Z" style="fill:#fff;fill-rule:evenodd"/><path d="M91.37172,21.88377a1.38141,1.38141,0,0,0-.56676.11631l-.55992.41866H90.23v-.47053H89.03759v.06445a.6151.6151,0,0,1,.29089.14831.3702.3702,0,0,1,.10968.16773,1.02358,1.02358,0,0,1,.01435.19885v3.49589a.5367.5367,0,0,1-.06511.296.76588.76588,0,0,1-.34981.20018v.06378h1.72367v-.06378a1.37442,1.37442,0,0,1-.37475-.1514.32862.32862,0,0,1-.13838-.14522.82054.82054,0,0,1-.01809-.19952v-3.3926a1.412,1.412,0,0,1,.79341-.27654.68915.68915,0,0,1,.59987.27963,1.676,1.676,0,0,1,.20017.94327q0,1.403-.93091,1.40343a1.36582,1.36582,0,0,1-.51666-.10328v.09688a1.27045,1.27045,0,0,0,.8433.25778,1.35938,1.35938,0,0,0,1.04038-.41845,1.7751,1.7751,0,0,0,.39218-1.25556,1.98783,1.98783,0,0,0-.33414-1.24872A1.13429,1.13429,0,0,0,91.37172,21.88377Z" style="fill:#fff;fill-rule:evenodd"/><path d="M95.69921,21.88377A1.52126,1.52126,0,0,0,93.99739,23.558a1.52022,1.52022,0,0,0,1.70182,1.674,1.68031,1.68031,0,0,0,1.26925-.444,1.98943,1.98943,0,0,0,0-2.45926,1.67723,1.67723,0,0,0-1.26925-.44493Zm0,3.071h0a.73861.73861,0,0,1-.64378-.35091,1.96927,1.96927,0,0,1-.23593-1.08474A1.81226,1.81226,0,0,1,95.04859,22.47a.76243.76243,0,0,1,.65062-.309.73745.73745,0,0,1,.64379.354,1.97268,1.97268,0,0,1,.23637,1.08165Q96.57937,24.95559,95.69921,24.95481Z" style="fill:#fff;fill-rule:evenodd"/><path d="M100.2154,22.0451l-.38534.55991h-.01434v-.6568H98.63011v.06445a.85014.85014,0,0,1,.23262.09313.3177.3177,0,0,1,.124.136.5009.5009,0,0,1,.04369.13507,1.31555,1.31555,0,0,1,.00685.15074v2.04082a1.27326,1.27326,0,0,1-.01435.22577.31294.31294,0,0,1-.10572.15383.8405.8405,0,0,1-.28713.15449v.06511h1.74552v-.06511a2.14938,2.14938,0,0,1-.32354-.10263.36065.36065,0,0,1-.16774-.12557A.38474.38474,0,0,1,99.827,24.746a.99045.99045,0,0,1-.01125-.17766v-1.738a1.121,1.121,0,0,1,.76384-.296,1.35073,1.35073,0,0,1,.34849.03884l.25446-.6376a1.32936,1.32936,0,0,0-.414-.05186A.92736.92736,0,0,0,100.2154,22.0451Z" style="fill:#fff;fill-rule:evenodd"/><path d="M105.03749,24.80672a.97884.97884,0,0,1-.01435-.19973V22.83035a.80344.80344,0,0,0-.33833-.72456,1.82248,1.82248,0,0,0-.99293-.222,4.11062,4.11062,0,0,0-1.06841.14831l-.21916.50849.02207.01942a3.4607,3.4607,0,0,1,1.14168-.19951q.684,0,.68373.58552v.41227l-1.13418.21209q-.917.17479-.91656.83094a.785.785,0,0,0,.25093.59235.98908.98908,0,0,0,.70867.23836,1.284,1.284,0,0,0,.64-.14831l.45111-.41845.03686.50232h1.14875v-.06511a.93106.93106,0,0,1-.29089-.15074.2988.2988,0,0,1-.109-.145Zm-.7857-.341h0a1.10038,1.10038,0,0,1-.67622.277.53674.53674,0,0,1-.42551-.14809.54435.54435,0,0,1-.12757-.36725.41719.41719,0,0,1,.35665-.43742l.87265-.25138Z" style="fill:#fff;fill-rule:evenodd"/><path d="M107.65521,24.54254V22.21217h.81439v-.264h-.81439v-.64378h-.07261l-.59633.60494-.50915.23835v.06445h.39968v2.33037a.62791.62791,0,0,0,.20393.53432.918.918,0,0,0,.567.15515,2.3993,2.3993,0,0,0,.84374-.17457v-.06379a1.59172,1.59172,0,0,1-.68-.07437C107.70708,24.861,107.65521,24.73588,107.65521,24.54254Z" style="fill:#fff;fill-rule:evenodd"/><path d="M109.96484,20.80587a.34455.34455,0,0,0-.14257.29286.352.352,0,0,0,.14257.29574.56749.56749,0,0,0,.35974.10947.56076.56076,0,0,0,.3529-.10947.35435.35435,0,0,0,.14125-.29574.34984.34984,0,0,0-.14125-.28977.56478.56478,0,0,0-.3529-.10947A.5826.5826,0,0,0,109.96484,20.80587Z" style="fill:#fff;fill-rule:evenodd"/><path d="M110.73178,24.80672a.9691.9691,0,0,1-.015-.19973V21.94821h-1.18538v.06445a.86752.86752,0,0,1,.23328.09313.31821.31821,0,0,1,.12315.136.49486.49486,0,0,1,.04392.13507,1.18093,1.18093,0,0,1,.00684.15074V24.607a1.03036,1.03036,0,0,1-.01435.19973.3101.3101,0,0,1-.10571.145.88785.88785,0,0,1-.28713.15074v.06511h1.6003v-.06511a.93876.93876,0,0,1-.29089-.15074A.2988.2988,0,0,1,110.73178,24.80672Z" style="fill:#fff;fill-rule:evenodd"/><path d="M114.03323,21.88377a1.68934,1.68934,0,0,0-1.277.44493,1.679,1.679,0,0,0,1.277,2.90331,1.6797,1.6797,0,0,0,1.26859-.444,1.98943,1.98943,0,0,0,0-2.45926,1.67663,1.67663,0,0,0-1.26859-.44493Zm0,3.071h0a.73918.73918,0,0,1-.64444-.35091,1.9718,1.9718,0,0,1-.23527-1.08474A1.813,1.813,0,0,1,113.382,22.47a.7631.7631,0,0,1,.65128-.309.73634.73634,0,0,1,.64312.354,1.97268,1.97268,0,0,1,.23637,1.08165Q114.91272,24.95559,114.03323,24.95481Z" style="fill:#fff;fill-rule:evenodd"/><path d="M120.45451,24.95172a.30769.30769,0,0,1-.109-.145,1.03134,1.03134,0,0,1-.01434-.19973V22.76591a.80692.80692,0,0,0-.2697-.66012,1.12017,1.12017,0,0,0-.73427-.222,1.44269,1.44269,0,0,0-.61067.13506l-.55242.4637h-.015v-.53432h-1.1856v.06445a.8519.8519,0,0,1,.23284.09313.31842.31842,0,0,1,.12381.136.48545.48545,0,0,1,.0437.13507,1.17157,1.17157,0,0,1,.00707.15074V24.607a1.00907,1.00907,0,0,1-.01457.19973.30849.30849,0,0,1-.10572.145.88535.88535,0,0,1-.28713.15074v.06511h1.6003v-.06511a.95667.95667,0,0,1-.29154-.15074.3002.3002,0,0,1-.10815-.145.9691.9691,0,0,1-.015-.19973V22.70146a1.52327,1.52327,0,0,1,.8508-.25778q.55286,0,.55242.45729v1.706a1.41181,1.41181,0,0,1-.00993.19973.30641.30641,0,0,1-.08762.145.72909.72909,0,0,1-.23659.15074v.06511h1.52724v-.06511A.93881.93881,0,0,1,120.45451,24.95172Z" style="fill:#fff;fill-rule:evenodd"/><path d="M7.65168,15.873V7.81632l-3.2198,3.03684A14.13557,14.13557,0,0,0,0,21.11485v9.41728A1.07927,1.07927,0,0,0,.667,31.55,1.0773,1.0773,0,0,0,1.868,31.33857l10.37446-9.77813L8.6402,18.16585A3.15754,3.15754,0,0,1,7.65168,15.873Z" style="fill:#fff;fill-rule:evenodd"/><path d="M13.34045,3.08738l-.44669-.42044-.324-.30589-.32664-.30721L10.37954.29839A1.055,1.055,0,0,0,9.6424,0,1.08485,1.08485,0,0,0,8.54574,1.09291V15.6684a2.2661,2.2661,0,0,0,.70889,1.6429l3.19177,3.0066.44736.42176.44669.42021,5.69981,5.369a1.10844,1.10844,0,0,0,1.86823-.80821v-9.4153A14.14134,14.14134,0,0,0,16.47661,6.04145Z" style="fill:#fff;fill-rule:evenodd"/></g></g></svg>