<svg xmlns="http://www.w3.org/2000/svg" viewBox="0 0 112.9105 27.58419"><g id="图层_2" data-name="图层 2"><g id="Layer_1" data-name="Layer 1"><path d="M.59824,14.53166v-1.164l1.17062-1.04709V11.15675L11.3995,2.542l9.63073,8.61476v1.16383l1.17054,1.04709v1.164L11.3995,4.86982Zm0,4.67035v-1.1638L3.38453,15.546v-1.164l8.015-7.16954,8.015,7.16954v1.164l2.78628,2.49226V19.202L11.3995,9.54036Zm0,4.6707v-1.1638l4.40209-3.93778v-1.164l6.39917-5.72422,6.39916,5.72422v1.164l4.40211,3.93778v1.1638L11.3995,14.2109Zm14.36318,1.71623H13.7896L11.3995,23.451l-2.39,2.13793H7.83757L9.5373,24.06846v-1.164l1.8622-1.66566,1.86219,1.66566v1.164Zm5.23784,0H18.8815l-7.482-6.69265-7.482,6.69265H2.59982l4.48472-4.01173V20.41333l4.315-3.85991,4.315,3.85991v1.16388ZM22.799,27.58419v-17.387Q17.09926,5.09875,11.3995,0,5.70072,5.0997,0,10.19723v17.387Z" style="fill:#b3955b;fill-rule:evenodd"/><path d="M42.16354,23.28263V11.30828a.87869.87869,0,0,0-.56227-.93163q-.56241-.20436-.56255-.49973,0-.23869.22725-.2387H44.163a.211.211,0,0,1,.2387.2387q0,.29565-.56813.49973a.87812.87812,0,0,0-.56813.93163L43.2543,26.07751l-2.01094-.48857L30.35977,12.08077V23.93033a.87633.87633,0,0,0,.56785.93721q.56827.19891.56814.4827a.2109.2109,0,0,1-.23842.2387h-2.8859a.2109.2109,0,0,1-.23842-.2387q0-.2835.56814-.4827a.87635.87635,0,0,0,.56785-.93721V11.30828a.87826.87826,0,0,0-.56785-.93163q-.56827-.20436-.56814-.49973a.2109.2109,0,0,1,.23842-.2387h2.92Z" style="fill:#fff"/><path d="M56.229,20.3744a5.1753,5.1753,0,0,1-1.61869,3.8513,5.71954,5.71954,0,0,1-3.97079,1.64717h-.18174a5.13934,5.13934,0,0,1-3.78877-1.636,5.36657,5.36657,0,0,1-1.60752-3.89653v-.03406a5.4611,5.4611,0,0,1,1.87442-4.181,1.77633,1.77633,0,0,1,.64211-.35205q.42589-.1474,1.09607-.392.67045-.24414,1.25548-.44892a3.03816,3.03816,0,0,1,.94865-.20436h.03406a5.28366,5.28366,0,0,1,3.74912,1.71,5.55762,5.55762,0,0,1,1.5676,3.86833Zm-5.69166-4.88511a2.84088,2.84088,0,0,0-2.3119,1.32332,5.40277,5.40277,0,0,0-.98271,3.31193,5.9765,5.9765,0,0,0,.99416,3.44788,3.07107,3.07107,0,0,0,2.41408,1.528H50.81a2.821,2.821,0,0,0,2.29487-1.31774,5.39961,5.39961,0,0,0,.97685-3.30606A5.953,5.953,0,0,0,53.082,17.0287a3.11337,3.11337,0,0,0-2.4085-1.53941Z" style="fill:#fff"/><path d="M60.58111,18.82914v5.10119a.877.877,0,0,0,.56255.93721q.56241.19891.56227.4827,0,.23871-.22726.2387h-3.8513a.21078.21078,0,0,1-.23842-.2387q0-.2835.56785-.4827a.87652.87652,0,0,0,.56814-.93721v-7.271a.86935.86935,0,0,0-.56814-.92018q-.56826-.20436-.56785-.5a.21059.21059,0,0,1,.23842-.23842,6.83773,6.83773,0,0,0,1.48273-.23312q.73243-.19849,1.471-.44864v1.49976l1.57932-.6022q.8744-.32957,1.36324-.48856a1.2085,1.2085,0,0,1,.352-.04551,3.38418,3.38418,0,0,1,1.06815.22725l-.25015,2.85156h-.52263Q63.728,16.10293,62.467,16.10265c-.08319,0-.16667.00391-.24986.01145a1.47465,1.47465,0,0,0-1.23259.88054A4.59492,4.59492,0,0,0,60.58111,18.82914Z" style="fill:#fff"/><path d="M82.00768,17.44328a1.38916,1.38916,0,0,0,.10218-.5511,1.1106,1.1106,0,0,0-.318-.68734l-.37494-.44307,1.01091-.80655a.18623.18623,0,0,1,.13652-.057.26961.26961,0,0,1,.1703.07956l.63625.6477a.62978.62978,0,0,1,.1932.43748,2.03246,2.03246,0,0,1-.12508.60778,10.24227,10.24227,0,0,1-.47712,1.10193l-3.4878,7.79361a.79232.79232,0,0,1-.11363.17588.16756.16756,0,0,1-.12479.06254h-.95452a.14163.14163,0,0,1-.11921-.05109.77232.77232,0,0,1-.09074-.19319,2.04914,2.04914,0,0,0-.08543-.21023L75.39556,19.17l-2.86272,6.39631a.80244.80244,0,0,1-.11363.17588.16762.16762,0,0,1-.12507.06254H71.3399a.14129.14129,0,0,1-.11921-.05109.761.761,0,0,1-.091-.19319q-.05109-.142-.074-.21023l-3.71479-8.85a1.42965,1.42965,0,0,0-.49415-.63039,3.72171,3.72171,0,0,0-.53407-.301,2.24589,2.24589,0,0,1-.34088-.17616A.3908.3908,0,0,1,65.83,15.245a.301.301,0,0,1-.03434-.108.21547.21547,0,0,1,.01144-.06812.13351.13351,0,0,1,.12508-.057h3.72622a.38332.38332,0,0,1,.18175.057.44451.44451,0,0,1,.11363.13065.27823.27823,0,0,1,.02289.11363q0,.0624-.25015.28979a1.03924,1.03924,0,0,0-.28392.335.77317.77317,0,0,0-.03406.23284.65409.65409,0,0,0,.06812.27275l2.97663,7.25955L74.87294,17.909l-.59075-1.40875a1.42581,1.42581,0,0,0-.49415-.63039,3.7205,3.7205,0,0,0-.53379-.301,2.28879,2.28879,0,0,1-.35791-.18761c-.08348-.05667-.13066-.10581-.14211-.14769a.3917.3917,0,0,1-.017-.09659.2076.2076,0,0,1,.01145-.06812.133.133,0,0,1,.12479-.057H76.6a.38425.38425,0,0,1,.18175.057.44867.44867,0,0,1,.11362.13065.278.278,0,0,1,.02262.11363q0,.0624-.24987.28979a1.03946,1.03946,0,0,0-.28393.335.76476.76476,0,0,0-.03406.23284.65424.65424,0,0,0,.06812.27275l2.97635,7.25955Z" style="fill:#fff"/><path d="M88.143,23.93033a.87634.87634,0,0,0,.56786.93721q.56827.19891.56813.46009,0,.26132-.22725.26131H85.2004q-.23829,0-.23842-.26131,0-.26131.56785-.46009a.8762.8762,0,0,0,.56813-.93721v-7.271a.869.869,0,0,0-.56813-.92018q-.56827-.20436-.56785-.5a.2107.2107,0,0,1,.23842-.23842,6.83773,6.83773,0,0,0,1.48273-.23312q.73242-.19849,1.45983-.44864ZM86.89335,9.68373A1.10462,1.10462,0,0,1,88.143,10.93334a1.2498,1.2498,0,1,1-2.4995,0A1.10459,1.10459,0,0,1,86.89335,9.68373Z" style="fill:#fff"/><path d="M96.0396,14.728a6.18217,6.18217,0,0,1,3.40824.99974l-.19292,1.91993q-.023.14783-.13652.14769h-.02261c-.091-.00726-.16667-.0832-.22725-.227a3.09557,3.09557,0,0,0-1.18708-1.42577,3.40873,3.40873,0,0,0-1.7781-.43748H95.6306a2.8526,2.8526,0,0,0-1.88587.68148,4.32917,4.32917,0,0,0-1.21555,3.30606q0,.32958.03406.69293a5.0996,5.0996,0,0,0,.92018,2.77227,3.72373,3.72373,0,0,0,2.36326,1.6131,4.3846,4.3846,0,0,0,.44306.02262,3.71054,3.71054,0,0,0,1.95957-.50532,3.456,3.456,0,0,1,1.02264-.5056,1.6498,1.6498,0,0,1,.244.01117.52509.52509,0,0,1,.02289.182,1.00466,1.00466,0,0,1-.15327.40313,1.77939,1.77939,0,0,1-.36936.47154A5.19757,5.19757,0,0,1,95.642,25.87287a5.46277,5.46277,0,0,1-3.55592-1.17,5.16766,5.16766,0,0,1-1.69268-4.18073,10.40959,10.40959,0,0,1,.09074-1.32918,5.23856,5.23856,0,0,1,2.60168-3.72651,5.959,5.959,0,0,1,2.71532-.73843Z" style="fill:#fff"/><path d="M104.11714,23.93033a.8762.8762,0,0,0,.56813.93721q.56785.19891.56786.46009,0,.26132-.22726.26131h-3.8513q-.23828,0-.23842-.26131,0-.26131.56814-.46009a.87635.87635,0,0,0,.56785-.93721V11.30828a.87826.87826,0,0,0-.56785-.93163q-.56827-.20436-.56814-.49973a.2109.2109,0,0,1,.23842-.2387,7.05544,7.05544,0,0,0,1.48273-.227q.73285-.19307,1.45984-.44334v6.93038q.62481-.23869,1.10193-.42044.47739-.18175,1.21555-.43748a6.04148,6.04148,0,0,1,1.3691-.318q.63067-.06238.77808-.06253a2.98257,2.98257,0,0,1,1.81775.6477q1.37483,1.05655,1.37468,4.53278v4.09a.87621.87621,0,0,0,.56814.93721q.56785.19891.56813.46009,0,.26132-.22725.26131h-2.76082q-.19305,0-.1932-.14768V19.84033a4.79321,4.79321,0,0,0-1.0338-3.499,2.21263,2.21263,0,0,0-1.61311-.6477,3.0542,3.0542,0,0,0-.99416.15355q-.44893.15327-.82917.29538-.38109.142-.65328.244-.27263.1026-.48857.182Z" style="fill:#fff"/></g></g></svg>